%TF.GenerationSoftware,KiCad,Pcbnew,7.0.7*%
%TF.CreationDate,2024-03-09T11:29:05+01:00*%
%TF.ProjectId,button-board,62757474-6f6e-42d6-926f-6172642e6b69,rev?*%
%TF.SameCoordinates,Original*%
%TF.FileFunction,Copper,L1,Top*%
%TF.FilePolarity,Positive*%
%FSLAX46Y46*%
G04 Gerber Fmt 4.6, Leading zero omitted, Abs format (unit mm)*
G04 Created by KiCad (PCBNEW 7.0.7) date 2024-03-09 11:29:05*
%MOMM*%
%LPD*%
G01*
G04 APERTURE LIST*
G04 Aperture macros list*
%AMFreePoly0*
4,1,119,0.491939,2.480672,0.980844,2.422806,1.463702,2.326759,1.937537,2.193124,2.399425,2.022725,2.846520,1.816611,3.276066,1.576054,3.685414,1.302537,4.072039,0.997745,4.433560,0.663560,4.767745,0.302039,5.072537,-0.084586,5.346054,-0.493934,5.586611,-0.923480,5.792725,-1.370575,5.963124,-1.832463,6.096759,-2.306298,6.192806,-2.789156,6.250672,-3.278061,6.270000,-3.770000,
6.250672,-4.261939,6.192806,-4.750844,6.096759,-5.233702,5.963124,-5.707537,5.792725,-6.169425,5.586611,-6.616520,5.346054,-7.046066,5.072537,-7.455414,4.767745,-7.842039,4.433560,-8.203560,4.072039,-8.537745,3.685414,-8.842537,3.276066,-9.116054,2.846520,-9.356611,2.399425,-9.562725,1.937537,-9.733124,1.463702,-9.866759,0.980844,-9.962806,0.491939,-10.020672,0.000000,-10.040000,
-0.491939,-10.020672,-0.980844,-9.962806,-1.463702,-9.866759,-1.937537,-9.733124,-2.399425,-9.562725,-2.846520,-9.356611,-3.276066,-9.116054,-3.685414,-8.842537,-4.072039,-8.537745,-4.433560,-8.203560,-4.767745,-7.842039,-5.072537,-7.455414,-5.346054,-7.046066,-5.586611,-6.616520,-5.792725,-6.169425,-5.963124,-5.707537,-6.096759,-5.233702,-6.192806,-4.750844,-6.250672,-4.261939,-6.270000,-3.770000,
-1.274851,-3.770000,-1.255483,-3.991376,-1.197968,-4.206025,-1.104053,-4.407426,-0.976593,-4.589458,-0.819458,-4.746593,-0.637426,-4.874053,-0.436025,-4.967968,-0.221376,-5.025483,0.000000,-5.044851,0.221376,-5.025483,0.436025,-4.967968,0.637426,-4.874053,0.819458,-4.746593,0.976593,-4.589458,1.104053,-4.407426,1.197968,-4.206025,1.255483,-3.991376,1.274851,-3.770000,1.255483,-3.548624,
1.197968,-3.333975,1.104053,-3.132575,0.976593,-2.950542,0.819458,-2.793407,0.637426,-2.665947,0.436025,-2.572032,0.221376,-2.514517,0.000000,-2.495149,-0.221376,-2.514517,-0.436025,-2.572032,-0.637425,-2.665947,-0.819458,-2.793407,-0.976593,-2.950542,-1.104053,-3.132575,-1.197968,-3.333975,-1.255483,-3.548624,-1.274851,-3.770000,-6.270000,-3.770000,-6.250672,-3.278061,-6.192806,-2.789156,
-6.096759,-2.306298,-5.963124,-1.832463,-5.792725,-1.370575,-5.586611,-0.923480,-5.346054,-0.493934,-5.072537,-0.084586,-4.767745,0.302039,-4.433560,0.663560,-4.072039,0.997745,-3.685414,1.302537,-3.276066,1.576054,-2.846520,1.816611,-2.399425,2.022725,-1.937537,2.193124,-1.463702,2.326759,-0.980844,2.422806,-0.491939,2.480672,0.000000,2.500000,0.491939,2.480672,0.491939,2.480672,
$1*%
%AMFreePoly1*
4,1,117,0.671166,1.398749,1.112605,1.318640,1.545085,1.199283,1.965125,1.041639,2.369343,0.846978,2.754485,0.616866,3.117449,0.353157,3.455313,0.057974,3.765357,-0.266306,4.045085,-0.617074,4.292244,-0.991504,4.504844,-1.386581,4.681174,-1.799126,4.819814,-2.225816,4.919648,-2.663216,4.979871,-3.107803,5.000000,-3.556000,4.979871,-4.004197,4.919648,-4.448784,4.819814,-4.886184,
4.681174,-5.312874,4.504844,-5.725419,4.292244,-6.120496,4.045085,-6.494926,3.765357,-6.845694,3.455313,-7.169974,3.117449,-7.465157,2.754485,-7.728866,2.369343,-7.958978,1.965125,-8.153639,1.545085,-8.311283,1.112605,-8.430640,0.671166,-8.510749,0.224324,-8.550965,-0.224324,-8.550965,-0.671166,-8.510749,-1.112605,-8.430640,-1.545085,-8.311283,-1.965125,-8.153639,-2.369343,-7.958978,
-2.754485,-7.728866,-3.117449,-7.465157,-3.455313,-7.169974,-3.765357,-6.845694,-4.045085,-6.494926,-4.292244,-6.120496,-4.504844,-5.725419,-4.681174,-5.312874,-4.819814,-4.886184,-4.919648,-4.448784,-4.979871,-4.004197,-5.000000,-3.556000,-2.005109,-3.556000,-1.984700,-3.841357,-1.923888,-4.120904,-1.823911,-4.388952,-1.686805,-4.640044,-1.515360,-4.869067,-1.313067,-5.071360,-1.084044,-5.242805,
-0.832952,-5.379911,-0.564904,-5.479888,-0.285357,-5.540700,0.000000,-5.561109,0.285357,-5.540700,0.564904,-5.479888,0.832952,-5.379911,1.084044,-5.242805,1.313067,-5.071360,1.515360,-4.869067,1.686805,-4.640044,1.823911,-4.388952,1.923888,-4.120904,1.984700,-3.841357,2.005109,-3.556000,1.984700,-3.270643,1.923888,-2.991096,1.823911,-2.723048,1.686805,-2.471956,1.515360,-2.242933,
1.313067,-2.040640,1.084044,-1.869195,0.832952,-1.732089,0.564904,-1.632112,0.285357,-1.571300,0.000000,-1.550891,-0.285357,-1.571300,-0.564904,-1.632112,-0.832952,-1.732089,-1.084044,-1.869195,-1.313067,-2.040640,-1.515360,-2.242933,-1.686805,-2.471956,-1.823911,-2.723048,-1.923888,-2.991096,-1.984700,-3.270643,-2.005109,-3.556000,-5.000000,-3.556000,-4.979871,-3.107803,-4.919648,-2.663216,
-4.819814,-2.225816,-4.681174,-1.799126,-4.504844,-1.386581,-4.292244,-0.991504,-4.045085,-0.617074,-3.765357,-0.266306,-3.455313,0.057974,-3.117449,0.353157,-2.754485,0.616866,-2.369343,0.846978,-1.965125,1.041639,-1.545085,1.199283,-1.112605,1.318640,-0.671166,1.398749,-0.224324,1.438965,0.224324,1.438965,0.671166,1.398749,0.671166,1.398749,$1*%
%AMFreePoly2*
4,1,149,0.820284,1.955007,1.362276,1.875243,1.897000,1.756128,2.421603,1.598298,2.933285,1.402596,3.429317,1.170066,3.907053,0.901948,4.363942,0.599673,4.797548,0.264854,5.205556,-0.100724,5.585791,-0.495109,5.936224,-0.916197,6.254984,-1.361742,6.540371,-1.829366,6.790862,-2.316575,7.005121,-2.820768,7.182004,-3.339257,7.320569,-3.869274,7.420075,-4.407991,7.479992,-4.952535,
7.500000,-5.500000,7.479992,-6.047465,7.420075,-6.592009,7.320569,-7.130726,7.182004,-7.660743,7.005121,-8.179232,6.790862,-8.683425,6.540371,-9.170634,6.254984,-9.638258,5.936224,-10.083803,5.585791,-10.504891,5.205556,-10.899276,4.797548,-11.264854,4.363942,-11.599673,3.907053,-11.901948,3.429317,-12.170066,2.933285,-12.402596,2.421603,-12.598298,1.897000,-12.756128,1.362276,-12.875243,
0.820284,-12.955007,0.273915,-12.994996,-0.273915,-12.994996,-0.820284,-12.955007,-1.362276,-12.875243,-1.897000,-12.756128,-2.421603,-12.598298,-2.933285,-12.402596,-3.429317,-12.170066,-3.907053,-11.901948,-4.363942,-11.599673,-4.797548,-11.264854,-5.205556,-10.899276,-5.585791,-10.504891,-5.936224,-10.083803,-6.254984,-9.638258,-6.540371,-9.170634,-6.790862,-8.683425,-7.005121,-8.179232,-7.182004,-7.660743,
-7.320569,-7.130726,-7.420075,-6.592009,-7.479992,-6.047465,-7.500000,-5.500000,-3.504803,-5.500000,-3.485603,-5.866352,-3.428215,-6.228690,-3.333266,-6.583044,-3.201797,-6.925532,-3.035248,-7.252402,-2.835445,-7.560072,-2.604576,-7.845171,-2.345171,-8.104576,-2.060072,-8.335445,-1.752402,-8.535248,-1.425532,-8.701797,-1.083044,-8.833266,-0.728690,-8.928215,-0.366352,-8.985603,0.000000,-9.004803,
0.366352,-8.985603,0.728690,-8.928215,1.083044,-8.833266,1.425532,-8.701797,1.752402,-8.535248,2.060072,-8.335445,2.345171,-8.104576,2.604576,-7.845171,2.835445,-7.560072,3.035248,-7.252402,3.201797,-6.925532,3.333266,-6.583044,3.428215,-6.228690,3.485603,-5.866352,3.504803,-5.500000,3.485603,-5.133648,3.428215,-4.771310,3.333266,-4.416956,3.201797,-4.074468,3.035248,-3.747599,
2.835445,-3.439928,2.604576,-3.154829,2.345171,-2.895424,2.060072,-2.664555,1.752402,-2.464752,1.425532,-2.298203,1.083044,-2.166734,0.728690,-2.071785,0.366352,-2.014397,0.000000,-1.995197,-0.366352,-2.014397,-0.728690,-2.071785,-1.083044,-2.166734,-1.425532,-2.298203,-1.752401,-2.464752,-2.060072,-2.664555,-2.345171,-2.895424,-2.604576,-3.154829,-2.835445,-3.439928,-3.035248,-3.747599,
-3.201797,-4.074468,-3.333266,-4.416956,-3.428215,-4.771310,-3.485603,-5.133648,-3.504803,-5.500000,-7.500000,-5.500000,-7.479992,-4.952535,-7.420075,-4.407991,-7.320569,-3.869274,-7.182004,-3.339257,-7.005121,-2.820768,-6.790862,-2.316575,-6.540371,-1.829366,-6.254984,-1.361742,-5.936224,-0.916197,-5.585791,-0.495109,-5.205556,-0.100724,-4.797548,0.264854,-4.363942,0.599673,-3.907053,0.901948,
-3.429317,1.170066,-2.933285,1.402596,-2.421603,1.598298,-1.897000,1.756128,-1.362276,1.875243,-0.820284,1.955007,-0.273915,1.994996,0.273915,1.994996,0.820284,1.955007,0.820284,1.955007,$1*%
%AMFreePoly3*
4,1,173,0.373905,2.106267,0.999332,2.047147,1.619813,1.948873,2.232899,1.811832,2.836170,1.636565,3.427246,1.423765,4.003793,1.174271,4.563537,0.889067,5.104268,0.569279,5.623853,0.216170,6.120240,-0.168868,6.591471,-0.584314,7.035686,-1.028529,7.451132,-1.499760,7.836170,-1.996147,8.189279,-2.515732,8.509067,-3.056463,8.794271,-3.616207,9.043765,-4.192754,9.256565,-4.783830,
9.431832,-5.387101,9.568873,-6.000187,9.667147,-6.620668,9.726267,-7.246095,9.746000,-7.874000,9.726267,-8.501905,9.667147,-9.127332,9.568873,-9.747813,9.431832,-10.360899,9.256565,-10.964170,9.043765,-11.555246,8.794271,-12.131793,8.509067,-12.691537,8.189279,-13.232268,7.836170,-13.751853,7.451132,-14.248240,7.035686,-14.719471,6.591471,-15.163686,6.120240,-15.579132,5.623853,-15.964170,
5.104268,-16.317279,4.563537,-16.637067,4.003793,-16.922271,3.427246,-17.171765,2.836170,-17.384565,2.232899,-17.559832,1.619813,-17.696873,0.999332,-17.795147,0.373905,-17.854267,-0.254000,-17.874000,-0.881905,-17.854267,-1.507332,-17.795147,-2.127813,-17.696873,-2.740899,-17.559832,-3.344170,-17.384565,-3.935246,-17.171765,-4.511793,-16.922271,-5.071537,-16.637067,-5.612268,-16.317279,-6.131853,-15.964170,
-6.628240,-15.579132,-7.099471,-15.163686,-7.543686,-14.719471,-7.959132,-14.248240,-8.344170,-13.751853,-8.697279,-13.232268,-9.017067,-12.691537,-9.302271,-12.131793,-9.551765,-11.555246,-9.764565,-10.964170,-9.939832,-10.360899,-10.076873,-9.747813,-10.175147,-9.127332,-10.234267,-8.501905,-10.254000,-7.874000,-5.259040,-7.874000,-5.238891,-8.322648,-5.178607,-8.767684,-5.078673,-9.205525,-4.939893,-9.632645,
-4.763385,-10.045605,-4.550571,-10.441081,-4.303162,-10.815889,-4.023153,-11.167010,-3.712796,-11.491617,-3.374591,-11.787098,-3.011261,-12.051073,-2.625732,-12.281416,-2.221106,-12.476273,-1.800642,-12.634076,-1.367726,-12.753553,-0.925843,-12.833743,-0.478550,-12.874000,-0.029450,-12.874000,0.417843,-12.833743,0.859726,-12.753553,1.292642,-12.634076,1.713106,-12.476273,2.117732,-12.281416,2.503261,-12.051073,
2.866591,-11.787098,3.204796,-11.491617,3.515153,-11.167010,3.795162,-10.815889,4.042571,-10.441081,4.255385,-10.045605,4.431893,-9.632645,4.570673,-9.205525,4.670607,-8.767684,4.730891,-8.322648,4.751040,-7.874000,4.730891,-7.425352,4.670607,-6.980316,4.570673,-6.542475,4.431893,-6.115355,4.255385,-5.702395,4.042571,-5.306919,3.795162,-4.932111,3.515153,-4.580990,3.204796,-4.256383,
2.866591,-3.960902,2.503261,-3.696927,2.117732,-3.466584,1.713106,-3.271727,1.292642,-3.113924,0.859726,-2.994447,0.417843,-2.914257,-0.029450,-2.874000,-0.478550,-2.874000,-0.925843,-2.914257,-1.367726,-2.994447,-1.800642,-3.113924,-2.221106,-3.271727,-2.625732,-3.466584,-3.011261,-3.696927,-3.374591,-3.960902,-3.712796,-4.256383,-4.023153,-4.580990,-4.303162,-4.932111,-4.550571,-5.306919,
-4.763385,-5.702395,-4.939893,-6.115355,-5.078673,-6.542475,-5.178607,-6.980316,-5.238891,-7.425352,-5.259040,-7.874000,-10.254000,-7.874000,-10.234267,-7.246095,-10.175147,-6.620668,-10.076873,-6.000187,-9.939832,-5.387101,-9.764565,-4.783830,-9.551765,-4.192754,-9.302271,-3.616207,-9.017067,-3.056463,-8.697279,-2.515732,-8.344170,-1.996147,-7.959132,-1.499760,-7.543686,-1.028529,-7.099471,-0.584314,
-6.628240,-0.168868,-6.131853,0.216170,-5.612268,0.569279,-5.071537,0.889067,-4.511793,1.174271,-3.935246,1.423765,-3.344170,1.636565,-2.740899,1.811832,-2.127813,1.948873,-1.507332,2.047147,-0.881905,2.106267,-0.254000,2.126000,0.373905,2.106267,0.373905,2.106267,$1*%
G04 Aperture macros list end*
%TA.AperFunction,ComponentPad*%
%ADD10R,2.400000X2.400000*%
%TD*%
%TA.AperFunction,ComponentPad*%
%ADD11C,1.800000*%
%TD*%
%TA.AperFunction,ComponentPad*%
%ADD12C,2.400000*%
%TD*%
%TA.AperFunction,SMDPad,CuDef*%
%ADD13FreePoly0,0.000000*%
%TD*%
%TA.AperFunction,SMDPad,CuDef*%
%ADD14FreePoly1,90.000000*%
%TD*%
%TA.AperFunction,SMDPad,CuDef*%
%ADD15FreePoly2,90.000000*%
%TD*%
%TA.AperFunction,SMDPad,CuDef*%
%ADD16FreePoly3,90.000000*%
%TD*%
%TA.AperFunction,ComponentPad*%
%ADD17O,1.700000X1.700000*%
%TD*%
%TA.AperFunction,ComponentPad*%
%ADD18R,1.700000X1.700000*%
%TD*%
%TA.AperFunction,ComponentPad*%
%ADD19R,1.000000X1.000000*%
%TD*%
%TA.AperFunction,ComponentPad*%
%ADD20O,1.000000X1.000000*%
%TD*%
%TA.AperFunction,ViaPad*%
%ADD21C,0.500000*%
%TD*%
%TA.AperFunction,Conductor*%
%ADD22C,0.177800*%
%TD*%
G04 APERTURE END LIST*
D10*
%TO.P,J5,1,P1*%
%TO.N,GND*%
X14986000Y17323500D03*
D11*
%TO.P,J5,2,P2*%
%TO.N,/control/DMX.N*%
X18796000Y13513500D03*
%TO.P,J5,3,P3*%
%TO.N,/control/DMX.P*%
X18796000Y17323500D03*
%TO.P,J5,4,P3*%
%TO.N,Net-(J5-P3-Pad4)*%
X25776000Y13513500D03*
D12*
%TO.P,J5,5,P5*%
%TO.N,Net-(J5-P5)*%
X22606000Y17323500D03*
D11*
%TO.P,J5,G*%
%TO.N,unconnected-(J5-PadG)*%
X10546000Y7153500D03*
%TD*%
D13*
%TO.P,P33,1,1*%
%TO.N,Net-(P33-Pad1)*%
X57935640Y163536000D03*
%TD*%
%TO.P,P31,1,1*%
%TO.N,Net-(P31-Pad1)*%
X6361802Y163536000D03*
%TD*%
%TO.P,P36,1,1*%
%TO.N,Net-(P36-Pad1)*%
X135296400Y163536000D03*
%TD*%
%TO.P,P32,1,1*%
%TO.N,Net-(P32-Pad1)*%
X32148721Y163536000D03*
%TD*%
%TO.P,P34,1,1*%
%TO.N,Net-(P34-Pad1)*%
X83722559Y163536000D03*
%TD*%
%TO.P,P35,1,1*%
%TO.N,Net-(P35-Pad1)*%
X109509478Y163536000D03*
%TD*%
D14*
%TO.P,P5,1,1*%
%TO.N,Net-(P5-Pad1)*%
X106553478Y30913200D03*
%TD*%
%TO.P,P6,1,1*%
%TO.N,Net-(P6-Pad1)*%
X132740400Y31038800D03*
%TD*%
%TO.P,P1,1,1*%
%TO.N,Net-(P1-Pad1)*%
X1805802Y30327600D03*
%TD*%
%TO.P,P3,1,1*%
%TO.N,Net-(P3-Pad1)*%
X54179640Y30913200D03*
%TD*%
%TO.P,P4,1,1*%
%TO.N,Net-(P4-Pad1)*%
X80366559Y30913200D03*
%TD*%
%TO.P,P2,1,1*%
%TO.N,Net-(P2-Pad1)*%
X27992721Y30913200D03*
%TD*%
D15*
%TO.P,P9,1,1*%
%TO.N,Net-(P9-Pad1)*%
X52735640Y53449765D03*
%TD*%
%TO.P,P7,1,1*%
%TO.N,Net-(P7-Pad1)*%
X2361802Y52981285D03*
%TD*%
%TO.P,P11,1,1*%
%TO.N,Net-(P11-Pad1)*%
X103109478Y53449765D03*
%TD*%
%TO.P,P12,1,1*%
%TO.N,Net-(P12-Pad1)*%
X128296400Y53550245D03*
%TD*%
%TO.P,P10,1,1*%
%TO.N,Net-(P10-Pad1)*%
X77922559Y53449765D03*
%TD*%
%TO.P,P8,1,1*%
%TO.N,Net-(P8-Pad1)*%
X27548721Y53449765D03*
%TD*%
D16*
%TO.P,P18,1,1*%
%TO.N,Net-(P18-Pad1)*%
X123422402Y81315684D03*
%TD*%
%TO.P,P17,1,1*%
%TO.N,Net-(P17-Pad1)*%
X99235480Y81240324D03*
%TD*%
%TO.P,P16,1,1*%
%TO.N,Net-(P16-Pad1)*%
X75048560Y81240324D03*
%TD*%
%TO.P,P15,1,1*%
%TO.N,Net-(P15-Pad1)*%
X50861640Y81240324D03*
%TD*%
%TO.P,P14,1,1*%
%TO.N,Net-(P14-Pad1)*%
X26674720Y81240324D03*
%TD*%
%TO.P,P13,1,1*%
%TO.N,Net-(P13-Pad1)*%
X2487800Y80888964D03*
%TD*%
D17*
%TO.P,J1,2,Pin_2*%
%TO.N,+5V*%
X127005000Y773000D03*
D18*
%TO.P,J1,1,Pin_1*%
%TO.N,GND*%
X129545000Y773000D03*
%TD*%
D19*
%TO.P,J4,1,Pin_1*%
%TO.N,/control/ESP_PROG.EN*%
X41788000Y-1524000D03*
D20*
%TO.P,J4,2,Pin_2*%
%TO.N,/control/ESP_PROG.IO0*%
X43058000Y-1524000D03*
%TO.P,J4,3,Pin_3*%
%TO.N,/control/ESP_PROG.RX*%
X44328000Y-1524000D03*
%TO.P,J4,4,Pin_4*%
%TO.N,/control/ESP_PROG.TX*%
X45598000Y-1524000D03*
%TD*%
D21*
%TO.N,+5V*%
X76454000Y37280000D03*
%TO.N,GND*%
X76708000Y40924400D03*
X73152000Y150114000D03*
%TO.N,+5V*%
X74930000Y147165800D03*
%TO.N,GND*%
X73152000Y144018000D03*
%TO.N,+5V*%
X74930000Y89154000D03*
%TO.N,GND*%
X76649500Y94711600D03*
X17526000Y161290000D03*
X43942000Y161036000D03*
X70866000Y161036000D03*
X71374000Y157226000D03*
X72390000Y155448000D03*
%TO.N,+5V*%
X66802000Y154178000D03*
%TO.N,GND*%
X68834000Y164338000D03*
%TO.N,+5V*%
X66802000Y161290000D03*
%TO.N,GND*%
X72644000Y166878000D03*
X98552000Y161036000D03*
X124714000Y161036000D03*
X23876000Y131826000D03*
X48514000Y131572000D03*
%TO.N,+5V*%
X66802000Y117348000D03*
X66802000Y123698000D03*
%TO.N,GND*%
X72136000Y119380000D03*
%TO.N,/display/led_row_2_3/LED_SER_OUT*%
X69880400Y119888250D03*
%TO.N,GND*%
X69342000Y132334000D03*
X72136000Y131826000D03*
X93472000Y131826000D03*
X117856000Y131826000D03*
X19812000Y107442000D03*
X46736000Y109982000D03*
%TO.N,Net-(P21-Pad1)*%
X58674000Y101600000D03*
X58674000Y99314000D03*
%TO.N,+5V*%
X66802000Y66294000D03*
%TO.N,GND*%
X72613600Y64516000D03*
X71912400Y71374000D03*
%TO.N,+5V*%
X66802000Y70104000D03*
X66802000Y98552000D03*
X66802000Y102362000D03*
%TO.N,GND*%
X72136000Y97790000D03*
X69342000Y111760000D03*
X69342000Y102362000D03*
X72136000Y112014000D03*
X96520000Y107188000D03*
X121920000Y107188000D03*
X42418000Y54610000D03*
X18288000Y54356000D03*
X20574000Y83312000D03*
X45212000Y83312000D03*
X96266000Y83058000D03*
X120396000Y83312000D03*
%TO.N,+5V*%
X66802000Y51562000D03*
X66548000Y26162000D03*
X66294000Y22352000D03*
X74930000Y20320000D03*
X66802000Y47752000D03*
%TO.N,GND*%
X71912400Y49530000D03*
X69565600Y54864000D03*
X72390000Y61214000D03*
X99314000Y55372000D03*
X124714000Y55372000D03*
X15494000Y23876000D03*
X42926000Y23876000D03*
X62230000Y-1270000D03*
X61976000Y16256000D03*
X77216000Y21590000D03*
X72136000Y27686000D03*
X67056000Y30226000D03*
X99568000Y23876000D03*
X125222000Y23622000D03*
%TO.N,Net-(U2-GPIO21)*%
X43942000Y4318000D03*
X42164000Y6096000D03*
%TO.N,+5V*%
X8382000Y148336000D03*
%TO.N,Net-(D28-K)*%
X10922000Y124968000D03*
X10361800Y133242322D03*
%TO.N,Net-(D29-K)*%
X34798000Y125222000D03*
X34548720Y133359442D03*
%TO.N,Net-(D30-K)*%
X58928000Y124968000D03*
X58735640Y133359442D03*
%TO.N,Net-(D31-K)*%
X82931000Y124841000D03*
X82922560Y133359442D03*
%TO.N,Net-(D32-K)*%
X106680000Y124460000D03*
X107109480Y133359442D03*
%TO.N,Net-(D33-K)*%
X131318000Y133350000D03*
X130810000Y124460000D03*
%TO.N,Net-(D27-K)*%
X132842000Y99822000D03*
X133858000Y105664000D03*
%TO.N,Net-(D26-K)*%
X108458000Y105918000D03*
X107950000Y99314000D03*
%TO.N,Net-(D25-K)*%
X83312000Y105664000D03*
X77470000Y114046000D03*
%TO.N,Net-(D24-K)*%
X64262000Y114300000D03*
X58166000Y105664000D03*
%TO.N,Net-(D23-K)*%
X37338000Y101092000D03*
X33274000Y105918000D03*
%TO.N,Net-(D22-K)*%
X9398000Y99822000D03*
X7861802Y105588643D03*
%TO.N,+5V*%
X36830000Y21590000D03*
%TO.N,GND*%
X72136000Y140970000D03*
X71912400Y82804000D03*
X72613600Y36068000D03*
%TO.N,+5V*%
X135128000Y167640000D03*
X109474000Y167640000D03*
X83820000Y167640000D03*
X57912000Y167609600D03*
X32258000Y167640000D03*
X6604000Y167640000D03*
X10414000Y138430000D03*
X34798000Y138684000D03*
X58674000Y138684000D03*
X82804000Y138684000D03*
X107188000Y138684000D03*
X131296402Y138584562D03*
X133604000Y110998000D03*
X108712000Y110998000D03*
X83566000Y111252000D03*
X58420000Y111252000D03*
X33020000Y110998000D03*
X7874000Y110744000D03*
X9906000Y92202000D03*
X34290000Y92202000D03*
X57150000Y92202000D03*
X83566000Y91409600D03*
X107188000Y91917600D03*
X131260000Y92202000D03*
X133604000Y61976000D03*
X108712000Y61976000D03*
X83312000Y61976000D03*
X49022000Y57404000D03*
X33020000Y61976000D03*
X8128000Y61976000D03*
X57404000Y37280000D03*
X31496000Y37280000D03*
X5392000Y37280000D03*
X84582000Y37280000D03*
X110490000Y37280000D03*
X136398000Y37338000D03*
X74930000Y29210000D03*
X66802000Y34036000D03*
X66802000Y34798000D03*
X66802000Y35560000D03*
X74930000Y31496000D03*
X74930000Y30734000D03*
X74930000Y29972000D03*
%TO.N,GND*%
X135890000Y6350000D03*
X64008000Y21336000D03*
X62230000Y21336000D03*
X35814000Y7112000D03*
X51816000Y12954000D03*
X73914000Y9906000D03*
X68834000Y9906000D03*
X68834000Y6604000D03*
X73914000Y6604000D03*
X98298000Y-2032000D03*
X98298000Y-254000D03*
X98298000Y1270000D03*
X115824000Y5080000D03*
X113030000Y5080000D03*
X108458000Y5080000D03*
X105664000Y5080000D03*
X103378000Y17526000D03*
X104394000Y14986000D03*
X107950000Y15748000D03*
X109812666Y15748000D03*
X111675332Y15748000D03*
X113538000Y15748000D03*
X116840000Y14732000D03*
X122936000Y17526000D03*
X135890000Y20828000D03*
X143510000Y23368000D03*
X141986000Y23368000D03*
X137668000Y10448900D03*
X137668000Y16916000D03*
%TO.N,/control/ESP_PROG.EN*%
X47752000Y16002000D03*
%TO.N,/control/SR.LATCH*%
X70358000Y17780000D03*
%TO.N,+3V3*%
X46736000Y14478000D03*
X77724000Y18542000D03*
X81788000Y18542000D03*
%TO.N,/control/SR.CLOCK*%
X69088000Y17780000D03*
%TO.N,/control/SR.DATA*%
X66548000Y20320000D03*
X67310000Y17780000D03*
%TO.N,/control/I2C.SCL*%
X65278000Y508000D03*
%TO.N,/control/I2C.SCK*%
X66294000Y254000D03*
%TO.N,+3V3*%
X47498000Y0D03*
%TO.N,/control/JTAG.TDI*%
X84074000Y-1524000D03*
X72136000Y254000D03*
%TO.N,/control/JTAG.TDO*%
X73660000Y762000D03*
X83820000Y254000D03*
%TO.N,/control/JTAG.TCK*%
X75453200Y1493600D03*
X84074000Y2032000D03*
%TO.N,/control/JTAG.TMS*%
X70104000Y508000D03*
X84074000Y3810000D03*
%TO.N,VBUS*%
X136906000Y11684000D03*
X136906000Y15748000D03*
%TO.N,/control/I2C.SCL*%
X68549100Y85598000D03*
%TO.N,/control/I2C.SCK*%
X73152000Y84836000D03*
X73152000Y34036000D03*
X73152000Y142494000D03*
%TO.N,/control/I2C.SCL*%
X68549100Y35814000D03*
X69088000Y143256000D03*
%TO.N,Net-(U8-SER)*%
X69342000Y158242000D03*
X69342000Y117348000D03*
%TO.N,/display/led_row_2_3/LED_SER_OUT*%
X69342000Y98044000D03*
%TO.N,Net-(U6-SER)*%
X69880400Y100838000D03*
X69342000Y66294000D03*
%TO.N,/display/led_row_0_1/LED_SER_OUT*%
X69880400Y68580000D03*
X69088000Y47244000D03*
%TO.N,Net-(U4-SER)*%
X70104000Y50038000D03*
X69342000Y21601000D03*
%TO.N,/control/SR.LATCH*%
X71374000Y117856000D03*
%TO.N,/control/SR.CLOCK*%
X70835100Y117094000D03*
%TO.N,/control/SR.LATCH*%
X71374000Y99060000D03*
%TO.N,/control/SR.CLOCK*%
X70835100Y98298000D03*
%TO.N,/control/SR.LATCH*%
X71374000Y67564000D03*
%TO.N,/control/SR.CLOCK*%
X70835600Y66802000D03*
X70835100Y47752000D03*
X70835600Y154940000D03*
X70738707Y22860000D03*
%TO.N,/control/SR.LATCH*%
X71374000Y48260000D03*
X71374000Y155448000D03*
X71374000Y23622000D03*
%TO.N,Net-(P36-Pad1)*%
X135382000Y153924000D03*
%TO.N,Net-(P35-Pad1)*%
X109728000Y153924000D03*
%TO.N,Net-(P34-Pad1)*%
X83566000Y153924000D03*
%TO.N,Net-(P32-Pad1)*%
X32004000Y153924000D03*
%TO.N,Net-(P33-Pad1)*%
X57912000Y154432000D03*
%TO.N,Net-(P31-Pad1)*%
X6350000Y153924000D03*
%TO.N,Net-(P13-Pad1)*%
X10414000Y90170000D03*
%TO.N,Net-(P14-Pad1)*%
X34290000Y90424000D03*
%TO.N,Net-(P15-Pad1)*%
X57912000Y90424000D03*
%TO.N,Net-(P16-Pad1)*%
X82804000Y90424000D03*
%TO.N,Net-(P17-Pad1)*%
X107188000Y90424000D03*
%TO.N,Net-(P18-Pad1)*%
X131318000Y90424000D03*
%TO.N,Net-(P22-Pad1)*%
X83058000Y101854000D03*
X83058000Y99060000D03*
%TO.N,Net-(P4-Pad1)*%
X83820000Y35560000D03*
%TO.N,Net-(P6-Pad1)*%
X136144000Y35560000D03*
%TO.N,Net-(P5-Pad1)*%
X109982000Y35560000D03*
%TO.N,Net-(P1-Pad1)*%
X5334000Y35052000D03*
%TO.N,Net-(P2-Pad1)*%
X31750000Y35560000D03*
%TO.N,Net-(P3-Pad1)*%
X57912000Y35560000D03*
%TO.N,Net-(P7-Pad1)*%
X6858000Y46482000D03*
%TO.N,Net-(P8-Pad1)*%
X31750000Y46736000D03*
%TO.N,Net-(P9-Pad1)*%
X56642000Y46736000D03*
%TO.N,Net-(P12-Pad1)*%
X135128000Y46482000D03*
%TO.N,Net-(P11-Pad1)*%
X109982000Y46736000D03*
%TO.N,Net-(P10-Pad1)*%
X83312000Y46197600D03*
%TD*%
D22*
%TO.N,Net-(P36-Pad1)*%
X135382000Y153924000D02*
X133687500Y155618500D01*
X133687500Y155618500D02*
X133687500Y161927100D01*
X133687500Y161927100D02*
X135296400Y163536000D01*
%TO.N,Net-(P35-Pad1)*%
X109728000Y153924000D02*
X107900578Y155751422D01*
X107900578Y155751422D02*
X107900578Y161927100D01*
X107900578Y161927100D02*
X109509478Y163536000D01*
%TO.N,Net-(P34-Pad1)*%
X82113659Y155376341D02*
X82113659Y161927100D01*
X83566000Y153924000D02*
X82113659Y155376341D01*
X82113659Y161927100D02*
X83722559Y163536000D01*
%TO.N,Net-(P32-Pad1)*%
X32004000Y153924000D02*
X30539821Y155388179D01*
X30539821Y155388179D02*
X30539821Y161927100D01*
X30539821Y161927100D02*
X32148721Y163536000D01*
%TO.N,Net-(P33-Pad1)*%
X53594000Y159512000D02*
X53911640Y159512000D01*
X57912000Y154432000D02*
X57912000Y155194000D01*
X57912000Y155194000D02*
X53594000Y159512000D01*
X53911640Y159512000D02*
X57935640Y163536000D01*
%TO.N,Net-(P31-Pad1)*%
X6350000Y153924000D02*
X4752902Y155521098D01*
X4752902Y155521098D02*
X4752902Y161927100D01*
X4752902Y161927100D02*
X6361802Y163536000D01*
%TO.N,Net-(P13-Pad1)*%
X2487800Y82243800D02*
X2487800Y80888964D01*
X10414000Y90170000D02*
X2487800Y82243800D01*
%TO.N,Net-(P14-Pad1)*%
X34290000Y90424000D02*
X26674720Y82808720D01*
X26674720Y82808720D02*
X26674720Y81240324D01*
%TO.N,Net-(P15-Pad1)*%
X50861640Y83373640D02*
X50861640Y81240324D01*
X57912000Y90424000D02*
X50861640Y83373640D01*
%TO.N,Net-(P16-Pad1)*%
X75048560Y82668560D02*
X75048560Y81240324D01*
X82804000Y90424000D02*
X75048560Y82668560D01*
%TO.N,Net-(P17-Pad1)*%
X107188000Y90424000D02*
X99235480Y82471480D01*
X99235480Y82471480D02*
X99235480Y81240324D01*
%TO.N,Net-(P18-Pad1)*%
X131318000Y90424000D02*
X131318000Y89211282D01*
X131318000Y89211282D02*
X123422402Y81315684D01*
%TO.N,Net-(P4-Pad1)*%
X80366559Y32106559D02*
X80366559Y30913200D01*
X83820000Y35560000D02*
X80366559Y32106559D01*
%TO.N,Net-(P6-Pad1)*%
X136144000Y35560000D02*
X136144000Y34442400D01*
X136144000Y34442400D02*
X132740400Y31038800D01*
%TO.N,Net-(P5-Pad1)*%
X109982000Y35560000D02*
X109982000Y34341722D01*
X109982000Y34341722D02*
X106553478Y30913200D01*
%TO.N,Net-(P1-Pad1)*%
X5334000Y35052000D02*
X1805802Y31523802D01*
X1805802Y31523802D02*
X1805802Y30327600D01*
%TO.N,Net-(P2-Pad1)*%
X31750000Y34670479D02*
X27992721Y30913200D01*
X31750000Y35560000D02*
X31750000Y34670479D01*
%TO.N,Net-(P3-Pad1)*%
X57912000Y35560000D02*
X54179640Y31827640D01*
X54179640Y31827640D02*
X54179640Y30913200D01*
%TO.N,Net-(P7-Pad1)*%
X6858000Y46482000D02*
X2361802Y50978198D01*
X2361802Y50978198D02*
X2361802Y52981285D01*
%TO.N,Net-(P8-Pad1)*%
X31750000Y46736000D02*
X27548721Y50937279D01*
X27548721Y50937279D02*
X27548721Y53449765D01*
%TO.N,Net-(P9-Pad1)*%
X52735640Y50642360D02*
X52735640Y53449765D01*
X56642000Y46736000D02*
X52735640Y50642360D01*
%TO.N,Net-(P10-Pad1)*%
X83312000Y46736000D02*
X77922559Y52125441D01*
X77922559Y52125441D02*
X77922559Y53449765D01*
X83312000Y46197600D02*
X83312000Y46736000D01*
%TO.N,Net-(P11-Pad1)*%
X109982000Y46736000D02*
X103268235Y53449765D01*
X103268235Y53449765D02*
X103109478Y53449765D01*
%TO.N,Net-(P12-Pad1)*%
X135128000Y46482000D02*
X135128000Y46718645D01*
X135128000Y46718645D02*
X128296400Y53550245D01*
%TD*%
M02*
