%TF.GenerationSoftware,KiCad,Pcbnew,7.0.7*%
%TF.CreationDate,2024-03-09T11:29:05+01:00*%
%TF.ProjectId,button-board,62757474-6f6e-42d6-926f-6172642e6b69,rev?*%
%TF.SameCoordinates,Original*%
%TF.FileFunction,Copper,L2,Inr*%
%TF.FilePolarity,Positive*%
%FSLAX46Y46*%
G04 Gerber Fmt 4.6, Leading zero omitted, Abs format (unit mm)*
G04 Created by KiCad (PCBNEW 7.0.7) date 2024-03-09 11:29:05*
%MOMM*%
%LPD*%
G01*
G04 APERTURE LIST*
%TA.AperFunction,ComponentPad*%
%ADD10R,2.400000X2.400000*%
%TD*%
%TA.AperFunction,ComponentPad*%
%ADD11C,1.800000*%
%TD*%
%TA.AperFunction,ComponentPad*%
%ADD12C,2.400000*%
%TD*%
%TA.AperFunction,ComponentPad*%
%ADD13O,1.700000X1.700000*%
%TD*%
%TA.AperFunction,ComponentPad*%
%ADD14R,1.700000X1.700000*%
%TD*%
%TA.AperFunction,ComponentPad*%
%ADD15R,1.000000X1.000000*%
%TD*%
%TA.AperFunction,ComponentPad*%
%ADD16O,1.000000X1.000000*%
%TD*%
%TA.AperFunction,ViaPad*%
%ADD17C,0.500000*%
%TD*%
%TA.AperFunction,Conductor*%
%ADD18C,0.508000*%
%TD*%
%TA.AperFunction,Conductor*%
%ADD19C,2.540000*%
%TD*%
G04 APERTURE END LIST*
D10*
%TO.N,GND*%
%TO.C,J5*%
X14986000Y17323500D03*
D11*
%TO.N,/control/DMX.N*%
X18796000Y13513500D03*
%TO.N,/control/DMX.P*%
X18796000Y17323500D03*
%TO.N,Net-(J5-P3-Pad4)*%
X25776000Y13513500D03*
D12*
%TO.N,Net-(J5-P5)*%
X22606000Y17323500D03*
D11*
%TO.N,unconnected-(J5-PadG)*%
X10546000Y7153500D03*
%TD*%
D13*
%TO.N,+5V*%
%TO.C,J1*%
X127005000Y773000D03*
D14*
%TO.N,GND*%
X129545000Y773000D03*
%TD*%
D15*
%TO.N,/control/ESP_PROG.EN*%
%TO.C,J4*%
X41788000Y-1524000D03*
D16*
%TO.N,/control/ESP_PROG.IO0*%
X43058000Y-1524000D03*
%TO.N,/control/ESP_PROG.RX*%
X44328000Y-1524000D03*
%TO.N,/control/ESP_PROG.TX*%
X45598000Y-1524000D03*
%TD*%
D17*
%TO.N,+5V*%
X76454000Y37280000D03*
%TO.N,GND*%
X76708000Y40924400D03*
X73152000Y150114000D03*
%TO.N,+5V*%
X74930000Y147165800D03*
%TO.N,GND*%
X73152000Y144018000D03*
%TO.N,+5V*%
X74930000Y89154000D03*
%TO.N,GND*%
X76649500Y94711600D03*
X17526000Y161290000D03*
X43942000Y161036000D03*
X70866000Y161036000D03*
X71374000Y157226000D03*
X72390000Y155448000D03*
%TO.N,+5V*%
X66802000Y154178000D03*
%TO.N,GND*%
X68834000Y164338000D03*
%TO.N,+5V*%
X66802000Y161290000D03*
%TO.N,GND*%
X72644000Y166878000D03*
X98552000Y161036000D03*
X124714000Y161036000D03*
X23876000Y131826000D03*
X48514000Y131572000D03*
%TO.N,+5V*%
X66802000Y117348000D03*
X66802000Y123698000D03*
%TO.N,GND*%
X72136000Y119380000D03*
%TO.N,/display/led_row_2_3/LED_SER_OUT*%
X69880400Y119888250D03*
%TO.N,GND*%
X69342000Y132334000D03*
X72136000Y131826000D03*
X93472000Y131826000D03*
X117856000Y131826000D03*
X19812000Y107442000D03*
X46736000Y109982000D03*
%TO.N,Net-(P21-Pad1)*%
X58674000Y101600000D03*
X58674000Y99314000D03*
%TO.N,+5V*%
X66802000Y66294000D03*
%TO.N,GND*%
X72613600Y64516000D03*
X71912400Y71374000D03*
%TO.N,+5V*%
X66802000Y70104000D03*
X66802000Y98552000D03*
X66802000Y102362000D03*
%TO.N,GND*%
X72136000Y97790000D03*
X69342000Y111760000D03*
X69342000Y102362000D03*
X72136000Y112014000D03*
X96520000Y107188000D03*
X121920000Y107188000D03*
X42418000Y54610000D03*
X18288000Y54356000D03*
X20574000Y83312000D03*
X45212000Y83312000D03*
X96266000Y83058000D03*
X120396000Y83312000D03*
%TO.N,+5V*%
X66802000Y51562000D03*
X66548000Y26162000D03*
X66294000Y22352000D03*
X74930000Y20320000D03*
X66802000Y47752000D03*
%TO.N,GND*%
X71912400Y49530000D03*
X69565600Y54864000D03*
X72390000Y61214000D03*
X99314000Y55372000D03*
X124714000Y55372000D03*
X15494000Y23876000D03*
X42926000Y23876000D03*
X62230000Y-1270000D03*
X61976000Y16256000D03*
X77216000Y21590000D03*
X72136000Y27686000D03*
X67056000Y30226000D03*
X99568000Y23876000D03*
X125222000Y23622000D03*
%TO.N,Net-(U2-GPIO21)*%
X43942000Y4318000D03*
X42164000Y6096000D03*
%TO.N,+5V*%
X8382000Y148336000D03*
%TO.N,Net-(D28-K)*%
X10922000Y124968000D03*
X10361800Y133242322D03*
%TO.N,Net-(D29-K)*%
X34798000Y125222000D03*
X34548720Y133359442D03*
%TO.N,Net-(D30-K)*%
X58928000Y124968000D03*
X58735640Y133359442D03*
%TO.N,Net-(D31-K)*%
X82931000Y124841000D03*
X82922560Y133359442D03*
%TO.N,Net-(D32-K)*%
X106680000Y124460000D03*
X107109480Y133359442D03*
%TO.N,Net-(D33-K)*%
X131318000Y133350000D03*
X130810000Y124460000D03*
%TO.N,Net-(D27-K)*%
X132842000Y99822000D03*
X133858000Y105664000D03*
%TO.N,Net-(D26-K)*%
X108458000Y105918000D03*
X107950000Y99314000D03*
%TO.N,Net-(D25-K)*%
X83312000Y105664000D03*
X77470000Y114046000D03*
%TO.N,Net-(D24-K)*%
X64262000Y114300000D03*
X58166000Y105664000D03*
%TO.N,Net-(D23-K)*%
X37338000Y101092000D03*
X33274000Y105918000D03*
%TO.N,Net-(D22-K)*%
X9398000Y99822000D03*
X7861802Y105588643D03*
%TO.N,+5V*%
X36830000Y21590000D03*
%TO.N,GND*%
X72136000Y140970000D03*
X71912400Y82804000D03*
X72613600Y36068000D03*
%TO.N,+5V*%
X135128000Y167640000D03*
X109474000Y167640000D03*
X83820000Y167640000D03*
X57912000Y167609600D03*
X32258000Y167640000D03*
X6604000Y167640000D03*
X10414000Y138430000D03*
X34798000Y138684000D03*
X58674000Y138684000D03*
X82804000Y138684000D03*
X107188000Y138684000D03*
X131296402Y138584562D03*
X133604000Y110998000D03*
X108712000Y110998000D03*
X83566000Y111252000D03*
X58420000Y111252000D03*
X33020000Y110998000D03*
X7874000Y110744000D03*
X9906000Y92202000D03*
X34290000Y92202000D03*
X57150000Y92202000D03*
X83566000Y91409600D03*
X107188000Y91917600D03*
X131260000Y92202000D03*
X133604000Y61976000D03*
X108712000Y61976000D03*
X83312000Y61976000D03*
X49022000Y57404000D03*
X33020000Y61976000D03*
X8128000Y61976000D03*
X57404000Y37280000D03*
X31496000Y37280000D03*
X5392000Y37280000D03*
X84582000Y37280000D03*
X110490000Y37280000D03*
X136398000Y37338000D03*
X74930000Y29210000D03*
X66802000Y34036000D03*
X66802000Y34798000D03*
X66802000Y35560000D03*
X74930000Y31496000D03*
X74930000Y30734000D03*
X74930000Y29972000D03*
%TO.N,GND*%
X135890000Y6350000D03*
X64008000Y21336000D03*
X62230000Y21336000D03*
X35814000Y7112000D03*
X51816000Y12954000D03*
X73914000Y9906000D03*
X68834000Y9906000D03*
X68834000Y6604000D03*
X73914000Y6604000D03*
X98298000Y-2032000D03*
X98298000Y-254000D03*
X98298000Y1270000D03*
X115824000Y5080000D03*
X113030000Y5080000D03*
X108458000Y5080000D03*
X105664000Y5080000D03*
X103378000Y17526000D03*
X104394000Y14986000D03*
X107950000Y15748000D03*
X109812666Y15748000D03*
X111675332Y15748000D03*
X113538000Y15748000D03*
X116840000Y14732000D03*
X122936000Y17526000D03*
X135890000Y20828000D03*
X143510000Y23368000D03*
X141986000Y23368000D03*
X137668000Y10448900D03*
X137668000Y16916000D03*
%TO.N,/control/ESP_PROG.EN*%
X47752000Y16002000D03*
%TO.N,/control/SR.LATCH*%
X70358000Y17780000D03*
%TO.N,+3V3*%
X46736000Y14478000D03*
X77724000Y18542000D03*
X81788000Y18542000D03*
%TO.N,/control/SR.CLOCK*%
X69088000Y17780000D03*
%TO.N,/control/SR.DATA*%
X66548000Y20320000D03*
X67310000Y17780000D03*
%TO.N,/control/I2C.SCL*%
X65278000Y508000D03*
%TO.N,/control/I2C.SCK*%
X66294000Y254000D03*
%TO.N,+3V3*%
X47498000Y0D03*
%TO.N,/control/JTAG.TDI*%
X84074000Y-1524000D03*
X72136000Y254000D03*
%TO.N,/control/JTAG.TDO*%
X73660000Y762000D03*
X83820000Y254000D03*
%TO.N,/control/JTAG.TCK*%
X75453200Y1493600D03*
X84074000Y2032000D03*
%TO.N,/control/JTAG.TMS*%
X70104000Y508000D03*
X84074000Y3810000D03*
%TO.N,VBUS*%
X136906000Y11684000D03*
X136906000Y15748000D03*
%TO.N,/control/I2C.SCL*%
X68549100Y85598000D03*
%TO.N,/control/I2C.SCK*%
X73152000Y84836000D03*
X73152000Y34036000D03*
X73152000Y142494000D03*
%TO.N,/control/I2C.SCL*%
X68549100Y35814000D03*
X69088000Y143256000D03*
%TO.N,Net-(U8-SER)*%
X69342000Y158242000D03*
X69342000Y117348000D03*
%TO.N,/display/led_row_2_3/LED_SER_OUT*%
X69342000Y98044000D03*
%TO.N,Net-(U6-SER)*%
X69880400Y100838000D03*
X69342000Y66294000D03*
%TO.N,/display/led_row_0_1/LED_SER_OUT*%
X69880400Y68580000D03*
X69088000Y47244000D03*
%TO.N,Net-(U4-SER)*%
X70104000Y50038000D03*
X69342000Y21601000D03*
%TO.N,/control/SR.LATCH*%
X71374000Y117856000D03*
%TO.N,/control/SR.CLOCK*%
X70835100Y117094000D03*
%TO.N,/control/SR.LATCH*%
X71374000Y99060000D03*
%TO.N,/control/SR.CLOCK*%
X70835100Y98298000D03*
%TO.N,/control/SR.LATCH*%
X71374000Y67564000D03*
%TO.N,/control/SR.CLOCK*%
X70835600Y66802000D03*
X70835100Y47752000D03*
X70835600Y154940000D03*
X70738707Y22860000D03*
%TO.N,/control/SR.LATCH*%
X71374000Y48260000D03*
X71374000Y155448000D03*
X71374000Y23622000D03*
%TO.N,Net-(P36-Pad1)*%
X135382000Y153924000D03*
%TO.N,Net-(P35-Pad1)*%
X109728000Y153924000D03*
%TO.N,Net-(P34-Pad1)*%
X83566000Y153924000D03*
%TO.N,Net-(P32-Pad1)*%
X32004000Y153924000D03*
%TO.N,Net-(P33-Pad1)*%
X57912000Y154432000D03*
%TO.N,Net-(P31-Pad1)*%
X6350000Y153924000D03*
%TO.N,Net-(P13-Pad1)*%
X10414000Y90170000D03*
%TO.N,Net-(P14-Pad1)*%
X34290000Y90424000D03*
%TO.N,Net-(P15-Pad1)*%
X57912000Y90424000D03*
%TO.N,Net-(P16-Pad1)*%
X82804000Y90424000D03*
%TO.N,Net-(P17-Pad1)*%
X107188000Y90424000D03*
%TO.N,Net-(P18-Pad1)*%
X131318000Y90424000D03*
%TO.N,Net-(P22-Pad1)*%
X83058000Y101854000D03*
X83058000Y99060000D03*
%TO.N,Net-(P4-Pad1)*%
X83820000Y35560000D03*
%TO.N,Net-(P6-Pad1)*%
X136144000Y35560000D03*
%TO.N,Net-(P5-Pad1)*%
X109982000Y35560000D03*
%TO.N,Net-(P1-Pad1)*%
X5334000Y35052000D03*
%TO.N,Net-(P2-Pad1)*%
X31750000Y35560000D03*
%TO.N,Net-(P3-Pad1)*%
X57912000Y35560000D03*
%TO.N,Net-(P7-Pad1)*%
X6858000Y46482000D03*
%TO.N,Net-(P8-Pad1)*%
X31750000Y46736000D03*
%TO.N,Net-(P9-Pad1)*%
X56642000Y46736000D03*
%TO.N,Net-(P12-Pad1)*%
X135128000Y46482000D03*
%TO.N,Net-(P11-Pad1)*%
X109982000Y46736000D03*
%TO.N,Net-(P10-Pad1)*%
X83312000Y46197600D03*
%TD*%
D18*
%TO.N,GND*%
X19558000Y94742000D02*
X20320000Y95504000D01*
D19*
X46736000Y94742000D02*
X19558000Y94742000D01*
D18*
X20320000Y106934000D02*
X19812000Y107442000D01*
X20320000Y95504000D02*
X20320000Y106934000D01*
D19*
X98298000Y150114000D02*
X73152000Y150114000D01*
X73152000Y150114000D02*
X44196000Y150114000D01*
X44196000Y150114000D02*
X17526000Y150114000D01*
D18*
X17526000Y161290000D02*
X17526000Y150114000D01*
X43942000Y161036000D02*
X44196000Y160782000D01*
X44196000Y160782000D02*
X44196000Y150114000D01*
X98552000Y161036000D02*
X98552000Y150368000D01*
D19*
X124460000Y150114000D02*
X98298000Y150114000D01*
D18*
X98552000Y150368000D02*
X98298000Y150114000D01*
X124714000Y161036000D02*
X124714000Y150368000D01*
X124714000Y150368000D02*
X124460000Y150114000D01*
X23876000Y120142000D02*
X23622000Y119888000D01*
D19*
X48514000Y119888000D02*
X23622000Y119888000D01*
D18*
X23876000Y131826000D02*
X23876000Y120142000D01*
D19*
X65278000Y119888000D02*
X48514000Y119888000D01*
D18*
X48514000Y131572000D02*
X48514000Y119888000D01*
D19*
X76454000Y119888000D02*
X74422000Y121920000D01*
X74422000Y121920000D02*
X67310000Y121920000D01*
X67310000Y121920000D02*
X65278000Y119888000D01*
X93472000Y119888000D02*
X76454000Y119888000D01*
D18*
X93472000Y131826000D02*
X93472000Y119888000D01*
D19*
X118110000Y119888000D02*
X93472000Y119888000D01*
D18*
X117856000Y131826000D02*
X117856000Y120142000D01*
X117856000Y120142000D02*
X118110000Y119888000D01*
D19*
X96520000Y94742000D02*
X46736000Y94742000D01*
D18*
X46736000Y109982000D02*
X46736000Y94742000D01*
D19*
X120396000Y94742000D02*
X96520000Y94742000D01*
D18*
X96520000Y107188000D02*
X96520000Y94742000D01*
X121920000Y107188000D02*
X121666000Y106934000D01*
X121666000Y106934000D02*
X121666000Y96012000D01*
X121666000Y96012000D02*
X120396000Y94742000D01*
D19*
X99314000Y39878000D02*
X42418000Y39878000D01*
D18*
X42418000Y54610000D02*
X42418000Y39878000D01*
D19*
X42418000Y39878000D02*
X24638000Y39878000D01*
X24638000Y39878000D02*
X18288000Y39878000D01*
D18*
X18288000Y54356000D02*
X18288000Y39878000D01*
D19*
X45212000Y64516000D02*
X20574000Y64516000D01*
D18*
X20574000Y83312000D02*
X20574000Y64516000D01*
D19*
X96266000Y64516000D02*
X45212000Y64516000D01*
D18*
X45212000Y83312000D02*
X45212000Y64516000D01*
D19*
X120650000Y64516000D02*
X96266000Y64516000D01*
D18*
X96266000Y83058000D02*
X96266000Y64516000D01*
X120396000Y83312000D02*
X120396000Y64770000D01*
X120396000Y64770000D02*
X120650000Y64516000D01*
D19*
X123952000Y39878000D02*
X99314000Y39878000D01*
D18*
X99314000Y55372000D02*
X99314000Y39878000D01*
X124714000Y55372000D02*
X123952000Y54610000D01*
X123952000Y54610000D02*
X123952000Y39878000D01*
%TD*%
%TA.AperFunction,Conductor*%
%TO.N,GND*%
G36*
X75381039Y170769415D02*
G01*
X75426794Y170716611D01*
X75438000Y170665100D01*
X75438000Y147956769D01*
X75418315Y147889730D01*
X75365511Y147843975D01*
X75296353Y147834031D01*
X75260205Y147845046D01*
X75257700Y147846253D01*
X75098056Y147902115D01*
X74930003Y147921049D01*
X74929997Y147921049D01*
X74761943Y147902115D01*
X74602305Y147846255D01*
X74602302Y147846253D01*
X74459115Y147756282D01*
X74459109Y147756277D01*
X74339523Y147636691D01*
X74339518Y147636685D01*
X74249547Y147493498D01*
X74249545Y147493495D01*
X74193685Y147333857D01*
X74174751Y147165803D01*
X74174751Y147165798D01*
X74193685Y146997744D01*
X74249545Y146838106D01*
X74249547Y146838103D01*
X74339518Y146694916D01*
X74339523Y146694910D01*
X74459109Y146575324D01*
X74459115Y146575319D01*
X74602302Y146485348D01*
X74602305Y146485346D01*
X74602309Y146485345D01*
X74602310Y146485344D01*
X74645635Y146470184D01*
X74761943Y146429486D01*
X74929997Y146410551D01*
X74930000Y146410551D01*
X74930003Y146410551D01*
X75098056Y146429486D01*
X75098059Y146429487D01*
X75257690Y146485344D01*
X75257693Y146485347D01*
X75257696Y146485347D01*
X75260195Y146486550D01*
X75261971Y146486843D01*
X75264262Y146487644D01*
X75264402Y146487243D01*
X75329136Y146497905D01*
X75393271Y146470184D01*
X75432239Y146412190D01*
X75438000Y146374832D01*
X75438000Y142881870D01*
X75418315Y142814831D01*
X75407014Y142799868D01*
X75209250Y142575546D01*
X75140376Y142497424D01*
X74751488Y141996073D01*
X74394848Y141471293D01*
X74071863Y140925154D01*
X73796606Y140384933D01*
X73783805Y140359809D01*
X73683011Y140126888D01*
X73531817Y139777500D01*
X73316889Y139180514D01*
X73139870Y138571210D01*
X73001459Y137951993D01*
X72902202Y137325308D01*
X72891131Y137208188D01*
X72842489Y136693620D01*
X72822560Y136059442D01*
X72842489Y135425264D01*
X72842490Y135425258D01*
X72902202Y134793576D01*
X73001459Y134166891D01*
X73139870Y133547674D01*
X73316889Y132938370D01*
X73531817Y132341384D01*
X73683010Y131991997D01*
X73772936Y131784191D01*
X73783807Y131759071D01*
X74071863Y131193730D01*
X74394848Y130647591D01*
X74751488Y130122811D01*
X74842336Y130005691D01*
X75140380Y129621455D01*
X75407014Y129319019D01*
X75436582Y129255714D01*
X75438000Y129237016D01*
X75438000Y89944969D01*
X75418315Y89877930D01*
X75365511Y89832175D01*
X75296353Y89822231D01*
X75260205Y89833246D01*
X75257700Y89834453D01*
X75098056Y89890315D01*
X74930003Y89909249D01*
X74929997Y89909249D01*
X74761943Y89890315D01*
X74602305Y89834455D01*
X74602302Y89834453D01*
X74459115Y89744482D01*
X74459109Y89744477D01*
X74339523Y89624891D01*
X74339518Y89624885D01*
X74249547Y89481698D01*
X74249545Y89481695D01*
X74193685Y89322057D01*
X74174751Y89154003D01*
X74174751Y89153998D01*
X74193685Y88985944D01*
X74249545Y88826306D01*
X74249547Y88826303D01*
X74339518Y88683116D01*
X74339523Y88683110D01*
X74459109Y88563524D01*
X74459115Y88563519D01*
X74602302Y88473548D01*
X74602305Y88473546D01*
X74602309Y88473545D01*
X74602310Y88473544D01*
X74645635Y88458384D01*
X74761943Y88417686D01*
X74929997Y88398751D01*
X74930000Y88398751D01*
X74930003Y88398751D01*
X75098056Y88417686D01*
X75098059Y88417687D01*
X75257690Y88473544D01*
X75257693Y88473547D01*
X75257696Y88473547D01*
X75260195Y88474750D01*
X75261971Y88475043D01*
X75264262Y88475844D01*
X75264402Y88475443D01*
X75329136Y88486105D01*
X75393271Y88458384D01*
X75432239Y88400390D01*
X75438000Y88363032D01*
X75437999Y87808752D01*
X75418314Y87741712D01*
X75407013Y87726750D01*
X75140373Y87424303D01*
X75140374Y87424303D01*
X74751488Y86922955D01*
X74394848Y86398175D01*
X74071863Y85852036D01*
X73942427Y85598003D01*
X73854156Y85424763D01*
X73806181Y85373967D01*
X73738360Y85357172D01*
X73672225Y85379710D01*
X73655990Y85393377D01*
X73622890Y85426477D01*
X73622884Y85426482D01*
X73479697Y85516453D01*
X73479694Y85516455D01*
X73320056Y85572315D01*
X73152003Y85591249D01*
X73151997Y85591249D01*
X72983943Y85572315D01*
X72824305Y85516455D01*
X72824302Y85516453D01*
X72681115Y85426482D01*
X72681109Y85426477D01*
X72561523Y85306891D01*
X72561518Y85306885D01*
X72471547Y85163698D01*
X72471545Y85163695D01*
X72415685Y85004057D01*
X72396751Y84836003D01*
X72396751Y84835998D01*
X72415685Y84667944D01*
X72471545Y84508306D01*
X72471547Y84508303D01*
X72561518Y84365116D01*
X72561523Y84365110D01*
X72681109Y84245524D01*
X72681115Y84245519D01*
X72824302Y84155548D01*
X72824305Y84155546D01*
X72824309Y84155545D01*
X72824310Y84155544D01*
X72961904Y84107398D01*
X72983944Y84099686D01*
X73157911Y84080085D01*
X73222325Y84053019D01*
X73261880Y83995424D01*
X73264018Y83925587D01*
X73263104Y83922270D01*
X73214809Y83756036D01*
X73139870Y83498092D01*
X73001459Y82878875D01*
X72902202Y82252190D01*
X72868988Y81900830D01*
X72842489Y81620502D01*
X72822560Y80986324D01*
X72842489Y80352146D01*
X72842490Y80352140D01*
X72902202Y79720458D01*
X73001459Y79093773D01*
X73139870Y78474556D01*
X73316889Y77865252D01*
X73531817Y77268266D01*
X73783807Y76685953D01*
X74071863Y76120612D01*
X74394848Y75574473D01*
X74751488Y75049693D01*
X75024031Y74698333D01*
X75140380Y74548337D01*
X75407014Y74245901D01*
X75436582Y74182596D01*
X75438000Y74163898D01*
X75438000Y32286969D01*
X75418315Y32219930D01*
X75365511Y32174175D01*
X75296353Y32164231D01*
X75260205Y32175246D01*
X75257700Y32176453D01*
X75098056Y32232315D01*
X74930003Y32251249D01*
X74929997Y32251249D01*
X74761943Y32232315D01*
X74602305Y32176455D01*
X74602302Y32176453D01*
X74459115Y32086482D01*
X74459109Y32086477D01*
X74339523Y31966891D01*
X74339518Y31966885D01*
X74249547Y31823698D01*
X74249545Y31823695D01*
X74193685Y31664057D01*
X74174751Y31496003D01*
X74174751Y31495998D01*
X74193685Y31327944D01*
X74251844Y31161738D01*
X74250547Y31161285D01*
X74260656Y31099844D01*
X74251425Y31068409D01*
X74251844Y31068262D01*
X74249544Y31061692D01*
X74249544Y31061690D01*
X74238954Y31031427D01*
X74193685Y30902057D01*
X74174751Y30734003D01*
X74174751Y30733998D01*
X74193685Y30565944D01*
X74251844Y30399738D01*
X74250547Y30399285D01*
X74260656Y30337844D01*
X74251425Y30306409D01*
X74251844Y30306262D01*
X74193685Y30140057D01*
X74174751Y29972003D01*
X74174751Y29971998D01*
X74193685Y29803944D01*
X74251844Y29637738D01*
X74250547Y29637285D01*
X74260656Y29575844D01*
X74251425Y29544409D01*
X74251844Y29544262D01*
X74193685Y29378057D01*
X74174751Y29210003D01*
X74174751Y29209998D01*
X74193685Y29041944D01*
X74249545Y28882306D01*
X74249547Y28882303D01*
X74339518Y28739116D01*
X74339523Y28739110D01*
X74459109Y28619524D01*
X74459115Y28619519D01*
X74602302Y28529548D01*
X74602305Y28529546D01*
X74602309Y28529545D01*
X74602310Y28529544D01*
X74645635Y28514384D01*
X74761943Y28473686D01*
X74929997Y28454751D01*
X74930000Y28454751D01*
X74930003Y28454751D01*
X75098056Y28473686D01*
X75098059Y28473687D01*
X75257690Y28529544D01*
X75257693Y28529547D01*
X75257696Y28529547D01*
X75260195Y28530750D01*
X75261971Y28531043D01*
X75264262Y28531844D01*
X75264402Y28531443D01*
X75329136Y28542105D01*
X75393271Y28514384D01*
X75432239Y28456390D01*
X75438000Y28419032D01*
X75438000Y24130000D01*
X146065100Y24130000D01*
X146132139Y24110315D01*
X146177894Y24057511D01*
X146189100Y24006000D01*
X146189100Y790000D01*
X146180113Y572729D01*
X146171439Y374082D01*
X146171022Y369116D01*
X146144124Y153320D01*
X146117715Y-47265D01*
X146116926Y-51897D01*
X146072418Y-264173D01*
X146028443Y-462526D01*
X146027335Y-466798D01*
X145965499Y-674503D01*
X145904281Y-868658D01*
X145902909Y-872552D01*
X145824136Y-1074433D01*
X145746124Y-1262769D01*
X145744544Y-1266274D01*
X145649350Y-1460992D01*
X145555125Y-1641998D01*
X145553391Y-1645107D01*
X145442397Y-1831382D01*
X145332640Y-2003663D01*
X145330809Y-2006377D01*
X145204762Y-2182918D01*
X145080316Y-2345099D01*
X145078439Y-2347426D01*
X144938157Y-2513059D01*
X144799026Y-2664895D01*
X144644495Y-2819426D01*
X144492659Y-2958557D01*
X144327026Y-3098839D01*
X144324699Y-3100716D01*
X144162518Y-3225162D01*
X143985977Y-3351209D01*
X143983263Y-3353040D01*
X143810982Y-3462797D01*
X143624707Y-3573791D01*
X143621598Y-3575525D01*
X143440592Y-3669750D01*
X143245874Y-3764944D01*
X143242369Y-3766524D01*
X143054033Y-3844536D01*
X142852152Y-3923309D01*
X142848258Y-3924681D01*
X142654103Y-3985899D01*
X142446398Y-4047735D01*
X142442126Y-4048843D01*
X142243773Y-4092818D01*
X142031497Y-4137326D01*
X142026865Y-4138115D01*
X141826280Y-4164524D01*
X141610484Y-4191422D01*
X141605518Y-4191839D01*
X141406871Y-4200513D01*
X141189600Y-4209500D01*
X1190000Y-4209500D01*
X972728Y-4200513D01*
X774080Y-4191839D01*
X769114Y-4191422D01*
X553319Y-4164524D01*
X352733Y-4138115D01*
X348101Y-4137326D01*
X135826Y-4092818D01*
X-62528Y-4048843D01*
X-66800Y-4047735D01*
X-274504Y-3985899D01*
X-468660Y-3924681D01*
X-472555Y-3923309D01*
X-674434Y-3844536D01*
X-862771Y-3766524D01*
X-866256Y-3764953D01*
X-925497Y-3735992D01*
X-1060993Y-3669750D01*
X-1242000Y-3575525D01*
X-1245109Y-3573791D01*
X-1431383Y-3462797D01*
X-1603665Y-3353040D01*
X-1606379Y-3351209D01*
X-1782919Y-3225162D01*
X-1945100Y-3100716D01*
X-1947428Y-3098839D01*
X-2113060Y-2958557D01*
X-2264897Y-2819424D01*
X-2419426Y-2664895D01*
X-2558561Y-2513055D01*
X-2698841Y-2347426D01*
X-2700718Y-2345098D01*
X-2825163Y-2182918D01*
X-2904450Y-2071870D01*
X40787500Y-2071870D01*
X40787501Y-2071876D01*
X40793908Y-2131483D01*
X40844202Y-2266328D01*
X40844206Y-2266335D01*
X40930452Y-2381544D01*
X40930455Y-2381547D01*
X41045664Y-2467793D01*
X41045671Y-2467797D01*
X41180517Y-2518091D01*
X41180516Y-2518091D01*
X41187444Y-2518835D01*
X41240127Y-2524500D01*
X42335872Y-2524499D01*
X42395483Y-2518091D01*
X42530331Y-2467796D01*
X42538379Y-2461770D01*
X42603842Y-2437351D01*
X42667474Y-2450895D01*
X42667645Y-2450483D01*
X42669875Y-2451406D01*
X42671146Y-2451677D01*
X42673273Y-2452814D01*
X42861868Y-2510024D01*
X43058000Y-2529341D01*
X43254132Y-2510024D01*
X43442727Y-2452814D01*
X43616538Y-2359910D01*
X43616544Y-2359904D01*
X43621607Y-2356523D01*
X43622706Y-2358168D01*
X43678614Y-2334408D01*
X43747485Y-2346183D01*
X43764155Y-2356891D01*
X43764399Y-2356527D01*
X43769458Y-2359907D01*
X43769462Y-2359910D01*
X43769464Y-2359911D01*
X43769467Y-2359913D01*
X43943266Y-2452811D01*
X43943269Y-2452811D01*
X43943273Y-2452814D01*
X44131868Y-2510024D01*
X44328000Y-2529341D01*
X44524132Y-2510024D01*
X44712727Y-2452814D01*
X44886538Y-2359910D01*
X44886544Y-2359904D01*
X44891607Y-2356523D01*
X44892706Y-2358168D01*
X44948614Y-2334408D01*
X45017485Y-2346183D01*
X45034149Y-2356887D01*
X45034393Y-2356523D01*
X45039458Y-2359907D01*
X45039462Y-2359910D01*
X45184344Y-2437351D01*
X45211147Y-2451678D01*
X45213273Y-2452814D01*
X45401868Y-2510024D01*
X45598000Y-2529341D01*
X45794132Y-2510024D01*
X45982727Y-2452814D01*
X45984853Y-2451678D01*
X46116060Y-2381546D01*
X46156538Y-2359910D01*
X46308883Y-2234883D01*
X46433910Y-2082538D01*
X46526814Y-1908727D01*
X46584024Y-1720132D01*
X46603341Y-1524002D01*
X83318751Y-1524002D01*
X83337685Y-1692056D01*
X83393545Y-1851694D01*
X83393547Y-1851697D01*
X83483518Y-1994884D01*
X83483523Y-1994890D01*
X83603109Y-2114476D01*
X83603115Y-2114481D01*
X83746302Y-2204452D01*
X83746305Y-2204454D01*
X83746309Y-2204455D01*
X83746310Y-2204456D01*
X83818913Y-2229860D01*
X83905943Y-2260314D01*
X84073997Y-2279249D01*
X84074000Y-2279249D01*
X84074003Y-2279249D01*
X84242056Y-2260314D01*
X84242059Y-2260313D01*
X84401690Y-2204456D01*
X84401692Y-2204454D01*
X84401694Y-2204454D01*
X84401697Y-2204452D01*
X84544884Y-2114481D01*
X84544885Y-2114480D01*
X84544890Y-2114477D01*
X84664477Y-1994890D01*
X84664481Y-1994884D01*
X84754452Y-1851697D01*
X84754454Y-1851694D01*
X84754454Y-1851692D01*
X84754456Y-1851690D01*
X84810313Y-1692059D01*
X84810313Y-1692058D01*
X84810314Y-1692056D01*
X84829249Y-1524002D01*
X84829249Y-1523997D01*
X84810314Y-1355943D01*
X84754454Y-1196305D01*
X84754452Y-1196302D01*
X84664481Y-1053115D01*
X84664476Y-1053109D01*
X84544890Y-933523D01*
X84544884Y-933518D01*
X84401697Y-843547D01*
X84401694Y-843545D01*
X84242056Y-787685D01*
X84074003Y-768751D01*
X84073997Y-768751D01*
X83905943Y-787685D01*
X83746305Y-843545D01*
X83746302Y-843547D01*
X83603115Y-933518D01*
X83603109Y-933523D01*
X83483523Y-1053109D01*
X83483518Y-1053115D01*
X83393547Y-1196302D01*
X83393545Y-1196305D01*
X83337685Y-1355943D01*
X83318751Y-1523997D01*
X83318751Y-1524002D01*
X46603341Y-1524002D01*
X46603341Y-1524000D01*
X46584024Y-1327868D01*
X46526814Y-1139273D01*
X46526811Y-1139269D01*
X46526811Y-1139266D01*
X46433913Y-965467D01*
X46433909Y-965460D01*
X46308883Y-813116D01*
X46156539Y-688090D01*
X46156532Y-688086D01*
X45982733Y-595188D01*
X45982727Y-595186D01*
X45794132Y-537976D01*
X45794129Y-537975D01*
X45598000Y-518659D01*
X45401870Y-537975D01*
X45213266Y-595188D01*
X45039467Y-688086D01*
X45034399Y-691473D01*
X45033307Y-689839D01*
X44977311Y-713599D01*
X44908448Y-701784D01*
X44891844Y-691109D01*
X44891601Y-691473D01*
X44886532Y-688086D01*
X44712733Y-595188D01*
X44712727Y-595186D01*
X44524132Y-537976D01*
X44524129Y-537975D01*
X44328000Y-518659D01*
X44131870Y-537975D01*
X43943266Y-595188D01*
X43769467Y-688086D01*
X43764399Y-691473D01*
X43763305Y-689836D01*
X43707337Y-713596D01*
X43638471Y-701795D01*
X43621843Y-691109D01*
X43621601Y-691473D01*
X43616532Y-688086D01*
X43442733Y-595188D01*
X43442727Y-595186D01*
X43254132Y-537976D01*
X43254129Y-537975D01*
X43058000Y-518659D01*
X42861870Y-537975D01*
X42782464Y-562063D01*
X42673273Y-595186D01*
X42673272Y-595186D01*
X42673267Y-595188D01*
X42671143Y-596324D01*
X42669898Y-596583D01*
X42667641Y-597518D01*
X42667463Y-597089D01*
X42602740Y-610564D01*
X42538382Y-586231D01*
X42530331Y-580204D01*
X42530328Y-580202D01*
X42395482Y-529908D01*
X42395483Y-529908D01*
X42335883Y-523501D01*
X42335881Y-523500D01*
X42335873Y-523500D01*
X42335864Y-523500D01*
X41240129Y-523500D01*
X41240123Y-523501D01*
X41180516Y-529908D01*
X41045671Y-580202D01*
X41045664Y-580206D01*
X40930455Y-666452D01*
X40930452Y-666455D01*
X40844206Y-781664D01*
X40844202Y-781671D01*
X40793908Y-916517D01*
X40787501Y-976116D01*
X40787500Y-976135D01*
X40787500Y-2071870D01*
X-2904450Y-2071870D01*
X-2951211Y-2006377D01*
X-2953043Y-2003662D01*
X-3062798Y-1831382D01*
X-3173793Y-1645107D01*
X-3175527Y-1641998D01*
X-3269751Y-1460992D01*
X-3334833Y-1327868D01*
X-3364955Y-1266252D01*
X-3366506Y-1262817D01*
X-3444537Y-1074433D01*
X-3523320Y-872530D01*
X-3524683Y-868658D01*
X-3552112Y-781664D01*
X-3585900Y-674503D01*
X-3647743Y-466778D01*
X-3648845Y-462526D01*
X-3655128Y-434187D01*
X-3692825Y-264145D01*
X-3696368Y-247249D01*
X-3720703Y-131187D01*
X-1750500Y-131187D01*
X-1734542Y-237057D01*
X-1711396Y-390615D01*
X-1711395Y-390617D01*
X-1711394Y-390623D01*
X-1634062Y-641326D01*
X-1520233Y-877696D01*
X-1520232Y-877697D01*
X-1520230Y-877700D01*
X-1520228Y-877704D01*
X-1386113Y-1074414D01*
X-1372433Y-1094479D01*
X-1193986Y-1286801D01*
X-1193982Y-1286804D01*
X-1193981Y-1286805D01*
X-988857Y-1450386D01*
X-761643Y-1581568D01*
X-517416Y-1677420D01*
X-261630Y-1735802D01*
X-261624Y-1735802D01*
X-261621Y-1735803D01*
X-65500Y-1750500D01*
X-65494Y-1750500D01*
X65500Y-1750500D01*
X261620Y-1735803D01*
X261622Y-1735802D01*
X261630Y-1735802D01*
X517416Y-1677420D01*
X761643Y-1581568D01*
X988857Y-1450386D01*
X1193981Y-1286805D01*
X1372433Y-1094479D01*
X1520228Y-877704D01*
X1634063Y-641323D01*
X1711396Y-390615D01*
X1750500Y-131182D01*
X1750500Y-2D01*
X46742751Y-2D01*
X46761685Y-168056D01*
X46817545Y-327694D01*
X46817547Y-327697D01*
X46907518Y-470884D01*
X46907523Y-470890D01*
X47027109Y-590476D01*
X47027115Y-590481D01*
X47170302Y-680452D01*
X47170305Y-680454D01*
X47170309Y-680455D01*
X47170310Y-680456D01*
X47200755Y-691109D01*
X47329943Y-736314D01*
X47497997Y-755249D01*
X47498000Y-755249D01*
X47498003Y-755249D01*
X47666056Y-736314D01*
X47666059Y-736313D01*
X47825690Y-680456D01*
X47825692Y-680454D01*
X47825694Y-680454D01*
X47825697Y-680452D01*
X47968884Y-590481D01*
X47968885Y-590480D01*
X47968890Y-590477D01*
X48088477Y-470890D01*
X48091048Y-466798D01*
X48178452Y-327697D01*
X48178454Y-327694D01*
X48178454Y-327692D01*
X48178456Y-327690D01*
X48234313Y-168059D01*
X48234313Y-168058D01*
X48234314Y-168056D01*
X48253249Y-2D01*
X48253249Y3D01*
X48234314Y168057D01*
X48178454Y327695D01*
X48178452Y327698D01*
X48088481Y470885D01*
X48088476Y470891D01*
X48051369Y507998D01*
X64522751Y507998D01*
X64541685Y339944D01*
X64597545Y180306D01*
X64597547Y180303D01*
X64687518Y37116D01*
X64687523Y37110D01*
X64807109Y-82476D01*
X64807115Y-82481D01*
X64950302Y-172452D01*
X64950305Y-172454D01*
X64950309Y-172455D01*
X64950310Y-172456D01*
X64993384Y-187528D01*
X65109943Y-228314D01*
X65277997Y-247249D01*
X65278000Y-247249D01*
X65278003Y-247249D01*
X65446059Y-228313D01*
X65446061Y-228313D01*
X65571705Y-184348D01*
X65641484Y-180786D01*
X65700341Y-213708D01*
X65823109Y-336476D01*
X65823115Y-336481D01*
X65966302Y-426452D01*
X65966305Y-426454D01*
X65966309Y-426455D01*
X65966310Y-426456D01*
X65988413Y-434190D01*
X66125943Y-482314D01*
X66293997Y-501249D01*
X66294000Y-501249D01*
X66294003Y-501249D01*
X66462056Y-482314D01*
X66494721Y-470884D01*
X66621690Y-426456D01*
X66621692Y-426454D01*
X66621694Y-426454D01*
X66621697Y-426452D01*
X66764884Y-336481D01*
X66764885Y-336480D01*
X66764890Y-336477D01*
X66884477Y-216890D01*
X66884481Y-216884D01*
X66974452Y-73697D01*
X66974454Y-73694D01*
X66974454Y-73692D01*
X66974456Y-73690D01*
X67030313Y85941D01*
X67030313Y85942D01*
X67030314Y85944D01*
X67049249Y253998D01*
X67049249Y254003D01*
X67030314Y422057D01*
X67000242Y507998D01*
X69348751Y507998D01*
X69367685Y339944D01*
X69423545Y180306D01*
X69423547Y180303D01*
X69513518Y37116D01*
X69513523Y37110D01*
X69633109Y-82476D01*
X69633115Y-82481D01*
X69776302Y-172452D01*
X69776305Y-172454D01*
X69776309Y-172455D01*
X69776310Y-172456D01*
X69819384Y-187528D01*
X69935943Y-228314D01*
X70103997Y-247249D01*
X70104000Y-247249D01*
X70104003Y-247249D01*
X70272056Y-228314D01*
X70304721Y-216884D01*
X70431690Y-172456D01*
X70431692Y-172454D01*
X70431694Y-172454D01*
X70431697Y-172452D01*
X70574884Y-82481D01*
X70574885Y-82480D01*
X70574890Y-82477D01*
X70694477Y37110D01*
X70722398Y81546D01*
X70784452Y180303D01*
X70784454Y180306D01*
X70784454Y180308D01*
X70784456Y180310D01*
X70810240Y253998D01*
X71380751Y253998D01*
X71399685Y85944D01*
X71455545Y-73694D01*
X71455547Y-73697D01*
X71545518Y-216884D01*
X71545523Y-216890D01*
X71665109Y-336476D01*
X71665115Y-336481D01*
X71808302Y-426452D01*
X71808305Y-426454D01*
X71808309Y-426455D01*
X71808310Y-426456D01*
X71830413Y-434190D01*
X71967943Y-482314D01*
X72135997Y-501249D01*
X72136000Y-501249D01*
X72136003Y-501249D01*
X72304056Y-482314D01*
X72336721Y-470884D01*
X72463690Y-426456D01*
X72463692Y-426454D01*
X72463694Y-426454D01*
X72463697Y-426452D01*
X72606884Y-336481D01*
X72606885Y-336480D01*
X72606890Y-336477D01*
X72726477Y-216890D01*
X72726481Y-216884D01*
X72816452Y-73697D01*
X72816454Y-73694D01*
X72816454Y-73692D01*
X72816456Y-73690D01*
X72872313Y85941D01*
X72872313Y85943D01*
X72872314Y85945D01*
X72884230Y191704D01*
X72911296Y256118D01*
X72968891Y295673D01*
X73038728Y297811D01*
X73095131Y265502D01*
X73189109Y171524D01*
X73189115Y171519D01*
X73332302Y81548D01*
X73332305Y81546D01*
X73332309Y81545D01*
X73332310Y81544D01*
X73404913Y56140D01*
X73491943Y25686D01*
X73659997Y6751D01*
X73660000Y6751D01*
X73660003Y6751D01*
X73828056Y25686D01*
X73860721Y37116D01*
X73987690Y81544D01*
X73987692Y81546D01*
X73987694Y81546D01*
X73987697Y81548D01*
X74130884Y171519D01*
X74130885Y171520D01*
X74130890Y171523D01*
X74213365Y253998D01*
X83064751Y253998D01*
X83083685Y85944D01*
X83139545Y-73694D01*
X83139547Y-73697D01*
X83229518Y-216884D01*
X83229523Y-216890D01*
X83349109Y-336476D01*
X83349115Y-336481D01*
X83492302Y-426452D01*
X83492305Y-426454D01*
X83492309Y-426455D01*
X83492310Y-426456D01*
X83514413Y-434190D01*
X83651943Y-482314D01*
X83819997Y-501249D01*
X83820000Y-501249D01*
X83820003Y-501249D01*
X83988056Y-482314D01*
X84020721Y-470884D01*
X84147690Y-426456D01*
X84147692Y-426454D01*
X84147694Y-426454D01*
X84147697Y-426452D01*
X84290884Y-336481D01*
X84290885Y-336480D01*
X84290890Y-336477D01*
X84410477Y-216890D01*
X84410481Y-216884D01*
X84500452Y-73697D01*
X84500454Y-73694D01*
X84500454Y-73692D01*
X84500456Y-73690D01*
X84556313Y85941D01*
X84556313Y85942D01*
X84556314Y85944D01*
X84575249Y253998D01*
X84575249Y254003D01*
X84556314Y422057D01*
X84506941Y563156D01*
X84500456Y581690D01*
X84500455Y581691D01*
X84500454Y581695D01*
X84500452Y581698D01*
X84410481Y724885D01*
X84410476Y724891D01*
X84362367Y773000D01*
X125649341Y773000D01*
X125669936Y537597D01*
X125669938Y537587D01*
X125731094Y309345D01*
X125731096Y309341D01*
X125731097Y309337D01*
X125814172Y131183D01*
X125830965Y95170D01*
X125830967Y95166D01*
X125939281Y-59521D01*
X125966505Y-98401D01*
X126133599Y-265495D01*
X126210135Y-319086D01*
X126327165Y-401032D01*
X126327167Y-401033D01*
X126327170Y-401035D01*
X126541337Y-500903D01*
X126769592Y-562063D01*
X126940319Y-577000D01*
X127004999Y-582659D01*
X127005000Y-582659D01*
X127005001Y-582659D01*
X127069681Y-577000D01*
X127240408Y-562063D01*
X127468663Y-500903D01*
X127682830Y-401035D01*
X127876401Y-265495D01*
X127998717Y-143178D01*
X128060036Y-109696D01*
X128129728Y-114680D01*
X128185662Y-156551D01*
X128202577Y-187528D01*
X128251646Y-319088D01*
X128251649Y-319093D01*
X128337809Y-434187D01*
X128337812Y-434190D01*
X128452906Y-520350D01*
X128452913Y-520354D01*
X128587620Y-570596D01*
X128587627Y-570598D01*
X128647155Y-576999D01*
X128647172Y-577000D01*
X129295000Y-577000D01*
X129295000Y160699D01*
X129314685Y227738D01*
X129367489Y273493D01*
X129436647Y283437D01*
X129509237Y273000D01*
X129509238Y273000D01*
X129580762Y273000D01*
X129580763Y273000D01*
X129653353Y283437D01*
X129722512Y273493D01*
X129775315Y227738D01*
X129795000Y160699D01*
X129795000Y-577000D01*
X130442828Y-577000D01*
X130442844Y-576999D01*
X130502372Y-570598D01*
X130502379Y-570596D01*
X130637086Y-520354D01*
X130637093Y-520350D01*
X130752187Y-434190D01*
X130752190Y-434187D01*
X130788872Y-385187D01*
X139981500Y-385187D01*
X139998942Y-500901D01*
X140020604Y-644615D01*
X140020605Y-644617D01*
X140020606Y-644623D01*
X140097938Y-895326D01*
X140211767Y-1131696D01*
X140211768Y-1131697D01*
X140211770Y-1131700D01*
X140211772Y-1131704D01*
X140345515Y-1327868D01*
X140359567Y-1348479D01*
X140538014Y-1540801D01*
X140538018Y-1540804D01*
X140538019Y-1540805D01*
X140743143Y-1704386D01*
X140970357Y-1835568D01*
X141214584Y-1931420D01*
X141470370Y-1989802D01*
X141470376Y-1989802D01*
X141470379Y-1989803D01*
X141666500Y-2004500D01*
X141666506Y-2004500D01*
X141797500Y-2004500D01*
X141993620Y-1989803D01*
X141993622Y-1989802D01*
X141993630Y-1989802D01*
X142249416Y-1931420D01*
X142493643Y-1835568D01*
X142720857Y-1704386D01*
X142925981Y-1540805D01*
X143104433Y-1348479D01*
X143252228Y-1131704D01*
X143366063Y-895323D01*
X143443396Y-644615D01*
X143482500Y-385182D01*
X143482500Y-122818D01*
X143443396Y136615D01*
X143366063Y387323D01*
X143307947Y508003D01*
X143252232Y623697D01*
X143252231Y623698D01*
X143252230Y623699D01*
X143252228Y623704D01*
X143104433Y840479D01*
X143069899Y877698D01*
X142925985Y1032802D01*
X142843631Y1098477D01*
X142720857Y1196386D01*
X142493643Y1327568D01*
X142249416Y1423420D01*
X142249411Y1423422D01*
X142249402Y1423424D01*
X142031818Y1473086D01*
X141993630Y1481802D01*
X141993629Y1481803D01*
X141993625Y1481803D01*
X141993620Y1481804D01*
X141797500Y1496500D01*
X141797494Y1496500D01*
X141666506Y1496500D01*
X141666500Y1496500D01*
X141470379Y1481804D01*
X141470374Y1481803D01*
X141214597Y1423424D01*
X141214578Y1423418D01*
X140970356Y1327568D01*
X140743143Y1196386D01*
X140538014Y1032802D01*
X140359567Y840480D01*
X140211768Y623698D01*
X140211767Y623697D01*
X140097938Y387327D01*
X140020606Y136624D01*
X140020605Y136619D01*
X140020604Y136615D01*
X140012966Y85941D01*
X139981500Y-122812D01*
X139981500Y-385187D01*
X130788872Y-385187D01*
X130838350Y-319093D01*
X130838354Y-319086D01*
X130888596Y-184379D01*
X130888598Y-184372D01*
X130894999Y-124844D01*
X130895000Y-124827D01*
X130895000Y523000D01*
X130158347Y523000D01*
X130091308Y542685D01*
X130045553Y595489D01*
X130035609Y664647D01*
X130039369Y681933D01*
X130045000Y701112D01*
X130045000Y844889D01*
X130039369Y864067D01*
X130039370Y933936D01*
X130077145Y992714D01*
X130140701Y1021738D01*
X130158347Y1023000D01*
X130895000Y1023000D01*
X130895000Y1670828D01*
X130894999Y1670845D01*
X130888598Y1730373D01*
X130888596Y1730380D01*
X130838354Y1865087D01*
X130838350Y1865094D01*
X130752190Y1980188D01*
X130752187Y1980191D01*
X130637093Y2066351D01*
X130637086Y2066355D01*
X130502379Y2116597D01*
X130502372Y2116599D01*
X130442844Y2123000D01*
X129795000Y2123000D01*
X129795000Y1385302D01*
X129775315Y1318263D01*
X129722511Y1272508D01*
X129653355Y1262564D01*
X129580766Y1273000D01*
X129580763Y1273000D01*
X129509237Y1273000D01*
X129509233Y1273000D01*
X129436645Y1262564D01*
X129367487Y1272508D01*
X129314684Y1318264D01*
X129295000Y1385302D01*
X129295000Y2123000D01*
X128647155Y2123000D01*
X128587627Y2116599D01*
X128587620Y2116597D01*
X128452913Y2066355D01*
X128452906Y2066351D01*
X128337812Y1980191D01*
X128337809Y1980188D01*
X128251649Y1865094D01*
X128251645Y1865087D01*
X128202578Y1733530D01*
X128160707Y1677596D01*
X128095242Y1653179D01*
X128026969Y1668031D01*
X127998715Y1689181D01*
X127952092Y1735804D01*
X127876401Y1811495D01*
X127876397Y1811498D01*
X127876396Y1811499D01*
X127682834Y1947033D01*
X127682830Y1947035D01*
X127645398Y1964490D01*
X127468663Y2046903D01*
X127468659Y2046904D01*
X127468655Y2046906D01*
X127240413Y2108062D01*
X127240403Y2108064D01*
X127005001Y2128659D01*
X127004999Y2128659D01*
X126769596Y2108064D01*
X126769586Y2108062D01*
X126541344Y2046906D01*
X126541335Y2046902D01*
X126327171Y1947036D01*
X126327169Y1947035D01*
X126133597Y1811495D01*
X125966505Y1644403D01*
X125830965Y1450831D01*
X125830964Y1450829D01*
X125731098Y1236665D01*
X125731094Y1236656D01*
X125669938Y1008414D01*
X125669936Y1008404D01*
X125649341Y773001D01*
X125649341Y773000D01*
X84362367Y773000D01*
X84290890Y844477D01*
X84290884Y844482D01*
X84147697Y934453D01*
X84147694Y934455D01*
X83988056Y990315D01*
X83820003Y1009249D01*
X83819997Y1009249D01*
X83651943Y990315D01*
X83492305Y934455D01*
X83492302Y934453D01*
X83349115Y844482D01*
X83349109Y844477D01*
X83229523Y724891D01*
X83229518Y724885D01*
X83139547Y581698D01*
X83139545Y581695D01*
X83083685Y422057D01*
X83064751Y254003D01*
X83064751Y253998D01*
X74213365Y253998D01*
X74250477Y291110D01*
X74299492Y369116D01*
X74340452Y434303D01*
X74340454Y434306D01*
X74340454Y434308D01*
X74340456Y434310D01*
X74396313Y593941D01*
X74396313Y593942D01*
X74396314Y593944D01*
X74415249Y761998D01*
X74415249Y762003D01*
X74396314Y930057D01*
X74340454Y1089695D01*
X74340452Y1089698D01*
X74250481Y1232885D01*
X74250476Y1232891D01*
X74130890Y1352477D01*
X74130884Y1352482D01*
X73987697Y1442453D01*
X73987694Y1442455D01*
X73841536Y1493598D01*
X74697951Y1493598D01*
X74716885Y1325544D01*
X74772745Y1165906D01*
X74772747Y1165903D01*
X74862718Y1022716D01*
X74862723Y1022710D01*
X74982309Y903124D01*
X74982315Y903119D01*
X75125502Y813148D01*
X75125505Y813146D01*
X75125509Y813145D01*
X75125510Y813144D01*
X75190223Y790500D01*
X75285143Y757286D01*
X75453197Y738351D01*
X75453200Y738351D01*
X75453203Y738351D01*
X75621256Y757286D01*
X75634728Y762000D01*
X75780890Y813144D01*
X75780892Y813146D01*
X75780894Y813146D01*
X75780897Y813148D01*
X75924084Y903119D01*
X75924085Y903120D01*
X75924090Y903123D01*
X76043677Y1022710D01*
X76088773Y1094479D01*
X76133652Y1165903D01*
X76133654Y1165906D01*
X76133654Y1165908D01*
X76133656Y1165910D01*
X76189513Y1325541D01*
X76189513Y1325542D01*
X76189514Y1325544D01*
X76208449Y1493598D01*
X76208449Y1493603D01*
X76189514Y1661657D01*
X76133654Y1821295D01*
X76133652Y1821298D01*
X76043681Y1964485D01*
X76043676Y1964491D01*
X75976169Y2031998D01*
X83318751Y2031998D01*
X83337685Y1863944D01*
X83393545Y1704306D01*
X83393547Y1704303D01*
X83483518Y1561116D01*
X83483523Y1561110D01*
X83603109Y1441524D01*
X83603115Y1441519D01*
X83746302Y1351548D01*
X83746305Y1351546D01*
X83746309Y1351545D01*
X83746310Y1351544D01*
X83814830Y1327568D01*
X83905943Y1295686D01*
X84073997Y1276751D01*
X84074000Y1276751D01*
X84074003Y1276751D01*
X84242056Y1295686D01*
X84242059Y1295687D01*
X84401690Y1351544D01*
X84401692Y1351546D01*
X84401694Y1351546D01*
X84401697Y1351548D01*
X84544884Y1441519D01*
X84544885Y1441520D01*
X84544890Y1441523D01*
X84664477Y1561110D01*
X84677332Y1581568D01*
X84754452Y1704303D01*
X84754454Y1704306D01*
X84754454Y1704308D01*
X84754456Y1704310D01*
X84810313Y1863941D01*
X84810313Y1863942D01*
X84810314Y1863944D01*
X84829249Y2031998D01*
X84829249Y2032003D01*
X84810314Y2200057D01*
X84754454Y2359695D01*
X84754452Y2359698D01*
X84664481Y2502885D01*
X84664476Y2502891D01*
X84544890Y2622477D01*
X84544884Y2622482D01*
X84401697Y2712453D01*
X84401694Y2712455D01*
X84242056Y2768315D01*
X84074003Y2787249D01*
X84073997Y2787249D01*
X83905943Y2768315D01*
X83746305Y2712455D01*
X83746302Y2712453D01*
X83603115Y2622482D01*
X83603109Y2622477D01*
X83483523Y2502891D01*
X83483518Y2502885D01*
X83393547Y2359698D01*
X83393545Y2359695D01*
X83337685Y2200057D01*
X83318751Y2032003D01*
X83318751Y2031998D01*
X75976169Y2031998D01*
X75924090Y2084077D01*
X75924084Y2084082D01*
X75780897Y2174053D01*
X75780894Y2174055D01*
X75621256Y2229915D01*
X75453203Y2248849D01*
X75453197Y2248849D01*
X75285143Y2229915D01*
X75125505Y2174055D01*
X75125502Y2174053D01*
X74982315Y2084082D01*
X74982309Y2084077D01*
X74862723Y1964491D01*
X74862718Y1964485D01*
X74772747Y1821298D01*
X74772745Y1821295D01*
X74716885Y1661657D01*
X74697951Y1493603D01*
X74697951Y1493598D01*
X73841536Y1493598D01*
X73828056Y1498315D01*
X73660003Y1517249D01*
X73659997Y1517249D01*
X73491943Y1498315D01*
X73332305Y1442455D01*
X73332302Y1442453D01*
X73189115Y1352482D01*
X73189109Y1352477D01*
X73069523Y1232891D01*
X73069518Y1232885D01*
X72979547Y1089698D01*
X72979545Y1089695D01*
X72923685Y930056D01*
X72911769Y824296D01*
X72884702Y759882D01*
X72827107Y720327D01*
X72757270Y718190D01*
X72700868Y750499D01*
X72606890Y844477D01*
X72606884Y844482D01*
X72463697Y934453D01*
X72463694Y934455D01*
X72304056Y990315D01*
X72136003Y1009249D01*
X72135997Y1009249D01*
X71967943Y990315D01*
X71808305Y934455D01*
X71808302Y934453D01*
X71665115Y844482D01*
X71665109Y844477D01*
X71545523Y724891D01*
X71545518Y724885D01*
X71455547Y581698D01*
X71455545Y581695D01*
X71399685Y422057D01*
X71380751Y254003D01*
X71380751Y253998D01*
X70810240Y253998D01*
X70840313Y339941D01*
X70840313Y339942D01*
X70840314Y339944D01*
X70859249Y507998D01*
X70859249Y508003D01*
X70840314Y676057D01*
X70806392Y773001D01*
X70784456Y835690D01*
X70784455Y835691D01*
X70784454Y835695D01*
X70784452Y835698D01*
X70694481Y978885D01*
X70694476Y978891D01*
X70574890Y1098477D01*
X70574884Y1098482D01*
X70431697Y1188453D01*
X70431694Y1188455D01*
X70272056Y1244315D01*
X70104003Y1263249D01*
X70103997Y1263249D01*
X69935943Y1244315D01*
X69776305Y1188455D01*
X69776302Y1188453D01*
X69633115Y1098482D01*
X69633109Y1098477D01*
X69513523Y978891D01*
X69513518Y978885D01*
X69423547Y835698D01*
X69423545Y835695D01*
X69367685Y676057D01*
X69348751Y508003D01*
X69348751Y507998D01*
X67000242Y507998D01*
X66980941Y563156D01*
X66974456Y581690D01*
X66974455Y581691D01*
X66974454Y581695D01*
X66974452Y581698D01*
X66884481Y724885D01*
X66884476Y724891D01*
X66764890Y844477D01*
X66764884Y844482D01*
X66621697Y934453D01*
X66621694Y934455D01*
X66462056Y990315D01*
X66294003Y1009249D01*
X66293997Y1009249D01*
X66125942Y990314D01*
X66000293Y946348D01*
X65930514Y942787D01*
X65871658Y975709D01*
X65748890Y1098477D01*
X65748884Y1098482D01*
X65605697Y1188453D01*
X65605694Y1188455D01*
X65446056Y1244315D01*
X65278003Y1263249D01*
X65277997Y1263249D01*
X65109943Y1244315D01*
X64950305Y1188455D01*
X64950302Y1188453D01*
X64807115Y1098482D01*
X64807109Y1098477D01*
X64687523Y978891D01*
X64687518Y978885D01*
X64597547Y835698D01*
X64597545Y835695D01*
X64541685Y676057D01*
X64522751Y508003D01*
X64522751Y507998D01*
X48051369Y507998D01*
X47968890Y590477D01*
X47968884Y590482D01*
X47825697Y680453D01*
X47825694Y680455D01*
X47666056Y736315D01*
X47498003Y755249D01*
X47497997Y755249D01*
X47329943Y736315D01*
X47170305Y680455D01*
X47170302Y680453D01*
X47027115Y590482D01*
X47027109Y590477D01*
X46907523Y470891D01*
X46907518Y470885D01*
X46817547Y327698D01*
X46817545Y327695D01*
X46761685Y168057D01*
X46742751Y3D01*
X46742751Y-2D01*
X1750500Y-2D01*
X1750500Y131182D01*
X1711396Y390615D01*
X1634063Y641323D01*
X1588318Y736313D01*
X1520232Y877697D01*
X1520231Y877698D01*
X1520230Y877699D01*
X1520228Y877704D01*
X1372433Y1094479D01*
X1362441Y1105247D01*
X1193985Y1286802D01*
X1111631Y1352477D01*
X988857Y1450386D01*
X761643Y1581568D01*
X517416Y1677420D01*
X517411Y1677422D01*
X517402Y1677424D01*
X271584Y1733530D01*
X261630Y1735802D01*
X261629Y1735803D01*
X261625Y1735803D01*
X261620Y1735804D01*
X65500Y1750500D01*
X65494Y1750500D01*
X-65494Y1750500D01*
X-65500Y1750500D01*
X-261621Y1735804D01*
X-261626Y1735803D01*
X-517403Y1677424D01*
X-517422Y1677418D01*
X-761644Y1581568D01*
X-988857Y1450386D01*
X-1193986Y1286802D01*
X-1372433Y1094480D01*
X-1520232Y877698D01*
X-1520233Y877697D01*
X-1634062Y641327D01*
X-1711394Y390624D01*
X-1711395Y390619D01*
X-1711396Y390615D01*
X-1723646Y309345D01*
X-1750500Y131188D01*
X-1750500Y-131187D01*
X-3720703Y-131187D01*
X-3737329Y-51894D01*
X-3738117Y-47265D01*
X-3749226Y37116D01*
X-3764511Y153209D01*
X-3791426Y369135D01*
X-3791840Y374066D01*
X-3800514Y572729D01*
X-3809500Y790000D01*
X-3809500Y790500D01*
X-3809500Y3935110D01*
X14031824Y3935110D01*
X14061095Y3744034D01*
X14061098Y3744022D01*
X14128234Y3562752D01*
X14128238Y3562743D01*
X14230488Y3398697D01*
X14230489Y3398696D01*
X14230491Y3398693D01*
X14363677Y3258581D01*
X14522342Y3148147D01*
X14699988Y3071913D01*
X14889344Y3033000D01*
X15034207Y3033000D01*
X15178322Y3047655D01*
X15362759Y3105523D01*
X15362760Y3105524D01*
X15362768Y3105526D01*
X15531791Y3199341D01*
X15678468Y3325260D01*
X15796796Y3478127D01*
X15881930Y3651684D01*
X15930385Y3838826D01*
X15940176Y4031890D01*
X15910903Y4222974D01*
X15875710Y4317998D01*
X43186751Y4317998D01*
X43205685Y4149944D01*
X43261545Y3990306D01*
X43261547Y3990303D01*
X43351518Y3847116D01*
X43351523Y3847110D01*
X43471109Y3727524D01*
X43471115Y3727519D01*
X43614302Y3637548D01*
X43614305Y3637546D01*
X43614309Y3637545D01*
X43614310Y3637544D01*
X43686913Y3612140D01*
X43773943Y3581686D01*
X43941997Y3562751D01*
X43942000Y3562751D01*
X43942003Y3562751D01*
X44110056Y3581686D01*
X44110059Y3581687D01*
X44269690Y3637544D01*
X44269692Y3637546D01*
X44269694Y3637546D01*
X44269697Y3637548D01*
X44412884Y3727519D01*
X44412885Y3727520D01*
X44412890Y3727523D01*
X44495365Y3809998D01*
X83318751Y3809998D01*
X83337685Y3641944D01*
X83393545Y3482306D01*
X83393547Y3482303D01*
X83483518Y3339116D01*
X83483523Y3339110D01*
X83603109Y3219524D01*
X83603115Y3219519D01*
X83746302Y3129548D01*
X83746305Y3129546D01*
X83746309Y3129545D01*
X83746310Y3129544D01*
X83814938Y3105530D01*
X83905943Y3073686D01*
X84073997Y3054751D01*
X84074000Y3054751D01*
X84074003Y3054751D01*
X84242056Y3073686D01*
X84242059Y3073687D01*
X84401690Y3129544D01*
X84401692Y3129546D01*
X84401694Y3129546D01*
X84401697Y3129548D01*
X84544884Y3219519D01*
X84544885Y3219520D01*
X84544890Y3219523D01*
X84664477Y3339110D01*
X84701918Y3398697D01*
X84754452Y3482303D01*
X84754454Y3482306D01*
X84754454Y3482308D01*
X84754456Y3482310D01*
X84810313Y3641941D01*
X84810313Y3641942D01*
X84810314Y3641944D01*
X84829249Y3809998D01*
X84829249Y3810003D01*
X84810314Y3978057D01*
X84757785Y4128177D01*
X84754456Y4137690D01*
X84754455Y4137691D01*
X84754454Y4137695D01*
X84754452Y4137698D01*
X84664481Y4280885D01*
X84664476Y4280891D01*
X84544890Y4400477D01*
X84544884Y4400482D01*
X84401697Y4490453D01*
X84401694Y4490455D01*
X84242056Y4546315D01*
X84074003Y4565249D01*
X84073997Y4565249D01*
X83905943Y4546315D01*
X83746305Y4490455D01*
X83746302Y4490453D01*
X83603115Y4400482D01*
X83603109Y4400477D01*
X83483523Y4280891D01*
X83483518Y4280885D01*
X83393547Y4137698D01*
X83393545Y4137695D01*
X83337685Y3978057D01*
X83318751Y3810003D01*
X83318751Y3809998D01*
X44495365Y3809998D01*
X44532477Y3847110D01*
X44532481Y3847116D01*
X44622452Y3990303D01*
X44622454Y3990306D01*
X44622454Y3990308D01*
X44622456Y3990310D01*
X44678313Y4149941D01*
X44678313Y4149942D01*
X44678314Y4149944D01*
X44697249Y4317998D01*
X44697249Y4318003D01*
X44678314Y4486057D01*
X44622454Y4645695D01*
X44622452Y4645698D01*
X44532481Y4788885D01*
X44532476Y4788891D01*
X44412890Y4908477D01*
X44412884Y4908482D01*
X44269697Y4998453D01*
X44269694Y4998455D01*
X44110056Y5054315D01*
X43942003Y5073249D01*
X43941997Y5073249D01*
X43773943Y5054315D01*
X43614305Y4998455D01*
X43614302Y4998453D01*
X43471115Y4908482D01*
X43471109Y4908477D01*
X43351523Y4788891D01*
X43351518Y4788885D01*
X43261547Y4645698D01*
X43261545Y4645695D01*
X43205685Y4486057D01*
X43186751Y4318003D01*
X43186751Y4317998D01*
X15875710Y4317998D01*
X15843764Y4404253D01*
X15843761Y4404258D01*
X15741511Y4568304D01*
X15741510Y4568305D01*
X15741509Y4568307D01*
X15608323Y4708419D01*
X15523211Y4767659D01*
X15449657Y4818854D01*
X15272012Y4895087D01*
X15082656Y4934000D01*
X14937794Y4934000D01*
X14937793Y4934000D01*
X14793677Y4919346D01*
X14609240Y4861478D01*
X14609225Y4861471D01*
X14440211Y4767661D01*
X14440206Y4767658D01*
X14293533Y4641742D01*
X14293531Y4641741D01*
X14175205Y4488876D01*
X14175203Y4488872D01*
X14090068Y4315313D01*
X14041616Y4128183D01*
X14041615Y4128177D01*
X14031824Y3935110D01*
X-3809500Y3935110D01*
X-3809500Y7153494D01*
X9140700Y7153494D01*
X9159864Y6922203D01*
X9159866Y6922192D01*
X9216842Y6697200D01*
X9310075Y6484652D01*
X9437016Y6290353D01*
X9437019Y6290349D01*
X9437021Y6290347D01*
X9594216Y6119587D01*
X9594219Y6119585D01*
X9594222Y6119582D01*
X9777365Y5977036D01*
X9777371Y5977032D01*
X9777374Y5977030D01*
X9981497Y5866564D01*
X10095487Y5827432D01*
X10201015Y5791203D01*
X10201017Y5791203D01*
X10201019Y5791202D01*
X10429951Y5753000D01*
X10429952Y5753000D01*
X10662048Y5753000D01*
X10662049Y5753000D01*
X10890981Y5791202D01*
X11110503Y5866564D01*
X11314626Y5977030D01*
X11467477Y6095998D01*
X41408751Y6095998D01*
X41427685Y5927944D01*
X41483545Y5768306D01*
X41483547Y5768303D01*
X41573518Y5625116D01*
X41573523Y5625110D01*
X41693109Y5505524D01*
X41693115Y5505519D01*
X41836302Y5415548D01*
X41836305Y5415546D01*
X41836309Y5415545D01*
X41836310Y5415544D01*
X41908913Y5390140D01*
X41995943Y5359686D01*
X42163997Y5340751D01*
X42164000Y5340751D01*
X42164003Y5340751D01*
X42332056Y5359686D01*
X42332059Y5359687D01*
X42491690Y5415544D01*
X42491692Y5415546D01*
X42491694Y5415546D01*
X42491697Y5415548D01*
X42634884Y5505519D01*
X42634885Y5505520D01*
X42634890Y5505523D01*
X42754477Y5625110D01*
X42844452Y5768303D01*
X42844454Y5768306D01*
X42844454Y5768308D01*
X42844456Y5768310D01*
X42900313Y5927941D01*
X42900313Y5927942D01*
X42900314Y5927944D01*
X42919249Y6095998D01*
X42919249Y6096003D01*
X42900314Y6264057D01*
X42844454Y6423695D01*
X42844452Y6423698D01*
X42754481Y6566885D01*
X42754476Y6566891D01*
X42634890Y6686477D01*
X42634884Y6686482D01*
X42491697Y6776453D01*
X42491694Y6776455D01*
X42332056Y6832315D01*
X42164003Y6851249D01*
X42163997Y6851249D01*
X41995943Y6832315D01*
X41836305Y6776455D01*
X41836302Y6776453D01*
X41693115Y6686482D01*
X41693109Y6686477D01*
X41573523Y6566891D01*
X41573518Y6566885D01*
X41483547Y6423698D01*
X41483545Y6423695D01*
X41427685Y6264057D01*
X41408751Y6096003D01*
X41408751Y6095998D01*
X11467477Y6095998D01*
X11497784Y6119587D01*
X11654979Y6290347D01*
X11781924Y6484651D01*
X11875157Y6697200D01*
X11932134Y6922195D01*
X11951300Y7153500D01*
X11951300Y7153507D01*
X11932135Y7384798D01*
X11932133Y7384809D01*
X11875157Y7609801D01*
X11781924Y7822349D01*
X11654983Y8016648D01*
X11654980Y8016651D01*
X11654979Y8016653D01*
X11497784Y8187413D01*
X11497779Y8187417D01*
X11497777Y8187419D01*
X11314634Y8329965D01*
X11314628Y8329969D01*
X11110504Y8440436D01*
X11110495Y8440439D01*
X10890984Y8515798D01*
X10719282Y8544450D01*
X10662049Y8554000D01*
X10429951Y8554000D01*
X10384164Y8546360D01*
X10201015Y8515798D01*
X9981504Y8440439D01*
X9981495Y8440436D01*
X9777371Y8329969D01*
X9777365Y8329965D01*
X9594222Y8187419D01*
X9594219Y8187416D01*
X9437016Y8016648D01*
X9310075Y7822349D01*
X9216842Y7609801D01*
X9159866Y7384809D01*
X9159864Y7384798D01*
X9140700Y7153507D01*
X9140700Y7153494D01*
X-3809500Y7153494D01*
X-3809500Y9015110D01*
X21651824Y9015110D01*
X21681095Y8824034D01*
X21681098Y8824022D01*
X21748234Y8642752D01*
X21748238Y8642743D01*
X21850488Y8478697D01*
X21850489Y8478696D01*
X21850491Y8478693D01*
X21983677Y8338581D01*
X22142342Y8228147D01*
X22319988Y8151913D01*
X22509344Y8113000D01*
X22654207Y8113000D01*
X22798322Y8127655D01*
X22982759Y8185523D01*
X22982760Y8185524D01*
X22982768Y8185526D01*
X23151791Y8279341D01*
X23298468Y8405260D01*
X23416796Y8558127D01*
X23501930Y8731684D01*
X23550385Y8918826D01*
X23560176Y9111890D01*
X23530903Y9302974D01*
X23463764Y9484253D01*
X23411020Y9568873D01*
X23361511Y9648304D01*
X23361510Y9648305D01*
X23361509Y9648307D01*
X23228323Y9788419D01*
X23143211Y9847659D01*
X23069657Y9898854D01*
X22892012Y9975087D01*
X22702656Y10014000D01*
X22557794Y10014000D01*
X22557793Y10014000D01*
X22413677Y9999346D01*
X22229240Y9941478D01*
X22229225Y9941471D01*
X22060211Y9847661D01*
X22060206Y9847658D01*
X21913533Y9721742D01*
X21913531Y9721741D01*
X21795205Y9568876D01*
X21795203Y9568872D01*
X21710068Y9395313D01*
X21661616Y9208183D01*
X21661615Y9208177D01*
X21651824Y9015110D01*
X-3809500Y9015110D01*
X-3809501Y10754037D01*
X139388500Y10754037D01*
X139429045Y10615950D01*
X139429047Y10615947D01*
X139506857Y10494872D01*
X139615627Y10400623D01*
X139746543Y10340835D01*
X139853201Y10325500D01*
X139853204Y10325500D01*
X139924796Y10325500D01*
X139924799Y10325500D01*
X140031457Y10340835D01*
X140162373Y10400623D01*
X140271143Y10494872D01*
X140348953Y10615947D01*
X140389500Y10754039D01*
X140389500Y10897961D01*
X140389500Y10897963D01*
X140389499Y10897964D01*
X140348954Y11036051D01*
X140348953Y11036053D01*
X140271143Y11157128D01*
X140162373Y11251377D01*
X140162371Y11251378D01*
X140031456Y11311166D01*
X139951611Y11322645D01*
X139924799Y11326500D01*
X139853201Y11326500D01*
X139839794Y11324573D01*
X139746543Y11311166D01*
X139615628Y11251378D01*
X139615626Y11251377D01*
X139506856Y11157127D01*
X139429045Y11036051D01*
X139388500Y10897964D01*
X139388500Y10754037D01*
X-3809501Y10754037D01*
X-3809501Y11683998D01*
X136150751Y11683998D01*
X136169685Y11515944D01*
X136225545Y11356306D01*
X136225547Y11356303D01*
X136315518Y11213116D01*
X136315523Y11213110D01*
X136435109Y11093524D01*
X136435115Y11093519D01*
X136578302Y11003548D01*
X136578305Y11003546D01*
X136578309Y11003545D01*
X136578310Y11003544D01*
X136650913Y10978140D01*
X136737943Y10947686D01*
X136905997Y10928751D01*
X136906000Y10928751D01*
X136906003Y10928751D01*
X137074056Y10947686D01*
X137074059Y10947687D01*
X137233690Y11003544D01*
X137233692Y11003546D01*
X137233694Y11003546D01*
X137233697Y11003548D01*
X137376884Y11093519D01*
X137376885Y11093520D01*
X137376890Y11093523D01*
X137496477Y11213110D01*
X137520523Y11251378D01*
X137586452Y11356303D01*
X137586454Y11356306D01*
X137586454Y11356308D01*
X137586456Y11356310D01*
X137642313Y11515941D01*
X137642313Y11515942D01*
X137642314Y11515944D01*
X137661249Y11683998D01*
X137661249Y11684003D01*
X137642314Y11852057D01*
X137586454Y12011695D01*
X137586452Y12011698D01*
X137496481Y12154885D01*
X137496476Y12154891D01*
X137376890Y12274477D01*
X137376884Y12274482D01*
X137233697Y12364453D01*
X137233694Y12364455D01*
X137074056Y12420315D01*
X136906003Y12439249D01*
X136905997Y12439249D01*
X136737943Y12420315D01*
X136578305Y12364455D01*
X136578302Y12364453D01*
X136435115Y12274482D01*
X136435109Y12274477D01*
X136315523Y12154891D01*
X136315518Y12154885D01*
X136225547Y12011698D01*
X136225545Y12011695D01*
X136169685Y11852057D01*
X136150751Y11684003D01*
X136150751Y11683998D01*
X-3809501Y11683998D01*
X-3809501Y13513494D01*
X17390700Y13513494D01*
X17409864Y13282203D01*
X17409866Y13282192D01*
X17466842Y13057200D01*
X17560075Y12844652D01*
X17687016Y12650353D01*
X17687019Y12650349D01*
X17687021Y12650347D01*
X17844216Y12479587D01*
X17844219Y12479585D01*
X17844222Y12479582D01*
X18027365Y12337036D01*
X18027371Y12337032D01*
X18027374Y12337030D01*
X18231497Y12226564D01*
X18345487Y12187432D01*
X18451015Y12151203D01*
X18451017Y12151203D01*
X18451019Y12151202D01*
X18679951Y12113000D01*
X18679952Y12113000D01*
X18912048Y12113000D01*
X18912049Y12113000D01*
X19140981Y12151202D01*
X19360503Y12226564D01*
X19564626Y12337030D01*
X19747784Y12479587D01*
X19904979Y12650347D01*
X20031924Y12844651D01*
X20125157Y13057200D01*
X20182134Y13282195D01*
X20201300Y13513494D01*
X24370700Y13513494D01*
X24389864Y13282203D01*
X24389866Y13282192D01*
X24446842Y13057200D01*
X24540075Y12844652D01*
X24667016Y12650353D01*
X24667019Y12650349D01*
X24667021Y12650347D01*
X24824216Y12479587D01*
X24824219Y12479585D01*
X24824222Y12479582D01*
X25007365Y12337036D01*
X25007371Y12337032D01*
X25007374Y12337030D01*
X25211497Y12226564D01*
X25325487Y12187432D01*
X25431015Y12151203D01*
X25431017Y12151203D01*
X25431019Y12151202D01*
X25659951Y12113000D01*
X25659952Y12113000D01*
X25892048Y12113000D01*
X25892049Y12113000D01*
X26120981Y12151202D01*
X26340503Y12226564D01*
X26544626Y12337030D01*
X26727784Y12479587D01*
X26884979Y12650347D01*
X27011924Y12844651D01*
X27105157Y13057200D01*
X27162134Y13282195D01*
X27181300Y13513500D01*
X27181300Y13513507D01*
X27162135Y13744798D01*
X27162133Y13744809D01*
X27105157Y13969801D01*
X27011924Y14182349D01*
X26884983Y14376648D01*
X26884980Y14376651D01*
X26884979Y14376653D01*
X26791685Y14477998D01*
X45980751Y14477998D01*
X45999685Y14309944D01*
X46055545Y14150306D01*
X46055547Y14150303D01*
X46145518Y14007116D01*
X46145523Y14007110D01*
X46265109Y13887524D01*
X46265115Y13887519D01*
X46408302Y13797548D01*
X46408305Y13797546D01*
X46408309Y13797545D01*
X46408310Y13797544D01*
X46480913Y13772140D01*
X46567943Y13741686D01*
X46735997Y13722751D01*
X46736000Y13722751D01*
X46736003Y13722751D01*
X46904056Y13741686D01*
X46912981Y13744809D01*
X47063690Y13797544D01*
X47063692Y13797546D01*
X47063694Y13797546D01*
X47063697Y13797548D01*
X47206884Y13887519D01*
X47206885Y13887520D01*
X47206890Y13887523D01*
X47326477Y14007110D01*
X47416452Y14150303D01*
X47416454Y14150306D01*
X47416454Y14150308D01*
X47416456Y14150310D01*
X47472313Y14309941D01*
X47472313Y14309942D01*
X47472314Y14309944D01*
X47491249Y14477998D01*
X47491249Y14478003D01*
X47472314Y14646057D01*
X47416454Y14805695D01*
X47416452Y14805698D01*
X47326481Y14948885D01*
X47326476Y14948891D01*
X47206890Y15068477D01*
X47206884Y15068482D01*
X47063697Y15158453D01*
X47063694Y15158455D01*
X46904056Y15214315D01*
X46736003Y15233249D01*
X46735997Y15233249D01*
X46567943Y15214315D01*
X46408305Y15158455D01*
X46408302Y15158453D01*
X46265115Y15068482D01*
X46265109Y15068477D01*
X46145523Y14948891D01*
X46145518Y14948885D01*
X46055547Y14805698D01*
X46055545Y14805695D01*
X45999685Y14646057D01*
X45980751Y14478003D01*
X45980751Y14477998D01*
X26791685Y14477998D01*
X26727784Y14547413D01*
X26727779Y14547417D01*
X26727777Y14547419D01*
X26544634Y14689965D01*
X26544628Y14689969D01*
X26340504Y14800436D01*
X26340495Y14800439D01*
X26120984Y14875798D01*
X25949282Y14904450D01*
X25892049Y14914000D01*
X25659951Y14914000D01*
X25614164Y14906360D01*
X25431015Y14875798D01*
X25211504Y14800439D01*
X25211495Y14800436D01*
X25007371Y14689969D01*
X25007365Y14689965D01*
X24824222Y14547419D01*
X24824219Y14547416D01*
X24667016Y14376648D01*
X24540075Y14182349D01*
X24446842Y13969801D01*
X24389866Y13744809D01*
X24389864Y13744798D01*
X24370700Y13513507D01*
X24370700Y13513494D01*
X20201300Y13513494D01*
X20201300Y13513500D01*
X20201300Y13513507D01*
X20182135Y13744798D01*
X20182133Y13744809D01*
X20125157Y13969801D01*
X20031924Y14182349D01*
X19904983Y14376648D01*
X19904980Y14376651D01*
X19904979Y14376653D01*
X19747784Y14547413D01*
X19747779Y14547417D01*
X19747777Y14547419D01*
X19564634Y14689965D01*
X19564628Y14689969D01*
X19360504Y14800436D01*
X19360495Y14800439D01*
X19140984Y14875798D01*
X18969281Y14904450D01*
X18912049Y14914000D01*
X18679951Y14914000D01*
X18634164Y14906360D01*
X18451015Y14875798D01*
X18231504Y14800439D01*
X18231495Y14800436D01*
X18027371Y14689969D01*
X18027365Y14689965D01*
X17844222Y14547419D01*
X17844219Y14547416D01*
X17687016Y14376648D01*
X17560075Y14182349D01*
X17466842Y13969801D01*
X17409866Y13744809D01*
X17409864Y13744798D01*
X17390700Y13513507D01*
X17390700Y13513494D01*
X-3809501Y13513494D01*
X-3809501Y16075656D01*
X13286000Y16075656D01*
X13292401Y16016128D01*
X13292403Y16016121D01*
X13342645Y15881414D01*
X13342649Y15881407D01*
X13428809Y15766313D01*
X13428812Y15766310D01*
X13543906Y15680150D01*
X13543913Y15680146D01*
X13678620Y15629904D01*
X13678627Y15629902D01*
X13738155Y15623501D01*
X13738172Y15623500D01*
X14736000Y15623500D01*
X14736000Y16407851D01*
X14755685Y16474890D01*
X14808489Y16520645D01*
X14873883Y16531071D01*
X14911485Y16526834D01*
X14941071Y16523500D01*
X14941074Y16523500D01*
X15030929Y16523500D01*
X15060514Y16526834D01*
X15098116Y16531071D01*
X15166937Y16519017D01*
X15218317Y16471669D01*
X15236000Y16407851D01*
X15236000Y15623500D01*
X16233828Y15623500D01*
X16233844Y15623501D01*
X16293372Y15629902D01*
X16293379Y15629904D01*
X16428086Y15680146D01*
X16428093Y15680150D01*
X16543187Y15766310D01*
X16543190Y15766313D01*
X16629350Y15881407D01*
X16629354Y15881414D01*
X16679596Y16016121D01*
X16679598Y16016128D01*
X16685999Y16075656D01*
X16686000Y16075673D01*
X16686000Y17073500D01*
X15901650Y17073500D01*
X15834611Y17093185D01*
X15788856Y17145989D01*
X15778430Y17211383D01*
X15791062Y17323494D01*
X17390700Y17323494D01*
X17409864Y17092203D01*
X17409866Y17092192D01*
X17466842Y16867200D01*
X17560075Y16654652D01*
X17687016Y16460353D01*
X17687019Y16460349D01*
X17687021Y16460347D01*
X17844216Y16289587D01*
X17844219Y16289585D01*
X17844222Y16289582D01*
X18027365Y16147036D01*
X18027371Y16147032D01*
X18027374Y16147030D01*
X18231497Y16036564D01*
X18332184Y16001998D01*
X18451015Y15961203D01*
X18451017Y15961203D01*
X18451019Y15961202D01*
X18679951Y15923000D01*
X18679952Y15923000D01*
X18912048Y15923000D01*
X18912049Y15923000D01*
X19140981Y15961202D01*
X19360503Y16036564D01*
X19564626Y16147030D01*
X19585944Y16163622D01*
X19728878Y16274872D01*
X19747784Y16289587D01*
X19904979Y16460347D01*
X19913171Y16472885D01*
X19943310Y16519017D01*
X20031924Y16654651D01*
X20125157Y16867200D01*
X20182134Y17092195D01*
X20182743Y17099546D01*
X20201300Y17323494D01*
X20201300Y17323496D01*
X20900732Y17323496D01*
X20919777Y17069346D01*
X20976334Y16821552D01*
X20976492Y16820863D01*
X21069607Y16583612D01*
X21197041Y16362888D01*
X21355950Y16163623D01*
X21542783Y15990268D01*
X21753366Y15846695D01*
X21753371Y15846693D01*
X21753372Y15846692D01*
X21753373Y15846691D01*
X21875328Y15787962D01*
X21982992Y15736113D01*
X21982993Y15736113D01*
X21982996Y15736111D01*
X22226542Y15660987D01*
X22478565Y15623000D01*
X22733435Y15623000D01*
X22985458Y15660987D01*
X23229004Y15736111D01*
X23458634Y15846695D01*
X23669217Y15990268D01*
X23681859Y16001998D01*
X46996751Y16001998D01*
X47015685Y15833944D01*
X47071545Y15674306D01*
X47071547Y15674303D01*
X47161518Y15531116D01*
X47161523Y15531110D01*
X47281109Y15411524D01*
X47281115Y15411519D01*
X47424302Y15321548D01*
X47424305Y15321546D01*
X47424309Y15321545D01*
X47424310Y15321544D01*
X47496913Y15296140D01*
X47583943Y15265686D01*
X47751997Y15246751D01*
X47752000Y15246751D01*
X47752003Y15246751D01*
X47920056Y15265686D01*
X47952721Y15277116D01*
X48079690Y15321544D01*
X48079692Y15321546D01*
X48079694Y15321546D01*
X48079697Y15321548D01*
X48222884Y15411519D01*
X48222885Y15411520D01*
X48222890Y15411523D01*
X48342477Y15531110D01*
X48400216Y15623000D01*
X48432452Y15674303D01*
X48432454Y15674306D01*
X48432454Y15674308D01*
X48432456Y15674310D01*
X48458240Y15747998D01*
X136150751Y15747998D01*
X136169685Y15579944D01*
X136225545Y15420306D01*
X136225547Y15420303D01*
X136315518Y15277116D01*
X136315523Y15277110D01*
X136435109Y15157524D01*
X136435115Y15157519D01*
X136578302Y15067548D01*
X136578305Y15067546D01*
X136578309Y15067545D01*
X136578310Y15067544D01*
X136650913Y15042140D01*
X136737943Y15011686D01*
X136905997Y14992751D01*
X136906000Y14992751D01*
X136906003Y14992751D01*
X137074056Y15011686D01*
X137074059Y15011687D01*
X137233690Y15067544D01*
X137233692Y15067546D01*
X137233694Y15067546D01*
X137233697Y15067548D01*
X137376884Y15157519D01*
X137376885Y15157520D01*
X137376890Y15157523D01*
X137496477Y15277110D01*
X137524398Y15321546D01*
X137586452Y15420303D01*
X137586454Y15420306D01*
X137586454Y15420308D01*
X137586456Y15420310D01*
X137642313Y15579941D01*
X137642313Y15579942D01*
X137642314Y15579944D01*
X137661249Y15747998D01*
X137661249Y15748003D01*
X137642314Y15916057D01*
X137607300Y16016121D01*
X137586456Y16075690D01*
X137586455Y16075691D01*
X137586454Y16075695D01*
X137586452Y16075698D01*
X137496481Y16218885D01*
X137496476Y16218891D01*
X137376890Y16338477D01*
X137376884Y16338482D01*
X137233697Y16428453D01*
X137233694Y16428455D01*
X137074056Y16484315D01*
X136906003Y16503249D01*
X136905997Y16503249D01*
X136737943Y16484315D01*
X136578305Y16428455D01*
X136578302Y16428453D01*
X136435115Y16338482D01*
X136435109Y16338477D01*
X136315523Y16218891D01*
X136315518Y16218885D01*
X136225547Y16075698D01*
X136225545Y16075695D01*
X136169685Y15916057D01*
X136150751Y15748003D01*
X136150751Y15747998D01*
X48458240Y15747998D01*
X48488313Y15833941D01*
X48488313Y15833942D01*
X48488314Y15833944D01*
X48507249Y16001998D01*
X48507249Y16002003D01*
X48488314Y16170057D01*
X48457860Y16257087D01*
X48432456Y16329690D01*
X48432455Y16329691D01*
X48432454Y16329695D01*
X48432452Y16329698D01*
X48342481Y16472885D01*
X48342476Y16472891D01*
X48281330Y16534037D01*
X139388500Y16534037D01*
X139429045Y16395950D01*
X139429047Y16395947D01*
X139506857Y16274872D01*
X139615627Y16180623D01*
X139746543Y16120835D01*
X139853201Y16105500D01*
X139853204Y16105500D01*
X139924796Y16105500D01*
X139924799Y16105500D01*
X140031457Y16120835D01*
X140162373Y16180623D01*
X140271143Y16274872D01*
X140348953Y16395947D01*
X140389500Y16534039D01*
X140389500Y16677961D01*
X140389500Y16677963D01*
X140389499Y16677964D01*
X140348954Y16816051D01*
X140345419Y16821552D01*
X140271143Y16937128D01*
X140162373Y17031377D01*
X140162371Y17031378D01*
X140031456Y17091166D01*
X139951611Y17102645D01*
X139924799Y17106500D01*
X139853201Y17106500D01*
X139839794Y17104573D01*
X139746543Y17091166D01*
X139615628Y17031378D01*
X139615626Y17031377D01*
X139506856Y16937127D01*
X139429045Y16816051D01*
X139388500Y16677964D01*
X139388500Y16534037D01*
X48281330Y16534037D01*
X48222890Y16592477D01*
X48222884Y16592482D01*
X48079697Y16682453D01*
X48079694Y16682455D01*
X47920056Y16738315D01*
X47752003Y16757249D01*
X47751997Y16757249D01*
X47583943Y16738315D01*
X47424305Y16682455D01*
X47424302Y16682453D01*
X47281115Y16592482D01*
X47281109Y16592477D01*
X47161523Y16472891D01*
X47161518Y16472885D01*
X47071547Y16329698D01*
X47071545Y16329695D01*
X47015685Y16170057D01*
X46996751Y16002003D01*
X46996751Y16001998D01*
X23681859Y16001998D01*
X23856050Y16163623D01*
X24014959Y16362888D01*
X24142393Y16583612D01*
X24235508Y16820863D01*
X24292222Y17069343D01*
X24302866Y17211383D01*
X24311268Y17323496D01*
X24311268Y17323505D01*
X24293934Y17554809D01*
X24292222Y17577657D01*
X24246039Y17779998D01*
X66554751Y17779998D01*
X66573685Y17611944D01*
X66629545Y17452306D01*
X66629547Y17452303D01*
X66719518Y17309116D01*
X66719523Y17309110D01*
X66839109Y17189524D01*
X66839115Y17189519D01*
X66982302Y17099548D01*
X66982305Y17099546D01*
X66982309Y17099545D01*
X66982310Y17099544D01*
X67006256Y17091165D01*
X67141943Y17043686D01*
X67309997Y17024751D01*
X67310000Y17024751D01*
X67310003Y17024751D01*
X67478056Y17043686D01*
X67478059Y17043687D01*
X67637690Y17099544D01*
X67637692Y17099546D01*
X67637694Y17099546D01*
X67637697Y17099548D01*
X67780884Y17189519D01*
X67780885Y17189520D01*
X67780890Y17189523D01*
X67900477Y17309110D01*
X67909515Y17323494D01*
X67990452Y17452303D01*
X67990454Y17452306D01*
X67990454Y17452308D01*
X67990456Y17452310D01*
X68046313Y17611941D01*
X68046313Y17611942D01*
X68046314Y17611944D01*
X68065249Y17779998D01*
X68332751Y17779998D01*
X68351685Y17611944D01*
X68407545Y17452306D01*
X68407547Y17452303D01*
X68497518Y17309116D01*
X68497523Y17309110D01*
X68617109Y17189524D01*
X68617115Y17189519D01*
X68760302Y17099548D01*
X68760305Y17099546D01*
X68760309Y17099545D01*
X68760310Y17099544D01*
X68784256Y17091165D01*
X68919943Y17043686D01*
X69087997Y17024751D01*
X69088000Y17024751D01*
X69088003Y17024751D01*
X69256056Y17043686D01*
X69256059Y17043687D01*
X69415690Y17099544D01*
X69415692Y17099546D01*
X69415694Y17099546D01*
X69415697Y17099548D01*
X69558884Y17189519D01*
X69558885Y17189520D01*
X69558890Y17189523D01*
X69635318Y17265952D01*
X69696642Y17299437D01*
X69766334Y17294453D01*
X69810681Y17265952D01*
X69887109Y17189524D01*
X69887115Y17189519D01*
X70030302Y17099548D01*
X70030305Y17099546D01*
X70030309Y17099545D01*
X70030310Y17099544D01*
X70054256Y17091165D01*
X70189943Y17043686D01*
X70357997Y17024751D01*
X70358000Y17024751D01*
X70358003Y17024751D01*
X70526056Y17043686D01*
X70526059Y17043687D01*
X70685690Y17099544D01*
X70685692Y17099546D01*
X70685694Y17099546D01*
X70685697Y17099548D01*
X70828884Y17189519D01*
X70828885Y17189520D01*
X70828890Y17189523D01*
X70948477Y17309110D01*
X70957515Y17323494D01*
X71038452Y17452303D01*
X71038454Y17452306D01*
X71038454Y17452308D01*
X71038456Y17452310D01*
X71094313Y17611941D01*
X71094313Y17611942D01*
X71094314Y17611944D01*
X71113249Y17779998D01*
X71113249Y17780003D01*
X71094314Y17948057D01*
X71038454Y18107695D01*
X71038452Y18107698D01*
X70948481Y18250885D01*
X70948476Y18250891D01*
X70828890Y18370477D01*
X70828884Y18370482D01*
X70685697Y18460453D01*
X70685694Y18460455D01*
X70526056Y18516315D01*
X70358003Y18535249D01*
X70357997Y18535249D01*
X70189943Y18516315D01*
X70030305Y18460455D01*
X70030302Y18460453D01*
X69887115Y18370482D01*
X69810680Y18294047D01*
X69749356Y18260563D01*
X69679665Y18265548D01*
X69635322Y18294045D01*
X69558890Y18370477D01*
X69558887Y18370479D01*
X69558885Y18370481D01*
X69558884Y18370482D01*
X69415697Y18460453D01*
X69415694Y18460455D01*
X69256056Y18516315D01*
X69088003Y18535249D01*
X69087997Y18535249D01*
X68919943Y18516315D01*
X68760305Y18460455D01*
X68760302Y18460453D01*
X68617115Y18370482D01*
X68617109Y18370477D01*
X68497523Y18250891D01*
X68497518Y18250885D01*
X68407547Y18107698D01*
X68407545Y18107695D01*
X68351685Y17948057D01*
X68332751Y17780003D01*
X68332751Y17779998D01*
X68065249Y17779998D01*
X68065249Y17780003D01*
X68046314Y17948057D01*
X67990454Y18107695D01*
X67990452Y18107698D01*
X67900481Y18250885D01*
X67900476Y18250891D01*
X67780890Y18370477D01*
X67780884Y18370482D01*
X67637697Y18460453D01*
X67637694Y18460455D01*
X67478056Y18516315D01*
X67310003Y18535249D01*
X67309997Y18535249D01*
X67141943Y18516315D01*
X66982305Y18460455D01*
X66982302Y18460453D01*
X66839115Y18370482D01*
X66839109Y18370477D01*
X66719523Y18250891D01*
X66719518Y18250885D01*
X66629547Y18107698D01*
X66629545Y18107695D01*
X66573685Y17948057D01*
X66554751Y17780003D01*
X66554751Y17779998D01*
X24246039Y17779998D01*
X24235508Y17826137D01*
X24142393Y18063388D01*
X24014959Y18284112D01*
X23856050Y18483377D01*
X23792871Y18541998D01*
X76968751Y18541998D01*
X76987685Y18373944D01*
X77043545Y18214306D01*
X77043547Y18214303D01*
X77133518Y18071116D01*
X77133523Y18071110D01*
X77253109Y17951524D01*
X77253115Y17951519D01*
X77396302Y17861548D01*
X77396305Y17861546D01*
X77396309Y17861545D01*
X77396310Y17861544D01*
X77468913Y17836140D01*
X77555943Y17805686D01*
X77723997Y17786751D01*
X77724000Y17786751D01*
X77724003Y17786751D01*
X77892056Y17805686D01*
X77892059Y17805687D01*
X78051690Y17861544D01*
X78051692Y17861546D01*
X78051694Y17861546D01*
X78051697Y17861548D01*
X78194884Y17951519D01*
X78194885Y17951520D01*
X78194890Y17951523D01*
X78314477Y18071110D01*
X78337894Y18108377D01*
X78404452Y18214303D01*
X78404454Y18214306D01*
X78404454Y18214308D01*
X78404456Y18214310D01*
X78460313Y18373941D01*
X78460313Y18373942D01*
X78460314Y18373944D01*
X78479249Y18541998D01*
X81032751Y18541998D01*
X81051685Y18373944D01*
X81107545Y18214306D01*
X81107547Y18214303D01*
X81197518Y18071116D01*
X81197523Y18071110D01*
X81317109Y17951524D01*
X81317115Y17951519D01*
X81460302Y17861548D01*
X81460305Y17861546D01*
X81460309Y17861545D01*
X81460310Y17861544D01*
X81532913Y17836140D01*
X81619943Y17805686D01*
X81787997Y17786751D01*
X81788000Y17786751D01*
X81788003Y17786751D01*
X81956056Y17805686D01*
X81956059Y17805687D01*
X82115690Y17861544D01*
X82115692Y17861546D01*
X82115694Y17861546D01*
X82115697Y17861548D01*
X82258884Y17951519D01*
X82258885Y17951520D01*
X82258890Y17951523D01*
X82378477Y18071110D01*
X82401894Y18108377D01*
X82468452Y18214303D01*
X82468454Y18214306D01*
X82468454Y18214308D01*
X82468456Y18214310D01*
X82524313Y18373941D01*
X82524313Y18373942D01*
X82524314Y18373944D01*
X82543249Y18541998D01*
X82543249Y18542003D01*
X82524314Y18710057D01*
X82468454Y18869695D01*
X82468452Y18869698D01*
X82378481Y19012885D01*
X82378476Y19012891D01*
X82258890Y19132477D01*
X82258884Y19132482D01*
X82115697Y19222453D01*
X82115694Y19222455D01*
X81956056Y19278315D01*
X81788003Y19297249D01*
X81787997Y19297249D01*
X81619943Y19278315D01*
X81460305Y19222455D01*
X81460302Y19222453D01*
X81317115Y19132482D01*
X81317109Y19132477D01*
X81197523Y19012891D01*
X81197518Y19012885D01*
X81107547Y18869698D01*
X81107545Y18869695D01*
X81051685Y18710057D01*
X81032751Y18542003D01*
X81032751Y18541998D01*
X78479249Y18541998D01*
X78479249Y18542003D01*
X78460314Y18710057D01*
X78404454Y18869695D01*
X78404452Y18869698D01*
X78314481Y19012885D01*
X78314476Y19012891D01*
X78194890Y19132477D01*
X78194884Y19132482D01*
X78051697Y19222453D01*
X78051694Y19222455D01*
X77892056Y19278315D01*
X77724003Y19297249D01*
X77723997Y19297249D01*
X77555943Y19278315D01*
X77396305Y19222455D01*
X77396302Y19222453D01*
X77253115Y19132482D01*
X77253109Y19132477D01*
X77133523Y19012891D01*
X77133518Y19012885D01*
X77043547Y18869698D01*
X77043545Y18869695D01*
X76987685Y18710057D01*
X76968751Y18542003D01*
X76968751Y18541998D01*
X23792871Y18541998D01*
X23669217Y18656732D01*
X23458634Y18800305D01*
X23458630Y18800307D01*
X23458627Y18800309D01*
X23458626Y18800310D01*
X23229006Y18910888D01*
X23229008Y18910888D01*
X22985466Y18986011D01*
X22985462Y18986012D01*
X22985458Y18986013D01*
X22864231Y19004286D01*
X22733440Y19024000D01*
X22733435Y19024000D01*
X22478565Y19024000D01*
X22478559Y19024000D01*
X22321609Y19000343D01*
X22226542Y18986013D01*
X22226538Y18986012D01*
X22226539Y18986012D01*
X22226533Y18986011D01*
X21982992Y18910888D01*
X21753373Y18800310D01*
X21753372Y18800309D01*
X21542782Y18656732D01*
X21355952Y18483379D01*
X21355950Y18483377D01*
X21197041Y18284112D01*
X21069608Y18063391D01*
X20976492Y17826138D01*
X20976490Y17826131D01*
X20919777Y17577655D01*
X20900732Y17323505D01*
X20900732Y17323496D01*
X20201300Y17323496D01*
X20201300Y17323507D01*
X20182135Y17554798D01*
X20182133Y17554809D01*
X20125157Y17779801D01*
X20031924Y17992349D01*
X19904983Y18186648D01*
X19904980Y18186651D01*
X19904979Y18186653D01*
X19747784Y18357413D01*
X19747779Y18357417D01*
X19747777Y18357419D01*
X19564634Y18499965D01*
X19564628Y18499969D01*
X19360504Y18610436D01*
X19360495Y18610439D01*
X19140984Y18685798D01*
X18969282Y18714450D01*
X18912049Y18724000D01*
X18679951Y18724000D01*
X18634164Y18716360D01*
X18451015Y18685798D01*
X18231504Y18610439D01*
X18231495Y18610436D01*
X18027371Y18499969D01*
X18027365Y18499965D01*
X17844222Y18357419D01*
X17844219Y18357416D01*
X17687016Y18186648D01*
X17560075Y17992349D01*
X17466842Y17779801D01*
X17409866Y17554809D01*
X17409864Y17554798D01*
X17390700Y17323507D01*
X17390700Y17323494D01*
X15791062Y17323494D01*
X15791062Y17323497D01*
X15791062Y17323504D01*
X15778430Y17435617D01*
X15790484Y17504438D01*
X15837834Y17555818D01*
X15901650Y17573500D01*
X16686000Y17573500D01*
X16686000Y18571328D01*
X16685999Y18571345D01*
X16679598Y18630873D01*
X16679596Y18630880D01*
X16629354Y18765587D01*
X16629350Y18765594D01*
X16543190Y18880688D01*
X16543187Y18880691D01*
X16428093Y18966851D01*
X16428086Y18966855D01*
X16293379Y19017097D01*
X16293372Y19017099D01*
X16233844Y19023500D01*
X15236000Y19023500D01*
X15236000Y18239150D01*
X15216315Y18172111D01*
X15163511Y18126356D01*
X15098116Y18115930D01*
X15030930Y18123500D01*
X15030926Y18123500D01*
X14941074Y18123500D01*
X14941070Y18123500D01*
X14873884Y18115930D01*
X14805062Y18127984D01*
X14753682Y18175333D01*
X14736000Y18239150D01*
X14736000Y19023500D01*
X13738155Y19023500D01*
X13678627Y19017099D01*
X13678620Y19017097D01*
X13543913Y18966855D01*
X13543906Y18966851D01*
X13428812Y18880691D01*
X13428809Y18880688D01*
X13342649Y18765594D01*
X13342645Y18765587D01*
X13292403Y18630880D01*
X13292401Y18630873D01*
X13286000Y18571345D01*
X13286000Y17573500D01*
X14070350Y17573500D01*
X14137389Y17553815D01*
X14183144Y17501011D01*
X14193570Y17435617D01*
X14180938Y17323504D01*
X14180938Y17323497D01*
X14193570Y17211383D01*
X14181516Y17142562D01*
X14134166Y17091182D01*
X14070350Y17073500D01*
X13286000Y17073500D01*
X13286000Y16075656D01*
X-3809501Y16075656D01*
X-3809501Y20319998D01*
X65792751Y20319998D01*
X65811685Y20151944D01*
X65867545Y19992306D01*
X65867547Y19992303D01*
X65957518Y19849116D01*
X65957523Y19849110D01*
X66077109Y19729524D01*
X66077115Y19729519D01*
X66220302Y19639548D01*
X66220305Y19639546D01*
X66220309Y19639545D01*
X66220310Y19639544D01*
X66292913Y19614140D01*
X66379943Y19583686D01*
X66547997Y19564751D01*
X66548000Y19564751D01*
X66548003Y19564751D01*
X66716056Y19583686D01*
X66716059Y19583687D01*
X66875690Y19639544D01*
X66875692Y19639546D01*
X66875694Y19639546D01*
X66875697Y19639548D01*
X67018884Y19729519D01*
X67018885Y19729520D01*
X67018890Y19729523D01*
X67138477Y19849110D01*
X67228452Y19992303D01*
X67228454Y19992306D01*
X67228454Y19992308D01*
X67228456Y19992310D01*
X67284313Y20151941D01*
X67284313Y20151942D01*
X67284314Y20151944D01*
X67303249Y20319998D01*
X74174751Y20319998D01*
X74193685Y20151944D01*
X74249545Y19992306D01*
X74249547Y19992303D01*
X74339518Y19849116D01*
X74339523Y19849110D01*
X74459109Y19729524D01*
X74459115Y19729519D01*
X74602302Y19639548D01*
X74602305Y19639546D01*
X74602309Y19639545D01*
X74602310Y19639544D01*
X74674913Y19614140D01*
X74761943Y19583686D01*
X74929997Y19564751D01*
X74930000Y19564751D01*
X74930003Y19564751D01*
X75098056Y19583686D01*
X75098059Y19583687D01*
X75257690Y19639544D01*
X75257692Y19639546D01*
X75257694Y19639546D01*
X75257697Y19639548D01*
X75400884Y19729519D01*
X75400885Y19729520D01*
X75400890Y19729523D01*
X75520477Y19849110D01*
X75610452Y19992303D01*
X75610454Y19992306D01*
X75610454Y19992308D01*
X75610456Y19992310D01*
X75666313Y20151941D01*
X75666313Y20151942D01*
X75666314Y20151944D01*
X75685249Y20319998D01*
X75685249Y20320003D01*
X75666314Y20488057D01*
X75610454Y20647695D01*
X75610452Y20647698D01*
X75520481Y20790885D01*
X75520476Y20790891D01*
X75400890Y20910477D01*
X75400884Y20910482D01*
X75257697Y21000453D01*
X75257694Y21000455D01*
X75098056Y21056315D01*
X74930003Y21075249D01*
X74929997Y21075249D01*
X74761943Y21056315D01*
X74602305Y21000455D01*
X74602302Y21000453D01*
X74459115Y20910482D01*
X74459109Y20910477D01*
X74339523Y20790891D01*
X74339518Y20790885D01*
X74249547Y20647698D01*
X74249545Y20647695D01*
X74193685Y20488057D01*
X74174751Y20320003D01*
X74174751Y20319998D01*
X67303249Y20319998D01*
X67303249Y20320003D01*
X67284314Y20488057D01*
X67228454Y20647695D01*
X67228452Y20647698D01*
X67138481Y20790885D01*
X67138476Y20790891D01*
X67018890Y20910477D01*
X67018884Y20910482D01*
X66875697Y21000453D01*
X66875694Y21000455D01*
X66716056Y21056315D01*
X66548003Y21075249D01*
X66547997Y21075249D01*
X66379943Y21056315D01*
X66220305Y21000455D01*
X66220302Y21000453D01*
X66077115Y20910482D01*
X66077109Y20910477D01*
X65957523Y20790891D01*
X65957518Y20790885D01*
X65867547Y20647698D01*
X65867545Y20647695D01*
X65811685Y20488057D01*
X65792751Y20320003D01*
X65792751Y20319998D01*
X-3809501Y20319998D01*
X-3809501Y21589998D01*
X36074751Y21589998D01*
X36093685Y21421944D01*
X36149545Y21262306D01*
X36149547Y21262303D01*
X36239518Y21119116D01*
X36239523Y21119110D01*
X36359109Y20999524D01*
X36359115Y20999519D01*
X36502302Y20909548D01*
X36502305Y20909546D01*
X36502309Y20909545D01*
X36502310Y20909544D01*
X36574913Y20884140D01*
X36661943Y20853686D01*
X36829997Y20834751D01*
X36830000Y20834751D01*
X36830003Y20834751D01*
X36998056Y20853686D01*
X36998059Y20853687D01*
X37157690Y20909544D01*
X37157692Y20909546D01*
X37157694Y20909546D01*
X37157697Y20909548D01*
X37300884Y20999519D01*
X37300885Y20999520D01*
X37300890Y20999523D01*
X37420477Y21119110D01*
X37510452Y21262303D01*
X37510454Y21262306D01*
X37510454Y21262308D01*
X37510456Y21262310D01*
X37566313Y21421941D01*
X37566313Y21421942D01*
X37566314Y21421944D01*
X37585249Y21589998D01*
X37585249Y21590003D01*
X37566314Y21758057D01*
X37510454Y21917695D01*
X37510452Y21917698D01*
X37420481Y22060885D01*
X37420476Y22060891D01*
X37300890Y22180477D01*
X37300884Y22180482D01*
X37157697Y22270453D01*
X37157694Y22270455D01*
X36998056Y22326315D01*
X36830003Y22345249D01*
X36829997Y22345249D01*
X36661943Y22326315D01*
X36502305Y22270455D01*
X36502302Y22270453D01*
X36359115Y22180482D01*
X36359109Y22180477D01*
X36239523Y22060891D01*
X36239518Y22060885D01*
X36149547Y21917698D01*
X36149545Y21917695D01*
X36093685Y21758057D01*
X36074751Y21590003D01*
X36074751Y21589998D01*
X-3809501Y21589998D01*
X-3809501Y22351998D01*
X65538751Y22351998D01*
X65557685Y22183944D01*
X65613545Y22024306D01*
X65613547Y22024303D01*
X65703518Y21881116D01*
X65703523Y21881110D01*
X65823109Y21761524D01*
X65823115Y21761519D01*
X65966302Y21671548D01*
X65966305Y21671546D01*
X65966309Y21671545D01*
X65966310Y21671544D01*
X66038913Y21646140D01*
X66125943Y21615686D01*
X66293997Y21596751D01*
X66294000Y21596751D01*
X66294003Y21596751D01*
X66331696Y21600998D01*
X68586751Y21600998D01*
X68605685Y21432944D01*
X68661545Y21273306D01*
X68661547Y21273303D01*
X68751518Y21130116D01*
X68751523Y21130110D01*
X68871109Y21010524D01*
X68871115Y21010519D01*
X69014302Y20920548D01*
X69014305Y20920546D01*
X69014309Y20920545D01*
X69014310Y20920544D01*
X69086913Y20895140D01*
X69173943Y20864686D01*
X69341997Y20845751D01*
X69342000Y20845751D01*
X69342003Y20845751D01*
X69510056Y20864686D01*
X69510059Y20864687D01*
X69669690Y20920544D01*
X69669692Y20920546D01*
X69669694Y20920546D01*
X69669697Y20920548D01*
X69812884Y21010519D01*
X69812885Y21010520D01*
X69812890Y21010523D01*
X69932477Y21130110D01*
X70015542Y21262306D01*
X70022452Y21273303D01*
X70022454Y21273306D01*
X70022454Y21273308D01*
X70022456Y21273310D01*
X70078313Y21432941D01*
X70078313Y21432942D01*
X70078314Y21432944D01*
X70097249Y21600998D01*
X70097249Y21601003D01*
X70078314Y21769057D01*
X70022454Y21928695D01*
X70022452Y21928698D01*
X69932481Y22071885D01*
X69932476Y22071891D01*
X69812890Y22191477D01*
X69812884Y22191482D01*
X69669697Y22281453D01*
X69669694Y22281455D01*
X69510056Y22337315D01*
X69342003Y22356249D01*
X69341997Y22356249D01*
X69173943Y22337315D01*
X69014305Y22281455D01*
X69014302Y22281453D01*
X68871115Y22191482D01*
X68871109Y22191477D01*
X68751523Y22071891D01*
X68751518Y22071885D01*
X68661547Y21928698D01*
X68661545Y21928695D01*
X68605685Y21769057D01*
X68586751Y21601003D01*
X68586751Y21600998D01*
X66331696Y21600998D01*
X66462056Y21615686D01*
X66462059Y21615687D01*
X66621690Y21671544D01*
X66621692Y21671546D01*
X66621694Y21671546D01*
X66621697Y21671548D01*
X66764884Y21761519D01*
X66764885Y21761520D01*
X66764890Y21761523D01*
X66884477Y21881110D01*
X66974452Y22024303D01*
X66974454Y22024306D01*
X66974454Y22024308D01*
X66974456Y22024310D01*
X67030313Y22183941D01*
X67030313Y22183942D01*
X67030314Y22183944D01*
X67049249Y22351998D01*
X67049249Y22352003D01*
X67030314Y22520057D01*
X66974454Y22679695D01*
X66974452Y22679698D01*
X66884481Y22822885D01*
X66884476Y22822891D01*
X66847369Y22859998D01*
X69983458Y22859998D01*
X70002392Y22691944D01*
X70058252Y22532306D01*
X70058254Y22532303D01*
X70148225Y22389116D01*
X70148230Y22389110D01*
X70267816Y22269524D01*
X70267822Y22269519D01*
X70411009Y22179548D01*
X70411012Y22179546D01*
X70411016Y22179545D01*
X70411017Y22179544D01*
X70483620Y22154140D01*
X70570650Y22123686D01*
X70738704Y22104751D01*
X70738707Y22104751D01*
X70738710Y22104751D01*
X70906763Y22123686D01*
X70906766Y22123687D01*
X71066397Y22179544D01*
X71066399Y22179546D01*
X71066401Y22179546D01*
X71066404Y22179548D01*
X71209591Y22269519D01*
X71209592Y22269520D01*
X71209597Y22269523D01*
X71329184Y22389110D01*
X71411464Y22520057D01*
X71419159Y22532303D01*
X71419161Y22532306D01*
X71419161Y22532308D01*
X71419163Y22532310D01*
X71475020Y22691941D01*
X71475020Y22691943D01*
X71475021Y22691945D01*
X71486271Y22791793D01*
X71513337Y22856207D01*
X71568537Y22894952D01*
X71569087Y22895145D01*
X71701690Y22941544D01*
X71701693Y22941547D01*
X71701697Y22941548D01*
X71844884Y23031519D01*
X71844885Y23031520D01*
X71844890Y23031523D01*
X71964477Y23151110D01*
X72054452Y23294303D01*
X72054454Y23294306D01*
X72054454Y23294308D01*
X72054456Y23294310D01*
X72110313Y23453941D01*
X72110313Y23453942D01*
X72110314Y23453944D01*
X72129249Y23621998D01*
X72129249Y23622003D01*
X72110314Y23790057D01*
X72054454Y23949695D01*
X72054452Y23949698D01*
X71964481Y24092885D01*
X71964476Y24092891D01*
X71844890Y24212477D01*
X71844884Y24212482D01*
X71701697Y24302453D01*
X71701694Y24302455D01*
X71542056Y24358315D01*
X71374003Y24377249D01*
X71373997Y24377249D01*
X71205943Y24358315D01*
X71046305Y24302455D01*
X71046302Y24302453D01*
X70903115Y24212482D01*
X70903109Y24212477D01*
X70783523Y24092891D01*
X70783518Y24092885D01*
X70693547Y23949698D01*
X70693545Y23949695D01*
X70637685Y23790056D01*
X70626435Y23690206D01*
X70599368Y23625792D01*
X70544170Y23587048D01*
X70411012Y23540455D01*
X70411009Y23540453D01*
X70267822Y23450482D01*
X70267816Y23450477D01*
X70148230Y23330891D01*
X70148225Y23330885D01*
X70058254Y23187698D01*
X70058252Y23187695D01*
X70002392Y23028057D01*
X69983458Y22860003D01*
X69983458Y22859998D01*
X66847369Y22859998D01*
X66764890Y22942477D01*
X66764884Y22942482D01*
X66621697Y23032453D01*
X66621694Y23032455D01*
X66462056Y23088315D01*
X66294003Y23107249D01*
X66293997Y23107249D01*
X66125943Y23088315D01*
X65966305Y23032455D01*
X65966302Y23032453D01*
X65823115Y22942482D01*
X65823109Y22942477D01*
X65703523Y22822891D01*
X65703518Y22822885D01*
X65613547Y22679698D01*
X65613545Y22679695D01*
X65557685Y22520057D01*
X65538751Y22352003D01*
X65538751Y22351998D01*
X-3809501Y22351998D01*
X-3809501Y24006000D01*
X-3789815Y24073039D01*
X-3737011Y24118794D01*
X-3685500Y24130000D01*
X66040000Y24130000D01*
X66040000Y25371032D01*
X66059685Y25438071D01*
X66112489Y25483826D01*
X66181647Y25493770D01*
X66217805Y25482750D01*
X66220303Y25481547D01*
X66220308Y25481546D01*
X66220310Y25481544D01*
X66323618Y25445395D01*
X66379943Y25425686D01*
X66547997Y25406751D01*
X66548000Y25406751D01*
X66548003Y25406751D01*
X66716056Y25425686D01*
X66716059Y25425687D01*
X66875690Y25481544D01*
X66875692Y25481546D01*
X66875694Y25481546D01*
X66875697Y25481548D01*
X67018884Y25571519D01*
X67018885Y25571520D01*
X67018890Y25571523D01*
X67138477Y25691110D01*
X67228452Y25834303D01*
X67228454Y25834306D01*
X67228454Y25834308D01*
X67228456Y25834310D01*
X67284313Y25993941D01*
X67284313Y25993942D01*
X67284314Y25993944D01*
X67303249Y26161998D01*
X67303249Y26162003D01*
X67284314Y26330057D01*
X67228454Y26489695D01*
X67228452Y26489698D01*
X67138481Y26632885D01*
X67138476Y26632891D01*
X67018890Y26752477D01*
X67018884Y26752482D01*
X66875697Y26842453D01*
X66875694Y26842455D01*
X66716056Y26898315D01*
X66548003Y26917249D01*
X66547997Y26917249D01*
X66379943Y26898315D01*
X66220299Y26842453D01*
X66217795Y26841246D01*
X66216016Y26840954D01*
X66213738Y26840156D01*
X66213598Y26840556D01*
X66148853Y26829898D01*
X66084720Y26857624D01*
X66045758Y26915622D01*
X66040000Y26952969D01*
X66040000Y33437272D01*
X66059685Y33504311D01*
X66112489Y33550066D01*
X66181647Y33560010D01*
X66245203Y33530985D01*
X66251653Y33524980D01*
X66331110Y33445523D01*
X66331112Y33445522D01*
X66331114Y33445520D01*
X66331115Y33445519D01*
X66474302Y33355548D01*
X66474305Y33355546D01*
X66474309Y33355545D01*
X66474310Y33355544D01*
X66546913Y33330140D01*
X66633943Y33299686D01*
X66801997Y33280751D01*
X66802000Y33280751D01*
X66802003Y33280751D01*
X66970056Y33299686D01*
X66970059Y33299687D01*
X67129690Y33355544D01*
X67129692Y33355546D01*
X67129694Y33355546D01*
X67129697Y33355548D01*
X67272884Y33445519D01*
X67272885Y33445520D01*
X67272890Y33445523D01*
X67392477Y33565110D01*
X67392481Y33565116D01*
X67482452Y33708303D01*
X67482454Y33708306D01*
X67482454Y33708308D01*
X67482456Y33708310D01*
X67538313Y33867941D01*
X67538313Y33867942D01*
X67538314Y33867944D01*
X67557249Y34035998D01*
X72396751Y34035998D01*
X72415685Y33867944D01*
X72471545Y33708306D01*
X72471547Y33708303D01*
X72561518Y33565116D01*
X72561523Y33565110D01*
X72681109Y33445524D01*
X72681115Y33445519D01*
X72824302Y33355548D01*
X72824305Y33355546D01*
X72824309Y33355545D01*
X72824310Y33355544D01*
X72896913Y33330140D01*
X72983943Y33299686D01*
X73151997Y33280751D01*
X73152000Y33280751D01*
X73152003Y33280751D01*
X73320056Y33299686D01*
X73320059Y33299687D01*
X73479690Y33355544D01*
X73479692Y33355546D01*
X73479694Y33355546D01*
X73479697Y33355548D01*
X73622884Y33445519D01*
X73622885Y33445520D01*
X73622890Y33445523D01*
X73742477Y33565110D01*
X73742481Y33565116D01*
X73832452Y33708303D01*
X73832454Y33708306D01*
X73832454Y33708308D01*
X73832456Y33708310D01*
X73888313Y33867941D01*
X73888313Y33867942D01*
X73888314Y33867944D01*
X73907249Y34035998D01*
X73907249Y34036003D01*
X73888314Y34204057D01*
X73857860Y34291087D01*
X73832456Y34363690D01*
X73832455Y34363691D01*
X73832454Y34363695D01*
X73832452Y34363698D01*
X73742481Y34506885D01*
X73742476Y34506891D01*
X73622890Y34626477D01*
X73622884Y34626482D01*
X73479697Y34716453D01*
X73479694Y34716455D01*
X73320056Y34772315D01*
X73152003Y34791249D01*
X73151997Y34791249D01*
X72983943Y34772315D01*
X72824305Y34716455D01*
X72824302Y34716453D01*
X72681115Y34626482D01*
X72681109Y34626477D01*
X72561523Y34506891D01*
X72561518Y34506885D01*
X72471547Y34363698D01*
X72471545Y34363695D01*
X72415685Y34204057D01*
X72396751Y34036003D01*
X72396751Y34035998D01*
X67557249Y34035998D01*
X67557249Y34036003D01*
X67538313Y34204060D01*
X67538313Y34204062D01*
X67480156Y34370263D01*
X67481455Y34370718D01*
X67471339Y34432130D01*
X67480576Y34463590D01*
X67480156Y34463737D01*
X67538313Y34629939D01*
X67538313Y34629941D01*
X67557249Y34797998D01*
X67557249Y34798003D01*
X67538313Y34966060D01*
X67538313Y34966062D01*
X67480156Y35132263D01*
X67481455Y35132718D01*
X67471339Y35194130D01*
X67480576Y35225590D01*
X67480156Y35225737D01*
X67538313Y35391939D01*
X67538313Y35391941D01*
X67557249Y35559998D01*
X67557249Y35560003D01*
X67538314Y35728057D01*
X67508242Y35813998D01*
X67793851Y35813998D01*
X67812785Y35645944D01*
X67868645Y35486306D01*
X67868647Y35486303D01*
X67958618Y35343116D01*
X67958623Y35343110D01*
X68078209Y35223524D01*
X68078215Y35223519D01*
X68221402Y35133548D01*
X68221405Y35133546D01*
X68221409Y35133545D01*
X68221410Y35133544D01*
X68294013Y35108140D01*
X68381043Y35077686D01*
X68549097Y35058751D01*
X68549100Y35058751D01*
X68549103Y35058751D01*
X68717156Y35077686D01*
X68754848Y35090875D01*
X68876790Y35133544D01*
X68876792Y35133546D01*
X68876794Y35133546D01*
X68876797Y35133548D01*
X69019984Y35223519D01*
X69019985Y35223520D01*
X69019990Y35223523D01*
X69139577Y35343110D01*
X69163315Y35380888D01*
X69229552Y35486303D01*
X69229554Y35486306D01*
X69229554Y35486308D01*
X69229556Y35486310D01*
X69285413Y35645941D01*
X69285413Y35645942D01*
X69285414Y35645944D01*
X69304349Y35813998D01*
X69304349Y35814003D01*
X69285414Y35982057D01*
X69229554Y36141695D01*
X69229552Y36141698D01*
X69139581Y36284885D01*
X69139576Y36284891D01*
X69019990Y36404477D01*
X69019984Y36404482D01*
X68876797Y36494453D01*
X68876794Y36494455D01*
X68717156Y36550315D01*
X68549103Y36569249D01*
X68549097Y36569249D01*
X68381043Y36550315D01*
X68221405Y36494455D01*
X68221402Y36494453D01*
X68078215Y36404482D01*
X68078209Y36404477D01*
X67958623Y36284891D01*
X67958618Y36284885D01*
X67868647Y36141698D01*
X67868645Y36141695D01*
X67812785Y35982057D01*
X67793851Y35814003D01*
X67793851Y35813998D01*
X67508242Y35813998D01*
X67482454Y35887695D01*
X67482452Y35887698D01*
X67392481Y36030885D01*
X67392476Y36030891D01*
X67272890Y36150477D01*
X67272884Y36150482D01*
X67129697Y36240453D01*
X67129694Y36240455D01*
X66970056Y36296315D01*
X66802003Y36315249D01*
X66801997Y36315249D01*
X66633943Y36296315D01*
X66474305Y36240455D01*
X66474302Y36240453D01*
X66331115Y36150482D01*
X66331109Y36150477D01*
X66251681Y36071048D01*
X66190358Y36037563D01*
X66120666Y36042547D01*
X66064733Y36084419D01*
X66040316Y36149883D01*
X66040000Y36158729D01*
X66040000Y47153271D01*
X66059685Y47220310D01*
X66112489Y47266065D01*
X66181647Y47276009D01*
X66245203Y47246984D01*
X66251681Y47240952D01*
X66331109Y47161524D01*
X66331115Y47161519D01*
X66474302Y47071548D01*
X66474305Y47071546D01*
X66474309Y47071545D01*
X66474310Y47071544D01*
X66546913Y47046140D01*
X66633943Y47015686D01*
X66801997Y46996751D01*
X66802000Y46996751D01*
X66802003Y46996751D01*
X66970056Y47015686D01*
X66970059Y47015687D01*
X67129690Y47071544D01*
X67129692Y47071546D01*
X67129694Y47071546D01*
X67129697Y47071548D01*
X67272884Y47161519D01*
X67272885Y47161520D01*
X67272890Y47161523D01*
X67355365Y47243998D01*
X68332751Y47243998D01*
X68351685Y47075944D01*
X68407545Y46916306D01*
X68407547Y46916303D01*
X68497518Y46773116D01*
X68497523Y46773110D01*
X68617109Y46653524D01*
X68617115Y46653519D01*
X68760302Y46563548D01*
X68760305Y46563546D01*
X68760309Y46563545D01*
X68760310Y46563544D01*
X68832913Y46538140D01*
X68919943Y46507686D01*
X69087997Y46488751D01*
X69088000Y46488751D01*
X69088003Y46488751D01*
X69256056Y46507686D01*
X69338579Y46536562D01*
X69415690Y46563544D01*
X69415692Y46563546D01*
X69415694Y46563546D01*
X69415697Y46563548D01*
X69558884Y46653519D01*
X69558885Y46653520D01*
X69558890Y46653523D01*
X69678477Y46773110D01*
X69678481Y46773116D01*
X69768452Y46916303D01*
X69768454Y46916306D01*
X69768454Y46916308D01*
X69768456Y46916310D01*
X69824313Y47075941D01*
X69824313Y47075942D01*
X69824314Y47075944D01*
X69843249Y47243998D01*
X69843249Y47244003D01*
X69824314Y47412057D01*
X69783955Y47527396D01*
X69768456Y47571690D01*
X69768455Y47571691D01*
X69768454Y47571695D01*
X69768452Y47571698D01*
X69678481Y47714885D01*
X69678476Y47714891D01*
X69641369Y47751998D01*
X70079851Y47751998D01*
X70098785Y47583944D01*
X70154645Y47424306D01*
X70154647Y47424303D01*
X70244618Y47281116D01*
X70244623Y47281110D01*
X70364209Y47161524D01*
X70364215Y47161519D01*
X70507402Y47071548D01*
X70507405Y47071546D01*
X70507409Y47071545D01*
X70507410Y47071544D01*
X70580013Y47046140D01*
X70667043Y47015686D01*
X70835097Y46996751D01*
X70835100Y46996751D01*
X70835103Y46996751D01*
X71003156Y47015686D01*
X71003159Y47015687D01*
X71162790Y47071544D01*
X71162792Y47071546D01*
X71162794Y47071546D01*
X71162797Y47071548D01*
X71305984Y47161519D01*
X71305985Y47161520D01*
X71305990Y47161523D01*
X71425577Y47281110D01*
X71507857Y47412057D01*
X71515552Y47424303D01*
X71515556Y47424311D01*
X71531760Y47470619D01*
X71572481Y47527396D01*
X71607846Y47546708D01*
X71701690Y47579544D01*
X71701692Y47579545D01*
X71701697Y47579548D01*
X71844884Y47669519D01*
X71844885Y47669520D01*
X71844890Y47669523D01*
X71964477Y47789110D01*
X71992983Y47834477D01*
X72054452Y47932303D01*
X72054454Y47932306D01*
X72054454Y47932308D01*
X72054456Y47932310D01*
X72110313Y48091941D01*
X72110313Y48091942D01*
X72110314Y48091944D01*
X72129249Y48259998D01*
X72129249Y48260003D01*
X72110314Y48428057D01*
X72054454Y48587695D01*
X72054452Y48587698D01*
X71964481Y48730885D01*
X71964476Y48730891D01*
X71844890Y48850477D01*
X71844884Y48850482D01*
X71701697Y48940453D01*
X71701694Y48940455D01*
X71542056Y48996315D01*
X71374003Y49015249D01*
X71373997Y49015249D01*
X71205943Y48996315D01*
X71046305Y48940455D01*
X71046302Y48940453D01*
X70903115Y48850482D01*
X70903109Y48850477D01*
X70783523Y48730891D01*
X70693544Y48587690D01*
X70677338Y48541378D01*
X70636615Y48484603D01*
X70601253Y48465294D01*
X70507408Y48432456D01*
X70507400Y48432452D01*
X70364215Y48342482D01*
X70364209Y48342477D01*
X70244623Y48222891D01*
X70244618Y48222885D01*
X70154647Y48079698D01*
X70154645Y48079695D01*
X70098785Y47920057D01*
X70079851Y47752003D01*
X70079851Y47751998D01*
X69641369Y47751998D01*
X69558890Y47834477D01*
X69558884Y47834482D01*
X69415697Y47924453D01*
X69415694Y47924455D01*
X69256056Y47980315D01*
X69088003Y47999249D01*
X69087997Y47999249D01*
X68919943Y47980315D01*
X68760305Y47924455D01*
X68760302Y47924453D01*
X68617115Y47834482D01*
X68617109Y47834477D01*
X68497523Y47714891D01*
X68497518Y47714885D01*
X68407547Y47571698D01*
X68407545Y47571695D01*
X68351685Y47412057D01*
X68332751Y47244003D01*
X68332751Y47243998D01*
X67355365Y47243998D01*
X67392477Y47281110D01*
X67474757Y47412057D01*
X67482452Y47424303D01*
X67482454Y47424306D01*
X67482454Y47424308D01*
X67482456Y47424310D01*
X67538313Y47583941D01*
X67538313Y47583942D01*
X67538314Y47583944D01*
X67557249Y47751998D01*
X67557249Y47752003D01*
X67538314Y47920057D01*
X67507860Y48007087D01*
X67482456Y48079690D01*
X67482455Y48079691D01*
X67482454Y48079695D01*
X67482452Y48079698D01*
X67392481Y48222885D01*
X67392476Y48222891D01*
X67272890Y48342477D01*
X67272884Y48342482D01*
X67129697Y48432453D01*
X67129694Y48432455D01*
X66970056Y48488315D01*
X66802003Y48507249D01*
X66801997Y48507249D01*
X66633943Y48488315D01*
X66474305Y48432455D01*
X66474302Y48432453D01*
X66331115Y48342482D01*
X66331109Y48342477D01*
X66251681Y48263048D01*
X66190358Y48229563D01*
X66120666Y48234547D01*
X66064733Y48276419D01*
X66040316Y48341883D01*
X66040000Y48350729D01*
X66040000Y50037998D01*
X69348751Y50037998D01*
X69367685Y49869944D01*
X69423545Y49710306D01*
X69423547Y49710303D01*
X69513518Y49567116D01*
X69513523Y49567110D01*
X69633109Y49447524D01*
X69633115Y49447519D01*
X69776302Y49357548D01*
X69776305Y49357546D01*
X69776309Y49357545D01*
X69776310Y49357544D01*
X69829326Y49338993D01*
X69935943Y49301686D01*
X70103997Y49282751D01*
X70104000Y49282751D01*
X70104003Y49282751D01*
X70272056Y49301686D01*
X70272059Y49301687D01*
X70431690Y49357544D01*
X70431692Y49357546D01*
X70431694Y49357546D01*
X70431697Y49357548D01*
X70574884Y49447519D01*
X70574885Y49447520D01*
X70574890Y49447523D01*
X70694477Y49567110D01*
X70784452Y49710303D01*
X70784454Y49710306D01*
X70784454Y49710308D01*
X70784456Y49710310D01*
X70840313Y49869941D01*
X70840313Y49869942D01*
X70840314Y49869944D01*
X70859249Y50037998D01*
X70859249Y50038003D01*
X70840314Y50206057D01*
X70784454Y50365695D01*
X70784452Y50365698D01*
X70694481Y50508885D01*
X70694476Y50508891D01*
X70574890Y50628477D01*
X70574884Y50628482D01*
X70431697Y50718453D01*
X70431694Y50718455D01*
X70272056Y50774315D01*
X70104003Y50793249D01*
X70103997Y50793249D01*
X69935943Y50774315D01*
X69776305Y50718455D01*
X69776302Y50718453D01*
X69633115Y50628482D01*
X69633109Y50628477D01*
X69513523Y50508891D01*
X69513518Y50508885D01*
X69423547Y50365698D01*
X69423545Y50365695D01*
X69367685Y50206057D01*
X69348751Y50038003D01*
X69348751Y50037998D01*
X66040000Y50037998D01*
X66040000Y50963272D01*
X66059685Y51030311D01*
X66112489Y51076066D01*
X66181647Y51086010D01*
X66245203Y51056985D01*
X66251653Y51050980D01*
X66331110Y50971523D01*
X66331112Y50971522D01*
X66331114Y50971520D01*
X66331115Y50971519D01*
X66474302Y50881548D01*
X66474305Y50881546D01*
X66474309Y50881545D01*
X66474310Y50881544D01*
X66546913Y50856140D01*
X66633943Y50825686D01*
X66801997Y50806751D01*
X66802000Y50806751D01*
X66802003Y50806751D01*
X66970056Y50825686D01*
X66970059Y50825687D01*
X67129690Y50881544D01*
X67129692Y50881546D01*
X67129694Y50881546D01*
X67129697Y50881548D01*
X67272884Y50971519D01*
X67272885Y50971520D01*
X67272890Y50971523D01*
X67392477Y51091110D01*
X67482452Y51234303D01*
X67482454Y51234306D01*
X67482454Y51234308D01*
X67482456Y51234310D01*
X67538313Y51393941D01*
X67538313Y51393942D01*
X67538314Y51393944D01*
X67557249Y51561998D01*
X67557249Y51562003D01*
X67538314Y51730057D01*
X67507860Y51817087D01*
X67482456Y51889690D01*
X67482455Y51889691D01*
X67482454Y51889695D01*
X67482452Y51889698D01*
X67392481Y52032885D01*
X67392476Y52032891D01*
X67272890Y52152477D01*
X67272884Y52152482D01*
X67129697Y52242453D01*
X67129694Y52242455D01*
X66970056Y52298315D01*
X66802003Y52317249D01*
X66801997Y52317249D01*
X66633943Y52298315D01*
X66474305Y52242455D01*
X66474302Y52242453D01*
X66331115Y52152482D01*
X66331109Y52152477D01*
X66251681Y52073048D01*
X66190358Y52039563D01*
X66120666Y52044547D01*
X66064733Y52086419D01*
X66040316Y52151883D01*
X66040000Y52160729D01*
X66040000Y65695271D01*
X66059685Y65762310D01*
X66112489Y65808065D01*
X66181647Y65818009D01*
X66245203Y65788984D01*
X66251681Y65782952D01*
X66331109Y65703524D01*
X66331115Y65703519D01*
X66474302Y65613548D01*
X66474305Y65613546D01*
X66474309Y65613545D01*
X66474310Y65613544D01*
X66546913Y65588140D01*
X66633943Y65557686D01*
X66801997Y65538751D01*
X66802000Y65538751D01*
X66802003Y65538751D01*
X66970056Y65557686D01*
X66970059Y65557687D01*
X67129690Y65613544D01*
X67129692Y65613546D01*
X67129694Y65613546D01*
X67129697Y65613548D01*
X67272884Y65703519D01*
X67272885Y65703520D01*
X67272890Y65703523D01*
X67392477Y65823110D01*
X67482452Y65966303D01*
X67482454Y65966306D01*
X67482454Y65966308D01*
X67482456Y65966310D01*
X67538313Y66125941D01*
X67538313Y66125942D01*
X67538314Y66125944D01*
X67557249Y66293998D01*
X68586751Y66293998D01*
X68605685Y66125944D01*
X68661545Y65966306D01*
X68661547Y65966303D01*
X68751518Y65823116D01*
X68751523Y65823110D01*
X68871109Y65703524D01*
X68871115Y65703519D01*
X69014302Y65613548D01*
X69014305Y65613546D01*
X69014309Y65613545D01*
X69014310Y65613544D01*
X69086913Y65588140D01*
X69173943Y65557686D01*
X69341997Y65538751D01*
X69342000Y65538751D01*
X69342003Y65538751D01*
X69510056Y65557686D01*
X69510059Y65557687D01*
X69669690Y65613544D01*
X69669692Y65613546D01*
X69669694Y65613546D01*
X69669697Y65613548D01*
X69812884Y65703519D01*
X69812885Y65703520D01*
X69812890Y65703523D01*
X69932477Y65823110D01*
X70022452Y65966303D01*
X70022454Y65966306D01*
X70022454Y65966308D01*
X70022456Y65966310D01*
X70078313Y66125941D01*
X70078313Y66125943D01*
X70078314Y66125945D01*
X70087151Y66204382D01*
X70114217Y66268796D01*
X70171811Y66308352D01*
X70241648Y66310491D01*
X70298052Y66278181D01*
X70364709Y66211524D01*
X70364715Y66211519D01*
X70507902Y66121548D01*
X70507905Y66121546D01*
X70507909Y66121545D01*
X70507910Y66121544D01*
X70580513Y66096140D01*
X70667543Y66065686D01*
X70835597Y66046751D01*
X70835600Y66046751D01*
X70835603Y66046751D01*
X71003656Y66065686D01*
X71003659Y66065687D01*
X71163290Y66121544D01*
X71163292Y66121546D01*
X71163294Y66121546D01*
X71163297Y66121548D01*
X71306484Y66211519D01*
X71306485Y66211520D01*
X71306490Y66211523D01*
X71426077Y66331110D01*
X71508357Y66462057D01*
X71516052Y66474303D01*
X71516054Y66474306D01*
X71516054Y66474308D01*
X71516056Y66474310D01*
X71571913Y66633941D01*
X71571913Y66633943D01*
X71571914Y66633945D01*
X71587141Y66769090D01*
X71614207Y66833504D01*
X71669407Y66872249D01*
X71701690Y66883544D01*
X71701693Y66883547D01*
X71701697Y66883548D01*
X71844884Y66973519D01*
X71844885Y66973520D01*
X71844890Y66973523D01*
X71964477Y67093110D01*
X72054452Y67236303D01*
X72054454Y67236306D01*
X72054454Y67236308D01*
X72054456Y67236310D01*
X72110313Y67395941D01*
X72110313Y67395942D01*
X72110314Y67395944D01*
X72129249Y67563998D01*
X72129249Y67564003D01*
X72110314Y67732057D01*
X72054454Y67891695D01*
X72054452Y67891698D01*
X71964481Y68034885D01*
X71964476Y68034891D01*
X71844890Y68154477D01*
X71844884Y68154482D01*
X71701697Y68244453D01*
X71701694Y68244455D01*
X71542056Y68300315D01*
X71374003Y68319249D01*
X71373997Y68319249D01*
X71205943Y68300315D01*
X71046305Y68244455D01*
X71046302Y68244453D01*
X70903115Y68154482D01*
X70903109Y68154477D01*
X70783523Y68034891D01*
X70783518Y68034885D01*
X70693547Y67891698D01*
X70693545Y67891695D01*
X70637685Y67732056D01*
X70622458Y67596910D01*
X70595391Y67532496D01*
X70540194Y67493753D01*
X70507909Y67482456D01*
X70507900Y67482452D01*
X70364715Y67392482D01*
X70364709Y67392477D01*
X70245123Y67272891D01*
X70245118Y67272885D01*
X70155147Y67129698D01*
X70155145Y67129695D01*
X70099285Y66970057D01*
X70090448Y66891617D01*
X70063381Y66827203D01*
X70005787Y66787648D01*
X69935950Y66785511D01*
X69879547Y66817820D01*
X69812890Y66884477D01*
X69812884Y66884482D01*
X69669697Y66974453D01*
X69669694Y66974455D01*
X69510056Y67030315D01*
X69342003Y67049249D01*
X69341997Y67049249D01*
X69173943Y67030315D01*
X69014305Y66974455D01*
X69014302Y66974453D01*
X68871115Y66884482D01*
X68871109Y66884477D01*
X68751523Y66764891D01*
X68751518Y66764885D01*
X68661547Y66621698D01*
X68661545Y66621695D01*
X68605685Y66462057D01*
X68586751Y66294003D01*
X68586751Y66293998D01*
X67557249Y66293998D01*
X67557249Y66294003D01*
X67538314Y66462057D01*
X67482454Y66621695D01*
X67482452Y66621698D01*
X67392481Y66764885D01*
X67392476Y66764891D01*
X67272890Y66884477D01*
X67272884Y66884482D01*
X67129697Y66974453D01*
X67129694Y66974455D01*
X66970056Y67030315D01*
X66802003Y67049249D01*
X66801997Y67049249D01*
X66633943Y67030315D01*
X66474305Y66974455D01*
X66474302Y66974453D01*
X66331115Y66884482D01*
X66331109Y66884477D01*
X66251681Y66805048D01*
X66190358Y66771563D01*
X66120666Y66776547D01*
X66064733Y66818419D01*
X66040316Y66883883D01*
X66040000Y66892729D01*
X66040000Y68579998D01*
X69125151Y68579998D01*
X69144085Y68411944D01*
X69199945Y68252306D01*
X69199947Y68252303D01*
X69289918Y68109116D01*
X69289923Y68109110D01*
X69409509Y67989524D01*
X69409515Y67989519D01*
X69552702Y67899548D01*
X69552705Y67899546D01*
X69552709Y67899545D01*
X69552710Y67899544D01*
X69575156Y67891690D01*
X69712343Y67843686D01*
X69880397Y67824751D01*
X69880400Y67824751D01*
X69880403Y67824751D01*
X70048456Y67843686D01*
X70048459Y67843687D01*
X70208090Y67899544D01*
X70208092Y67899546D01*
X70208094Y67899546D01*
X70208097Y67899548D01*
X70351284Y67989519D01*
X70351285Y67989520D01*
X70351290Y67989523D01*
X70470877Y68109110D01*
X70499383Y68154477D01*
X70560852Y68252303D01*
X70560854Y68252306D01*
X70560854Y68252308D01*
X70560856Y68252310D01*
X70616713Y68411941D01*
X70616713Y68411942D01*
X70616714Y68411944D01*
X70635649Y68579998D01*
X70635649Y68580003D01*
X70616714Y68748057D01*
X70560854Y68907695D01*
X70560852Y68907698D01*
X70470881Y69050885D01*
X70470876Y69050891D01*
X70351290Y69170477D01*
X70351284Y69170482D01*
X70208097Y69260453D01*
X70208094Y69260455D01*
X70048456Y69316315D01*
X69880403Y69335249D01*
X69880397Y69335249D01*
X69712343Y69316315D01*
X69552705Y69260455D01*
X69552702Y69260453D01*
X69409515Y69170482D01*
X69409509Y69170477D01*
X69289923Y69050891D01*
X69289918Y69050885D01*
X69199947Y68907698D01*
X69199945Y68907695D01*
X69144085Y68748057D01*
X69125151Y68580003D01*
X69125151Y68579998D01*
X66040000Y68579998D01*
X66040000Y69505271D01*
X66059685Y69572310D01*
X66112489Y69618065D01*
X66181647Y69628009D01*
X66245203Y69598984D01*
X66251681Y69592952D01*
X66331109Y69513524D01*
X66331115Y69513519D01*
X66474302Y69423548D01*
X66474305Y69423546D01*
X66474309Y69423545D01*
X66474310Y69423544D01*
X66546913Y69398140D01*
X66633943Y69367686D01*
X66801997Y69348751D01*
X66802000Y69348751D01*
X66802003Y69348751D01*
X66970056Y69367686D01*
X66970059Y69367687D01*
X67129690Y69423544D01*
X67129692Y69423546D01*
X67129694Y69423546D01*
X67129697Y69423548D01*
X67272884Y69513519D01*
X67272885Y69513520D01*
X67272890Y69513523D01*
X67392477Y69633110D01*
X67482452Y69776303D01*
X67482454Y69776306D01*
X67482454Y69776308D01*
X67482456Y69776310D01*
X67538313Y69935941D01*
X67538313Y69935942D01*
X67538314Y69935944D01*
X67557249Y70103998D01*
X67557249Y70104003D01*
X67538314Y70272057D01*
X67482454Y70431695D01*
X67482452Y70431698D01*
X67392481Y70574885D01*
X67392476Y70574891D01*
X67272890Y70694477D01*
X67272884Y70694482D01*
X67129697Y70784453D01*
X67129694Y70784455D01*
X66970056Y70840315D01*
X66802003Y70859249D01*
X66801997Y70859249D01*
X66633943Y70840315D01*
X66474305Y70784455D01*
X66474302Y70784453D01*
X66331115Y70694482D01*
X66251681Y70615048D01*
X66190357Y70581564D01*
X66120666Y70586548D01*
X66064732Y70628420D01*
X66040316Y70693885D01*
X66040000Y70702730D01*
X66040000Y73962814D01*
X66059685Y74029853D01*
X66076316Y74050492D01*
X66098223Y74072398D01*
X66517824Y74548342D01*
X66906712Y75049693D01*
X67263352Y75574473D01*
X67586337Y76120612D01*
X67874393Y76685953D01*
X68126383Y77268266D01*
X68341311Y77865252D01*
X68518330Y78474556D01*
X68656741Y79093773D01*
X68755998Y79720458D01*
X68815710Y80352140D01*
X68815711Y80352146D01*
X68835640Y80986324D01*
X68815711Y81620502D01*
X68789212Y81900830D01*
X68755998Y82252190D01*
X68656741Y82878875D01*
X68518330Y83498092D01*
X68341311Y84107396D01*
X68126383Y84704382D01*
X68113136Y84734992D01*
X68104578Y84804334D01*
X68134868Y84867297D01*
X68194390Y84903889D01*
X68264245Y84902492D01*
X68267894Y84901278D01*
X68381039Y84861687D01*
X68549097Y84842751D01*
X68549100Y84842751D01*
X68549103Y84842751D01*
X68717156Y84861686D01*
X68717159Y84861687D01*
X68876790Y84917544D01*
X68876792Y84917546D01*
X68876794Y84917546D01*
X68876797Y84917548D01*
X69019984Y85007519D01*
X69019985Y85007520D01*
X69019990Y85007523D01*
X69139577Y85127110D01*
X69229552Y85270303D01*
X69229554Y85270306D01*
X69229554Y85270308D01*
X69229556Y85270310D01*
X69285413Y85429941D01*
X69285413Y85429942D01*
X69285414Y85429944D01*
X69304349Y85597998D01*
X69304349Y85598003D01*
X69285414Y85766057D01*
X69229554Y85925695D01*
X69229552Y85925698D01*
X69139581Y86068885D01*
X69139576Y86068891D01*
X69019990Y86188477D01*
X69019984Y86188482D01*
X68876797Y86278453D01*
X68876794Y86278455D01*
X68717156Y86334315D01*
X68549103Y86353249D01*
X68549097Y86353249D01*
X68381043Y86334315D01*
X68221405Y86278455D01*
X68221402Y86278453D01*
X68078215Y86188482D01*
X68078209Y86188477D01*
X67958623Y86068891D01*
X67958618Y86068885D01*
X67868647Y85925698D01*
X67868642Y85925687D01*
X67834242Y85827378D01*
X67793520Y85770602D01*
X67728568Y85744855D01*
X67660006Y85758311D01*
X67609603Y85806699D01*
X67606733Y85812006D01*
X67586337Y85852036D01*
X67263352Y86398175D01*
X66906712Y86922955D01*
X66517824Y87424306D01*
X66251184Y87726750D01*
X66098224Y87900250D01*
X66076319Y87922155D01*
X66042834Y87983478D01*
X66040000Y88009836D01*
X66040000Y97953271D01*
X66059685Y98020310D01*
X66112489Y98066065D01*
X66181647Y98076009D01*
X66245203Y98046984D01*
X66251681Y98040952D01*
X66331109Y97961524D01*
X66331115Y97961519D01*
X66474302Y97871548D01*
X66474305Y97871546D01*
X66474309Y97871545D01*
X66474310Y97871544D01*
X66546913Y97846140D01*
X66633943Y97815686D01*
X66801997Y97796751D01*
X66802000Y97796751D01*
X66802003Y97796751D01*
X66970056Y97815686D01*
X67002721Y97827116D01*
X67129690Y97871544D01*
X67129692Y97871546D01*
X67129694Y97871546D01*
X67129697Y97871548D01*
X67272884Y97961519D01*
X67272885Y97961520D01*
X67272890Y97961523D01*
X67355365Y98043998D01*
X68586751Y98043998D01*
X68605685Y97875944D01*
X68661545Y97716306D01*
X68661547Y97716303D01*
X68751518Y97573116D01*
X68751523Y97573110D01*
X68871109Y97453524D01*
X68871115Y97453519D01*
X69014302Y97363548D01*
X69014305Y97363546D01*
X69014309Y97363545D01*
X69014310Y97363544D01*
X69086913Y97338140D01*
X69173943Y97307686D01*
X69341997Y97288751D01*
X69342000Y97288751D01*
X69342003Y97288751D01*
X69510056Y97307686D01*
X69510059Y97307687D01*
X69669690Y97363544D01*
X69669692Y97363546D01*
X69669694Y97363546D01*
X69669697Y97363548D01*
X69812884Y97453519D01*
X69812885Y97453520D01*
X69812890Y97453523D01*
X69932477Y97573110D01*
X69960398Y97617546D01*
X70022452Y97716303D01*
X70022455Y97716309D01*
X70022456Y97716310D01*
X70043586Y97776698D01*
X70084308Y97833473D01*
X70149260Y97859221D01*
X70217822Y97845765D01*
X70248309Y97823424D01*
X70364209Y97707524D01*
X70364215Y97707519D01*
X70507402Y97617548D01*
X70507405Y97617546D01*
X70507409Y97617545D01*
X70507410Y97617544D01*
X70580013Y97592140D01*
X70667043Y97561686D01*
X70835097Y97542751D01*
X70835100Y97542751D01*
X70835103Y97542751D01*
X71003156Y97561686D01*
X71035821Y97573116D01*
X71162790Y97617544D01*
X71162792Y97617546D01*
X71162794Y97617546D01*
X71162797Y97617548D01*
X71305984Y97707519D01*
X71305985Y97707520D01*
X71305990Y97707523D01*
X71425577Y97827110D01*
X71453498Y97871546D01*
X71515552Y97970303D01*
X71515554Y97970306D01*
X71515554Y97970308D01*
X71515556Y97970310D01*
X71571413Y98129941D01*
X71571413Y98129943D01*
X71571414Y98129945D01*
X71582045Y98224303D01*
X71586620Y98264910D01*
X71613686Y98329322D01*
X71668887Y98368067D01*
X71701690Y98379544D01*
X71701695Y98379548D01*
X71701697Y98379548D01*
X71844884Y98469519D01*
X71844885Y98469520D01*
X71844890Y98469523D01*
X71964477Y98589110D01*
X71964481Y98589116D01*
X72054452Y98732303D01*
X72054454Y98732306D01*
X72054454Y98732308D01*
X72054456Y98732310D01*
X72110313Y98891941D01*
X72110313Y98891942D01*
X72110314Y98891944D01*
X72129249Y99059998D01*
X72129249Y99060003D01*
X72110314Y99228057D01*
X72054454Y99387695D01*
X72054452Y99387698D01*
X71964481Y99530885D01*
X71964476Y99530891D01*
X71844890Y99650477D01*
X71844884Y99650482D01*
X71701697Y99740453D01*
X71701694Y99740455D01*
X71542056Y99796315D01*
X71374003Y99815249D01*
X71373997Y99815249D01*
X71205943Y99796315D01*
X71046305Y99740455D01*
X71046302Y99740453D01*
X70903115Y99650482D01*
X70903109Y99650477D01*
X70783523Y99530891D01*
X70783518Y99530885D01*
X70693547Y99387698D01*
X70693545Y99387695D01*
X70637685Y99228057D01*
X70622479Y99093093D01*
X70595412Y99028679D01*
X70540215Y98989936D01*
X70507408Y98978457D01*
X70364215Y98888482D01*
X70364209Y98888477D01*
X70244623Y98768891D01*
X70244618Y98768885D01*
X70154647Y98625698D01*
X70154643Y98625689D01*
X70133512Y98565302D01*
X70092790Y98508526D01*
X70027836Y98482780D01*
X69959275Y98496237D01*
X69928790Y98518577D01*
X69812890Y98634477D01*
X69812884Y98634482D01*
X69669697Y98724453D01*
X69669694Y98724455D01*
X69510056Y98780315D01*
X69342003Y98799249D01*
X69341997Y98799249D01*
X69173943Y98780315D01*
X69014305Y98724455D01*
X69014302Y98724453D01*
X68871115Y98634482D01*
X68871109Y98634477D01*
X68751523Y98514891D01*
X68751518Y98514885D01*
X68661547Y98371698D01*
X68661545Y98371695D01*
X68605685Y98212057D01*
X68586751Y98044003D01*
X68586751Y98043998D01*
X67355365Y98043998D01*
X67392477Y98081110D01*
X67423160Y98129941D01*
X67482452Y98224303D01*
X67482454Y98224306D01*
X67482454Y98224308D01*
X67482456Y98224310D01*
X67538313Y98383941D01*
X67538313Y98383942D01*
X67538314Y98383944D01*
X67557249Y98551998D01*
X67557249Y98552003D01*
X67538314Y98720057D01*
X67482454Y98879695D01*
X67482452Y98879698D01*
X67392481Y99022885D01*
X67392476Y99022891D01*
X67272890Y99142477D01*
X67272884Y99142482D01*
X67129697Y99232453D01*
X67129694Y99232455D01*
X66970056Y99288315D01*
X66802003Y99307249D01*
X66801997Y99307249D01*
X66633943Y99288315D01*
X66474305Y99232455D01*
X66474302Y99232453D01*
X66331115Y99142482D01*
X66331109Y99142477D01*
X66251681Y99063048D01*
X66190358Y99029563D01*
X66120666Y99034547D01*
X66064733Y99076419D01*
X66040316Y99141883D01*
X66040000Y99150729D01*
X66040000Y100837998D01*
X69125151Y100837998D01*
X69144085Y100669944D01*
X69199945Y100510306D01*
X69199947Y100510303D01*
X69289918Y100367116D01*
X69289923Y100367110D01*
X69409509Y100247524D01*
X69409515Y100247519D01*
X69552702Y100157548D01*
X69552705Y100157546D01*
X69552709Y100157545D01*
X69552710Y100157544D01*
X69575156Y100149690D01*
X69712343Y100101686D01*
X69880397Y100082751D01*
X69880400Y100082751D01*
X69880403Y100082751D01*
X70048456Y100101686D01*
X70048459Y100101687D01*
X70208090Y100157544D01*
X70208092Y100157546D01*
X70208094Y100157546D01*
X70208097Y100157548D01*
X70351284Y100247519D01*
X70351285Y100247520D01*
X70351290Y100247523D01*
X70470877Y100367110D01*
X70560852Y100510303D01*
X70560854Y100510306D01*
X70560854Y100510308D01*
X70560856Y100510310D01*
X70616713Y100669941D01*
X70616713Y100669942D01*
X70616714Y100669944D01*
X70635649Y100837998D01*
X70635649Y100838003D01*
X70616714Y101006057D01*
X70560854Y101165695D01*
X70560852Y101165698D01*
X70470881Y101308885D01*
X70470876Y101308891D01*
X70351290Y101428477D01*
X70351284Y101428482D01*
X70208097Y101518453D01*
X70208094Y101518455D01*
X70048456Y101574315D01*
X69880403Y101593249D01*
X69880397Y101593249D01*
X69712343Y101574315D01*
X69552705Y101518455D01*
X69552702Y101518453D01*
X69409515Y101428482D01*
X69409509Y101428477D01*
X69289923Y101308891D01*
X69289918Y101308885D01*
X69199947Y101165698D01*
X69199945Y101165695D01*
X69144085Y101006057D01*
X69125151Y100838003D01*
X69125151Y100837998D01*
X66040000Y100837998D01*
X66040000Y101763271D01*
X66059685Y101830310D01*
X66112489Y101876065D01*
X66181647Y101886009D01*
X66245203Y101856984D01*
X66251681Y101850952D01*
X66331109Y101771524D01*
X66331115Y101771519D01*
X66474302Y101681548D01*
X66474305Y101681546D01*
X66474309Y101681545D01*
X66474310Y101681544D01*
X66536108Y101659920D01*
X66633943Y101625686D01*
X66801997Y101606751D01*
X66802000Y101606751D01*
X66802003Y101606751D01*
X66970056Y101625686D01*
X66970059Y101625687D01*
X67129690Y101681544D01*
X67129692Y101681546D01*
X67129694Y101681546D01*
X67129697Y101681548D01*
X67272884Y101771519D01*
X67272885Y101771520D01*
X67272890Y101771523D01*
X67392477Y101891110D01*
X67482452Y102034303D01*
X67482454Y102034306D01*
X67482454Y102034308D01*
X67482456Y102034310D01*
X67538313Y102193941D01*
X67538313Y102193942D01*
X67538314Y102193944D01*
X67557249Y102361998D01*
X67557249Y102362003D01*
X67538314Y102530057D01*
X67482454Y102689695D01*
X67482452Y102689698D01*
X67392481Y102832885D01*
X67392476Y102832891D01*
X67272890Y102952477D01*
X67272884Y102952482D01*
X67129697Y103042453D01*
X67129694Y103042455D01*
X66970056Y103098315D01*
X66802003Y103117249D01*
X66801997Y103117249D01*
X66633943Y103098315D01*
X66474305Y103042455D01*
X66474302Y103042453D01*
X66331115Y102952482D01*
X66331109Y102952477D01*
X66251681Y102873048D01*
X66190358Y102839563D01*
X66120666Y102844547D01*
X66064733Y102886419D01*
X66040316Y102951883D01*
X66040000Y102960729D01*
X66040000Y116749271D01*
X66059685Y116816310D01*
X66112489Y116862065D01*
X66181647Y116872009D01*
X66245203Y116842984D01*
X66251681Y116836952D01*
X66331109Y116757524D01*
X66331115Y116757519D01*
X66474302Y116667548D01*
X66474305Y116667546D01*
X66474309Y116667545D01*
X66474310Y116667544D01*
X66546913Y116642140D01*
X66633943Y116611686D01*
X66801997Y116592751D01*
X66802000Y116592751D01*
X66802003Y116592751D01*
X66970056Y116611686D01*
X67002721Y116623116D01*
X67129690Y116667544D01*
X67129692Y116667546D01*
X67129694Y116667546D01*
X67129697Y116667548D01*
X67272884Y116757519D01*
X67272885Y116757520D01*
X67272890Y116757523D01*
X67392477Y116877110D01*
X67392481Y116877116D01*
X67482452Y117020303D01*
X67482454Y117020306D01*
X67482454Y117020308D01*
X67482456Y117020310D01*
X67538313Y117179941D01*
X67538313Y117179942D01*
X67538314Y117179944D01*
X67557249Y117347998D01*
X68586751Y117347998D01*
X68605685Y117179944D01*
X68661545Y117020306D01*
X68661547Y117020303D01*
X68751518Y116877116D01*
X68751523Y116877110D01*
X68871109Y116757524D01*
X68871115Y116757519D01*
X69014302Y116667548D01*
X69014305Y116667546D01*
X69014309Y116667545D01*
X69014310Y116667544D01*
X69086913Y116642140D01*
X69173943Y116611686D01*
X69341997Y116592751D01*
X69342000Y116592751D01*
X69342003Y116592751D01*
X69510056Y116611686D01*
X69542721Y116623116D01*
X69669690Y116667544D01*
X69669692Y116667546D01*
X69669694Y116667546D01*
X69669697Y116667548D01*
X69812884Y116757519D01*
X69812884Y116757520D01*
X69812890Y116757523D01*
X69928793Y116873427D01*
X69990112Y116906909D01*
X70059804Y116901925D01*
X70115738Y116860054D01*
X70133512Y116826699D01*
X70154643Y116766312D01*
X70154647Y116766303D01*
X70244618Y116623116D01*
X70244623Y116623110D01*
X70364209Y116503524D01*
X70364215Y116503519D01*
X70507402Y116413548D01*
X70507405Y116413546D01*
X70507409Y116413545D01*
X70507410Y116413544D01*
X70580013Y116388140D01*
X70667043Y116357686D01*
X70835097Y116338751D01*
X70835100Y116338751D01*
X70835103Y116338751D01*
X71003156Y116357686D01*
X71003159Y116357687D01*
X71162790Y116413544D01*
X71162792Y116413546D01*
X71162794Y116413546D01*
X71162797Y116413548D01*
X71305984Y116503519D01*
X71305985Y116503520D01*
X71305990Y116503523D01*
X71425577Y116623110D01*
X71453498Y116667546D01*
X71515552Y116766303D01*
X71515554Y116766306D01*
X71515554Y116766308D01*
X71515556Y116766310D01*
X71571413Y116925941D01*
X71571413Y116925943D01*
X71571414Y116925945D01*
X71582045Y117020303D01*
X71586620Y117060910D01*
X71613686Y117125322D01*
X71668887Y117164067D01*
X71701690Y117175544D01*
X71701695Y117175548D01*
X71701697Y117175548D01*
X71844884Y117265519D01*
X71844885Y117265520D01*
X71844890Y117265523D01*
X71964477Y117385110D01*
X72046757Y117516057D01*
X72054452Y117528303D01*
X72054454Y117528306D01*
X72054454Y117528308D01*
X72054456Y117528310D01*
X72110313Y117687941D01*
X72110313Y117687942D01*
X72110314Y117687944D01*
X72129249Y117855998D01*
X72129249Y117856003D01*
X72110314Y118024057D01*
X72054454Y118183695D01*
X72054452Y118183698D01*
X71964481Y118326885D01*
X71964476Y118326891D01*
X71844890Y118446477D01*
X71844884Y118446482D01*
X71701697Y118536453D01*
X71701694Y118536455D01*
X71542056Y118592315D01*
X71374003Y118611249D01*
X71373997Y118611249D01*
X71205943Y118592315D01*
X71046305Y118536455D01*
X71046302Y118536453D01*
X70903115Y118446482D01*
X70903109Y118446477D01*
X70783523Y118326891D01*
X70783518Y118326885D01*
X70693547Y118183698D01*
X70693545Y118183695D01*
X70637685Y118024057D01*
X70622479Y117889093D01*
X70595412Y117824679D01*
X70540215Y117785936D01*
X70507408Y117774457D01*
X70364215Y117684482D01*
X70248309Y117568576D01*
X70186986Y117535092D01*
X70117294Y117540076D01*
X70061361Y117581948D01*
X70043586Y117615303D01*
X70022454Y117675695D01*
X70022452Y117675698D01*
X69932481Y117818885D01*
X69932476Y117818891D01*
X69812890Y117938477D01*
X69812884Y117938482D01*
X69669697Y118028453D01*
X69669694Y118028455D01*
X69510056Y118084315D01*
X69342003Y118103249D01*
X69341997Y118103249D01*
X69173943Y118084315D01*
X69014305Y118028455D01*
X69014302Y118028453D01*
X68871115Y117938482D01*
X68871109Y117938477D01*
X68751523Y117818891D01*
X68751518Y117818885D01*
X68661547Y117675698D01*
X68661545Y117675695D01*
X68605685Y117516057D01*
X68586751Y117348003D01*
X68586751Y117347998D01*
X67557249Y117347998D01*
X67557249Y117348003D01*
X67538314Y117516057D01*
X67482454Y117675695D01*
X67482452Y117675698D01*
X67392481Y117818885D01*
X67392476Y117818891D01*
X67272890Y117938477D01*
X67272884Y117938482D01*
X67129697Y118028453D01*
X67129694Y118028455D01*
X66970056Y118084315D01*
X66802003Y118103249D01*
X66801997Y118103249D01*
X66633943Y118084315D01*
X66474305Y118028455D01*
X66474302Y118028453D01*
X66331115Y117938482D01*
X66331109Y117938477D01*
X66251681Y117859048D01*
X66190358Y117825563D01*
X66120666Y117830547D01*
X66064733Y117872419D01*
X66040316Y117937883D01*
X66040000Y117946729D01*
X66040000Y119888248D01*
X69125151Y119888248D01*
X69144085Y119720194D01*
X69199945Y119560556D01*
X69199947Y119560553D01*
X69289918Y119417366D01*
X69289923Y119417360D01*
X69409509Y119297774D01*
X69409515Y119297769D01*
X69552702Y119207798D01*
X69552705Y119207796D01*
X69552709Y119207795D01*
X69552710Y119207794D01*
X69625313Y119182390D01*
X69712343Y119151936D01*
X69880397Y119133001D01*
X69880400Y119133001D01*
X69880403Y119133001D01*
X70048456Y119151936D01*
X70048459Y119151937D01*
X70208090Y119207794D01*
X70208092Y119207796D01*
X70208094Y119207796D01*
X70208097Y119207798D01*
X70351284Y119297769D01*
X70351285Y119297770D01*
X70351290Y119297773D01*
X70470877Y119417360D01*
X70560852Y119560553D01*
X70560854Y119560556D01*
X70560854Y119560558D01*
X70560856Y119560560D01*
X70616713Y119720191D01*
X70616713Y119720192D01*
X70616714Y119720194D01*
X70635649Y119888248D01*
X70635649Y119888253D01*
X70616714Y120056307D01*
X70560854Y120215945D01*
X70560852Y120215948D01*
X70470881Y120359135D01*
X70470876Y120359141D01*
X70351290Y120478727D01*
X70351284Y120478732D01*
X70208097Y120568703D01*
X70208094Y120568705D01*
X70048456Y120624565D01*
X69880403Y120643499D01*
X69880397Y120643499D01*
X69712343Y120624565D01*
X69552705Y120568705D01*
X69552702Y120568703D01*
X69409515Y120478732D01*
X69409509Y120478727D01*
X69289923Y120359141D01*
X69289918Y120359135D01*
X69199947Y120215948D01*
X69199945Y120215945D01*
X69144085Y120056307D01*
X69125151Y119888253D01*
X69125151Y119888248D01*
X66040000Y119888248D01*
X66040000Y123099271D01*
X66059685Y123166310D01*
X66112489Y123212065D01*
X66181647Y123222009D01*
X66245203Y123192984D01*
X66251681Y123186952D01*
X66331109Y123107524D01*
X66331115Y123107519D01*
X66474302Y123017548D01*
X66474305Y123017546D01*
X66474309Y123017545D01*
X66474310Y123017544D01*
X66546913Y122992140D01*
X66633943Y122961686D01*
X66801997Y122942751D01*
X66802000Y122942751D01*
X66802003Y122942751D01*
X66970056Y122961686D01*
X66970059Y122961687D01*
X67129690Y123017544D01*
X67129692Y123017546D01*
X67129694Y123017546D01*
X67129697Y123017548D01*
X67272884Y123107519D01*
X67272885Y123107520D01*
X67272890Y123107523D01*
X67392477Y123227110D01*
X67482452Y123370303D01*
X67482454Y123370306D01*
X67482454Y123370308D01*
X67482456Y123370310D01*
X67538313Y123529941D01*
X67538313Y123529942D01*
X67538314Y123529944D01*
X67557249Y123697998D01*
X67557249Y123698003D01*
X67538314Y123866057D01*
X67482454Y124025695D01*
X67482452Y124025698D01*
X67392481Y124168885D01*
X67392476Y124168891D01*
X67272890Y124288477D01*
X67272884Y124288482D01*
X67129697Y124378453D01*
X67129694Y124378455D01*
X66970056Y124434315D01*
X66802003Y124453249D01*
X66801997Y124453249D01*
X66633943Y124434315D01*
X66474305Y124378455D01*
X66474302Y124378453D01*
X66331115Y124288482D01*
X66331109Y124288477D01*
X66251681Y124209048D01*
X66190358Y124175563D01*
X66120666Y124180547D01*
X66064733Y124222419D01*
X66040316Y124287883D01*
X66040000Y124296729D01*
X66040000Y129035931D01*
X66059685Y129102970D01*
X66076321Y129123614D01*
X66098224Y129145517D01*
X66251186Y129319019D01*
X66517824Y129621460D01*
X66906712Y130122811D01*
X67263352Y130647591D01*
X67586337Y131193730D01*
X67874393Y131759071D01*
X67885264Y131784191D01*
X67975189Y131991997D01*
X68126383Y132341384D01*
X68341311Y132938370D01*
X68518330Y133547674D01*
X68656741Y134166891D01*
X68755998Y134793576D01*
X68815710Y135425258D01*
X68815711Y135425264D01*
X68835640Y136059442D01*
X68815711Y136693620D01*
X68767069Y137208188D01*
X68755998Y137325308D01*
X68656741Y137951993D01*
X68518330Y138571210D01*
X68341311Y139180514D01*
X68126383Y139777500D01*
X67975188Y140126888D01*
X67874395Y140359809D01*
X67861594Y140384933D01*
X67586337Y140925154D01*
X67263352Y141471293D01*
X66906712Y141996073D01*
X66520481Y142493998D01*
X72396751Y142493998D01*
X72415685Y142325944D01*
X72471545Y142166306D01*
X72471547Y142166303D01*
X72561518Y142023116D01*
X72561523Y142023110D01*
X72681109Y141903524D01*
X72681115Y141903519D01*
X72824302Y141813548D01*
X72824305Y141813546D01*
X72824309Y141813545D01*
X72824310Y141813544D01*
X72896913Y141788140D01*
X72983943Y141757686D01*
X73151997Y141738751D01*
X73152000Y141738751D01*
X73152003Y141738751D01*
X73320056Y141757686D01*
X73320059Y141757687D01*
X73479690Y141813544D01*
X73479692Y141813546D01*
X73479694Y141813546D01*
X73479697Y141813548D01*
X73622884Y141903519D01*
X73622885Y141903520D01*
X73622890Y141903523D01*
X73742477Y142023110D01*
X73832452Y142166303D01*
X73832454Y142166306D01*
X73832454Y142166308D01*
X73832456Y142166310D01*
X73888313Y142325941D01*
X73888313Y142325942D01*
X73888314Y142325944D01*
X73907249Y142493998D01*
X73907249Y142494003D01*
X73888314Y142662057D01*
X73832454Y142821695D01*
X73832452Y142821698D01*
X73742481Y142964885D01*
X73742476Y142964891D01*
X73622890Y143084477D01*
X73622884Y143084482D01*
X73479697Y143174453D01*
X73479694Y143174455D01*
X73320056Y143230315D01*
X73152003Y143249249D01*
X73151997Y143249249D01*
X72983943Y143230315D01*
X72824305Y143174455D01*
X72824302Y143174453D01*
X72681115Y143084482D01*
X72681109Y143084477D01*
X72561523Y142964891D01*
X72561518Y142964885D01*
X72471547Y142821698D01*
X72471545Y142821695D01*
X72415685Y142662057D01*
X72396751Y142494003D01*
X72396751Y142493998D01*
X66520481Y142493998D01*
X66517824Y142497424D01*
X66264195Y142785110D01*
X66098224Y142973368D01*
X66076319Y142995273D01*
X66042834Y143056596D01*
X66040000Y143082954D01*
X66040000Y143255998D01*
X68332751Y143255998D01*
X68351685Y143087944D01*
X68407545Y142928306D01*
X68407547Y142928303D01*
X68497518Y142785116D01*
X68497523Y142785110D01*
X68617109Y142665524D01*
X68617115Y142665519D01*
X68760302Y142575548D01*
X68760305Y142575546D01*
X68760309Y142575545D01*
X68760310Y142575544D01*
X68832913Y142550140D01*
X68919943Y142519686D01*
X69087997Y142500751D01*
X69088000Y142500751D01*
X69088003Y142500751D01*
X69256056Y142519686D01*
X69264224Y142522544D01*
X69415690Y142575544D01*
X69415692Y142575546D01*
X69415694Y142575546D01*
X69415697Y142575548D01*
X69558884Y142665519D01*
X69558885Y142665520D01*
X69558890Y142665523D01*
X69678477Y142785110D01*
X69701467Y142821698D01*
X69768452Y142928303D01*
X69768454Y142928306D01*
X69768454Y142928308D01*
X69768456Y142928310D01*
X69824313Y143087941D01*
X69824313Y143087942D01*
X69824314Y143087944D01*
X69843249Y143255998D01*
X69843249Y143256003D01*
X69824314Y143424057D01*
X69768454Y143583695D01*
X69768452Y143583698D01*
X69678481Y143726885D01*
X69678476Y143726891D01*
X69558890Y143846477D01*
X69558884Y143846482D01*
X69415697Y143936453D01*
X69415694Y143936455D01*
X69256056Y143992315D01*
X69088003Y144011249D01*
X69087997Y144011249D01*
X68919943Y143992315D01*
X68760305Y143936455D01*
X68760302Y143936453D01*
X68617115Y143846482D01*
X68617109Y143846477D01*
X68497523Y143726891D01*
X68497518Y143726885D01*
X68407547Y143583698D01*
X68407545Y143583695D01*
X68351685Y143424057D01*
X68332751Y143256003D01*
X68332751Y143255998D01*
X66040000Y143255998D01*
X66040000Y153579271D01*
X66059685Y153646310D01*
X66112489Y153692065D01*
X66181647Y153702009D01*
X66245203Y153672984D01*
X66251681Y153666952D01*
X66331109Y153587524D01*
X66331115Y153587519D01*
X66474302Y153497548D01*
X66474305Y153497546D01*
X66474309Y153497545D01*
X66474310Y153497544D01*
X66546913Y153472140D01*
X66633943Y153441686D01*
X66801997Y153422751D01*
X66802000Y153422751D01*
X66802003Y153422751D01*
X66970056Y153441686D01*
X67002704Y153453110D01*
X67129690Y153497544D01*
X67129692Y153497546D01*
X67129694Y153497546D01*
X67129697Y153497548D01*
X67272884Y153587519D01*
X67272885Y153587520D01*
X67272890Y153587523D01*
X67392477Y153707110D01*
X67482452Y153850303D01*
X67482454Y153850306D01*
X67482454Y153850308D01*
X67482456Y153850310D01*
X67538313Y154009941D01*
X67538313Y154009942D01*
X67538314Y154009944D01*
X67557249Y154177998D01*
X67557249Y154178003D01*
X67538314Y154346057D01*
X67482454Y154505695D01*
X67482452Y154505698D01*
X67392481Y154648885D01*
X67392476Y154648891D01*
X67272890Y154768477D01*
X67272884Y154768482D01*
X67129697Y154858453D01*
X67129694Y154858455D01*
X66970056Y154914315D01*
X66802003Y154933249D01*
X66801997Y154933249D01*
X66633943Y154914315D01*
X66474305Y154858455D01*
X66474302Y154858453D01*
X66331115Y154768482D01*
X66251681Y154689048D01*
X66190357Y154655564D01*
X66120666Y154660548D01*
X66064732Y154702420D01*
X66040316Y154767885D01*
X66040000Y154776730D01*
X66040000Y154939998D01*
X70080351Y154939998D01*
X70099285Y154771944D01*
X70155145Y154612306D01*
X70155147Y154612303D01*
X70245118Y154469116D01*
X70245123Y154469110D01*
X70364709Y154349524D01*
X70364715Y154349519D01*
X70507902Y154259548D01*
X70507905Y154259546D01*
X70507909Y154259545D01*
X70507910Y154259544D01*
X70530356Y154251690D01*
X70667543Y154203686D01*
X70835597Y154184751D01*
X70835600Y154184751D01*
X70835603Y154184751D01*
X71003656Y154203686D01*
X71003659Y154203687D01*
X71163290Y154259544D01*
X71163292Y154259546D01*
X71163294Y154259546D01*
X71163297Y154259548D01*
X71306484Y154349519D01*
X71306485Y154349520D01*
X71306490Y154349523D01*
X71426077Y154469110D01*
X71454583Y154514477D01*
X71516051Y154612301D01*
X71516053Y154612306D01*
X71516056Y154612310D01*
X71532329Y154658819D01*
X71573049Y154715595D01*
X71608416Y154734908D01*
X71701690Y154767544D01*
X71701693Y154767547D01*
X71701697Y154767548D01*
X71844884Y154857519D01*
X71844885Y154857520D01*
X71844890Y154857523D01*
X71964477Y154977110D01*
X72046757Y155108057D01*
X72054452Y155120303D01*
X72054454Y155120306D01*
X72054454Y155120308D01*
X72054456Y155120310D01*
X72110313Y155279941D01*
X72110313Y155279942D01*
X72110314Y155279944D01*
X72129249Y155447998D01*
X72129249Y155448003D01*
X72110314Y155616057D01*
X72054454Y155775695D01*
X72054452Y155775698D01*
X71964481Y155918885D01*
X71964476Y155918891D01*
X71844890Y156038477D01*
X71844884Y156038482D01*
X71701697Y156128453D01*
X71701694Y156128455D01*
X71542056Y156184315D01*
X71374003Y156203249D01*
X71373997Y156203249D01*
X71205943Y156184315D01*
X71046305Y156128455D01*
X71046302Y156128453D01*
X70903115Y156038482D01*
X70903109Y156038477D01*
X70783523Y155918891D01*
X70783518Y155918885D01*
X70693547Y155775698D01*
X70693544Y155775692D01*
X70677268Y155729179D01*
X70636545Y155672404D01*
X70601183Y155653095D01*
X70507911Y155620457D01*
X70507902Y155620453D01*
X70364715Y155530482D01*
X70364709Y155530477D01*
X70245123Y155410891D01*
X70245118Y155410885D01*
X70155147Y155267698D01*
X70155145Y155267695D01*
X70099285Y155108057D01*
X70080351Y154940003D01*
X70080351Y154939998D01*
X66040000Y154939998D01*
X66040000Y158241998D01*
X68586751Y158241998D01*
X68605685Y158073944D01*
X68661545Y157914306D01*
X68661547Y157914303D01*
X68751518Y157771116D01*
X68751523Y157771110D01*
X68871109Y157651524D01*
X68871115Y157651519D01*
X69014302Y157561548D01*
X69014305Y157561546D01*
X69014309Y157561545D01*
X69014310Y157561544D01*
X69086913Y157536140D01*
X69173943Y157505686D01*
X69341997Y157486751D01*
X69342000Y157486751D01*
X69342003Y157486751D01*
X69510056Y157505686D01*
X69510059Y157505687D01*
X69669690Y157561544D01*
X69669692Y157561546D01*
X69669694Y157561546D01*
X69669697Y157561548D01*
X69812884Y157651519D01*
X69812885Y157651520D01*
X69812890Y157651523D01*
X69932477Y157771110D01*
X70022452Y157914303D01*
X70022454Y157914306D01*
X70022454Y157914308D01*
X70022456Y157914310D01*
X70078313Y158073941D01*
X70078313Y158073942D01*
X70078314Y158073944D01*
X70097249Y158241998D01*
X70097249Y158242003D01*
X70078314Y158410057D01*
X70022454Y158569695D01*
X70022452Y158569698D01*
X69932481Y158712885D01*
X69932476Y158712891D01*
X69812890Y158832477D01*
X69812884Y158832482D01*
X69669697Y158922453D01*
X69669694Y158922455D01*
X69510056Y158978315D01*
X69342003Y158997249D01*
X69341997Y158997249D01*
X69173943Y158978315D01*
X69014305Y158922455D01*
X69014302Y158922453D01*
X68871115Y158832482D01*
X68871109Y158832477D01*
X68751523Y158712891D01*
X68751518Y158712885D01*
X68661547Y158569698D01*
X68661545Y158569695D01*
X68605685Y158410057D01*
X68586751Y158242003D01*
X68586751Y158241998D01*
X66040000Y158241998D01*
X66040000Y160691271D01*
X66059685Y160758310D01*
X66112489Y160804065D01*
X66181647Y160814009D01*
X66245203Y160784984D01*
X66251681Y160778952D01*
X66331109Y160699524D01*
X66331115Y160699519D01*
X66474302Y160609548D01*
X66474305Y160609546D01*
X66474309Y160609545D01*
X66474310Y160609544D01*
X66546913Y160584140D01*
X66633943Y160553686D01*
X66801997Y160534751D01*
X66802000Y160534751D01*
X66802003Y160534751D01*
X66970056Y160553686D01*
X66970059Y160553687D01*
X67129690Y160609544D01*
X67129692Y160609546D01*
X67129694Y160609546D01*
X67129697Y160609548D01*
X67272884Y160699519D01*
X67272885Y160699520D01*
X67272890Y160699523D01*
X67392477Y160819110D01*
X67392481Y160819116D01*
X67482452Y160962303D01*
X67482454Y160962306D01*
X67482454Y160962308D01*
X67482456Y160962310D01*
X67538313Y161121941D01*
X67538313Y161121942D01*
X67538314Y161121944D01*
X67557249Y161289998D01*
X67557249Y161290003D01*
X67538314Y161458057D01*
X67482454Y161617695D01*
X67482452Y161617698D01*
X67392481Y161760885D01*
X67392476Y161760891D01*
X67272890Y161880477D01*
X67272884Y161880482D01*
X67129697Y161970453D01*
X67129694Y161970455D01*
X66970056Y162026315D01*
X66802003Y162045249D01*
X66801997Y162045249D01*
X66633943Y162026315D01*
X66474305Y161970455D01*
X66474302Y161970453D01*
X66331115Y161880482D01*
X66251681Y161801048D01*
X66190357Y161767564D01*
X66120666Y161772548D01*
X66064732Y161814420D01*
X66040316Y161879885D01*
X66040000Y161888730D01*
X66040000Y170665100D01*
X66059685Y170732139D01*
X66112489Y170777894D01*
X66164000Y170789100D01*
X75314000Y170789100D01*
X75381039Y170769415D01*
G37*
%TD.AperFunction*%
%TD*%
M02*
