%TF.GenerationSoftware,KiCad,Pcbnew,7.0.7*%
%TF.CreationDate,2024-03-09T11:29:06+01:00*%
%TF.ProjectId,button-board,62757474-6f6e-42d6-926f-6172642e6b69,rev?*%
%TF.SameCoordinates,Original*%
%TF.FileFunction,Paste,Bot*%
%TF.FilePolarity,Positive*%
%FSLAX46Y46*%
G04 Gerber Fmt 4.6, Leading zero omitted, Abs format (unit mm)*
G04 Created by KiCad (PCBNEW 7.0.7) date 2024-03-09 11:29:06*
%MOMM*%
%LPD*%
G01*
G04 APERTURE LIST*
G04 Aperture macros list*
%AMRoundRect*
0 Rectangle with rounded corners*
0 $1 Rounding radius*
0 $2 $3 $4 $5 $6 $7 $8 $9 X,Y pos of 4 corners*
0 Add a 4 corners polygon primitive as box body*
4,1,4,$2,$3,$4,$5,$6,$7,$8,$9,$2,$3,0*
0 Add four circle primitives for the rounded corners*
1,1,$1+$1,$2,$3*
1,1,$1+$1,$4,$5*
1,1,$1+$1,$6,$7*
1,1,$1+$1,$8,$9*
0 Add four rect primitives between the rounded corners*
20,1,$1+$1,$2,$3,$4,$5,0*
20,1,$1+$1,$4,$5,$6,$7,0*
20,1,$1+$1,$6,$7,$8,$9,0*
20,1,$1+$1,$8,$9,$2,$3,0*%
%AMFreePoly0*
4,1,43,0.523063,1.365106,0.538902,1.365106,0.551715,1.355796,0.566779,1.350902,0.576088,1.338088,0.588902,1.328779,0.593796,1.313715,0.603106,1.300902,0.603106,1.285062,0.608000,1.270000,0.608000,-1.270000,0.603106,-1.285062,0.603106,-1.300902,0.593796,-1.313715,0.588902,-1.328779,0.576088,-1.338088,0.566779,-1.350902,0.551715,-1.355796,0.538902,-1.365106,0.523063,-1.365106,
0.508000,-1.370000,-0.254000,-1.370000,-0.270926,-1.364500,-0.288710,-1.363783,-0.299590,-1.355187,-0.312779,-1.350902,-0.323241,-1.336501,-0.337205,-1.325470,-0.845205,-0.563470,-0.853042,-0.535569,-0.862000,-0.508000,-0.862000,0.508000,-0.853042,0.535569,-0.845205,0.563470,-0.337205,1.325470,-0.323241,1.336501,-0.312779,1.350902,-0.299590,1.355187,-0.288710,1.363783,-0.270926,1.364500,
-0.254000,1.370000,0.508000,1.370000,0.523063,1.365106,0.523063,1.365106,$1*%
G04 Aperture macros list end*
%ADD10FreePoly0,90.000000*%
%ADD11FreePoly0,270.000000*%
%ADD12R,1.150000X0.600000*%
%ADD13R,1.150000X0.300000*%
%ADD14R,1.500000X1.500000*%
%ADD15R,0.900000X0.900000*%
%ADD16R,0.900000X1.500000*%
%ADD17R,1.500000X0.900000*%
%ADD18RoundRect,0.100000X-0.100000X0.637500X-0.100000X-0.637500X0.100000X-0.637500X0.100000X0.637500X0*%
%ADD19R,2.790000X0.740000*%
%ADD20R,1.600000X1.500000*%
%ADD21RoundRect,0.229659X1.070341X-0.470341X1.070341X0.470341X-1.070341X0.470341X-1.070341X-0.470341X0*%
%ADD22RoundRect,0.225000X0.250000X-0.225000X0.250000X0.225000X-0.250000X0.225000X-0.250000X-0.225000X0*%
%ADD23RoundRect,0.225000X-0.250000X0.225000X-0.250000X-0.225000X0.250000X-0.225000X0.250000X0.225000X0*%
%ADD24RoundRect,0.225000X-0.225000X-0.250000X0.225000X-0.250000X0.225000X0.250000X-0.225000X0.250000X0*%
%ADD25RoundRect,0.200000X-0.275000X0.200000X-0.275000X-0.200000X0.275000X-0.200000X0.275000X0.200000X0*%
%ADD26R,0.650000X1.220000*%
%ADD27RoundRect,0.200000X0.275000X-0.200000X0.275000X0.200000X-0.275000X0.200000X-0.275000X-0.200000X0*%
%ADD28RoundRect,0.200000X-0.200000X-0.275000X0.200000X-0.275000X0.200000X0.275000X-0.200000X0.275000X0*%
%ADD29RoundRect,0.200000X0.200000X0.275000X-0.200000X0.275000X-0.200000X-0.275000X0.200000X-0.275000X0*%
%ADD30RoundRect,0.100000X0.637500X0.100000X-0.637500X0.100000X-0.637500X-0.100000X0.637500X-0.100000X0*%
%ADD31RoundRect,0.250000X0.312500X0.625000X-0.312500X0.625000X-0.312500X-0.625000X0.312500X-0.625000X0*%
%ADD32RoundRect,0.250000X0.625000X-0.312500X0.625000X0.312500X-0.625000X0.312500X-0.625000X-0.312500X0*%
%ADD33RoundRect,0.250000X-0.312500X-0.625000X0.312500X-0.625000X0.312500X0.625000X-0.312500X0.625000X0*%
%ADD34RoundRect,0.250000X-0.650000X0.325000X-0.650000X-0.325000X0.650000X-0.325000X0.650000X0.325000X0*%
%ADD35R,1.500000X2.000000*%
%ADD36R,3.800000X2.000000*%
%ADD37RoundRect,0.150000X0.825000X0.150000X-0.825000X0.150000X-0.825000X-0.150000X0.825000X-0.150000X0*%
%ADD38RoundRect,0.150000X0.587500X0.150000X-0.587500X0.150000X-0.587500X-0.150000X0.587500X-0.150000X0*%
%ADD39RoundRect,0.243750X-0.243750X-0.456250X0.243750X-0.456250X0.243750X0.456250X-0.243750X0.456250X0*%
%ADD40RoundRect,0.243750X-0.456250X0.243750X-0.456250X-0.243750X0.456250X-0.243750X0.456250X0.243750X0*%
%ADD41RoundRect,0.250000X-0.300000X-0.300000X0.300000X-0.300000X0.300000X0.300000X-0.300000X0.300000X0*%
G04 APERTURE END LIST*
D10*
%TO.C,D22*%
X7861802Y105824643D03*
D11*
X7861802Y110650643D03*
%TD*%
D10*
%TO.C,D27*%
X133796400Y106120000D03*
D11*
X133796400Y110946000D03*
%TD*%
D10*
%TO.C,D26*%
X108609478Y106058883D03*
D11*
X108609478Y110884883D03*
%TD*%
D10*
%TO.C,D25*%
X83422559Y106058883D03*
D11*
X83422559Y110884883D03*
%TD*%
D10*
%TO.C,D24*%
X58235640Y106058883D03*
D11*
X58235640Y110884883D03*
%TD*%
D10*
%TO.C,D23*%
X33048721Y106058883D03*
D11*
X33048721Y110884883D03*
%TD*%
D12*
%TO.C,J2*%
X138814000Y16916000D03*
X138814000Y16116000D03*
D13*
X138814000Y14966000D03*
X138814000Y13966000D03*
X138814000Y13466000D03*
X138814000Y12466000D03*
D12*
X138814000Y11316000D03*
X138814000Y10516000D03*
X138814000Y10516000D03*
X138814000Y11316000D03*
D13*
X138814000Y11966000D03*
X138814000Y12966000D03*
X138814000Y14466000D03*
X138814000Y15466000D03*
D12*
X138814000Y16116000D03*
X138814000Y16916000D03*
D14*
X139389000Y18836000D03*
X143319000Y18836000D03*
X139389000Y8596000D03*
X143319000Y8596000D03*
%TD*%
D15*
%TO.C,U2*%
X72698000Y7466000D03*
X71298000Y7466000D03*
X69898000Y7466000D03*
X72698000Y8866000D03*
X71298000Y8866000D03*
X69898000Y8866000D03*
X69898000Y8866000D03*
X72698000Y10266000D03*
X72698000Y10266000D03*
X71298000Y10266000D03*
X69898000Y10266000D03*
D16*
X63578000Y-1384000D03*
X64848000Y-1384000D03*
X66118000Y-1384000D03*
X67388000Y-1384000D03*
X68658000Y-1384000D03*
X69928000Y-1384000D03*
X71198000Y-1384000D03*
X72468000Y-1384000D03*
X73738000Y-1384000D03*
X75008000Y-1384000D03*
X76278000Y-1384000D03*
X77548000Y-1384000D03*
X78818000Y-1384000D03*
X80088000Y-1384000D03*
D17*
X81338000Y381000D03*
X81338000Y1651000D03*
X81338000Y2921000D03*
X81338000Y4191000D03*
X81338000Y5461000D03*
X81338000Y6731000D03*
X81338000Y8001000D03*
X81338000Y9271000D03*
X81338000Y10541000D03*
X81338000Y11811000D03*
X81338000Y13081000D03*
X81338000Y14351000D03*
D16*
X80088000Y16116000D03*
X78818000Y16116000D03*
X77548000Y16116000D03*
X76278000Y16116000D03*
X75008000Y16116000D03*
X73738000Y16116000D03*
X72468000Y16116000D03*
X71198000Y16116000D03*
X69928000Y16116000D03*
X68658000Y16116000D03*
X67388000Y16116000D03*
X66118000Y16116000D03*
X64848000Y16116000D03*
X63578000Y16116000D03*
%TD*%
D18*
%TO.C,U10*%
X67433000Y43248500D03*
X68083000Y43248500D03*
X68733000Y43248500D03*
X69383000Y43248500D03*
X70033000Y43248500D03*
X70683000Y43248500D03*
X71333000Y43248500D03*
X71983000Y43248500D03*
X72633000Y43248500D03*
X73283000Y43248500D03*
X73283000Y37523500D03*
X72633000Y37523500D03*
X71983000Y37523500D03*
X71333000Y37523500D03*
X70683000Y37523500D03*
X70033000Y37523500D03*
X69383000Y37523500D03*
X68733000Y37523500D03*
X68083000Y37523500D03*
X67433000Y37523500D03*
%TD*%
D19*
%TO.C,J3*%
X91437000Y-2032000D03*
X95507000Y-2032000D03*
X91437000Y-762000D03*
X95507000Y-762000D03*
X91437000Y508000D03*
X95507000Y508000D03*
X91437000Y1778000D03*
X95507000Y1778000D03*
X91437000Y3048000D03*
X95507000Y3048000D03*
%TD*%
D20*
%TO.C,D39*%
X135296400Y157966000D03*
X135296400Y161566000D03*
%TD*%
%TO.C,D38*%
X109509478Y157966000D03*
X109509478Y161566000D03*
%TD*%
%TO.C,D37*%
X83722559Y157966000D03*
X83722559Y161566000D03*
%TD*%
%TO.C,D36*%
X57935640Y157966000D03*
X57935640Y161566000D03*
%TD*%
%TO.C,D35*%
X32148721Y157966000D03*
X32148721Y161566000D03*
%TD*%
%TO.C,D34*%
X6361802Y157966000D03*
X6361802Y161566000D03*
%TD*%
D21*
%TO.C,D15*%
X133796400Y50850245D03*
X133796400Y56050245D03*
%TD*%
%TO.C,D14*%
X108609478Y50749765D03*
X108609478Y55949765D03*
%TD*%
%TO.C,D13*%
X83422559Y50749765D03*
X83422559Y55949765D03*
%TD*%
%TO.C,D12*%
X58235640Y50749765D03*
X58235640Y55949765D03*
%TD*%
%TO.C,D11*%
X33048721Y50749765D03*
X33048721Y55949765D03*
%TD*%
%TO.C,D10*%
X7874000Y50281285D03*
X7874000Y55481285D03*
%TD*%
%TO.C,D33*%
X131296402Y133384562D03*
X131296402Y138584562D03*
%TD*%
%TO.C,D32*%
X107109480Y133359442D03*
X107109480Y138559442D03*
%TD*%
%TO.C,D31*%
X82922560Y133359442D03*
X82922560Y138559442D03*
%TD*%
%TO.C,D30*%
X58735640Y133359442D03*
X58735640Y138559442D03*
%TD*%
%TO.C,D29*%
X34548720Y133359442D03*
X34548720Y138559442D03*
%TD*%
%TO.C,D28*%
X10361800Y133242322D03*
X10361800Y138442322D03*
%TD*%
%TO.C,D21*%
X131296402Y78361684D03*
X131296402Y83561684D03*
%TD*%
%TO.C,D20*%
X107109480Y78286324D03*
X107109480Y83486324D03*
%TD*%
%TO.C,D19*%
X82922560Y78286324D03*
X82922560Y83486324D03*
%TD*%
%TO.C,D18*%
X58735640Y78286324D03*
X58735640Y83486324D03*
%TD*%
%TO.C,D17*%
X34548720Y78286324D03*
X34548720Y83486324D03*
%TD*%
%TO.C,D16*%
X10361800Y77934964D03*
X10361800Y83134964D03*
%TD*%
%TO.C,D4*%
X5361802Y32827600D03*
X5361802Y27627600D03*
%TD*%
%TO.C,D7*%
X83922559Y28213200D03*
X83922559Y33413200D03*
%TD*%
%TO.C,D9*%
X136296400Y28338800D03*
X136296400Y33538800D03*
%TD*%
%TO.C,D8*%
X110109478Y28213200D03*
X110109478Y33413200D03*
%TD*%
%TO.C,D6*%
X57735640Y28213200D03*
X57735640Y33413200D03*
%TD*%
%TO.C,D5*%
X31548721Y33413200D03*
X31548721Y28213200D03*
%TD*%
D22*
%TO.C,C9*%
X64247000Y20092000D03*
X64247000Y18542000D03*
%TD*%
%TO.C,C7*%
X62245000Y18542000D03*
X62245000Y20092000D03*
%TD*%
D23*
%TO.C,C19*%
X75438000Y145809000D03*
X75438000Y144259000D03*
%TD*%
%TO.C,C18*%
X75692000Y87643000D03*
X75692000Y86093000D03*
%TD*%
%TO.C,C17*%
X74930000Y37605000D03*
X74930000Y36055000D03*
%TD*%
D24*
%TO.C,C16*%
X68059000Y161036000D03*
X69609000Y161036000D03*
%TD*%
%TO.C,C15*%
X68059000Y122682000D03*
X69609000Y122682000D03*
%TD*%
%TO.C,C14*%
X67805000Y103886000D03*
X69355000Y103886000D03*
%TD*%
%TO.C,C13*%
X68059000Y71628000D03*
X69609000Y71628000D03*
%TD*%
%TO.C,C12*%
X68059000Y53340000D03*
X69609000Y53340000D03*
%TD*%
%TO.C,C11*%
X68821000Y27686000D03*
X70371000Y27686000D03*
%TD*%
D25*
%TO.C,R1*%
X143510000Y20765000D03*
X143510000Y22415000D03*
%TD*%
%TO.C,R135*%
X33274000Y10985000D03*
X33274000Y9335000D03*
%TD*%
D26*
%TO.C,Q34*%
X65974000Y162774000D03*
X64074000Y162774000D03*
X65024000Y165394000D03*
%TD*%
D27*
%TO.C,R106*%
X109982000Y43942000D03*
X109982000Y45592000D03*
%TD*%
D18*
%TO.C,U12*%
X67941000Y151452500D03*
X68591000Y151452500D03*
X69241000Y151452500D03*
X69891000Y151452500D03*
X70541000Y151452500D03*
X71191000Y151452500D03*
X71841000Y151452500D03*
X72491000Y151452500D03*
X73141000Y151452500D03*
X73791000Y151452500D03*
X73791000Y145727500D03*
X73141000Y145727500D03*
X72491000Y145727500D03*
X71841000Y145727500D03*
X71191000Y145727500D03*
X70541000Y145727500D03*
X69891000Y145727500D03*
X69241000Y145727500D03*
X68591000Y145727500D03*
X67941000Y145727500D03*
%TD*%
D27*
%TO.C,R134*%
X5334000Y148527000D03*
X5334000Y150177000D03*
%TD*%
D28*
%TO.C,R133*%
X131509000Y151511000D03*
X133159000Y151511000D03*
%TD*%
D27*
%TO.C,R132*%
X110998000Y151575000D03*
X110998000Y153225000D03*
%TD*%
D28*
%TO.C,R131*%
X78931000Y153416000D03*
X80581000Y153416000D03*
%TD*%
D27*
%TO.C,R130*%
X57912000Y153479000D03*
X57912000Y151829000D03*
%TD*%
%TO.C,R129*%
X30480000Y151575000D03*
X30480000Y153225000D03*
%TD*%
D29*
%TO.C,R128*%
X9334000Y151511000D03*
X7684000Y151511000D03*
%TD*%
D28*
%TO.C,R127*%
X121984000Y147066000D03*
X123634000Y147066000D03*
%TD*%
%TO.C,R126*%
X97854000Y147066000D03*
X99504000Y147066000D03*
%TD*%
%TO.C,R125*%
X80074000Y147066000D03*
X81724000Y147066000D03*
%TD*%
D25*
%TO.C,R124*%
X58674000Y148399000D03*
X58674000Y146749000D03*
%TD*%
%TO.C,R123*%
X34544000Y148399000D03*
X34544000Y146749000D03*
%TD*%
D29*
%TO.C,R122*%
X20129000Y147066000D03*
X18479000Y147066000D03*
%TD*%
D30*
%TO.C,U9*%
X67876500Y121401000D03*
X67876500Y120751000D03*
X67876500Y120101000D03*
X67876500Y119451000D03*
X67876500Y118801000D03*
X67876500Y118151000D03*
X67876500Y117501000D03*
X67876500Y116851000D03*
X73601500Y116851000D03*
X73601500Y117501000D03*
X73601500Y118151000D03*
X73601500Y118801000D03*
X73601500Y119451000D03*
X73601500Y120101000D03*
X73601500Y120751000D03*
X73601500Y121401000D03*
%TD*%
%TO.C,U7*%
X73728500Y70093000D03*
X73728500Y69443000D03*
X73728500Y68793000D03*
X73728500Y68143000D03*
X73728500Y67493000D03*
X73728500Y66843000D03*
X73728500Y66193000D03*
X73728500Y65543000D03*
X68003500Y65543000D03*
X68003500Y66193000D03*
X68003500Y66843000D03*
X68003500Y67493000D03*
X68003500Y68143000D03*
X68003500Y68793000D03*
X68003500Y69443000D03*
X68003500Y70093000D03*
%TD*%
%TO.C,U8*%
X73728500Y159501000D03*
X73728500Y158851000D03*
X73728500Y158201000D03*
X73728500Y157551000D03*
X73728500Y156901000D03*
X73728500Y156251000D03*
X73728500Y155601000D03*
X73728500Y154951000D03*
X68003500Y154951000D03*
X68003500Y155601000D03*
X68003500Y156251000D03*
X68003500Y156901000D03*
X68003500Y157551000D03*
X68003500Y158201000D03*
X68003500Y158851000D03*
X68003500Y159501000D03*
%TD*%
%TO.C,U6*%
X73601500Y102351000D03*
X73601500Y101701000D03*
X73601500Y101051000D03*
X73601500Y100401000D03*
X73601500Y99751000D03*
X73601500Y99101000D03*
X73601500Y98451000D03*
X73601500Y97801000D03*
X67876500Y97801000D03*
X67876500Y98451000D03*
X67876500Y99101000D03*
X67876500Y99751000D03*
X67876500Y100401000D03*
X67876500Y101051000D03*
X67876500Y101701000D03*
X67876500Y102351000D03*
%TD*%
D18*
%TO.C,U11*%
X67814000Y93540500D03*
X68464000Y93540500D03*
X69114000Y93540500D03*
X69764000Y93540500D03*
X70414000Y93540500D03*
X71064000Y93540500D03*
X71714000Y93540500D03*
X72364000Y93540500D03*
X73014000Y93540500D03*
X73664000Y93540500D03*
X73664000Y87815500D03*
X73014000Y87815500D03*
X72364000Y87815500D03*
X71714000Y87815500D03*
X71064000Y87815500D03*
X70414000Y87815500D03*
X69764000Y87815500D03*
X69114000Y87815500D03*
X68464000Y87815500D03*
X67814000Y87815500D03*
%TD*%
D30*
%TO.C,U4*%
X67876500Y51551000D03*
X67876500Y50901000D03*
X67876500Y50251000D03*
X67876500Y49601000D03*
X67876500Y48951000D03*
X67876500Y48301000D03*
X67876500Y47651000D03*
X67876500Y47001000D03*
X73601500Y47001000D03*
X73601500Y47651000D03*
X73601500Y48301000D03*
X73601500Y48951000D03*
X73601500Y49601000D03*
X73601500Y50251000D03*
X73601500Y50901000D03*
X73601500Y51551000D03*
%TD*%
D31*
%TO.C,R95*%
X133796500Y154051000D03*
X130871500Y154051000D03*
%TD*%
D28*
%TO.C,R94*%
X126429000Y159766000D03*
X128079000Y159766000D03*
%TD*%
D31*
%TO.C,R93*%
X108396500Y154051000D03*
X105471500Y154051000D03*
%TD*%
D28*
%TO.C,R92*%
X101029000Y159766000D03*
X102679000Y159766000D03*
%TD*%
D32*
%TO.C,R91*%
X80264000Y162367500D03*
X80264000Y165292500D03*
%TD*%
D29*
%TO.C,R90*%
X77533000Y160296000D03*
X75883000Y160296000D03*
%TD*%
D32*
%TO.C,R89*%
X60706000Y160589500D03*
X60706000Y163514500D03*
%TD*%
D29*
%TO.C,R88*%
X65849000Y160274000D03*
X64199000Y160274000D03*
%TD*%
D33*
%TO.C,R87*%
X33589500Y154051000D03*
X36514500Y154051000D03*
%TD*%
D28*
%TO.C,R86*%
X39434000Y159766000D03*
X41084000Y159766000D03*
%TD*%
D33*
%TO.C,R85*%
X7935500Y154051000D03*
X10860500Y154051000D03*
%TD*%
D28*
%TO.C,R84*%
X13399000Y159766000D03*
X15049000Y159766000D03*
%TD*%
D31*
%TO.C,R71*%
X131256500Y99441000D03*
X128331500Y99441000D03*
%TD*%
D28*
%TO.C,R70*%
X123889000Y105791000D03*
X125539000Y105791000D03*
%TD*%
D31*
%TO.C,R69*%
X105856500Y98806000D03*
X102931500Y98806000D03*
%TD*%
D28*
%TO.C,R68*%
X98489000Y105791000D03*
X100139000Y105791000D03*
%TD*%
D31*
%TO.C,R67*%
X76011500Y114046000D03*
X73086500Y114046000D03*
%TD*%
D29*
%TO.C,R66*%
X74104000Y105156000D03*
X72454000Y105156000D03*
%TD*%
D33*
%TO.C,R65*%
X65466500Y114046000D03*
X68391500Y114046000D03*
%TD*%
D29*
%TO.C,R64*%
X69024000Y105918000D03*
X67374000Y105918000D03*
%TD*%
D33*
%TO.C,R63*%
X38985000Y101346000D03*
X41910000Y101346000D03*
%TD*%
D28*
%TO.C,R62*%
X42167000Y108926000D03*
X43817000Y108926000D03*
%TD*%
D33*
%TO.C,R61*%
X10856500Y99441000D03*
X13781500Y99441000D03*
%TD*%
D28*
%TO.C,R60*%
X15939000Y105791000D03*
X17589000Y105791000D03*
%TD*%
%TO.C,R46*%
X126301040Y53717953D03*
X127951040Y53717953D03*
%TD*%
%TO.C,R44*%
X101664000Y53721000D03*
X103314000Y53721000D03*
%TD*%
%TO.C,R42*%
X77153000Y58928000D03*
X78803000Y58928000D03*
%TD*%
%TO.C,R40*%
X62929000Y53721000D03*
X64579000Y53721000D03*
%TD*%
D27*
%TO.C,R108*%
X3810000Y40449000D03*
X3810000Y38799000D03*
%TD*%
D28*
%TO.C,R107*%
X129477000Y44704000D03*
X131127000Y44704000D03*
%TD*%
%TO.C,R105*%
X80518000Y44958000D03*
X82168000Y44958000D03*
%TD*%
D27*
%TO.C,R104*%
X55372000Y44641000D03*
X55372000Y46291000D03*
%TD*%
%TO.C,R103*%
X30226000Y44641000D03*
X30226000Y46291000D03*
%TD*%
D28*
%TO.C,R38*%
X38164000Y53721000D03*
X39814000Y53721000D03*
%TD*%
D27*
%TO.C,R102*%
X6096000Y43879000D03*
X6096000Y45529000D03*
%TD*%
D28*
%TO.C,R101*%
X132144000Y37211000D03*
X133794000Y37211000D03*
%TD*%
%TO.C,R100*%
X105474000Y37211000D03*
X107124000Y37211000D03*
%TD*%
%TO.C,R99*%
X79439000Y37211000D03*
X81089000Y37211000D03*
%TD*%
D29*
%TO.C,R98*%
X62039000Y37211000D03*
X60389000Y37211000D03*
%TD*%
%TO.C,R97*%
X36004000Y37211000D03*
X34354000Y37211000D03*
%TD*%
%TO.C,R96*%
X9969000Y36576000D03*
X8319000Y36576000D03*
%TD*%
D28*
%TO.C,R36*%
X13707162Y53086000D03*
X15357162Y53086000D03*
%TD*%
D31*
%TO.C,R47*%
X133161500Y47498000D03*
X130236500Y47498000D03*
%TD*%
%TO.C,R45*%
X108396500Y47498000D03*
X105471500Y47498000D03*
%TD*%
%TO.C,R83*%
X128716500Y124206000D03*
X125791500Y124206000D03*
%TD*%
D28*
%TO.C,R82*%
X119444000Y130556000D03*
X121094000Y130556000D03*
%TD*%
D31*
%TO.C,R81*%
X104586500Y124206000D03*
X101661500Y124206000D03*
%TD*%
D28*
%TO.C,R80*%
X95314000Y130556000D03*
X96964000Y130556000D03*
%TD*%
D31*
%TO.C,R79*%
X81091500Y124206000D03*
X78166500Y124206000D03*
%TD*%
D32*
%TO.C,R43*%
X78486000Y48575500D03*
X78486000Y51500500D03*
%TD*%
D33*
%TO.C,R41*%
X57973500Y47371000D03*
X60898500Y47371000D03*
%TD*%
D28*
%TO.C,R78*%
X72327000Y129286000D03*
X73977000Y129286000D03*
%TD*%
D33*
%TO.C,R77*%
X60386500Y124206000D03*
X63311500Y124206000D03*
%TD*%
D28*
%TO.C,R76*%
X67692000Y129794000D03*
X69342000Y129794000D03*
%TD*%
D33*
%TO.C,R75*%
X36891500Y124206000D03*
X39816500Y124206000D03*
%TD*%
D28*
%TO.C,R74*%
X44514000Y130556000D03*
X46164000Y130556000D03*
%TD*%
D33*
%TO.C,R73*%
X13396500Y124206000D03*
X16321500Y124206000D03*
%TD*%
D28*
%TO.C,R72*%
X20384000Y130556000D03*
X22034000Y130556000D03*
%TD*%
D27*
%TO.C,R121*%
X6096000Y92901000D03*
X6096000Y94551000D03*
%TD*%
D31*
%TO.C,R59*%
X130621500Y74041000D03*
X127696500Y74041000D03*
%TD*%
D28*
%TO.C,R58*%
X123254000Y81661000D03*
X124904000Y81661000D03*
%TD*%
D31*
%TO.C,R57*%
X106491500Y74041000D03*
X103566500Y74041000D03*
%TD*%
D28*
%TO.C,R56*%
X99124000Y81661000D03*
X100774000Y81661000D03*
%TD*%
%TO.C,R120*%
X128969000Y96901000D03*
X130619000Y96901000D03*
%TD*%
D27*
%TO.C,R119*%
X108966000Y96457000D03*
X108966000Y98107000D03*
%TD*%
D31*
%TO.C,R55*%
X82361500Y74041000D03*
X79436500Y74041000D03*
%TD*%
D28*
%TO.C,R118*%
X79439000Y98552000D03*
X81089000Y98552000D03*
%TD*%
D29*
%TO.C,R117*%
X61024000Y98806000D03*
X62674000Y98806000D03*
%TD*%
D27*
%TO.C,R116*%
X33274000Y98235000D03*
X33274000Y99885000D03*
%TD*%
D28*
%TO.C,R54*%
X74994000Y81661000D03*
X76644000Y81661000D03*
%TD*%
D29*
%TO.C,R115*%
X13144000Y96266000D03*
X11494000Y96266000D03*
%TD*%
D28*
%TO.C,R114*%
X123634000Y92964000D03*
X121984000Y92964000D03*
%TD*%
%TO.C,R113*%
X99631000Y91948000D03*
X97981000Y91948000D03*
%TD*%
%TO.C,R112*%
X76685709Y90424000D03*
X78335709Y90424000D03*
%TD*%
D29*
%TO.C,R111*%
X60769000Y92456000D03*
X59119000Y92456000D03*
%TD*%
D33*
%TO.C,R53*%
X59116500Y74041000D03*
X62041500Y74041000D03*
%TD*%
D28*
%TO.C,R52*%
X64834000Y81661000D03*
X66484000Y81661000D03*
%TD*%
D33*
%TO.C,R51*%
X34986500Y74041000D03*
X37911500Y74041000D03*
%TD*%
D28*
%TO.C,R50*%
X40704000Y81661000D03*
X42354000Y81661000D03*
%TD*%
D33*
%TO.C,R49*%
X10856500Y74041000D03*
X13781500Y74041000D03*
%TD*%
D28*
%TO.C,R48*%
X16574000Y81661000D03*
X18224000Y81661000D03*
%TD*%
D29*
%TO.C,R110*%
X44259000Y92456000D03*
X42609000Y92456000D03*
%TD*%
%TO.C,R109*%
X20129000Y92456000D03*
X18479000Y92456000D03*
%TD*%
D33*
%TO.C,R39*%
X33081500Y47371000D03*
X36006500Y47371000D03*
%TD*%
%TO.C,R37*%
X8316500Y46736000D03*
X11241500Y46736000D03*
%TD*%
D26*
%TO.C,Q37*%
X126304000Y157266000D03*
X128204000Y157266000D03*
X127254000Y154646000D03*
%TD*%
%TO.C,Q36*%
X100904000Y157266000D03*
X102804000Y157266000D03*
X101854000Y154646000D03*
%TD*%
%TO.C,Q35*%
X77658000Y162796000D03*
X75758000Y162796000D03*
X76708000Y165416000D03*
%TD*%
%TO.C,Q33*%
X39309000Y157266000D03*
X41209000Y157266000D03*
X40259000Y154646000D03*
%TD*%
%TO.C,Q32*%
X13274000Y157266000D03*
X15174000Y157266000D03*
X14224000Y154646000D03*
%TD*%
%TO.C,Q25*%
X123764000Y103291000D03*
X125664000Y103291000D03*
X124714000Y100671000D03*
%TD*%
%TO.C,Q24*%
X98364000Y103291000D03*
X100264000Y103291000D03*
X99314000Y100671000D03*
%TD*%
%TO.C,Q23*%
X74229000Y107656000D03*
X72329000Y107656000D03*
X73279000Y110276000D03*
%TD*%
%TO.C,Q22*%
X69149000Y107656000D03*
X67249000Y107656000D03*
X68199000Y110276000D03*
%TD*%
%TO.C,Q21*%
X42042000Y106426000D03*
X43942000Y106426000D03*
X42992000Y103806000D03*
%TD*%
%TO.C,Q20*%
X15814000Y103291000D03*
X17714000Y103291000D03*
X16764000Y100671000D03*
%TD*%
%TO.C,Q13*%
X126176040Y51217953D03*
X128076040Y51217953D03*
X127126040Y48597953D03*
%TD*%
%TO.C,Q12*%
X101539000Y51221000D03*
X103439000Y51221000D03*
X102489000Y48601000D03*
%TD*%
%TO.C,Q11*%
X77028000Y56428000D03*
X78928000Y56428000D03*
X77978000Y53808000D03*
%TD*%
%TO.C,Q10*%
X62804000Y51221000D03*
X64704000Y51221000D03*
X63754000Y48601000D03*
%TD*%
%TO.C,Q9*%
X38039000Y51221000D03*
X39939000Y51221000D03*
X38989000Y48601000D03*
%TD*%
%TO.C,Q8*%
X13582162Y50648993D03*
X15482162Y50648993D03*
X14532162Y48028993D03*
%TD*%
%TO.C,Q31*%
X119319000Y128056000D03*
X121219000Y128056000D03*
X120269000Y125436000D03*
%TD*%
%TO.C,Q30*%
X95189000Y128056000D03*
X97089000Y128056000D03*
X96139000Y125436000D03*
%TD*%
%TO.C,Q29*%
X72075000Y126786000D03*
X73975000Y126786000D03*
X73025000Y124166000D03*
%TD*%
%TO.C,Q28*%
X67630000Y127294000D03*
X69530000Y127294000D03*
X68580000Y124674000D03*
%TD*%
%TO.C,Q27*%
X44389000Y128056000D03*
X46289000Y128056000D03*
X45339000Y125436000D03*
%TD*%
%TO.C,Q26*%
X20259000Y128056000D03*
X22159000Y128056000D03*
X21209000Y125436000D03*
%TD*%
%TO.C,Q19*%
X123129000Y79161000D03*
X125029000Y79161000D03*
X124079000Y76541000D03*
%TD*%
%TO.C,Q18*%
X98999000Y79161000D03*
X100899000Y79161000D03*
X99949000Y76541000D03*
%TD*%
%TO.C,Q17*%
X74869000Y79161000D03*
X76769000Y79161000D03*
X75819000Y76541000D03*
%TD*%
%TO.C,Q16*%
X64709000Y79161000D03*
X66609000Y79161000D03*
X65659000Y76541000D03*
%TD*%
%TO.C,Q15*%
X40579000Y79161000D03*
X42479000Y79161000D03*
X41529000Y76541000D03*
%TD*%
%TO.C,Q14*%
X16449000Y79161000D03*
X18349000Y79161000D03*
X17399000Y76541000D03*
%TD*%
D29*
%TO.C,R16*%
X48831000Y1556000D03*
X47181000Y1556000D03*
%TD*%
D22*
%TO.C,C5*%
X104394000Y11925000D03*
X104394000Y13475000D03*
%TD*%
D34*
%TO.C,C10*%
X53848000Y13003000D03*
X53848000Y15953000D03*
%TD*%
D28*
%TO.C,R4*%
X86043000Y2032000D03*
X87693000Y2032000D03*
%TD*%
D29*
%TO.C,R12*%
X123889000Y17526000D03*
X125539000Y17526000D03*
%TD*%
D35*
%TO.C,U1*%
X113044000Y12344000D03*
X110744000Y12344000D03*
X108444000Y12344000D03*
D36*
X110744000Y18644000D03*
%TD*%
D23*
%TO.C,C8*%
X51562000Y16015000D03*
X51562000Y14465000D03*
%TD*%
D28*
%TO.C,R18*%
X133033000Y13208000D03*
X134683000Y13208000D03*
%TD*%
%TO.C,R3*%
X86043000Y3810000D03*
X87693000Y3810000D03*
%TD*%
D29*
%TO.C,R20*%
X45529000Y12192000D03*
X43879000Y12192000D03*
%TD*%
D37*
%TO.C,U3*%
X40829000Y12065000D03*
X40829000Y10795000D03*
X40829000Y9525000D03*
X40829000Y8255000D03*
X35879000Y8255000D03*
X35879000Y9525000D03*
X35879000Y10795000D03*
X35879000Y12065000D03*
%TD*%
D28*
%TO.C,R5*%
X86043000Y254000D03*
X87693000Y254000D03*
%TD*%
D29*
%TO.C,R15*%
X92265000Y9652000D03*
X90615000Y9652000D03*
%TD*%
D28*
%TO.C,R19*%
X133033000Y15240000D03*
X134683000Y15240000D03*
%TD*%
D34*
%TO.C,C4*%
X108458000Y9603000D03*
X108458000Y6653000D03*
%TD*%
D38*
%TO.C,Q1*%
X125143500Y10856000D03*
X125143500Y8956000D03*
X123268500Y9906000D03*
%TD*%
D25*
%TO.C,R7*%
X135890000Y9207000D03*
X135890000Y7557000D03*
%TD*%
D29*
%TO.C,R17*%
X48831000Y3334000D03*
X47181000Y3334000D03*
%TD*%
D27*
%TO.C,R14*%
X49276000Y14415000D03*
X49276000Y16065000D03*
%TD*%
D29*
%TO.C,R11*%
X126809000Y6604000D03*
X125159000Y6604000D03*
%TD*%
D22*
%TO.C,C2*%
X116840000Y11671000D03*
X116840000Y13221000D03*
%TD*%
D39*
%TO.C,D3*%
X86692500Y9652000D03*
X88567500Y9652000D03*
%TD*%
D25*
%TO.C,R2*%
X141986000Y20765000D03*
X141986000Y22415000D03*
%TD*%
%TO.C,R22*%
X52832000Y-445000D03*
X52832000Y-2095000D03*
%TD*%
D34*
%TO.C,C3*%
X113030000Y9349000D03*
X113030000Y6399000D03*
%TD*%
D25*
%TO.C,R23*%
X49022000Y-445000D03*
X49022000Y-2095000D03*
%TD*%
D29*
%TO.C,R21*%
X45529000Y10414000D03*
X43879000Y10414000D03*
%TD*%
D34*
%TO.C,C1*%
X115824000Y9349000D03*
X115824000Y6399000D03*
%TD*%
D27*
%TO.C,R13*%
X101854000Y11875000D03*
X101854000Y13525000D03*
%TD*%
D34*
%TO.C,C6*%
X105664000Y9603000D03*
X105664000Y6653000D03*
%TD*%
D40*
%TO.C,D2*%
X101854000Y17447500D03*
X101854000Y15572500D03*
%TD*%
D28*
%TO.C,R6*%
X86043000Y-1524000D03*
X87693000Y-1524000D03*
%TD*%
D41*
%TO.C,D1*%
X122806000Y14986000D03*
X125606000Y14986000D03*
%TD*%
D27*
%TO.C,R8*%
X135890000Y18225000D03*
X135890000Y19875000D03*
%TD*%
D33*
%TO.C,R25*%
X5776500Y24511000D03*
X8701500Y24511000D03*
%TD*%
D31*
%TO.C,R35*%
X136336500Y25146000D03*
X133411500Y25146000D03*
%TD*%
D28*
%TO.C,R30*%
X77534000Y32766000D03*
X79184000Y32766000D03*
%TD*%
D26*
%TO.C,Q2*%
X10099000Y30266000D03*
X11999000Y30266000D03*
X11049000Y27646000D03*
%TD*%
D28*
%TO.C,R32*%
X103569000Y32766000D03*
X105219000Y32766000D03*
%TD*%
D31*
%TO.C,R31*%
X83631500Y25146000D03*
X80706500Y25146000D03*
%TD*%
D26*
%TO.C,Q7*%
X128844000Y28996000D03*
X130744000Y28996000D03*
X129794000Y26376000D03*
%TD*%
D28*
%TO.C,R28*%
X62929000Y32766000D03*
X64579000Y32766000D03*
%TD*%
D26*
%TO.C,Q4*%
X62804000Y30266000D03*
X64704000Y30266000D03*
X63754000Y27646000D03*
%TD*%
D33*
%TO.C,R27*%
X31811500Y25146000D03*
X34736500Y25146000D03*
%TD*%
D26*
%TO.C,Q6*%
X103444000Y30266000D03*
X105344000Y30266000D03*
X104394000Y27646000D03*
%TD*%
D30*
%TO.C,U5*%
X67876500Y26151000D03*
X67876500Y25501000D03*
X67876500Y24851000D03*
X67876500Y24201000D03*
X67876500Y23551000D03*
X67876500Y22901000D03*
X67876500Y22251000D03*
X67876500Y21601000D03*
X73601500Y21601000D03*
X73601500Y22251000D03*
X73601500Y22901000D03*
X73601500Y23551000D03*
X73601500Y24201000D03*
X73601500Y24851000D03*
X73601500Y25501000D03*
X73601500Y26151000D03*
%TD*%
D28*
%TO.C,R24*%
X10224000Y32766000D03*
X11874000Y32766000D03*
%TD*%
%TO.C,R26*%
X36894000Y32766000D03*
X38544000Y32766000D03*
%TD*%
D26*
%TO.C,Q3*%
X36769000Y30266000D03*
X38669000Y30266000D03*
X37719000Y27646000D03*
%TD*%
D31*
%TO.C,R33*%
X109666500Y25146000D03*
X106741500Y25146000D03*
%TD*%
D26*
%TO.C,Q5*%
X77409000Y30266000D03*
X79309000Y30266000D03*
X78359000Y27646000D03*
%TD*%
D33*
%TO.C,R29*%
X57846500Y25146000D03*
X60771500Y25146000D03*
%TD*%
D28*
%TO.C,R34*%
X128969000Y31496000D03*
X130619000Y31496000D03*
%TD*%
M02*
