%TF.GenerationSoftware,KiCad,Pcbnew,7.0.7*%
%TF.CreationDate,2024-03-09T11:29:05+01:00*%
%TF.ProjectId,button-board,62757474-6f6e-42d6-926f-6172642e6b69,rev?*%
%TF.SameCoordinates,Original*%
%TF.FileFunction,Copper,L4,Bot*%
%TF.FilePolarity,Positive*%
%FSLAX46Y46*%
G04 Gerber Fmt 4.6, Leading zero omitted, Abs format (unit mm)*
G04 Created by KiCad (PCBNEW 7.0.7) date 2024-03-09 11:29:05*
%MOMM*%
%LPD*%
G01*
G04 APERTURE LIST*
G04 Aperture macros list*
%AMRoundRect*
0 Rectangle with rounded corners*
0 $1 Rounding radius*
0 $2 $3 $4 $5 $6 $7 $8 $9 X,Y pos of 4 corners*
0 Add a 4 corners polygon primitive as box body*
4,1,4,$2,$3,$4,$5,$6,$7,$8,$9,$2,$3,0*
0 Add four circle primitives for the rounded corners*
1,1,$1+$1,$2,$3*
1,1,$1+$1,$4,$5*
1,1,$1+$1,$6,$7*
1,1,$1+$1,$8,$9*
0 Add four rect primitives between the rounded corners*
20,1,$1+$1,$2,$3,$4,$5,0*
20,1,$1+$1,$4,$5,$6,$7,0*
20,1,$1+$1,$6,$7,$8,$9,0*
20,1,$1+$1,$8,$9,$2,$3,0*%
%AMFreePoly0*
4,1,43,0.523063,1.365106,0.538902,1.365106,0.551715,1.355796,0.566779,1.350902,0.576088,1.338088,0.588902,1.328779,0.593796,1.313715,0.603106,1.300902,0.603106,1.285062,0.608000,1.270000,0.608000,-1.270000,0.603106,-1.285062,0.603106,-1.300902,0.593796,-1.313715,0.588902,-1.328779,0.576088,-1.338088,0.566779,-1.350902,0.551715,-1.355796,0.538902,-1.365106,0.523063,-1.365106,
0.508000,-1.370000,-0.254000,-1.370000,-0.270926,-1.364500,-0.288710,-1.363783,-0.299590,-1.355187,-0.312779,-1.350902,-0.323241,-1.336501,-0.337205,-1.325470,-0.845205,-0.563470,-0.853042,-0.535569,-0.862000,-0.508000,-0.862000,0.508000,-0.853042,0.535569,-0.845205,0.563470,-0.337205,1.325470,-0.323241,1.336501,-0.312779,1.350902,-0.299590,1.355187,-0.288710,1.363783,-0.270926,1.364500,
-0.254000,1.370000,0.508000,1.370000,0.523063,1.365106,0.523063,1.365106,$1*%
%AMFreePoly1*
4,1,149,0.820284,1.955007,1.362276,1.875243,1.897000,1.756128,2.421603,1.598298,2.933285,1.402596,3.429317,1.170066,3.907053,0.901948,4.363942,0.599673,4.797548,0.264854,5.205556,-0.100724,5.585791,-0.495109,5.936224,-0.916197,6.254984,-1.361742,6.540371,-1.829366,6.790862,-2.316575,7.005121,-2.820768,7.182004,-3.339257,7.320569,-3.869274,7.420075,-4.407991,7.479992,-4.952535,
7.500000,-5.500000,7.479992,-6.047465,7.420075,-6.592009,7.320569,-7.130726,7.182004,-7.660743,7.005121,-8.179232,6.790862,-8.683425,6.540371,-9.170634,6.254984,-9.638258,5.936224,-10.083803,5.585791,-10.504891,5.205556,-10.899276,4.797548,-11.264854,4.363942,-11.599673,3.907053,-11.901948,3.429317,-12.170066,2.933285,-12.402596,2.421603,-12.598298,1.897000,-12.756128,1.362276,-12.875243,
0.820284,-12.955007,0.273915,-12.994996,-0.273915,-12.994996,-0.820284,-12.955007,-1.362276,-12.875243,-1.897000,-12.756128,-2.421603,-12.598298,-2.933285,-12.402596,-3.429317,-12.170066,-3.907053,-11.901948,-4.363942,-11.599673,-4.797548,-11.264854,-5.205556,-10.899276,-5.585791,-10.504891,-5.936224,-10.083803,-6.254984,-9.638258,-6.540371,-9.170634,-6.790862,-8.683425,-7.005121,-8.179232,-7.182004,-7.660743,
-7.320569,-7.130726,-7.420075,-6.592009,-7.479992,-6.047465,-7.500000,-5.500000,-3.504803,-5.500000,-3.485603,-5.866352,-3.428215,-6.228690,-3.333266,-6.583044,-3.201797,-6.925532,-3.035248,-7.252402,-2.835445,-7.560072,-2.604576,-7.845171,-2.345171,-8.104576,-2.060072,-8.335445,-1.752402,-8.535248,-1.425532,-8.701797,-1.083044,-8.833266,-0.728690,-8.928215,-0.366352,-8.985603,0.000000,-9.004803,
0.366352,-8.985603,0.728690,-8.928215,1.083044,-8.833266,1.425532,-8.701797,1.752402,-8.535248,2.060072,-8.335445,2.345171,-8.104576,2.604576,-7.845171,2.835445,-7.560072,3.035248,-7.252402,3.201797,-6.925532,3.333266,-6.583044,3.428215,-6.228690,3.485603,-5.866352,3.504803,-5.500000,3.485603,-5.133648,3.428215,-4.771310,3.333266,-4.416956,3.201797,-4.074468,3.035248,-3.747599,
2.835445,-3.439928,2.604576,-3.154829,2.345171,-2.895424,2.060072,-2.664555,1.752402,-2.464752,1.425532,-2.298203,1.083044,-2.166734,0.728690,-2.071785,0.366352,-2.014397,0.000000,-1.995197,-0.366352,-2.014397,-0.728690,-2.071785,-1.083044,-2.166734,-1.425532,-2.298203,-1.752401,-2.464752,-2.060072,-2.664555,-2.345171,-2.895424,-2.604576,-3.154829,-2.835445,-3.439928,-3.035248,-3.747599,
-3.201797,-4.074468,-3.333266,-4.416956,-3.428215,-4.771310,-3.485603,-5.133648,-3.504803,-5.500000,-7.500000,-5.500000,-7.479992,-4.952535,-7.420075,-4.407991,-7.320569,-3.869274,-7.182004,-3.339257,-7.005121,-2.820768,-6.790862,-2.316575,-6.540371,-1.829366,-6.254984,-1.361742,-5.936224,-0.916197,-5.585791,-0.495109,-5.205556,-0.100724,-4.797548,0.264854,-4.363942,0.599673,-3.907053,0.901948,
-3.429317,1.170066,-2.933285,1.402596,-2.421603,1.598298,-1.897000,1.756128,-1.362276,1.875243,-0.820284,1.955007,-0.273915,1.994996,0.273915,1.994996,0.820284,1.955007,0.820284,1.955007,$1*%
%AMFreePoly2*
4,1,173,0.373905,2.106267,0.999332,2.047147,1.619813,1.948873,2.232899,1.811832,2.836170,1.636565,3.427246,1.423765,4.003793,1.174271,4.563537,0.889067,5.104268,0.569279,5.623853,0.216170,6.120240,-0.168868,6.591471,-0.584314,7.035686,-1.028529,7.451132,-1.499760,7.836170,-1.996147,8.189279,-2.515732,8.509067,-3.056463,8.794271,-3.616207,9.043765,-4.192754,9.256565,-4.783830,
9.431832,-5.387101,9.568873,-6.000187,9.667147,-6.620668,9.726267,-7.246095,9.746000,-7.874000,9.726267,-8.501905,9.667147,-9.127332,9.568873,-9.747813,9.431832,-10.360899,9.256565,-10.964170,9.043765,-11.555246,8.794271,-12.131793,8.509067,-12.691537,8.189279,-13.232268,7.836170,-13.751853,7.451132,-14.248240,7.035686,-14.719471,6.591471,-15.163686,6.120240,-15.579132,5.623853,-15.964170,
5.104268,-16.317279,4.563537,-16.637067,4.003793,-16.922271,3.427246,-17.171765,2.836170,-17.384565,2.232899,-17.559832,1.619813,-17.696873,0.999332,-17.795147,0.373905,-17.854267,-0.254000,-17.874000,-0.881905,-17.854267,-1.507332,-17.795147,-2.127813,-17.696873,-2.740899,-17.559832,-3.344170,-17.384565,-3.935246,-17.171765,-4.511793,-16.922271,-5.071537,-16.637067,-5.612268,-16.317279,-6.131853,-15.964170,
-6.628240,-15.579132,-7.099471,-15.163686,-7.543686,-14.719471,-7.959132,-14.248240,-8.344170,-13.751853,-8.697279,-13.232268,-9.017067,-12.691537,-9.302271,-12.131793,-9.551765,-11.555246,-9.764565,-10.964170,-9.939832,-10.360899,-10.076873,-9.747813,-10.175147,-9.127332,-10.234267,-8.501905,-10.254000,-7.874000,-5.259040,-7.874000,-5.238891,-8.322648,-5.178607,-8.767684,-5.078673,-9.205525,-4.939893,-9.632645,
-4.763385,-10.045605,-4.550571,-10.441081,-4.303162,-10.815889,-4.023153,-11.167010,-3.712796,-11.491617,-3.374591,-11.787098,-3.011261,-12.051073,-2.625732,-12.281416,-2.221106,-12.476273,-1.800642,-12.634076,-1.367726,-12.753553,-0.925843,-12.833743,-0.478550,-12.874000,-0.029450,-12.874000,0.417843,-12.833743,0.859726,-12.753553,1.292642,-12.634076,1.713106,-12.476273,2.117732,-12.281416,2.503261,-12.051073,
2.866591,-11.787098,3.204796,-11.491617,3.515153,-11.167010,3.795162,-10.815889,4.042571,-10.441081,4.255385,-10.045605,4.431893,-9.632645,4.570673,-9.205525,4.670607,-8.767684,4.730891,-8.322648,4.751040,-7.874000,4.730891,-7.425352,4.670607,-6.980316,4.570673,-6.542475,4.431893,-6.115355,4.255385,-5.702395,4.042571,-5.306919,3.795162,-4.932111,3.515153,-4.580990,3.204796,-4.256383,
2.866591,-3.960902,2.503261,-3.696927,2.117732,-3.466584,1.713106,-3.271727,1.292642,-3.113924,0.859726,-2.994447,0.417843,-2.914257,-0.029450,-2.874000,-0.478550,-2.874000,-0.925843,-2.914257,-1.367726,-2.994447,-1.800642,-3.113924,-2.221106,-3.271727,-2.625732,-3.466584,-3.011261,-3.696927,-3.374591,-3.960902,-3.712796,-4.256383,-4.023153,-4.580990,-4.303162,-4.932111,-4.550571,-5.306919,
-4.763385,-5.702395,-4.939893,-6.115355,-5.078673,-6.542475,-5.178607,-6.980316,-5.238891,-7.425352,-5.259040,-7.874000,-10.254000,-7.874000,-10.234267,-7.246095,-10.175147,-6.620668,-10.076873,-6.000187,-9.939832,-5.387101,-9.764565,-4.783830,-9.551765,-4.192754,-9.302271,-3.616207,-9.017067,-3.056463,-8.697279,-2.515732,-8.344170,-1.996147,-7.959132,-1.499760,-7.543686,-1.028529,-7.099471,-0.584314,
-6.628240,-0.168868,-6.131853,0.216170,-5.612268,0.569279,-5.071537,0.889067,-4.511793,1.174271,-3.935246,1.423765,-3.344170,1.636565,-2.740899,1.811832,-2.127813,1.948873,-1.507332,2.047147,-0.881905,2.106267,-0.254000,2.126000,0.373905,2.106267,0.373905,2.106267,$1*%
G04 Aperture macros list end*
%TA.AperFunction,SMDPad,CuDef*%
%ADD10FreePoly0,90.000000*%
%TD*%
%TA.AperFunction,SMDPad,CuDef*%
%ADD11FreePoly0,270.000000*%
%TD*%
%TA.AperFunction,ComponentPad*%
%ADD12R,2.400000X2.400000*%
%TD*%
%TA.AperFunction,ComponentPad*%
%ADD13C,1.800000*%
%TD*%
%TA.AperFunction,ComponentPad*%
%ADD14C,2.400000*%
%TD*%
%TA.AperFunction,SMDPad,CuDef*%
%ADD15FreePoly1,90.000000*%
%TD*%
%TA.AperFunction,SMDPad,CuDef*%
%ADD16FreePoly2,90.000000*%
%TD*%
%TA.AperFunction,SMDPad,CuDef*%
%ADD17R,1.150000X0.600000*%
%TD*%
%TA.AperFunction,SMDPad,CuDef*%
%ADD18R,1.150000X0.300000*%
%TD*%
%TA.AperFunction,SMDPad,CuDef*%
%ADD19R,1.500000X1.500000*%
%TD*%
%TA.AperFunction,SMDPad,CuDef*%
%ADD20R,0.900000X0.900000*%
%TD*%
%TA.AperFunction,SMDPad,CuDef*%
%ADD21R,0.900000X1.500000*%
%TD*%
%TA.AperFunction,SMDPad,CuDef*%
%ADD22R,1.500000X0.900000*%
%TD*%
%TA.AperFunction,SMDPad,CuDef*%
%ADD23RoundRect,0.100000X-0.100000X0.637500X-0.100000X-0.637500X0.100000X-0.637500X0.100000X0.637500X0*%
%TD*%
%TA.AperFunction,SMDPad,CuDef*%
%ADD24R,2.790000X0.740000*%
%TD*%
%TA.AperFunction,SMDPad,CuDef*%
%ADD25R,1.600000X1.500000*%
%TD*%
%TA.AperFunction,SMDPad,CuDef*%
%ADD26RoundRect,0.229659X1.070341X-0.470341X1.070341X0.470341X-1.070341X0.470341X-1.070341X-0.470341X0*%
%TD*%
%TA.AperFunction,SMDPad,CuDef*%
%ADD27RoundRect,0.225000X0.250000X-0.225000X0.250000X0.225000X-0.250000X0.225000X-0.250000X-0.225000X0*%
%TD*%
%TA.AperFunction,SMDPad,CuDef*%
%ADD28RoundRect,0.225000X-0.250000X0.225000X-0.250000X-0.225000X0.250000X-0.225000X0.250000X0.225000X0*%
%TD*%
%TA.AperFunction,SMDPad,CuDef*%
%ADD29RoundRect,0.225000X-0.225000X-0.250000X0.225000X-0.250000X0.225000X0.250000X-0.225000X0.250000X0*%
%TD*%
%TA.AperFunction,SMDPad,CuDef*%
%ADD30RoundRect,0.200000X-0.275000X0.200000X-0.275000X-0.200000X0.275000X-0.200000X0.275000X0.200000X0*%
%TD*%
%TA.AperFunction,SMDPad,CuDef*%
%ADD31R,0.650000X1.220000*%
%TD*%
%TA.AperFunction,SMDPad,CuDef*%
%ADD32RoundRect,0.200000X0.275000X-0.200000X0.275000X0.200000X-0.275000X0.200000X-0.275000X-0.200000X0*%
%TD*%
%TA.AperFunction,SMDPad,CuDef*%
%ADD33RoundRect,0.200000X-0.200000X-0.275000X0.200000X-0.275000X0.200000X0.275000X-0.200000X0.275000X0*%
%TD*%
%TA.AperFunction,SMDPad,CuDef*%
%ADD34RoundRect,0.200000X0.200000X0.275000X-0.200000X0.275000X-0.200000X-0.275000X0.200000X-0.275000X0*%
%TD*%
%TA.AperFunction,SMDPad,CuDef*%
%ADD35RoundRect,0.100000X0.637500X0.100000X-0.637500X0.100000X-0.637500X-0.100000X0.637500X-0.100000X0*%
%TD*%
%TA.AperFunction,SMDPad,CuDef*%
%ADD36RoundRect,0.250000X0.312500X0.625000X-0.312500X0.625000X-0.312500X-0.625000X0.312500X-0.625000X0*%
%TD*%
%TA.AperFunction,SMDPad,CuDef*%
%ADD37RoundRect,0.250000X0.625000X-0.312500X0.625000X0.312500X-0.625000X0.312500X-0.625000X-0.312500X0*%
%TD*%
%TA.AperFunction,SMDPad,CuDef*%
%ADD38RoundRect,0.250000X-0.312500X-0.625000X0.312500X-0.625000X0.312500X0.625000X-0.312500X0.625000X0*%
%TD*%
%TA.AperFunction,SMDPad,CuDef*%
%ADD39C,1.000000*%
%TD*%
%TA.AperFunction,SMDPad,CuDef*%
%ADD40RoundRect,0.250000X-0.650000X0.325000X-0.650000X-0.325000X0.650000X-0.325000X0.650000X0.325000X0*%
%TD*%
%TA.AperFunction,SMDPad,CuDef*%
%ADD41R,1.500000X2.000000*%
%TD*%
%TA.AperFunction,SMDPad,CuDef*%
%ADD42R,3.800000X2.000000*%
%TD*%
%TA.AperFunction,SMDPad,CuDef*%
%ADD43RoundRect,0.150000X0.825000X0.150000X-0.825000X0.150000X-0.825000X-0.150000X0.825000X-0.150000X0*%
%TD*%
%TA.AperFunction,SMDPad,CuDef*%
%ADD44RoundRect,0.150000X0.587500X0.150000X-0.587500X0.150000X-0.587500X-0.150000X0.587500X-0.150000X0*%
%TD*%
%TA.AperFunction,SMDPad,CuDef*%
%ADD45RoundRect,0.243750X-0.243750X-0.456250X0.243750X-0.456250X0.243750X0.456250X-0.243750X0.456250X0*%
%TD*%
%TA.AperFunction,ComponentPad*%
%ADD46O,1.700000X1.700000*%
%TD*%
%TA.AperFunction,ComponentPad*%
%ADD47R,1.700000X1.700000*%
%TD*%
%TA.AperFunction,SMDPad,CuDef*%
%ADD48RoundRect,0.243750X-0.456250X0.243750X-0.456250X-0.243750X0.456250X-0.243750X0.456250X0.243750X0*%
%TD*%
%TA.AperFunction,SMDPad,CuDef*%
%ADD49RoundRect,0.250000X-0.300000X-0.300000X0.300000X-0.300000X0.300000X0.300000X-0.300000X0.300000X0*%
%TD*%
%TA.AperFunction,ComponentPad*%
%ADD50R,1.000000X1.000000*%
%TD*%
%TA.AperFunction,ComponentPad*%
%ADD51O,1.000000X1.000000*%
%TD*%
%TA.AperFunction,ViaPad*%
%ADD52C,0.500000*%
%TD*%
%TA.AperFunction,Conductor*%
%ADD53C,0.177800*%
%TD*%
%TA.AperFunction,Conductor*%
%ADD54C,0.508000*%
%TD*%
%TA.AperFunction,Conductor*%
%ADD55C,2.540000*%
%TD*%
%TA.AperFunction,Conductor*%
%ADD56C,0.200000*%
%TD*%
G04 APERTURE END LIST*
D10*
%TO.P,D22,1,K*%
%TO.N,Net-(D22-K)*%
X7861802Y105824643D03*
D11*
%TO.P,D22,2,A*%
%TO.N,+5V*%
X7861802Y110650643D03*
%TD*%
D10*
%TO.P,D27,1,K*%
%TO.N,Net-(D27-K)*%
X133796400Y106120000D03*
D11*
%TO.P,D27,2,A*%
%TO.N,+5V*%
X133796400Y110946000D03*
%TD*%
D10*
%TO.P,D26,1,K*%
%TO.N,Net-(D26-K)*%
X108609478Y106058883D03*
D11*
%TO.P,D26,2,A*%
%TO.N,+5V*%
X108609478Y110884883D03*
%TD*%
D10*
%TO.P,D25,1,K*%
%TO.N,Net-(D25-K)*%
X83422559Y106058883D03*
D11*
%TO.P,D25,2,A*%
%TO.N,+5V*%
X83422559Y110884883D03*
%TD*%
D10*
%TO.P,D24,1,K*%
%TO.N,Net-(D24-K)*%
X58235640Y106058883D03*
D11*
%TO.P,D24,2,A*%
%TO.N,+5V*%
X58235640Y110884883D03*
%TD*%
D10*
%TO.P,D23,1,K*%
%TO.N,Net-(D23-K)*%
X33048721Y106058883D03*
D11*
%TO.P,D23,2,A*%
%TO.N,+5V*%
X33048721Y110884883D03*
%TD*%
D12*
%TO.P,J5,1,P1*%
%TO.N,GND*%
X14986000Y17323500D03*
D13*
%TO.P,J5,2,P2*%
%TO.N,/control/DMX.N*%
X18796000Y13513500D03*
%TO.P,J5,3,P3*%
%TO.N,/control/DMX.P*%
X18796000Y17323500D03*
%TO.P,J5,4,P3*%
%TO.N,Net-(J5-P3-Pad4)*%
X25776000Y13513500D03*
D14*
%TO.P,J5,5,P5*%
%TO.N,Net-(J5-P5)*%
X22606000Y17323500D03*
D13*
%TO.P,J5,G*%
%TO.N,unconnected-(J5-PadG)*%
X10546000Y7153500D03*
%TD*%
D15*
%TO.P,P24,1,1*%
%TO.N,Net-(P24-Pad1)*%
X128296400Y108573123D03*
%TD*%
%TO.P,P23,1,1*%
%TO.N,Net-(P23-Pad1)*%
X103109478Y108522883D03*
%TD*%
%TO.P,P22,1,1*%
%TO.N,Net-(P22-Pad1)*%
X77922559Y108522883D03*
%TD*%
%TO.P,P21,1,1*%
%TO.N,Net-(P21-Pad1)*%
X52735640Y108522883D03*
%TD*%
%TO.P,P20,1,1*%
%TO.N,Net-(P20-Pad1)*%
X27548721Y108522883D03*
%TD*%
%TO.P,P19,1,1*%
%TO.N,Net-(P19-Pad1)*%
X2361802Y108288643D03*
%TD*%
D16*
%TO.P,P29,1,1*%
%TO.N,Net-(P29-Pad1)*%
X99235480Y136313442D03*
%TD*%
%TO.P,P26,1,1*%
%TO.N,Net-(P26-Pad1)*%
X26674720Y136313442D03*
%TD*%
%TO.P,P27,1,1*%
%TO.N,Net-(P27-Pad1)*%
X50861640Y136313442D03*
%TD*%
%TO.P,P30,1,1*%
%TO.N,Net-(P30-Pad1)*%
X123422402Y136338562D03*
%TD*%
%TO.P,P28,1,1*%
%TO.N,Net-(P28-Pad1)*%
X75048560Y136313442D03*
%TD*%
%TO.P,P25,1,1*%
%TO.N,Net-(P25-Pad1)*%
X2487800Y136196322D03*
%TD*%
D17*
%TO.P,J2,A1,GND*%
%TO.N,GND*%
X138814000Y16916000D03*
%TO.P,J2,A4,VBUS*%
%TO.N,VBUS*%
X138814000Y16116000D03*
D18*
%TO.P,J2,A5,CC1*%
%TO.N,Net-(J2-CC1)*%
X138814000Y14966000D03*
%TO.P,J2,A6,D+*%
%TO.N,/control/USB.P*%
X138814000Y13966000D03*
%TO.P,J2,A7,D-*%
%TO.N,/control/USB.N*%
X138814000Y13466000D03*
%TO.P,J2,A8,SBU1*%
%TO.N,unconnected-(J2-SBU1-PadA8)*%
X138814000Y12466000D03*
D17*
%TO.P,J2,A9,VBUS*%
%TO.N,VBUS*%
X138814000Y11316000D03*
%TO.P,J2,A12,GND*%
%TO.N,GND*%
X138814000Y10516000D03*
%TO.P,J2,B1,GND*%
X138814000Y10516000D03*
%TO.P,J2,B4,VBUS*%
%TO.N,VBUS*%
X138814000Y11316000D03*
D18*
%TO.P,J2,B5,CC2*%
%TO.N,Net-(J2-CC2)*%
X138814000Y11966000D03*
%TO.P,J2,B6,D+*%
%TO.N,/control/USB.P*%
X138814000Y12966000D03*
%TO.P,J2,B7,D-*%
%TO.N,/control/USB.N*%
X138814000Y14466000D03*
%TO.P,J2,B8,SBU2*%
%TO.N,unconnected-(J2-SBU2-PadB8)*%
X138814000Y15466000D03*
D17*
%TO.P,J2,B9,VBUS*%
%TO.N,VBUS*%
X138814000Y16116000D03*
%TO.P,J2,B12,GND*%
%TO.N,GND*%
X138814000Y16916000D03*
D19*
%TO.P,J2,S1,SHIELD*%
%TO.N,/io/USB_SHIELD_GND*%
X139389000Y18836000D03*
X143319000Y18836000D03*
X139389000Y8596000D03*
X143319000Y8596000D03*
%TD*%
D20*
%TO.P,U2,41,GND*%
%TO.N,GND*%
X72698000Y7466000D03*
X71298000Y7466000D03*
X69898000Y7466000D03*
X72698000Y8866000D03*
X71298000Y8866000D03*
X69898000Y8866000D03*
X69898000Y8866000D03*
X72698000Y10266000D03*
X72698000Y10266000D03*
X71298000Y10266000D03*
X69898000Y10266000D03*
D21*
%TO.P,U2,40,GND*%
X63578000Y-1384000D03*
%TO.P,U2,39,GPIO1/TOUCH1/ADC1_CH0*%
%TO.N,/control/I2C.SCL*%
X64848000Y-1384000D03*
%TO.P,U2,38,GPIO2/TOUCH2/ADC1_CH1*%
%TO.N,/control/I2C.SCK*%
X66118000Y-1384000D03*
%TO.P,U2,37,U0TXD/GPIO43/CLK_OUT1*%
%TO.N,Net-(U2-U0TXD{slash}GPIO43{slash}CLK_OUT1)*%
X67388000Y-1384000D03*
%TO.P,U2,36,U0RXD/GPIO44/CLK_OUT2*%
%TO.N,Net-(U2-U0RXD{slash}GPIO44{slash}CLK_OUT2)*%
X68658000Y-1384000D03*
%TO.P,U2,35,MTMS/GPIO42*%
%TO.N,/control/JTAG.TMS*%
X69928000Y-1384000D03*
%TO.P,U2,34,MTDI/GPIO41/CLK_OUT1*%
%TO.N,/control/JTAG.TDI*%
X71198000Y-1384000D03*
%TO.P,U2,33,MTDO/GPIO40/CLK_OUT2*%
%TO.N,/control/JTAG.TDO*%
X72468000Y-1384000D03*
%TO.P,U2,32,MTCK/GPIO39/CLK_OUT3/SUBSPICS1*%
%TO.N,/control/JTAG.TCK*%
X73738000Y-1384000D03*
%TO.P,U2,31,GPIO38/FSPIWP/SUBSPIWP*%
%TO.N,unconnected-(U2-GPIO38{slash}FSPIWP{slash}SUBSPIWP-Pad31)*%
X75008000Y-1384000D03*
%TO.P,U2,30,SPIDQS/GPIO37/FSPIQ/SUBSPIQ*%
%TO.N,unconnected-(U2-SPIDQS{slash}GPIO37{slash}FSPIQ{slash}SUBSPIQ-Pad30)*%
X76278000Y-1384000D03*
%TO.P,U2,29,SPIIO7/GPIO36/FSPICLK/SUBSPICLK*%
%TO.N,unconnected-(U2-SPIIO7{slash}GPIO36{slash}FSPICLK{slash}SUBSPICLK-Pad29)*%
X77548000Y-1384000D03*
%TO.P,U2,28,SPIIO6/GPIO35/FSPID/SUBSPID*%
%TO.N,unconnected-(U2-SPIIO6{slash}GPIO35{slash}FSPID{slash}SUBSPID-Pad28)*%
X78818000Y-1384000D03*
%TO.P,U2,27,GPIO0/BOOT*%
%TO.N,/control/ESP_PROG.IO0*%
X80088000Y-1384000D03*
D22*
%TO.P,U2,26,GPIO45*%
%TO.N,unconnected-(U2-GPIO45-Pad26)*%
X81338000Y381000D03*
%TO.P,U2,25,GPIO48/SPICLK_N/SUBSPICLK_N_DIFF*%
%TO.N,unconnected-(U2-GPIO48{slash}SPICLK_N{slash}SUBSPICLK_N_DIFF-Pad25)*%
X81338000Y1651000D03*
%TO.P,U2,24,GPIO47/SPICLK_P/SUBSPICLK_P_DIFF*%
%TO.N,unconnected-(U2-GPIO47{slash}SPICLK_P{slash}SUBSPICLK_P_DIFF-Pad24)*%
X81338000Y2921000D03*
%TO.P,U2,23,GPIO21*%
%TO.N,Net-(U2-GPIO21)*%
X81338000Y4191000D03*
%TO.P,U2,22,GPIO14/TOUCH14/ADC2_CH3/FSPIWP/FSPIDQS/SUBSPIWP*%
%TO.N,/control/ESP_IO14*%
X81338000Y5461000D03*
%TO.P,U2,21,GPIO13/TOUCH13/ADC2_CH2/FSPIQ/FSPIIO7/SUBSPIQ*%
%TO.N,/control/ESP_IO13*%
X81338000Y6731000D03*
%TO.P,U2,20,GPIO12/TOUCH12/ADC2_CH1/FSPICLK/FSPIIO6/SUBSPICLK*%
%TO.N,unconnected-(U2-GPIO12{slash}TOUCH12{slash}ADC2_CH1{slash}FSPICLK{slash}FSPIIO6{slash}SUBSPICLK-Pad20)*%
X81338000Y8001000D03*
%TO.P,U2,19,GPIO11/TOUCH11/ADC2_CH0/FSPID/FSPIIO5/SUBSPID*%
%TO.N,unconnected-(U2-GPIO11{slash}TOUCH11{slash}ADC2_CH0{slash}FSPID{slash}FSPIIO5{slash}SUBSPID-Pad19)*%
X81338000Y9271000D03*
%TO.P,U2,18,GPIO10/TOUCH10/ADC1_CH9/FSPICS0/FSPIIO4/SUBSPICS0*%
%TO.N,unconnected-(U2-GPIO10{slash}TOUCH10{slash}ADC1_CH9{slash}FSPICS0{slash}FSPIIO4{slash}SUBSPICS0-Pad18)*%
X81338000Y10541000D03*
%TO.P,U2,17,GPIO9/TOUCH9/ADC1_CH8/FSPIHD/SUBSPIHD*%
%TO.N,/control/CAP_CHANGE.2*%
X81338000Y11811000D03*
%TO.P,U2,16,GPIO46*%
%TO.N,unconnected-(U2-GPIO46-Pad16)*%
X81338000Y13081000D03*
%TO.P,U2,15,GPIO3/TOUCH3/ADC1_CH2*%
%TO.N,unconnected-(U2-GPIO3{slash}TOUCH3{slash}ADC1_CH2-Pad15)*%
X81338000Y14351000D03*
D21*
%TO.P,U2,14,GPIO20/U1CTS/ADC2_CH9/CLK_OUT1/USB_D+*%
%TO.N,/control/USB_P*%
X80088000Y16116000D03*
%TO.P,U2,13,GPIO19/U1RTS/ADC2_CH8/CLK_OUT2/USB_D-*%
%TO.N,/control/USB_N*%
X78818000Y16116000D03*
%TO.P,U2,12,GPIO8/TOUCH8/ADC1_CH7/SUBSPICS1*%
%TO.N,/control/CAP_CHANGE.1*%
X77548000Y16116000D03*
%TO.P,U2,11,GPIO18/U1RXD/ADC2_CH7/CLK_OUT3*%
%TO.N,Net-(U2-GPIO18{slash}U1RXD{slash}ADC2_CH7{slash}CLK_OUT3)*%
X76278000Y16116000D03*
%TO.P,U2,10,GPIO17/U1TXD/ADC2_CH6*%
%TO.N,Net-(U2-GPIO17{slash}U1TXD{slash}ADC2_CH6)*%
X75008000Y16116000D03*
%TO.P,U2,9,GPIO16/U0CTS/ADC2_CH5/XTAL_32K_N*%
%TO.N,unconnected-(U2-GPIO16{slash}U0CTS{slash}ADC2_CH5{slash}XTAL_32K_N-Pad9)*%
X73738000Y16116000D03*
%TO.P,U2,8,GPIO15/U0RTS/ADC2_CH4/XTAL_32K_P*%
%TO.N,unconnected-(U2-GPIO15{slash}U0RTS{slash}ADC2_CH4{slash}XTAL_32K_P-Pad8)*%
X72468000Y16116000D03*
%TO.P,U2,7,GPIO7/TOUCH7/ADC1_CH6*%
%TO.N,/control/CAP_CHANGE.0*%
X71198000Y16116000D03*
%TO.P,U2,6,GPIO6/TOUCH6/ADC1_CH5*%
%TO.N,/control/SR.LATCH*%
X69928000Y16116000D03*
%TO.P,U2,5,GPIO5/TOUCH5/ADC1_CH4*%
%TO.N,/control/SR.CLOCK*%
X68658000Y16116000D03*
%TO.P,U2,4,GPIO4/TOUCH4/ADC1_CH3*%
%TO.N,/control/SR.DATA*%
X67388000Y16116000D03*
%TO.P,U2,3,EN*%
%TO.N,/control/ESP_PROG.EN*%
X66118000Y16116000D03*
%TO.P,U2,2,3V3*%
%TO.N,+3V3*%
X64848000Y16116000D03*
%TO.P,U2,1,GND*%
%TO.N,GND*%
X63578000Y16116000D03*
%TD*%
D23*
%TO.P,U10,1,KEY8/GPO6*%
%TO.N,Net-(U10-KEY8{slash}GPO6)*%
X67433000Y43248500D03*
%TO.P,U10,2,KEY7/GPO5*%
%TO.N,Net-(U10-KEY7{slash}GPO5)*%
X68083000Y43248500D03*
%TO.P,U10,3,KEY6/GPO4*%
%TO.N,Net-(U10-KEY6{slash}GPO4)*%
X68733000Y43248500D03*
%TO.P,U10,4,KEY5/GPO3*%
%TO.N,Net-(U10-KEY5{slash}GPO3)*%
X69383000Y43248500D03*
%TO.P,U10,5,KEY4/GPO2*%
%TO.N,Net-(U10-KEY4{slash}GPO2)*%
X70033000Y43248500D03*
%TO.P,U10,6,KEY3/GPO1*%
%TO.N,Net-(U10-KEY3{slash}GPO1)*%
X70683000Y43248500D03*
%TO.P,U10,7,KEY2/GPO0*%
%TO.N,Net-(U10-KEY2{slash}GPO0)*%
X71333000Y43248500D03*
%TO.P,U10,8,KEY1*%
%TO.N,Net-(U10-KEY1)*%
X71983000Y43248500D03*
%TO.P,U10,9,KEY0*%
%TO.N,Net-(U10-KEY0)*%
X72633000Y43248500D03*
%TO.P,U10,10,VSS*%
%TO.N,GND*%
X73283000Y43248500D03*
%TO.P,U10,11,VDD*%
%TO.N,+5V*%
X73283000Y37523500D03*
%TO.P,U10,12,MODE*%
%TO.N,GND*%
X72633000Y37523500D03*
%TO.P,U10,13,SDA*%
%TO.N,/control/I2C.SCK*%
X71983000Y37523500D03*
%TO.P,U10,14,~{RESET}*%
%TO.N,+5V*%
X71333000Y37523500D03*
%TO.P,U10,15,NC*%
%TO.N,unconnected-(U10-NC-Pad15)*%
X70683000Y37523500D03*
%TO.P,U10,16,SCL*%
%TO.N,/control/I2C.SCL*%
X70033000Y37523500D03*
%TO.P,U10,17,~{CHANGE}*%
%TO.N,/control/CAP_CHANGE.0*%
X69383000Y37523500D03*
%TO.P,U10,18,KEY11/GPO9*%
%TO.N,Net-(U10-KEY11{slash}GPO9)*%
X68733000Y37523500D03*
%TO.P,U10,19,KEY10/GPO8*%
%TO.N,Net-(U10-KEY10{slash}GPO8)*%
X68083000Y37523500D03*
%TO.P,U10,20,KEY9/GPO7*%
%TO.N,Net-(U10-KEY9{slash}GPO7)*%
X67433000Y37523500D03*
%TD*%
D24*
%TO.P,J3,10,10*%
%TO.N,unconnected-(J3-Pad10)*%
X91437000Y-2032000D03*
%TO.P,J3,09,09*%
%TO.N,GND*%
X95507000Y-2032000D03*
%TO.P,J3,08,08*%
%TO.N,Net-(J3-Pad08)*%
X91437000Y-762000D03*
%TO.P,J3,07,07*%
%TO.N,GND*%
X95507000Y-762000D03*
%TO.P,J3,06,06*%
%TO.N,Net-(J3-Pad06)*%
X91437000Y508000D03*
%TO.P,J3,05,05*%
%TO.N,GND*%
X95507000Y508000D03*
%TO.P,J3,04,04*%
%TO.N,Net-(J3-Pad04)*%
X91437000Y1778000D03*
%TO.P,J3,03,03*%
%TO.N,GND*%
X95507000Y1778000D03*
%TO.P,J3,02,02*%
%TO.N,Net-(J3-Pad02)*%
X91437000Y3048000D03*
%TO.P,J3,01,01*%
%TO.N,+3V3*%
X95507000Y3048000D03*
%TD*%
D25*
%TO.P,D39,1,K*%
%TO.N,Net-(D39-K)*%
X135296400Y157966000D03*
%TO.P,D39,2,A*%
%TO.N,+5V*%
X135296400Y161566000D03*
%TD*%
%TO.P,D38,1,K*%
%TO.N,Net-(D38-K)*%
X109509478Y157966000D03*
%TO.P,D38,2,A*%
%TO.N,+5V*%
X109509478Y161566000D03*
%TD*%
%TO.P,D37,1,K*%
%TO.N,Net-(D37-K)*%
X83722559Y157966000D03*
%TO.P,D37,2,A*%
%TO.N,+5V*%
X83722559Y161566000D03*
%TD*%
%TO.P,D36,1,K*%
%TO.N,Net-(D36-K)*%
X57935640Y157966000D03*
%TO.P,D36,2,A*%
%TO.N,+5V*%
X57935640Y161566000D03*
%TD*%
%TO.P,D35,1,K*%
%TO.N,Net-(D35-K)*%
X32148721Y157966000D03*
%TO.P,D35,2,A*%
%TO.N,+5V*%
X32148721Y161566000D03*
%TD*%
%TO.P,D34,1,K*%
%TO.N,Net-(D34-K)*%
X6361802Y157966000D03*
%TO.P,D34,2,A*%
%TO.N,+5V*%
X6361802Y161566000D03*
%TD*%
D26*
%TO.P,D15,1,K*%
%TO.N,Net-(D15-K)*%
X133796400Y50850245D03*
%TO.P,D15,2,A*%
%TO.N,+5V*%
X133796400Y56050245D03*
%TD*%
%TO.P,D14,1,K*%
%TO.N,Net-(D14-K)*%
X108609478Y50749765D03*
%TO.P,D14,2,A*%
%TO.N,+5V*%
X108609478Y55949765D03*
%TD*%
%TO.P,D13,1,K*%
%TO.N,Net-(D13-K)*%
X83422559Y50749765D03*
%TO.P,D13,2,A*%
%TO.N,+5V*%
X83422559Y55949765D03*
%TD*%
%TO.P,D12,1,K*%
%TO.N,Net-(D12-K)*%
X58235640Y50749765D03*
%TO.P,D12,2,A*%
%TO.N,+5V*%
X58235640Y55949765D03*
%TD*%
%TO.P,D11,1,K*%
%TO.N,Net-(D11-K)*%
X33048721Y50749765D03*
%TO.P,D11,2,A*%
%TO.N,+5V*%
X33048721Y55949765D03*
%TD*%
%TO.P,D10,1,K*%
%TO.N,Net-(D10-K)*%
X7874000Y50281285D03*
%TO.P,D10,2,A*%
%TO.N,+5V*%
X7874000Y55481285D03*
%TD*%
%TO.P,D33,1,K*%
%TO.N,Net-(D33-K)*%
X131296402Y133384562D03*
%TO.P,D33,2,A*%
%TO.N,+5V*%
X131296402Y138584562D03*
%TD*%
%TO.P,D32,1,K*%
%TO.N,Net-(D32-K)*%
X107109480Y133359442D03*
%TO.P,D32,2,A*%
%TO.N,+5V*%
X107109480Y138559442D03*
%TD*%
%TO.P,D31,1,K*%
%TO.N,Net-(D31-K)*%
X82922560Y133359442D03*
%TO.P,D31,2,A*%
%TO.N,+5V*%
X82922560Y138559442D03*
%TD*%
%TO.P,D30,1,K*%
%TO.N,Net-(D30-K)*%
X58735640Y133359442D03*
%TO.P,D30,2,A*%
%TO.N,+5V*%
X58735640Y138559442D03*
%TD*%
%TO.P,D29,1,K*%
%TO.N,Net-(D29-K)*%
X34548720Y133359442D03*
%TO.P,D29,2,A*%
%TO.N,+5V*%
X34548720Y138559442D03*
%TD*%
%TO.P,D28,1,K*%
%TO.N,Net-(D28-K)*%
X10361800Y133242322D03*
%TO.P,D28,2,A*%
%TO.N,+5V*%
X10361800Y138442322D03*
%TD*%
%TO.P,D21,1,K*%
%TO.N,Net-(D21-K)*%
X131296402Y78361684D03*
%TO.P,D21,2,A*%
%TO.N,+5V*%
X131296402Y83561684D03*
%TD*%
%TO.P,D20,1,K*%
%TO.N,Net-(D20-K)*%
X107109480Y78286324D03*
%TO.P,D20,2,A*%
%TO.N,+5V*%
X107109480Y83486324D03*
%TD*%
%TO.P,D19,1,K*%
%TO.N,Net-(D19-K)*%
X82922560Y78286324D03*
%TO.P,D19,2,A*%
%TO.N,+5V*%
X82922560Y83486324D03*
%TD*%
%TO.P,D18,1,K*%
%TO.N,Net-(D18-K)*%
X58735640Y78286324D03*
%TO.P,D18,2,A*%
%TO.N,+5V*%
X58735640Y83486324D03*
%TD*%
%TO.P,D17,1,K*%
%TO.N,Net-(D17-K)*%
X34548720Y78286324D03*
%TO.P,D17,2,A*%
%TO.N,+5V*%
X34548720Y83486324D03*
%TD*%
%TO.P,D16,1,K*%
%TO.N,Net-(D16-K)*%
X10361800Y77934964D03*
%TO.P,D16,2,A*%
%TO.N,+5V*%
X10361800Y83134964D03*
%TD*%
%TO.P,D4,2,A*%
%TO.N,+5V*%
X5361802Y32827600D03*
%TO.P,D4,1,K*%
%TO.N,Net-(D4-K)*%
X5361802Y27627600D03*
%TD*%
%TO.P,D7,1,K*%
%TO.N,Net-(D7-K)*%
X83922559Y28213200D03*
%TO.P,D7,2,A*%
%TO.N,+5V*%
X83922559Y33413200D03*
%TD*%
%TO.P,D9,1,K*%
%TO.N,Net-(D9-K)*%
X136296400Y28338800D03*
%TO.P,D9,2,A*%
%TO.N,+5V*%
X136296400Y33538800D03*
%TD*%
%TO.P,D8,1,K*%
%TO.N,Net-(D8-K)*%
X110109478Y28213200D03*
%TO.P,D8,2,A*%
%TO.N,+5V*%
X110109478Y33413200D03*
%TD*%
%TO.P,D6,1,K*%
%TO.N,Net-(D6-K)*%
X57735640Y28213200D03*
%TO.P,D6,2,A*%
%TO.N,+5V*%
X57735640Y33413200D03*
%TD*%
%TO.P,D5,2,A*%
%TO.N,+5V*%
X31548721Y33413200D03*
%TO.P,D5,1,K*%
%TO.N,Net-(D5-K)*%
X31548721Y28213200D03*
%TD*%
D27*
%TO.P,C9,2*%
%TO.N,GND*%
X64247000Y20092000D03*
%TO.P,C9,1*%
%TO.N,+3V3*%
X64247000Y18542000D03*
%TD*%
%TO.P,C7,1*%
%TO.N,+3V3*%
X62245000Y18542000D03*
%TO.P,C7,2*%
%TO.N,GND*%
X62245000Y20092000D03*
%TD*%
D28*
%TO.P,C19,1*%
%TO.N,+5V*%
X75438000Y145809000D03*
%TO.P,C19,2*%
%TO.N,GND*%
X75438000Y144259000D03*
%TD*%
%TO.P,C18,1*%
%TO.N,+5V*%
X75692000Y87643000D03*
%TO.P,C18,2*%
%TO.N,GND*%
X75692000Y86093000D03*
%TD*%
%TO.P,C17,1*%
%TO.N,+5V*%
X74930000Y37605000D03*
%TO.P,C17,2*%
%TO.N,GND*%
X74930000Y36055000D03*
%TD*%
D29*
%TO.P,C16,1*%
%TO.N,+5V*%
X68059000Y161036000D03*
%TO.P,C16,2*%
%TO.N,GND*%
X69609000Y161036000D03*
%TD*%
%TO.P,C15,1*%
%TO.N,+5V*%
X68059000Y122682000D03*
%TO.P,C15,2*%
%TO.N,GND*%
X69609000Y122682000D03*
%TD*%
%TO.P,C14,1*%
%TO.N,+5V*%
X67805000Y103886000D03*
%TO.P,C14,2*%
%TO.N,GND*%
X69355000Y103886000D03*
%TD*%
%TO.P,C13,1*%
%TO.N,+5V*%
X68059000Y71628000D03*
%TO.P,C13,2*%
%TO.N,GND*%
X69609000Y71628000D03*
%TD*%
%TO.P,C12,1*%
%TO.N,+5V*%
X68059000Y53340000D03*
%TO.P,C12,2*%
%TO.N,GND*%
X69609000Y53340000D03*
%TD*%
%TO.P,C11,1*%
%TO.N,+5V*%
X68821000Y27686000D03*
%TO.P,C11,2*%
%TO.N,GND*%
X70371000Y27686000D03*
%TD*%
D30*
%TO.P,R1,2*%
%TO.N,/io/USB_SHIELD_GND*%
X143510000Y20765000D03*
%TO.P,R1,1*%
%TO.N,GND*%
X143510000Y22415000D03*
%TD*%
%TO.P,R135,1*%
%TO.N,/control/DMX.N*%
X33274000Y10985000D03*
%TO.P,R135,2*%
%TO.N,/control/DMX.P*%
X33274000Y9335000D03*
%TD*%
D31*
%TO.P,Q34,1,G*%
%TO.N,Net-(Q34-G)*%
X65974000Y162774000D03*
%TO.P,Q34,2,S*%
%TO.N,GND*%
X64074000Y162774000D03*
%TO.P,Q34,3,D*%
%TO.N,Net-(Q34-D)*%
X65024000Y165394000D03*
%TD*%
D32*
%TO.P,R106,1*%
%TO.N,Net-(U10-KEY1)*%
X109982000Y43942000D03*
%TO.P,R106,2*%
%TO.N,Net-(P11-Pad1)*%
X109982000Y45592000D03*
%TD*%
D23*
%TO.P,U12,1,KEY8/GPO6*%
%TO.N,Net-(U12-KEY8{slash}GPO6)*%
X67941000Y151452500D03*
%TO.P,U12,2,KEY7/GPO5*%
%TO.N,Net-(U12-KEY7{slash}GPO5)*%
X68591000Y151452500D03*
%TO.P,U12,3,KEY6/GPO4*%
%TO.N,Net-(U12-KEY6{slash}GPO4)*%
X69241000Y151452500D03*
%TO.P,U12,4,KEY5/GPO3*%
%TO.N,Net-(U12-KEY5{slash}GPO3)*%
X69891000Y151452500D03*
%TO.P,U12,5,KEY4/GPO2*%
%TO.N,Net-(U12-KEY4{slash}GPO2)*%
X70541000Y151452500D03*
%TO.P,U12,6,KEY3/GPO1*%
%TO.N,Net-(U12-KEY3{slash}GPO1)*%
X71191000Y151452500D03*
%TO.P,U12,7,KEY2/GPO0*%
%TO.N,Net-(U12-KEY2{slash}GPO0)*%
X71841000Y151452500D03*
%TO.P,U12,8,KEY1*%
%TO.N,Net-(U12-KEY1)*%
X72491000Y151452500D03*
%TO.P,U12,9,KEY0*%
%TO.N,Net-(U12-KEY0)*%
X73141000Y151452500D03*
%TO.P,U12,10,VSS*%
%TO.N,GND*%
X73791000Y151452500D03*
%TO.P,U12,11,VDD*%
%TO.N,+5V*%
X73791000Y145727500D03*
%TO.P,U12,12,MODE*%
%TO.N,GND*%
X73141000Y145727500D03*
%TO.P,U12,13,SDA*%
%TO.N,/control/I2C.SCK*%
X72491000Y145727500D03*
%TO.P,U12,14,~{RESET}*%
%TO.N,+5V*%
X71841000Y145727500D03*
%TO.P,U12,15,NC*%
%TO.N,unconnected-(U12-NC-Pad15)*%
X71191000Y145727500D03*
%TO.P,U12,16,SCL*%
%TO.N,/control/I2C.SCL*%
X70541000Y145727500D03*
%TO.P,U12,17,~{CHANGE}*%
%TO.N,/control/CAP_CHANGE.2*%
X69891000Y145727500D03*
%TO.P,U12,18,KEY11/GPO9*%
%TO.N,Net-(U12-KEY11{slash}GPO9)*%
X69241000Y145727500D03*
%TO.P,U12,19,KEY10/GPO8*%
%TO.N,Net-(U12-KEY10{slash}GPO8)*%
X68591000Y145727500D03*
%TO.P,U12,20,KEY9/GPO7*%
%TO.N,Net-(U12-KEY9{slash}GPO7)*%
X67941000Y145727500D03*
%TD*%
D32*
%TO.P,R134,1*%
%TO.N,+5V*%
X5334000Y148527000D03*
%TO.P,R134,2*%
%TO.N,/control/CAP_CHANGE.2*%
X5334000Y150177000D03*
%TD*%
D33*
%TO.P,R133,1*%
%TO.N,Net-(U12-KEY0)*%
X131509000Y151511000D03*
%TO.P,R133,2*%
%TO.N,Net-(P36-Pad1)*%
X133159000Y151511000D03*
%TD*%
D32*
%TO.P,R132,1*%
%TO.N,Net-(U12-KEY1)*%
X110998000Y151575000D03*
%TO.P,R132,2*%
%TO.N,Net-(P35-Pad1)*%
X110998000Y153225000D03*
%TD*%
D33*
%TO.P,R131,1*%
%TO.N,Net-(U12-KEY2{slash}GPO0)*%
X78931000Y153416000D03*
%TO.P,R131,2*%
%TO.N,Net-(P34-Pad1)*%
X80581000Y153416000D03*
%TD*%
D32*
%TO.P,R130,2*%
%TO.N,Net-(P33-Pad1)*%
X57912000Y153479000D03*
%TO.P,R130,1*%
%TO.N,Net-(U12-KEY3{slash}GPO1)*%
X57912000Y151829000D03*
%TD*%
%TO.P,R129,1*%
%TO.N,Net-(U12-KEY4{slash}GPO2)*%
X30480000Y151575000D03*
%TO.P,R129,2*%
%TO.N,Net-(P32-Pad1)*%
X30480000Y153225000D03*
%TD*%
D34*
%TO.P,R128,1*%
%TO.N,Net-(U12-KEY5{slash}GPO3)*%
X9334000Y151511000D03*
%TO.P,R128,2*%
%TO.N,Net-(P31-Pad1)*%
X7684000Y151511000D03*
%TD*%
D33*
%TO.P,R127,1*%
%TO.N,Net-(U12-KEY6{slash}GPO4)*%
X121984000Y147066000D03*
%TO.P,R127,2*%
%TO.N,Net-(P30-Pad1)*%
X123634000Y147066000D03*
%TD*%
%TO.P,R126,1*%
%TO.N,Net-(U12-KEY7{slash}GPO5)*%
X97854000Y147066000D03*
%TO.P,R126,2*%
%TO.N,Net-(P29-Pad1)*%
X99504000Y147066000D03*
%TD*%
%TO.P,R125,1*%
%TO.N,Net-(U12-KEY8{slash}GPO6)*%
X80074000Y147066000D03*
%TO.P,R125,2*%
%TO.N,Net-(P28-Pad1)*%
X81724000Y147066000D03*
%TD*%
D30*
%TO.P,R124,1*%
%TO.N,Net-(U12-KEY9{slash}GPO7)*%
X58674000Y148399000D03*
%TO.P,R124,2*%
%TO.N,Net-(P27-Pad1)*%
X58674000Y146749000D03*
%TD*%
%TO.P,R123,1*%
%TO.N,Net-(U12-KEY10{slash}GPO8)*%
X34544000Y148399000D03*
%TO.P,R123,2*%
%TO.N,Net-(P26-Pad1)*%
X34544000Y146749000D03*
%TD*%
D34*
%TO.P,R122,1*%
%TO.N,Net-(U12-KEY11{slash}GPO9)*%
X20129000Y147066000D03*
%TO.P,R122,2*%
%TO.N,Net-(P25-Pad1)*%
X18479000Y147066000D03*
%TD*%
D35*
%TO.P,U9,16,VCC*%
%TO.N,+5V*%
X67876500Y121401000D03*
%TO.P,U9,15,QA*%
%TO.N,Net-(Q26-G)*%
X67876500Y120751000D03*
%TO.P,U9,14,SER*%
%TO.N,/display/led_row_2_3/LED_SER_OUT*%
X67876500Y120101000D03*
%TO.P,U9,13,~{OE}*%
%TO.N,GND*%
X67876500Y119451000D03*
%TO.P,U9,12,RCLK*%
%TO.N,/control/SR.LATCH*%
X67876500Y118801000D03*
%TO.P,U9,11,SRCLK*%
%TO.N,/control/SR.CLOCK*%
X67876500Y118151000D03*
%TO.P,U9,10,~{SRCLR}*%
%TO.N,+5V*%
X67876500Y117501000D03*
%TO.P,U9,9,QH'*%
%TO.N,Net-(U8-SER)*%
X67876500Y116851000D03*
%TO.P,U9,8,GND*%
%TO.N,GND*%
X73601500Y116851000D03*
%TO.P,U9,7,QH*%
%TO.N,unconnected-(U9-QH-Pad7)*%
X73601500Y117501000D03*
%TO.P,U9,6,QG*%
%TO.N,unconnected-(U9-QG-Pad6)*%
X73601500Y118151000D03*
%TO.P,U9,5,QF*%
%TO.N,Net-(Q31-G)*%
X73601500Y118801000D03*
%TO.P,U9,4,QE*%
%TO.N,Net-(Q30-G)*%
X73601500Y119451000D03*
%TO.P,U9,3,QD*%
%TO.N,Net-(Q29-G)*%
X73601500Y120101000D03*
%TO.P,U9,2,QC*%
%TO.N,Net-(Q28-G)*%
X73601500Y120751000D03*
%TO.P,U9,1,QB*%
%TO.N,Net-(Q27-G)*%
X73601500Y121401000D03*
%TD*%
%TO.P,U7,1,QB*%
%TO.N,Net-(Q15-G)*%
X73728500Y70093000D03*
%TO.P,U7,2,QC*%
%TO.N,Net-(Q16-G)*%
X73728500Y69443000D03*
%TO.P,U7,3,QD*%
%TO.N,Net-(Q17-G)*%
X73728500Y68793000D03*
%TO.P,U7,4,QE*%
%TO.N,Net-(Q18-G)*%
X73728500Y68143000D03*
%TO.P,U7,5,QF*%
%TO.N,Net-(Q19-G)*%
X73728500Y67493000D03*
%TO.P,U7,6,QG*%
%TO.N,unconnected-(U7-QG-Pad6)*%
X73728500Y66843000D03*
%TO.P,U7,7,QH*%
%TO.N,unconnected-(U7-QH-Pad7)*%
X73728500Y66193000D03*
%TO.P,U7,8,GND*%
%TO.N,GND*%
X73728500Y65543000D03*
%TO.P,U7,9,QH'*%
%TO.N,Net-(U6-SER)*%
X68003500Y65543000D03*
%TO.P,U7,10,~{SRCLR}*%
%TO.N,+5V*%
X68003500Y66193000D03*
%TO.P,U7,11,SRCLK*%
%TO.N,/control/SR.CLOCK*%
X68003500Y66843000D03*
%TO.P,U7,12,RCLK*%
%TO.N,/control/SR.LATCH*%
X68003500Y67493000D03*
%TO.P,U7,13,~{OE}*%
%TO.N,GND*%
X68003500Y68143000D03*
%TO.P,U7,14,SER*%
%TO.N,/display/led_row_0_1/LED_SER_OUT*%
X68003500Y68793000D03*
%TO.P,U7,15,QA*%
%TO.N,Net-(Q14-G)*%
X68003500Y69443000D03*
%TO.P,U7,16,VCC*%
%TO.N,+5V*%
X68003500Y70093000D03*
%TD*%
%TO.P,U8,1,QB*%
%TO.N,Net-(Q33-G)*%
X73728500Y159501000D03*
%TO.P,U8,2,QC*%
%TO.N,Net-(Q34-G)*%
X73728500Y158851000D03*
%TO.P,U8,3,QD*%
%TO.N,Net-(Q35-G)*%
X73728500Y158201000D03*
%TO.P,U8,4,QE*%
%TO.N,Net-(Q36-G)*%
X73728500Y157551000D03*
%TO.P,U8,5,QF*%
%TO.N,Net-(Q37-G)*%
X73728500Y156901000D03*
%TO.P,U8,6,QG*%
%TO.N,unconnected-(U8-QG-Pad6)*%
X73728500Y156251000D03*
%TO.P,U8,7,QH*%
%TO.N,unconnected-(U8-QH-Pad7)*%
X73728500Y155601000D03*
%TO.P,U8,8,GND*%
%TO.N,GND*%
X73728500Y154951000D03*
%TO.P,U8,9,QH'*%
%TO.N,/display/led_row_4_5/LED_SER_OUT*%
X68003500Y154951000D03*
%TO.P,U8,10,~{SRCLR}*%
%TO.N,+5V*%
X68003500Y155601000D03*
%TO.P,U8,11,SRCLK*%
%TO.N,/control/SR.CLOCK*%
X68003500Y156251000D03*
%TO.P,U8,12,RCLK*%
%TO.N,/control/SR.LATCH*%
X68003500Y156901000D03*
%TO.P,U8,13,~{OE}*%
%TO.N,GND*%
X68003500Y157551000D03*
%TO.P,U8,14,SER*%
%TO.N,Net-(U8-SER)*%
X68003500Y158201000D03*
%TO.P,U8,15,QA*%
%TO.N,Net-(Q32-G)*%
X68003500Y158851000D03*
%TO.P,U8,16,VCC*%
%TO.N,+5V*%
X68003500Y159501000D03*
%TD*%
%TO.P,U6,1,QB*%
%TO.N,Net-(Q21-G)*%
X73601500Y102351000D03*
%TO.P,U6,2,QC*%
%TO.N,Net-(Q22-G)*%
X73601500Y101701000D03*
%TO.P,U6,3,QD*%
%TO.N,Net-(Q23-G)*%
X73601500Y101051000D03*
%TO.P,U6,4,QE*%
%TO.N,Net-(Q24-G)*%
X73601500Y100401000D03*
%TO.P,U6,5,QF*%
%TO.N,Net-(Q25-G)*%
X73601500Y99751000D03*
%TO.P,U6,6,QG*%
%TO.N,unconnected-(U6-QG-Pad6)*%
X73601500Y99101000D03*
%TO.P,U6,7,QH*%
%TO.N,unconnected-(U6-QH-Pad7)*%
X73601500Y98451000D03*
%TO.P,U6,8,GND*%
%TO.N,GND*%
X73601500Y97801000D03*
%TO.P,U6,9,QH'*%
%TO.N,/display/led_row_2_3/LED_SER_OUT*%
X67876500Y97801000D03*
%TO.P,U6,10,~{SRCLR}*%
%TO.N,+5V*%
X67876500Y98451000D03*
%TO.P,U6,11,SRCLK*%
%TO.N,/control/SR.CLOCK*%
X67876500Y99101000D03*
%TO.P,U6,12,RCLK*%
%TO.N,/control/SR.LATCH*%
X67876500Y99751000D03*
%TO.P,U6,13,~{OE}*%
%TO.N,GND*%
X67876500Y100401000D03*
%TO.P,U6,14,SER*%
%TO.N,Net-(U6-SER)*%
X67876500Y101051000D03*
%TO.P,U6,15,QA*%
%TO.N,Net-(Q20-G)*%
X67876500Y101701000D03*
%TO.P,U6,16,VCC*%
%TO.N,+5V*%
X67876500Y102351000D03*
%TD*%
D23*
%TO.P,U11,1,KEY8/GPO6*%
%TO.N,Net-(U11-KEY8{slash}GPO6)*%
X67814000Y93540500D03*
%TO.P,U11,2,KEY7/GPO5*%
%TO.N,Net-(U11-KEY7{slash}GPO5)*%
X68464000Y93540500D03*
%TO.P,U11,3,KEY6/GPO4*%
%TO.N,Net-(U11-KEY6{slash}GPO4)*%
X69114000Y93540500D03*
%TO.P,U11,4,KEY5/GPO3*%
%TO.N,Net-(U11-KEY5{slash}GPO3)*%
X69764000Y93540500D03*
%TO.P,U11,5,KEY4/GPO2*%
%TO.N,Net-(U11-KEY4{slash}GPO2)*%
X70414000Y93540500D03*
%TO.P,U11,6,KEY3/GPO1*%
%TO.N,Net-(U11-KEY3{slash}GPO1)*%
X71064000Y93540500D03*
%TO.P,U11,7,KEY2/GPO0*%
%TO.N,Net-(U11-KEY2{slash}GPO0)*%
X71714000Y93540500D03*
%TO.P,U11,8,KEY1*%
%TO.N,Net-(U11-KEY1)*%
X72364000Y93540500D03*
%TO.P,U11,9,KEY0*%
%TO.N,Net-(U11-KEY0)*%
X73014000Y93540500D03*
%TO.P,U11,10,VSS*%
%TO.N,GND*%
X73664000Y93540500D03*
%TO.P,U11,11,VDD*%
%TO.N,+5V*%
X73664000Y87815500D03*
%TO.P,U11,12,MODE*%
%TO.N,GND*%
X73014000Y87815500D03*
%TO.P,U11,13,SDA*%
%TO.N,/control/I2C.SCK*%
X72364000Y87815500D03*
%TO.P,U11,14,~{RESET}*%
%TO.N,+5V*%
X71714000Y87815500D03*
%TO.P,U11,15,NC*%
%TO.N,unconnected-(U11-NC-Pad15)*%
X71064000Y87815500D03*
%TO.P,U11,16,SCL*%
%TO.N,/control/I2C.SCL*%
X70414000Y87815500D03*
%TO.P,U11,17,~{CHANGE}*%
%TO.N,/control/CAP_CHANGE.1*%
X69764000Y87815500D03*
%TO.P,U11,18,KEY11/GPO9*%
%TO.N,Net-(U11-KEY11{slash}GPO9)*%
X69114000Y87815500D03*
%TO.P,U11,19,KEY10/GPO8*%
%TO.N,Net-(U11-KEY10{slash}GPO8)*%
X68464000Y87815500D03*
%TO.P,U11,20,KEY9/GPO7*%
%TO.N,Net-(U11-KEY9{slash}GPO7)*%
X67814000Y87815500D03*
%TD*%
D35*
%TO.P,U4,16,VCC*%
%TO.N,+5V*%
X67876500Y51551000D03*
%TO.P,U4,15,QA*%
%TO.N,Net-(Q8-G)*%
X67876500Y50901000D03*
%TO.P,U4,14,SER*%
%TO.N,Net-(U4-SER)*%
X67876500Y50251000D03*
%TO.P,U4,13,~{OE}*%
%TO.N,GND*%
X67876500Y49601000D03*
%TO.P,U4,12,RCLK*%
%TO.N,/control/SR.LATCH*%
X67876500Y48951000D03*
%TO.P,U4,11,SRCLK*%
%TO.N,/control/SR.CLOCK*%
X67876500Y48301000D03*
%TO.P,U4,10,~{SRCLR}*%
%TO.N,+5V*%
X67876500Y47651000D03*
%TO.P,U4,9,QH'*%
%TO.N,/display/led_row_0_1/LED_SER_OUT*%
X67876500Y47001000D03*
%TO.P,U4,8,GND*%
%TO.N,GND*%
X73601500Y47001000D03*
%TO.P,U4,7,QH*%
%TO.N,unconnected-(U4-QH-Pad7)*%
X73601500Y47651000D03*
%TO.P,U4,6,QG*%
%TO.N,unconnected-(U4-QG-Pad6)*%
X73601500Y48301000D03*
%TO.P,U4,5,QF*%
%TO.N,Net-(Q13-G)*%
X73601500Y48951000D03*
%TO.P,U4,4,QE*%
%TO.N,Net-(Q12-G)*%
X73601500Y49601000D03*
%TO.P,U4,3,QD*%
%TO.N,Net-(Q11-G)*%
X73601500Y50251000D03*
%TO.P,U4,2,QC*%
%TO.N,Net-(Q10-G)*%
X73601500Y50901000D03*
%TO.P,U4,1,QB*%
%TO.N,Net-(Q9-G)*%
X73601500Y51551000D03*
%TD*%
D36*
%TO.P,R95,1*%
%TO.N,Net-(D39-K)*%
X133796500Y154051000D03*
%TO.P,R95,2*%
%TO.N,Net-(Q37-D)*%
X130871500Y154051000D03*
%TD*%
D33*
%TO.P,R94,1*%
%TO.N,Net-(Q37-G)*%
X126429000Y159766000D03*
%TO.P,R94,2*%
%TO.N,GND*%
X128079000Y159766000D03*
%TD*%
D36*
%TO.P,R93,1*%
%TO.N,Net-(D38-K)*%
X108396500Y154051000D03*
%TO.P,R93,2*%
%TO.N,Net-(Q36-D)*%
X105471500Y154051000D03*
%TD*%
D33*
%TO.P,R92,1*%
%TO.N,Net-(Q36-G)*%
X101029000Y159766000D03*
%TO.P,R92,2*%
%TO.N,GND*%
X102679000Y159766000D03*
%TD*%
D37*
%TO.P,R91,1*%
%TO.N,Net-(D37-K)*%
X80264000Y162367500D03*
%TO.P,R91,2*%
%TO.N,Net-(Q35-D)*%
X80264000Y165292500D03*
%TD*%
D34*
%TO.P,R90,1*%
%TO.N,Net-(Q35-G)*%
X77533000Y160296000D03*
%TO.P,R90,2*%
%TO.N,GND*%
X75883000Y160296000D03*
%TD*%
D37*
%TO.P,R89,1*%
%TO.N,Net-(D36-K)*%
X60706000Y160589500D03*
%TO.P,R89,2*%
%TO.N,Net-(Q34-D)*%
X60706000Y163514500D03*
%TD*%
D34*
%TO.P,R88,1*%
%TO.N,Net-(Q34-G)*%
X65849000Y160274000D03*
%TO.P,R88,2*%
%TO.N,GND*%
X64199000Y160274000D03*
%TD*%
D38*
%TO.P,R87,1*%
%TO.N,Net-(D35-K)*%
X33589500Y154051000D03*
%TO.P,R87,2*%
%TO.N,Net-(Q33-D)*%
X36514500Y154051000D03*
%TD*%
D33*
%TO.P,R86,1*%
%TO.N,Net-(Q33-G)*%
X39434000Y159766000D03*
%TO.P,R86,2*%
%TO.N,GND*%
X41084000Y159766000D03*
%TD*%
D38*
%TO.P,R85,1*%
%TO.N,Net-(D34-K)*%
X7935500Y154051000D03*
%TO.P,R85,2*%
%TO.N,Net-(Q32-D)*%
X10860500Y154051000D03*
%TD*%
D33*
%TO.P,R84,1*%
%TO.N,Net-(Q32-G)*%
X13399000Y159766000D03*
%TO.P,R84,2*%
%TO.N,GND*%
X15049000Y159766000D03*
%TD*%
D36*
%TO.P,R71,1*%
%TO.N,Net-(D27-K)*%
X131256500Y99441000D03*
%TO.P,R71,2*%
%TO.N,Net-(Q25-D)*%
X128331500Y99441000D03*
%TD*%
D33*
%TO.P,R70,1*%
%TO.N,Net-(Q25-G)*%
X123889000Y105791000D03*
%TO.P,R70,2*%
%TO.N,GND*%
X125539000Y105791000D03*
%TD*%
D36*
%TO.P,R69,1*%
%TO.N,Net-(D26-K)*%
X105856500Y98806000D03*
%TO.P,R69,2*%
%TO.N,Net-(Q24-D)*%
X102931500Y98806000D03*
%TD*%
D33*
%TO.P,R68,1*%
%TO.N,Net-(Q24-G)*%
X98489000Y105791000D03*
%TO.P,R68,2*%
%TO.N,GND*%
X100139000Y105791000D03*
%TD*%
D36*
%TO.P,R67,1*%
%TO.N,Net-(D25-K)*%
X76011500Y114046000D03*
%TO.P,R67,2*%
%TO.N,Net-(Q23-D)*%
X73086500Y114046000D03*
%TD*%
D34*
%TO.P,R66,1*%
%TO.N,Net-(Q23-G)*%
X74104000Y105156000D03*
%TO.P,R66,2*%
%TO.N,GND*%
X72454000Y105156000D03*
%TD*%
D38*
%TO.P,R65,1*%
%TO.N,Net-(D24-K)*%
X65466500Y114046000D03*
%TO.P,R65,2*%
%TO.N,Net-(Q22-D)*%
X68391500Y114046000D03*
%TD*%
D34*
%TO.P,R64,1*%
%TO.N,Net-(Q22-G)*%
X69024000Y105918000D03*
%TO.P,R64,2*%
%TO.N,GND*%
X67374000Y105918000D03*
%TD*%
D38*
%TO.P,R63,1*%
%TO.N,Net-(D23-K)*%
X38985000Y101346000D03*
%TO.P,R63,2*%
%TO.N,Net-(Q21-D)*%
X41910000Y101346000D03*
%TD*%
D33*
%TO.P,R62,1*%
%TO.N,Net-(Q21-G)*%
X42167000Y108926000D03*
%TO.P,R62,2*%
%TO.N,GND*%
X43817000Y108926000D03*
%TD*%
D38*
%TO.P,R61,1*%
%TO.N,Net-(D22-K)*%
X10856500Y99441000D03*
%TO.P,R61,2*%
%TO.N,Net-(Q20-D)*%
X13781500Y99441000D03*
%TD*%
D33*
%TO.P,R60,1*%
%TO.N,Net-(Q20-G)*%
X15939000Y105791000D03*
%TO.P,R60,2*%
%TO.N,GND*%
X17589000Y105791000D03*
%TD*%
%TO.P,R46,1*%
%TO.N,Net-(Q13-G)*%
X126301040Y53717953D03*
%TO.P,R46,2*%
%TO.N,GND*%
X127951040Y53717953D03*
%TD*%
%TO.P,R44,1*%
%TO.N,Net-(Q12-G)*%
X101664000Y53721000D03*
%TO.P,R44,2*%
%TO.N,GND*%
X103314000Y53721000D03*
%TD*%
%TO.P,R42,1*%
%TO.N,Net-(Q11-G)*%
X77153000Y58928000D03*
%TO.P,R42,2*%
%TO.N,GND*%
X78803000Y58928000D03*
%TD*%
%TO.P,R40,1*%
%TO.N,Net-(Q10-G)*%
X62929000Y53721000D03*
%TO.P,R40,2*%
%TO.N,GND*%
X64579000Y53721000D03*
%TD*%
D32*
%TO.P,R108,2*%
%TO.N,/control/CAP_CHANGE.0*%
X3810000Y40449000D03*
%TO.P,R108,1*%
%TO.N,+5V*%
X3810000Y38799000D03*
%TD*%
D33*
%TO.P,R107,1*%
%TO.N,Net-(U10-KEY0)*%
X129477000Y44704000D03*
%TO.P,R107,2*%
%TO.N,Net-(P12-Pad1)*%
X131127000Y44704000D03*
%TD*%
%TO.P,R105,1*%
%TO.N,Net-(U10-KEY2{slash}GPO0)*%
X80518000Y44958000D03*
%TO.P,R105,2*%
%TO.N,Net-(P10-Pad1)*%
X82168000Y44958000D03*
%TD*%
D32*
%TO.P,R104,1*%
%TO.N,Net-(U10-KEY3{slash}GPO1)*%
X55372000Y44641000D03*
%TO.P,R104,2*%
%TO.N,Net-(P9-Pad1)*%
X55372000Y46291000D03*
%TD*%
%TO.P,R103,1*%
%TO.N,Net-(U10-KEY4{slash}GPO2)*%
X30226000Y44641000D03*
%TO.P,R103,2*%
%TO.N,Net-(P8-Pad1)*%
X30226000Y46291000D03*
%TD*%
D33*
%TO.P,R38,1*%
%TO.N,Net-(Q9-G)*%
X38164000Y53721000D03*
%TO.P,R38,2*%
%TO.N,GND*%
X39814000Y53721000D03*
%TD*%
D32*
%TO.P,R102,1*%
%TO.N,Net-(U10-KEY5{slash}GPO3)*%
X6096000Y43879000D03*
%TO.P,R102,2*%
%TO.N,Net-(P7-Pad1)*%
X6096000Y45529000D03*
%TD*%
D33*
%TO.P,R101,1*%
%TO.N,Net-(U10-KEY6{slash}GPO4)*%
X132144000Y37211000D03*
%TO.P,R101,2*%
%TO.N,Net-(P6-Pad1)*%
X133794000Y37211000D03*
%TD*%
%TO.P,R100,1*%
%TO.N,Net-(U10-KEY7{slash}GPO5)*%
X105474000Y37211000D03*
%TO.P,R100,2*%
%TO.N,Net-(P5-Pad1)*%
X107124000Y37211000D03*
%TD*%
%TO.P,R99,1*%
%TO.N,Net-(U10-KEY8{slash}GPO6)*%
X79439000Y37211000D03*
%TO.P,R99,2*%
%TO.N,Net-(P4-Pad1)*%
X81089000Y37211000D03*
%TD*%
D34*
%TO.P,R98,1*%
%TO.N,Net-(U10-KEY9{slash}GPO7)*%
X62039000Y37211000D03*
%TO.P,R98,2*%
%TO.N,Net-(P3-Pad1)*%
X60389000Y37211000D03*
%TD*%
%TO.P,R97,1*%
%TO.N,Net-(U10-KEY10{slash}GPO8)*%
X36004000Y37211000D03*
%TO.P,R97,2*%
%TO.N,Net-(P2-Pad1)*%
X34354000Y37211000D03*
%TD*%
%TO.P,R96,1*%
%TO.N,Net-(U10-KEY11{slash}GPO9)*%
X9969000Y36576000D03*
%TO.P,R96,2*%
%TO.N,Net-(P1-Pad1)*%
X8319000Y36576000D03*
%TD*%
D33*
%TO.P,R36,1*%
%TO.N,Net-(Q8-G)*%
X13707162Y53086000D03*
%TO.P,R36,2*%
%TO.N,GND*%
X15357162Y53086000D03*
%TD*%
D36*
%TO.P,R47,1*%
%TO.N,Net-(D15-K)*%
X133161500Y47498000D03*
%TO.P,R47,2*%
%TO.N,Net-(Q13-D)*%
X130236500Y47498000D03*
%TD*%
%TO.P,R45,1*%
%TO.N,Net-(D14-K)*%
X108396500Y47498000D03*
%TO.P,R45,2*%
%TO.N,Net-(Q12-D)*%
X105471500Y47498000D03*
%TD*%
%TO.P,R83,1*%
%TO.N,Net-(D33-K)*%
X128716500Y124206000D03*
%TO.P,R83,2*%
%TO.N,Net-(Q31-D)*%
X125791500Y124206000D03*
%TD*%
D33*
%TO.P,R82,1*%
%TO.N,Net-(Q31-G)*%
X119444000Y130556000D03*
%TO.P,R82,2*%
%TO.N,GND*%
X121094000Y130556000D03*
%TD*%
D36*
%TO.P,R81,1*%
%TO.N,Net-(D32-K)*%
X104586500Y124206000D03*
%TO.P,R81,2*%
%TO.N,Net-(Q30-D)*%
X101661500Y124206000D03*
%TD*%
D33*
%TO.P,R80,1*%
%TO.N,Net-(Q30-G)*%
X95314000Y130556000D03*
%TO.P,R80,2*%
%TO.N,GND*%
X96964000Y130556000D03*
%TD*%
D36*
%TO.P,R79,1*%
%TO.N,Net-(D31-K)*%
X81091500Y124206000D03*
%TO.P,R79,2*%
%TO.N,Net-(Q29-D)*%
X78166500Y124206000D03*
%TD*%
D37*
%TO.P,R43,1*%
%TO.N,Net-(D13-K)*%
X78486000Y48575500D03*
%TO.P,R43,2*%
%TO.N,Net-(Q11-D)*%
X78486000Y51500500D03*
%TD*%
D38*
%TO.P,R41,1*%
%TO.N,Net-(D12-K)*%
X57973500Y47371000D03*
%TO.P,R41,2*%
%TO.N,Net-(Q10-D)*%
X60898500Y47371000D03*
%TD*%
D33*
%TO.P,R78,1*%
%TO.N,Net-(Q29-G)*%
X72327000Y129286000D03*
%TO.P,R78,2*%
%TO.N,GND*%
X73977000Y129286000D03*
%TD*%
D38*
%TO.P,R77,1*%
%TO.N,Net-(D30-K)*%
X60386500Y124206000D03*
%TO.P,R77,2*%
%TO.N,Net-(Q28-D)*%
X63311500Y124206000D03*
%TD*%
D33*
%TO.P,R76,1*%
%TO.N,Net-(Q28-G)*%
X67692000Y129794000D03*
%TO.P,R76,2*%
%TO.N,GND*%
X69342000Y129794000D03*
%TD*%
D38*
%TO.P,R75,1*%
%TO.N,Net-(D29-K)*%
X36891500Y124206000D03*
%TO.P,R75,2*%
%TO.N,Net-(Q27-D)*%
X39816500Y124206000D03*
%TD*%
D33*
%TO.P,R74,1*%
%TO.N,Net-(Q27-G)*%
X44514000Y130556000D03*
%TO.P,R74,2*%
%TO.N,GND*%
X46164000Y130556000D03*
%TD*%
D38*
%TO.P,R73,1*%
%TO.N,Net-(D28-K)*%
X13396500Y124206000D03*
%TO.P,R73,2*%
%TO.N,Net-(Q26-D)*%
X16321500Y124206000D03*
%TD*%
D33*
%TO.P,R72,1*%
%TO.N,Net-(Q26-G)*%
X20384000Y130556000D03*
%TO.P,R72,2*%
%TO.N,GND*%
X22034000Y130556000D03*
%TD*%
D32*
%TO.P,R121,1*%
%TO.N,+5V*%
X6096000Y92901000D03*
%TO.P,R121,2*%
%TO.N,/control/CAP_CHANGE.1*%
X6096000Y94551000D03*
%TD*%
D36*
%TO.P,R59,1*%
%TO.N,Net-(D21-K)*%
X130621500Y74041000D03*
%TO.P,R59,2*%
%TO.N,Net-(Q19-D)*%
X127696500Y74041000D03*
%TD*%
D33*
%TO.P,R58,1*%
%TO.N,Net-(Q19-G)*%
X123254000Y81661000D03*
%TO.P,R58,2*%
%TO.N,GND*%
X124904000Y81661000D03*
%TD*%
D36*
%TO.P,R57,1*%
%TO.N,Net-(D20-K)*%
X106491500Y74041000D03*
%TO.P,R57,2*%
%TO.N,Net-(Q18-D)*%
X103566500Y74041000D03*
%TD*%
D33*
%TO.P,R56,1*%
%TO.N,Net-(Q18-G)*%
X99124000Y81661000D03*
%TO.P,R56,2*%
%TO.N,GND*%
X100774000Y81661000D03*
%TD*%
%TO.P,R120,1*%
%TO.N,Net-(U11-KEY0)*%
X128969000Y96901000D03*
%TO.P,R120,2*%
%TO.N,Net-(P24-Pad1)*%
X130619000Y96901000D03*
%TD*%
D32*
%TO.P,R119,1*%
%TO.N,Net-(U11-KEY1)*%
X108966000Y96457000D03*
%TO.P,R119,2*%
%TO.N,Net-(P23-Pad1)*%
X108966000Y98107000D03*
%TD*%
D36*
%TO.P,R55,1*%
%TO.N,Net-(D19-K)*%
X82361500Y74041000D03*
%TO.P,R55,2*%
%TO.N,Net-(Q17-D)*%
X79436500Y74041000D03*
%TD*%
D33*
%TO.P,R118,1*%
%TO.N,Net-(U11-KEY2{slash}GPO0)*%
X79439000Y98552000D03*
%TO.P,R118,2*%
%TO.N,Net-(P22-Pad1)*%
X81089000Y98552000D03*
%TD*%
D34*
%TO.P,R117,2*%
%TO.N,Net-(P21-Pad1)*%
X61024000Y98806000D03*
%TO.P,R117,1*%
%TO.N,Net-(U11-KEY3{slash}GPO1)*%
X62674000Y98806000D03*
%TD*%
D32*
%TO.P,R116,1*%
%TO.N,Net-(U11-KEY4{slash}GPO2)*%
X33274000Y98235000D03*
%TO.P,R116,2*%
%TO.N,Net-(P20-Pad1)*%
X33274000Y99885000D03*
%TD*%
D33*
%TO.P,R54,1*%
%TO.N,Net-(Q17-G)*%
X74994000Y81661000D03*
%TO.P,R54,2*%
%TO.N,GND*%
X76644000Y81661000D03*
%TD*%
D34*
%TO.P,R115,1*%
%TO.N,Net-(U11-KEY5{slash}GPO3)*%
X13144000Y96266000D03*
%TO.P,R115,2*%
%TO.N,Net-(P19-Pad1)*%
X11494000Y96266000D03*
%TD*%
D33*
%TO.P,R114,2*%
%TO.N,Net-(P18-Pad1)*%
X123634000Y92964000D03*
%TO.P,R114,1*%
%TO.N,Net-(U11-KEY6{slash}GPO4)*%
X121984000Y92964000D03*
%TD*%
%TO.P,R113,2*%
%TO.N,Net-(P17-Pad1)*%
X99631000Y91948000D03*
%TO.P,R113,1*%
%TO.N,Net-(U11-KEY7{slash}GPO5)*%
X97981000Y91948000D03*
%TD*%
%TO.P,R112,1*%
%TO.N,Net-(U11-KEY8{slash}GPO6)*%
X76685709Y90424000D03*
%TO.P,R112,2*%
%TO.N,Net-(P16-Pad1)*%
X78335709Y90424000D03*
%TD*%
D34*
%TO.P,R111,1*%
%TO.N,Net-(U11-KEY9{slash}GPO7)*%
X60769000Y92456000D03*
%TO.P,R111,2*%
%TO.N,Net-(P15-Pad1)*%
X59119000Y92456000D03*
%TD*%
D38*
%TO.P,R53,1*%
%TO.N,Net-(D18-K)*%
X59116500Y74041000D03*
%TO.P,R53,2*%
%TO.N,Net-(Q16-D)*%
X62041500Y74041000D03*
%TD*%
D33*
%TO.P,R52,1*%
%TO.N,Net-(Q16-G)*%
X64834000Y81661000D03*
%TO.P,R52,2*%
%TO.N,GND*%
X66484000Y81661000D03*
%TD*%
D38*
%TO.P,R51,1*%
%TO.N,Net-(D17-K)*%
X34986500Y74041000D03*
%TO.P,R51,2*%
%TO.N,Net-(Q15-D)*%
X37911500Y74041000D03*
%TD*%
D33*
%TO.P,R50,1*%
%TO.N,Net-(Q15-G)*%
X40704000Y81661000D03*
%TO.P,R50,2*%
%TO.N,GND*%
X42354000Y81661000D03*
%TD*%
D38*
%TO.P,R49,1*%
%TO.N,Net-(D16-K)*%
X10856500Y74041000D03*
%TO.P,R49,2*%
%TO.N,Net-(Q14-D)*%
X13781500Y74041000D03*
%TD*%
D33*
%TO.P,R48,1*%
%TO.N,Net-(Q14-G)*%
X16574000Y81661000D03*
%TO.P,R48,2*%
%TO.N,GND*%
X18224000Y81661000D03*
%TD*%
D34*
%TO.P,R110,1*%
%TO.N,Net-(U11-KEY10{slash}GPO8)*%
X44259000Y92456000D03*
%TO.P,R110,2*%
%TO.N,Net-(P14-Pad1)*%
X42609000Y92456000D03*
%TD*%
%TO.P,R109,1*%
%TO.N,Net-(U11-KEY11{slash}GPO9)*%
X20129000Y92456000D03*
%TO.P,R109,2*%
%TO.N,Net-(P13-Pad1)*%
X18479000Y92456000D03*
%TD*%
D38*
%TO.P,R39,1*%
%TO.N,Net-(D11-K)*%
X33081500Y47371000D03*
%TO.P,R39,2*%
%TO.N,Net-(Q9-D)*%
X36006500Y47371000D03*
%TD*%
%TO.P,R37,1*%
%TO.N,Net-(D10-K)*%
X8316500Y46736000D03*
%TO.P,R37,2*%
%TO.N,Net-(Q8-D)*%
X11241500Y46736000D03*
%TD*%
D31*
%TO.P,Q37,1,G*%
%TO.N,Net-(Q37-G)*%
X126304000Y157266000D03*
%TO.P,Q37,2,S*%
%TO.N,GND*%
X128204000Y157266000D03*
%TO.P,Q37,3,D*%
%TO.N,Net-(Q37-D)*%
X127254000Y154646000D03*
%TD*%
%TO.P,Q36,1,G*%
%TO.N,Net-(Q36-G)*%
X100904000Y157266000D03*
%TO.P,Q36,2,S*%
%TO.N,GND*%
X102804000Y157266000D03*
%TO.P,Q36,3,D*%
%TO.N,Net-(Q36-D)*%
X101854000Y154646000D03*
%TD*%
%TO.P,Q35,1,G*%
%TO.N,Net-(Q35-G)*%
X77658000Y162796000D03*
%TO.P,Q35,2,S*%
%TO.N,GND*%
X75758000Y162796000D03*
%TO.P,Q35,3,D*%
%TO.N,Net-(Q35-D)*%
X76708000Y165416000D03*
%TD*%
%TO.P,Q33,1,G*%
%TO.N,Net-(Q33-G)*%
X39309000Y157266000D03*
%TO.P,Q33,2,S*%
%TO.N,GND*%
X41209000Y157266000D03*
%TO.P,Q33,3,D*%
%TO.N,Net-(Q33-D)*%
X40259000Y154646000D03*
%TD*%
%TO.P,Q32,1,G*%
%TO.N,Net-(Q32-G)*%
X13274000Y157266000D03*
%TO.P,Q32,2,S*%
%TO.N,GND*%
X15174000Y157266000D03*
%TO.P,Q32,3,D*%
%TO.N,Net-(Q32-D)*%
X14224000Y154646000D03*
%TD*%
%TO.P,Q25,1,G*%
%TO.N,Net-(Q25-G)*%
X123764000Y103291000D03*
%TO.P,Q25,2,S*%
%TO.N,GND*%
X125664000Y103291000D03*
%TO.P,Q25,3,D*%
%TO.N,Net-(Q25-D)*%
X124714000Y100671000D03*
%TD*%
%TO.P,Q24,1,G*%
%TO.N,Net-(Q24-G)*%
X98364000Y103291000D03*
%TO.P,Q24,2,S*%
%TO.N,GND*%
X100264000Y103291000D03*
%TO.P,Q24,3,D*%
%TO.N,Net-(Q24-D)*%
X99314000Y100671000D03*
%TD*%
%TO.P,Q23,1,G*%
%TO.N,Net-(Q23-G)*%
X74229000Y107656000D03*
%TO.P,Q23,2,S*%
%TO.N,GND*%
X72329000Y107656000D03*
%TO.P,Q23,3,D*%
%TO.N,Net-(Q23-D)*%
X73279000Y110276000D03*
%TD*%
%TO.P,Q22,1,G*%
%TO.N,Net-(Q22-G)*%
X69149000Y107656000D03*
%TO.P,Q22,2,S*%
%TO.N,GND*%
X67249000Y107656000D03*
%TO.P,Q22,3,D*%
%TO.N,Net-(Q22-D)*%
X68199000Y110276000D03*
%TD*%
%TO.P,Q21,1,G*%
%TO.N,Net-(Q21-G)*%
X42042000Y106426000D03*
%TO.P,Q21,2,S*%
%TO.N,GND*%
X43942000Y106426000D03*
%TO.P,Q21,3,D*%
%TO.N,Net-(Q21-D)*%
X42992000Y103806000D03*
%TD*%
%TO.P,Q20,1,G*%
%TO.N,Net-(Q20-G)*%
X15814000Y103291000D03*
%TO.P,Q20,2,S*%
%TO.N,GND*%
X17714000Y103291000D03*
%TO.P,Q20,3,D*%
%TO.N,Net-(Q20-D)*%
X16764000Y100671000D03*
%TD*%
%TO.P,Q13,1,G*%
%TO.N,Net-(Q13-G)*%
X126176040Y51217953D03*
%TO.P,Q13,2,S*%
%TO.N,GND*%
X128076040Y51217953D03*
%TO.P,Q13,3,D*%
%TO.N,Net-(Q13-D)*%
X127126040Y48597953D03*
%TD*%
%TO.P,Q12,1,G*%
%TO.N,Net-(Q12-G)*%
X101539000Y51221000D03*
%TO.P,Q12,2,S*%
%TO.N,GND*%
X103439000Y51221000D03*
%TO.P,Q12,3,D*%
%TO.N,Net-(Q12-D)*%
X102489000Y48601000D03*
%TD*%
%TO.P,Q11,1,G*%
%TO.N,Net-(Q11-G)*%
X77028000Y56428000D03*
%TO.P,Q11,2,S*%
%TO.N,GND*%
X78928000Y56428000D03*
%TO.P,Q11,3,D*%
%TO.N,Net-(Q11-D)*%
X77978000Y53808000D03*
%TD*%
%TO.P,Q10,1,G*%
%TO.N,Net-(Q10-G)*%
X62804000Y51221000D03*
%TO.P,Q10,2,S*%
%TO.N,GND*%
X64704000Y51221000D03*
%TO.P,Q10,3,D*%
%TO.N,Net-(Q10-D)*%
X63754000Y48601000D03*
%TD*%
%TO.P,Q9,1,G*%
%TO.N,Net-(Q9-G)*%
X38039000Y51221000D03*
%TO.P,Q9,2,S*%
%TO.N,GND*%
X39939000Y51221000D03*
%TO.P,Q9,3,D*%
%TO.N,Net-(Q9-D)*%
X38989000Y48601000D03*
%TD*%
%TO.P,Q8,1,G*%
%TO.N,Net-(Q8-G)*%
X13582162Y50648993D03*
%TO.P,Q8,2,S*%
%TO.N,GND*%
X15482162Y50648993D03*
%TO.P,Q8,3,D*%
%TO.N,Net-(Q8-D)*%
X14532162Y48028993D03*
%TD*%
%TO.P,Q31,1,G*%
%TO.N,Net-(Q31-G)*%
X119319000Y128056000D03*
%TO.P,Q31,2,S*%
%TO.N,GND*%
X121219000Y128056000D03*
%TO.P,Q31,3,D*%
%TO.N,Net-(Q31-D)*%
X120269000Y125436000D03*
%TD*%
%TO.P,Q30,1,G*%
%TO.N,Net-(Q30-G)*%
X95189000Y128056000D03*
%TO.P,Q30,2,S*%
%TO.N,GND*%
X97089000Y128056000D03*
%TO.P,Q30,3,D*%
%TO.N,Net-(Q30-D)*%
X96139000Y125436000D03*
%TD*%
%TO.P,Q29,1,G*%
%TO.N,Net-(Q29-G)*%
X72075000Y126786000D03*
%TO.P,Q29,2,S*%
%TO.N,GND*%
X73975000Y126786000D03*
%TO.P,Q29,3,D*%
%TO.N,Net-(Q29-D)*%
X73025000Y124166000D03*
%TD*%
%TO.P,Q28,1,G*%
%TO.N,Net-(Q28-G)*%
X67630000Y127294000D03*
%TO.P,Q28,2,S*%
%TO.N,GND*%
X69530000Y127294000D03*
%TO.P,Q28,3,D*%
%TO.N,Net-(Q28-D)*%
X68580000Y124674000D03*
%TD*%
%TO.P,Q27,1,G*%
%TO.N,Net-(Q27-G)*%
X44389000Y128056000D03*
%TO.P,Q27,2,S*%
%TO.N,GND*%
X46289000Y128056000D03*
%TO.P,Q27,3,D*%
%TO.N,Net-(Q27-D)*%
X45339000Y125436000D03*
%TD*%
%TO.P,Q26,1,G*%
%TO.N,Net-(Q26-G)*%
X20259000Y128056000D03*
%TO.P,Q26,2,S*%
%TO.N,GND*%
X22159000Y128056000D03*
%TO.P,Q26,3,D*%
%TO.N,Net-(Q26-D)*%
X21209000Y125436000D03*
%TD*%
%TO.P,Q19,1,G*%
%TO.N,Net-(Q19-G)*%
X123129000Y79161000D03*
%TO.P,Q19,2,S*%
%TO.N,GND*%
X125029000Y79161000D03*
%TO.P,Q19,3,D*%
%TO.N,Net-(Q19-D)*%
X124079000Y76541000D03*
%TD*%
%TO.P,Q18,1,G*%
%TO.N,Net-(Q18-G)*%
X98999000Y79161000D03*
%TO.P,Q18,2,S*%
%TO.N,GND*%
X100899000Y79161000D03*
%TO.P,Q18,3,D*%
%TO.N,Net-(Q18-D)*%
X99949000Y76541000D03*
%TD*%
%TO.P,Q17,1,G*%
%TO.N,Net-(Q17-G)*%
X74869000Y79161000D03*
%TO.P,Q17,2,S*%
%TO.N,GND*%
X76769000Y79161000D03*
%TO.P,Q17,3,D*%
%TO.N,Net-(Q17-D)*%
X75819000Y76541000D03*
%TD*%
%TO.P,Q16,1,G*%
%TO.N,Net-(Q16-G)*%
X64709000Y79161000D03*
%TO.P,Q16,2,S*%
%TO.N,GND*%
X66609000Y79161000D03*
%TO.P,Q16,3,D*%
%TO.N,Net-(Q16-D)*%
X65659000Y76541000D03*
%TD*%
%TO.P,Q15,1,G*%
%TO.N,Net-(Q15-G)*%
X40579000Y79161000D03*
%TO.P,Q15,2,S*%
%TO.N,GND*%
X42479000Y79161000D03*
%TO.P,Q15,3,D*%
%TO.N,Net-(Q15-D)*%
X41529000Y76541000D03*
%TD*%
%TO.P,Q14,1,G*%
%TO.N,Net-(Q14-G)*%
X16449000Y79161000D03*
%TO.P,Q14,2,S*%
%TO.N,GND*%
X18349000Y79161000D03*
%TO.P,Q14,3,D*%
%TO.N,Net-(Q14-D)*%
X17399000Y76541000D03*
%TD*%
D34*
%TO.P,R16,1*%
%TO.N,Net-(U2-U0TXD{slash}GPIO43{slash}CLK_OUT1)*%
X48831000Y1556000D03*
%TO.P,R16,2*%
%TO.N,/control/ESP_PROG.TX*%
X47181000Y1556000D03*
%TD*%
D27*
%TO.P,C5,1*%
%TO.N,+3V3*%
X104394000Y11925000D03*
%TO.P,C5,2*%
%TO.N,GND*%
X104394000Y13475000D03*
%TD*%
D39*
%TO.P,TP8,1,1*%
%TO.N,/control/I2C.SCL*%
X54610000Y-2032000D03*
%TD*%
D40*
%TO.P,C10,2*%
%TO.N,GND*%
X53848000Y13003000D03*
%TO.P,C10,1*%
%TO.N,/control/ESP_PROG.EN*%
X53848000Y15953000D03*
%TD*%
D33*
%TO.P,R4,1*%
%TO.N,/control/JTAG.TCK*%
X86043000Y2032000D03*
%TO.P,R4,2*%
%TO.N,Net-(J3-Pad04)*%
X87693000Y2032000D03*
%TD*%
D34*
%TO.P,R12,2*%
%TO.N,GND*%
X123889000Y17526000D03*
%TO.P,R12,1*%
%TO.N,VBUS*%
X125539000Y17526000D03*
%TD*%
D41*
%TO.P,U1,1,VI*%
%TO.N,/power/5V_COMB*%
X113044000Y12344000D03*
%TO.P,U1,2,GND*%
%TO.N,GND*%
X110744000Y12344000D03*
%TO.P,U1,3,VO*%
%TO.N,+3V3*%
X108444000Y12344000D03*
D42*
%TO.P,U1,4,GND*%
%TO.N,GND*%
X110744000Y18644000D03*
%TD*%
D28*
%TO.P,C8,1*%
%TO.N,/control/ESP_PROG.EN*%
X51562000Y16015000D03*
%TO.P,C8,2*%
%TO.N,GND*%
X51562000Y14465000D03*
%TD*%
D33*
%TO.P,R18,1*%
%TO.N,/control/USB_P*%
X133033000Y13208000D03*
%TO.P,R18,2*%
%TO.N,/control/USB.P*%
X134683000Y13208000D03*
%TD*%
D39*
%TO.P,TP1,1,1*%
%TO.N,Net-(J5-P3-Pad4)*%
X25654000Y21082000D03*
%TD*%
%TO.P,TP6,1,1*%
%TO.N,/control/SR.CLOCK*%
X65024000Y154432000D03*
%TD*%
D33*
%TO.P,R3,1*%
%TO.N,/control/JTAG.TMS*%
X86043000Y3810000D03*
%TO.P,R3,2*%
%TO.N,Net-(J3-Pad02)*%
X87693000Y3810000D03*
%TD*%
D34*
%TO.P,R20,1*%
%TO.N,Net-(U2-GPIO17{slash}U1TXD{slash}ADC2_CH6)*%
X45529000Y12192000D03*
%TO.P,R20,2*%
%TO.N,Net-(U3-RO)*%
X43879000Y12192000D03*
%TD*%
D43*
%TO.P,U3,1,RO*%
%TO.N,Net-(U3-RO)*%
X40829000Y12065000D03*
%TO.P,U3,2,~{RE}*%
%TO.N,Net-(U3-~{RE})*%
X40829000Y10795000D03*
%TO.P,U3,3,DE*%
%TO.N,Net-(U2-GPIO21)*%
X40829000Y9525000D03*
%TO.P,U3,4,DI*%
X40829000Y8255000D03*
%TO.P,U3,5,GND*%
%TO.N,GND*%
X35879000Y8255000D03*
%TO.P,U3,6,A*%
%TO.N,/control/DMX.P*%
X35879000Y9525000D03*
%TO.P,U3,7,B*%
%TO.N,/control/DMX.N*%
X35879000Y10795000D03*
%TO.P,U3,8,VCC*%
%TO.N,+5V*%
X35879000Y12065000D03*
%TD*%
D39*
%TO.P,TP9,1,1*%
%TO.N,/control/I2C.SCK*%
X50800000Y-2032000D03*
%TD*%
D33*
%TO.P,R5,1*%
%TO.N,/control/JTAG.TDO*%
X86043000Y254000D03*
%TO.P,R5,2*%
%TO.N,Net-(J3-Pad06)*%
X87693000Y254000D03*
%TD*%
D34*
%TO.P,R15,1*%
%TO.N,+3V3*%
X92265000Y9652000D03*
%TO.P,R15,2*%
%TO.N,Net-(D3-A)*%
X90615000Y9652000D03*
%TD*%
D33*
%TO.P,R19,1*%
%TO.N,/control/USB_N*%
X133033000Y15240000D03*
%TO.P,R19,2*%
%TO.N,/control/USB.N*%
X134683000Y15240000D03*
%TD*%
D39*
%TO.P,TP4,1,1*%
%TO.N,/control/ESP_IO14*%
X86868000Y6096000D03*
%TD*%
%TO.P,TP5,1,1*%
%TO.N,/control/SR.LATCH*%
X65024000Y156972000D03*
%TD*%
%TO.P,TP2,1,1*%
%TO.N,Net-(J5-P5)*%
X22606000Y21082000D03*
%TD*%
D40*
%TO.P,C4,1*%
%TO.N,+3V3*%
X108458000Y9603000D03*
%TO.P,C4,2*%
%TO.N,GND*%
X108458000Y6653000D03*
%TD*%
D44*
%TO.P,Q1,1,G*%
%TO.N,VBUS*%
X125143500Y10856000D03*
%TO.P,Q1,2,S*%
%TO.N,/power/5V_COMB*%
X125143500Y8956000D03*
%TO.P,Q1,3,D*%
%TO.N,+5V*%
X123268500Y9906000D03*
%TD*%
D30*
%TO.P,R7,1*%
%TO.N,Net-(J2-CC2)*%
X135890000Y9207000D03*
%TO.P,R7,2*%
%TO.N,GND*%
X135890000Y7557000D03*
%TD*%
D34*
%TO.P,R17,1*%
%TO.N,Net-(U2-U0RXD{slash}GPIO44{slash}CLK_OUT2)*%
X48831000Y3334000D03*
%TO.P,R17,2*%
%TO.N,/control/ESP_PROG.RX*%
X47181000Y3334000D03*
%TD*%
D39*
%TO.P,TP7,1,1*%
%TO.N,/control/SR.DATA*%
X65024000Y22352000D03*
%TD*%
D32*
%TO.P,R14,1*%
%TO.N,+3V3*%
X49276000Y14415000D03*
%TO.P,R14,2*%
%TO.N,/control/ESP_PROG.EN*%
X49276000Y16065000D03*
%TD*%
D34*
%TO.P,R11,1*%
%TO.N,+5V*%
X126809000Y6604000D03*
%TO.P,R11,2*%
%TO.N,/power/5V_COMB*%
X125159000Y6604000D03*
%TD*%
D39*
%TO.P,TP3,1,1*%
%TO.N,+3V3*%
X95504000Y8636000D03*
%TD*%
D27*
%TO.P,C2,1*%
%TO.N,/power/5V_COMB*%
X116840000Y11671000D03*
%TO.P,C2,2*%
%TO.N,GND*%
X116840000Y13221000D03*
%TD*%
D45*
%TO.P,D3,1,K*%
%TO.N,/control/ESP_IO13*%
X86692500Y9652000D03*
%TO.P,D3,2,A*%
%TO.N,Net-(D3-A)*%
X88567500Y9652000D03*
%TD*%
D30*
%TO.P,R2,2*%
%TO.N,/io/USB_SHIELD_GND*%
X141986000Y20765000D03*
%TO.P,R2,1*%
%TO.N,GND*%
X141986000Y22415000D03*
%TD*%
%TO.P,R22,1*%
%TO.N,+3V3*%
X52832000Y-445000D03*
%TO.P,R22,2*%
%TO.N,/control/I2C.SCL*%
X52832000Y-2095000D03*
%TD*%
D40*
%TO.P,C3,1*%
%TO.N,/power/5V_COMB*%
X113030000Y9349000D03*
%TO.P,C3,2*%
%TO.N,GND*%
X113030000Y6399000D03*
%TD*%
D30*
%TO.P,R23,1*%
%TO.N,+3V3*%
X49022000Y-445000D03*
%TO.P,R23,2*%
%TO.N,/control/I2C.SCK*%
X49022000Y-2095000D03*
%TD*%
D34*
%TO.P,R21,1*%
%TO.N,Net-(U2-GPIO18{slash}U1RXD{slash}ADC2_CH7{slash}CLK_OUT3)*%
X45529000Y10414000D03*
%TO.P,R21,2*%
%TO.N,Net-(U3-~{RE})*%
X43879000Y10414000D03*
%TD*%
D40*
%TO.P,C1,1*%
%TO.N,/power/5V_COMB*%
X115824000Y9349000D03*
%TO.P,C1,2*%
%TO.N,GND*%
X115824000Y6399000D03*
%TD*%
D32*
%TO.P,R13,1*%
%TO.N,+3V3*%
X101854000Y11875000D03*
%TO.P,R13,2*%
%TO.N,Net-(D2-A)*%
X101854000Y13525000D03*
%TD*%
D40*
%TO.P,C6,1*%
%TO.N,+3V3*%
X105664000Y9603000D03*
%TO.P,C6,2*%
%TO.N,GND*%
X105664000Y6653000D03*
%TD*%
D46*
%TO.P,J1,2,Pin_2*%
%TO.N,+5V*%
X127005000Y773000D03*
D47*
%TO.P,J1,1,Pin_1*%
%TO.N,GND*%
X129545000Y773000D03*
%TD*%
D48*
%TO.P,D2,1,K*%
%TO.N,GND*%
X101854000Y17447500D03*
%TO.P,D2,2,A*%
%TO.N,Net-(D2-A)*%
X101854000Y15572500D03*
%TD*%
D33*
%TO.P,R6,1*%
%TO.N,/control/JTAG.TDI*%
X86043000Y-1524000D03*
%TO.P,R6,2*%
%TO.N,Net-(J3-Pad08)*%
X87693000Y-1524000D03*
%TD*%
D49*
%TO.P,D1,1,K*%
%TO.N,/power/5V_COMB*%
X122806000Y14986000D03*
%TO.P,D1,2,A*%
%TO.N,VBUS*%
X125606000Y14986000D03*
%TD*%
D32*
%TO.P,R8,1*%
%TO.N,Net-(J2-CC1)*%
X135890000Y18225000D03*
%TO.P,R8,2*%
%TO.N,GND*%
X135890000Y19875000D03*
%TD*%
D50*
%TO.P,J4,1,Pin_1*%
%TO.N,/control/ESP_PROG.EN*%
X41788000Y-1524000D03*
D51*
%TO.P,J4,2,Pin_2*%
%TO.N,/control/ESP_PROG.IO0*%
X43058000Y-1524000D03*
%TO.P,J4,3,Pin_3*%
%TO.N,/control/ESP_PROG.RX*%
X44328000Y-1524000D03*
%TO.P,J4,4,Pin_4*%
%TO.N,/control/ESP_PROG.TX*%
X45598000Y-1524000D03*
%TD*%
D38*
%TO.P,R25,1*%
%TO.N,Net-(D4-K)*%
X5776500Y24511000D03*
%TO.P,R25,2*%
%TO.N,Net-(Q2-D)*%
X8701500Y24511000D03*
%TD*%
D36*
%TO.P,R35,1*%
%TO.N,Net-(D9-K)*%
X136336500Y25146000D03*
%TO.P,R35,2*%
%TO.N,Net-(Q7-D)*%
X133411500Y25146000D03*
%TD*%
D33*
%TO.P,R30,1*%
%TO.N,Net-(Q5-G)*%
X77534000Y32766000D03*
%TO.P,R30,2*%
%TO.N,GND*%
X79184000Y32766000D03*
%TD*%
D31*
%TO.P,Q2,1,G*%
%TO.N,Net-(Q2-G)*%
X10099000Y30266000D03*
%TO.P,Q2,2,S*%
%TO.N,GND*%
X11999000Y30266000D03*
%TO.P,Q2,3,D*%
%TO.N,Net-(Q2-D)*%
X11049000Y27646000D03*
%TD*%
D33*
%TO.P,R32,1*%
%TO.N,Net-(Q6-G)*%
X103569000Y32766000D03*
%TO.P,R32,2*%
%TO.N,GND*%
X105219000Y32766000D03*
%TD*%
D36*
%TO.P,R31,1*%
%TO.N,Net-(D7-K)*%
X83631500Y25146000D03*
%TO.P,R31,2*%
%TO.N,Net-(Q5-D)*%
X80706500Y25146000D03*
%TD*%
D31*
%TO.P,Q7,1,G*%
%TO.N,Net-(Q7-G)*%
X128844000Y28996000D03*
%TO.P,Q7,2,S*%
%TO.N,GND*%
X130744000Y28996000D03*
%TO.P,Q7,3,D*%
%TO.N,Net-(Q7-D)*%
X129794000Y26376000D03*
%TD*%
D33*
%TO.P,R28,1*%
%TO.N,Net-(Q4-G)*%
X62929000Y32766000D03*
%TO.P,R28,2*%
%TO.N,GND*%
X64579000Y32766000D03*
%TD*%
D31*
%TO.P,Q4,1,G*%
%TO.N,Net-(Q4-G)*%
X62804000Y30266000D03*
%TO.P,Q4,2,S*%
%TO.N,GND*%
X64704000Y30266000D03*
%TO.P,Q4,3,D*%
%TO.N,Net-(Q4-D)*%
X63754000Y27646000D03*
%TD*%
D38*
%TO.P,R27,1*%
%TO.N,Net-(D5-K)*%
X31811500Y25146000D03*
%TO.P,R27,2*%
%TO.N,Net-(Q3-D)*%
X34736500Y25146000D03*
%TD*%
D31*
%TO.P,Q6,1,G*%
%TO.N,Net-(Q6-G)*%
X103444000Y30266000D03*
%TO.P,Q6,2,S*%
%TO.N,GND*%
X105344000Y30266000D03*
%TO.P,Q6,3,D*%
%TO.N,Net-(Q6-D)*%
X104394000Y27646000D03*
%TD*%
D35*
%TO.P,U5,16,VCC*%
%TO.N,+5V*%
X67876500Y26151000D03*
%TO.P,U5,15,QA*%
%TO.N,Net-(Q2-G)*%
X67876500Y25501000D03*
%TO.P,U5,14,SER*%
%TO.N,/control/SR.DATA*%
X67876500Y24851000D03*
%TO.P,U5,13,~{OE}*%
%TO.N,GND*%
X67876500Y24201000D03*
%TO.P,U5,12,RCLK*%
%TO.N,/control/SR.LATCH*%
X67876500Y23551000D03*
%TO.P,U5,11,SRCLK*%
%TO.N,/control/SR.CLOCK*%
X67876500Y22901000D03*
%TO.P,U5,10,~{SRCLR}*%
%TO.N,+5V*%
X67876500Y22251000D03*
%TO.P,U5,9,QH'*%
%TO.N,Net-(U4-SER)*%
X67876500Y21601000D03*
%TO.P,U5,8,GND*%
%TO.N,GND*%
X73601500Y21601000D03*
%TO.P,U5,7,QH*%
%TO.N,unconnected-(U5-QH-Pad7)*%
X73601500Y22251000D03*
%TO.P,U5,6,QG*%
%TO.N,unconnected-(U5-QG-Pad6)*%
X73601500Y22901000D03*
%TO.P,U5,5,QF*%
%TO.N,Net-(Q7-G)*%
X73601500Y23551000D03*
%TO.P,U5,4,QE*%
%TO.N,Net-(Q6-G)*%
X73601500Y24201000D03*
%TO.P,U5,3,QD*%
%TO.N,Net-(Q5-G)*%
X73601500Y24851000D03*
%TO.P,U5,2,QC*%
%TO.N,Net-(Q4-G)*%
X73601500Y25501000D03*
%TO.P,U5,1,QB*%
%TO.N,Net-(Q3-G)*%
X73601500Y26151000D03*
%TD*%
D33*
%TO.P,R24,1*%
%TO.N,Net-(Q2-G)*%
X10224000Y32766000D03*
%TO.P,R24,2*%
%TO.N,GND*%
X11874000Y32766000D03*
%TD*%
%TO.P,R26,1*%
%TO.N,Net-(Q3-G)*%
X36894000Y32766000D03*
%TO.P,R26,2*%
%TO.N,GND*%
X38544000Y32766000D03*
%TD*%
D31*
%TO.P,Q3,1,G*%
%TO.N,Net-(Q3-G)*%
X36769000Y30266000D03*
%TO.P,Q3,2,S*%
%TO.N,GND*%
X38669000Y30266000D03*
%TO.P,Q3,3,D*%
%TO.N,Net-(Q3-D)*%
X37719000Y27646000D03*
%TD*%
D36*
%TO.P,R33,1*%
%TO.N,Net-(D8-K)*%
X109666500Y25146000D03*
%TO.P,R33,2*%
%TO.N,Net-(Q6-D)*%
X106741500Y25146000D03*
%TD*%
D31*
%TO.P,Q5,1,G*%
%TO.N,Net-(Q5-G)*%
X77409000Y30266000D03*
%TO.P,Q5,2,S*%
%TO.N,GND*%
X79309000Y30266000D03*
%TO.P,Q5,3,D*%
%TO.N,Net-(Q5-D)*%
X78359000Y27646000D03*
%TD*%
D38*
%TO.P,R29,1*%
%TO.N,Net-(D6-K)*%
X57846500Y25146000D03*
%TO.P,R29,2*%
%TO.N,Net-(Q4-D)*%
X60771500Y25146000D03*
%TD*%
D33*
%TO.P,R34,1*%
%TO.N,Net-(Q7-G)*%
X128969000Y31496000D03*
%TO.P,R34,2*%
%TO.N,GND*%
X130619000Y31496000D03*
%TD*%
D52*
%TO.N,+5V*%
X76454000Y37280000D03*
%TO.N,GND*%
X76708000Y40924400D03*
X73152000Y150114000D03*
%TO.N,+5V*%
X74930000Y147165800D03*
%TO.N,GND*%
X73152000Y144018000D03*
%TO.N,+5V*%
X74930000Y89154000D03*
%TO.N,GND*%
X76649500Y94711600D03*
X17526000Y161290000D03*
X43942000Y161036000D03*
X70866000Y161036000D03*
X71374000Y157226000D03*
X72390000Y155448000D03*
%TO.N,+5V*%
X66802000Y154178000D03*
%TO.N,GND*%
X68834000Y164338000D03*
%TO.N,+5V*%
X66802000Y161290000D03*
%TO.N,GND*%
X72644000Y166878000D03*
X98552000Y161036000D03*
X124714000Y161036000D03*
X23876000Y131826000D03*
X48514000Y131572000D03*
%TO.N,+5V*%
X66802000Y117348000D03*
X66802000Y123698000D03*
%TO.N,GND*%
X72136000Y119380000D03*
%TO.N,/display/led_row_2_3/LED_SER_OUT*%
X69880400Y119888250D03*
%TO.N,GND*%
X69342000Y132334000D03*
X72136000Y131826000D03*
X93472000Y131826000D03*
X117856000Y131826000D03*
X19812000Y107442000D03*
X46736000Y109982000D03*
%TO.N,Net-(P21-Pad1)*%
X58674000Y101600000D03*
X58674000Y99314000D03*
%TO.N,+5V*%
X66802000Y66294000D03*
%TO.N,GND*%
X72613600Y64516000D03*
X71912400Y71374000D03*
%TO.N,+5V*%
X66802000Y70104000D03*
X66802000Y98552000D03*
X66802000Y102362000D03*
%TO.N,GND*%
X72136000Y97790000D03*
X69342000Y111760000D03*
X69342000Y102362000D03*
X72136000Y112014000D03*
X96520000Y107188000D03*
X121920000Y107188000D03*
X42418000Y54610000D03*
X18288000Y54356000D03*
X20574000Y83312000D03*
X45212000Y83312000D03*
X96266000Y83058000D03*
X120396000Y83312000D03*
%TO.N,+5V*%
X66802000Y51562000D03*
X66548000Y26162000D03*
X66294000Y22352000D03*
X74930000Y20320000D03*
X66802000Y47752000D03*
%TO.N,GND*%
X71912400Y49530000D03*
X69565600Y54864000D03*
X72390000Y61214000D03*
X99314000Y55372000D03*
X124714000Y55372000D03*
X15494000Y23876000D03*
X42926000Y23876000D03*
X62230000Y-1270000D03*
X61976000Y16256000D03*
X77216000Y21590000D03*
X72136000Y27686000D03*
X67056000Y30226000D03*
X99568000Y23876000D03*
X125222000Y23622000D03*
%TO.N,Net-(U2-GPIO21)*%
X43942000Y4318000D03*
X42164000Y6096000D03*
%TO.N,+5V*%
X8382000Y148336000D03*
%TO.N,Net-(D28-K)*%
X10922000Y124968000D03*
X10361800Y133242322D03*
%TO.N,Net-(D29-K)*%
X34798000Y125222000D03*
X34548720Y133359442D03*
%TO.N,Net-(D30-K)*%
X58928000Y124968000D03*
X58735640Y133359442D03*
%TO.N,Net-(D31-K)*%
X82931000Y124841000D03*
X82922560Y133359442D03*
%TO.N,Net-(D32-K)*%
X106680000Y124460000D03*
X107109480Y133359442D03*
%TO.N,Net-(D33-K)*%
X131318000Y133350000D03*
X130810000Y124460000D03*
%TO.N,Net-(D27-K)*%
X132842000Y99822000D03*
X133858000Y105664000D03*
%TO.N,Net-(D26-K)*%
X108458000Y105918000D03*
X107950000Y99314000D03*
%TO.N,Net-(D25-K)*%
X83312000Y105664000D03*
X77470000Y114046000D03*
%TO.N,Net-(D24-K)*%
X64262000Y114300000D03*
X58166000Y105664000D03*
%TO.N,Net-(D23-K)*%
X37338000Y101092000D03*
X33274000Y105918000D03*
%TO.N,Net-(D22-K)*%
X9398000Y99822000D03*
X7861802Y105588643D03*
%TO.N,+5V*%
X36830000Y21590000D03*
%TO.N,GND*%
X72136000Y140970000D03*
X71912400Y82804000D03*
X72613600Y36068000D03*
%TO.N,+5V*%
X135128000Y167640000D03*
X109474000Y167640000D03*
X83820000Y167640000D03*
X57912000Y167609600D03*
X32258000Y167640000D03*
X6604000Y167640000D03*
X10414000Y138430000D03*
X34798000Y138684000D03*
X58674000Y138684000D03*
X82804000Y138684000D03*
X107188000Y138684000D03*
X131296402Y138584562D03*
X133604000Y110998000D03*
X108712000Y110998000D03*
X83566000Y111252000D03*
X58420000Y111252000D03*
X33020000Y110998000D03*
X7874000Y110744000D03*
X9906000Y92202000D03*
X34290000Y92202000D03*
X57150000Y92202000D03*
X83566000Y91409600D03*
X107188000Y91917600D03*
X131260000Y92202000D03*
X133604000Y61976000D03*
X108712000Y61976000D03*
X83312000Y61976000D03*
X49022000Y57404000D03*
X33020000Y61976000D03*
X8128000Y61976000D03*
X57404000Y37280000D03*
X31496000Y37280000D03*
X5392000Y37280000D03*
X84582000Y37280000D03*
X110490000Y37280000D03*
X136398000Y37338000D03*
X74930000Y29210000D03*
X66802000Y34036000D03*
X66802000Y34798000D03*
X66802000Y35560000D03*
X74930000Y31496000D03*
X74930000Y30734000D03*
X74930000Y29972000D03*
%TO.N,GND*%
X135890000Y6350000D03*
X64008000Y21336000D03*
X62230000Y21336000D03*
X35814000Y7112000D03*
X51816000Y12954000D03*
X73914000Y9906000D03*
X68834000Y9906000D03*
X68834000Y6604000D03*
X73914000Y6604000D03*
X98298000Y-2032000D03*
X98298000Y-254000D03*
X98298000Y1270000D03*
X115824000Y5080000D03*
X113030000Y5080000D03*
X108458000Y5080000D03*
X105664000Y5080000D03*
X103378000Y17526000D03*
X104394000Y14986000D03*
X107950000Y15748000D03*
X109812666Y15748000D03*
X111675332Y15748000D03*
X113538000Y15748000D03*
X116840000Y14732000D03*
X122936000Y17526000D03*
X135890000Y20828000D03*
X143510000Y23368000D03*
X141986000Y23368000D03*
X137668000Y10448900D03*
X137668000Y16916000D03*
%TO.N,/control/ESP_PROG.EN*%
X47752000Y16002000D03*
%TO.N,/control/SR.LATCH*%
X70358000Y17780000D03*
%TO.N,+3V3*%
X46736000Y14478000D03*
X77724000Y18542000D03*
X81788000Y18542000D03*
%TO.N,/control/SR.CLOCK*%
X69088000Y17780000D03*
%TO.N,/control/SR.DATA*%
X66548000Y20320000D03*
X67310000Y17780000D03*
%TO.N,/control/I2C.SCL*%
X65278000Y508000D03*
%TO.N,/control/I2C.SCK*%
X66294000Y254000D03*
%TO.N,+3V3*%
X47498000Y0D03*
%TO.N,/control/JTAG.TDI*%
X84074000Y-1524000D03*
X72136000Y254000D03*
%TO.N,/control/JTAG.TDO*%
X73660000Y762000D03*
X83820000Y254000D03*
%TO.N,/control/JTAG.TCK*%
X75453200Y1493600D03*
X84074000Y2032000D03*
%TO.N,/control/JTAG.TMS*%
X70104000Y508000D03*
X84074000Y3810000D03*
%TO.N,VBUS*%
X136906000Y11684000D03*
X136906000Y15748000D03*
%TO.N,/control/I2C.SCL*%
X68549100Y85598000D03*
%TO.N,/control/I2C.SCK*%
X73152000Y84836000D03*
X73152000Y34036000D03*
X73152000Y142494000D03*
%TO.N,/control/I2C.SCL*%
X68549100Y35814000D03*
X69088000Y143256000D03*
%TO.N,Net-(U8-SER)*%
X69342000Y158242000D03*
X69342000Y117348000D03*
%TO.N,/display/led_row_2_3/LED_SER_OUT*%
X69342000Y98044000D03*
%TO.N,Net-(U6-SER)*%
X69880400Y100838000D03*
X69342000Y66294000D03*
%TO.N,/display/led_row_0_1/LED_SER_OUT*%
X69880400Y68580000D03*
X69088000Y47244000D03*
%TO.N,Net-(U4-SER)*%
X70104000Y50038000D03*
X69342000Y21601000D03*
%TO.N,/control/SR.LATCH*%
X71374000Y117856000D03*
%TO.N,/control/SR.CLOCK*%
X70835100Y117094000D03*
%TO.N,/control/SR.LATCH*%
X71374000Y99060000D03*
%TO.N,/control/SR.CLOCK*%
X70835100Y98298000D03*
%TO.N,/control/SR.LATCH*%
X71374000Y67564000D03*
%TO.N,/control/SR.CLOCK*%
X70835600Y66802000D03*
X70835100Y47752000D03*
X70835600Y154940000D03*
X70738707Y22860000D03*
%TO.N,/control/SR.LATCH*%
X71374000Y48260000D03*
X71374000Y155448000D03*
X71374000Y23622000D03*
%TO.N,Net-(P36-Pad1)*%
X135382000Y153924000D03*
%TO.N,Net-(P35-Pad1)*%
X109728000Y153924000D03*
%TO.N,Net-(P34-Pad1)*%
X83566000Y153924000D03*
%TO.N,Net-(P32-Pad1)*%
X32004000Y153924000D03*
%TO.N,Net-(P33-Pad1)*%
X57912000Y154432000D03*
%TO.N,Net-(P31-Pad1)*%
X6350000Y153924000D03*
%TO.N,Net-(P13-Pad1)*%
X10414000Y90170000D03*
%TO.N,Net-(P14-Pad1)*%
X34290000Y90424000D03*
%TO.N,Net-(P15-Pad1)*%
X57912000Y90424000D03*
%TO.N,Net-(P16-Pad1)*%
X82804000Y90424000D03*
%TO.N,Net-(P17-Pad1)*%
X107188000Y90424000D03*
%TO.N,Net-(P18-Pad1)*%
X131318000Y90424000D03*
%TO.N,Net-(P22-Pad1)*%
X83058000Y101854000D03*
X83058000Y99060000D03*
%TO.N,Net-(P4-Pad1)*%
X83820000Y35560000D03*
%TO.N,Net-(P6-Pad1)*%
X136144000Y35560000D03*
%TO.N,Net-(P5-Pad1)*%
X109982000Y35560000D03*
%TO.N,Net-(P1-Pad1)*%
X5334000Y35052000D03*
%TO.N,Net-(P2-Pad1)*%
X31750000Y35560000D03*
%TO.N,Net-(P3-Pad1)*%
X57912000Y35560000D03*
%TO.N,Net-(P7-Pad1)*%
X6858000Y46482000D03*
%TO.N,Net-(P8-Pad1)*%
X31750000Y46736000D03*
%TO.N,Net-(P9-Pad1)*%
X56642000Y46736000D03*
%TO.N,Net-(P12-Pad1)*%
X135128000Y46482000D03*
%TO.N,Net-(P11-Pad1)*%
X109982000Y46736000D03*
%TO.N,Net-(P10-Pad1)*%
X83312000Y46197600D03*
%TD*%
D53*
%TO.N,/control/CAP_CHANGE.2*%
X-3048000Y128778000D02*
X-3048000Y143510000D01*
%TO.N,Net-(U12-KEY9{slash}GPO7)*%
X67941000Y145727500D02*
X67124500Y145727500D01*
X67124500Y145727500D02*
X64516000Y148336000D01*
X64516000Y148336000D02*
X58737000Y148336000D01*
X58737000Y148336000D02*
X58674000Y148399000D01*
%TO.N,Net-(U12-KEY10{slash}GPO8)*%
X68591000Y145727500D02*
X68591000Y146801000D01*
X68591000Y146801000D02*
X68072000Y147320000D01*
X36068000Y148336000D02*
X34607000Y148336000D01*
X68072000Y147320000D02*
X66775710Y147320000D01*
X34607000Y148336000D02*
X34544000Y148399000D01*
X66775710Y147320000D02*
X64743710Y149352000D01*
X64743710Y149352000D02*
X37084000Y149352000D01*
X37084000Y149352000D02*
X36068000Y148336000D01*
%TO.N,Net-(U12-KEY11{slash}GPO9)*%
X64900200Y149729800D02*
X23999800Y149729800D01*
X69241000Y147167000D02*
X68580000Y147828000D01*
X69241000Y145727500D02*
X69241000Y147167000D01*
X21336000Y147066000D02*
X20129000Y147066000D01*
X68580000Y147828000D02*
X66802000Y147828000D01*
X66802000Y147828000D02*
X64900200Y149729800D01*
X23999800Y149729800D02*
X21336000Y147066000D01*
%TO.N,/control/CAP_CHANGE.2*%
X69891000Y147051290D02*
X68606290Y148336000D01*
X66828290Y148336000D02*
X65056690Y150107600D01*
X69891000Y145727500D02*
X69891000Y147051290D01*
X65056690Y150107600D02*
X3549600Y150107600D01*
X68606290Y148336000D02*
X66828290Y148336000D01*
X3549600Y150107600D02*
X-3048000Y143510000D01*
D54*
%TO.N,GND*%
X73977000Y129985000D02*
X73977000Y129286000D01*
X72136000Y131826000D02*
X73977000Y129985000D01*
X69342000Y129794000D02*
X69342000Y132334000D01*
X69565600Y54864000D02*
X69565600Y54894400D01*
X69565600Y54894400D02*
X68834000Y55626000D01*
X65278000Y55626000D02*
X64579000Y54927000D01*
X68834000Y55626000D02*
X65278000Y55626000D01*
X64579000Y54927000D02*
X64579000Y53721000D01*
X69609000Y53340000D02*
X69609000Y54851000D01*
X69609000Y54851000D02*
X69596000Y54864000D01*
D53*
%TO.N,Net-(Q10-G)*%
X73601500Y50901000D02*
X72289000Y50901000D01*
X71374000Y51816000D02*
X71374000Y54864000D01*
X72289000Y50901000D02*
X71374000Y51816000D01*
X71374000Y54864000D02*
X69596000Y56642000D01*
X65024000Y56642000D02*
X62929000Y54547000D01*
X69596000Y56642000D02*
X65024000Y56642000D01*
X62929000Y54547000D02*
X62929000Y53721000D01*
%TO.N,Net-(U2-GPIO21)*%
X40829000Y7431000D02*
X42164000Y6096000D01*
X40829000Y8255000D02*
X40829000Y7431000D01*
D54*
%TO.N,+5V*%
X125785185Y9906000D02*
X123268500Y9906000D01*
X126809000Y8882185D02*
X125785185Y9906000D01*
X126809000Y6604000D02*
X126809000Y8882185D01*
X127005000Y773000D02*
X127005000Y6408000D01*
X127005000Y6408000D02*
X126809000Y6604000D01*
D53*
X74930000Y37605000D02*
X76129000Y37605000D01*
X76129000Y37605000D02*
X76454000Y37280000D01*
X73283000Y37523500D02*
X74848500Y37523500D01*
X74848500Y37523500D02*
X74930000Y37605000D01*
%TO.N,GND*%
X73283000Y43248500D02*
X73283000Y41779000D01*
X74137600Y40924400D02*
X76708000Y40924400D01*
X73283000Y41779000D02*
X74137600Y40924400D01*
%TO.N,Net-(U10-KEY0)*%
X72633000Y43248500D02*
X72633000Y41159000D01*
X127254000Y44704000D02*
X129477000Y44704000D01*
X72633000Y41159000D02*
X73406000Y40386000D01*
X73406000Y40386000D02*
X122936000Y40386000D01*
X122936000Y40386000D02*
X127254000Y44704000D01*
%TO.N,GND*%
X73152000Y150114000D02*
X73791000Y150753000D01*
X73791000Y150753000D02*
X73791000Y151452500D01*
%TO.N,+5V*%
X75438000Y145809000D02*
X75438000Y146657800D01*
X75438000Y146657800D02*
X74930000Y147165800D01*
%TO.N,GND*%
X73152000Y144780000D02*
X73152000Y144018000D01*
X73141000Y144791000D02*
X73152000Y144780000D01*
%TO.N,Net-(Q5-G)*%
X77534000Y32766000D02*
X77409000Y32641000D01*
X77409000Y32641000D02*
X77409000Y30266000D01*
%TO.N,Net-(Q7-G)*%
X128969000Y31496000D02*
X128844000Y31371000D01*
X128844000Y31371000D02*
X128844000Y28996000D01*
%TO.N,Net-(Q6-G)*%
X103569000Y32766000D02*
X103444000Y32641000D01*
X103444000Y32641000D02*
X103444000Y30266000D01*
%TO.N,Net-(D12-K)*%
X58235640Y50749765D02*
X58166000Y50680125D01*
X58166000Y50680125D02*
X58166000Y49276000D01*
X58166000Y49276000D02*
X57912000Y49022000D01*
X57912000Y49022000D02*
X57912000Y47432500D01*
X57912000Y47432500D02*
X57973500Y47371000D01*
%TO.N,GND*%
X78928000Y56428000D02*
X78928000Y58803000D01*
X78928000Y58803000D02*
X78803000Y58928000D01*
%TO.N,+5V*%
X75692000Y88392000D02*
X74930000Y89154000D01*
X75692000Y87643000D02*
X75692000Y88392000D01*
%TO.N,GND*%
X73664000Y93540500D02*
X75478400Y93540500D01*
X75478400Y93540500D02*
X76649500Y94711600D01*
%TO.N,Net-(Q21-D)*%
X42992000Y101666000D02*
X42672000Y101346000D01*
X42992000Y103806000D02*
X42992000Y101666000D01*
X42672000Y101346000D02*
X41910000Y101346000D01*
%TO.N,Net-(Q27-G)*%
X44514000Y130556000D02*
X44389000Y130431000D01*
X44389000Y130431000D02*
X44389000Y128056000D01*
%TO.N,Net-(Q32-G)*%
X13399000Y159766000D02*
X13274000Y159641000D01*
X13274000Y159641000D02*
X13274000Y157266000D01*
D54*
%TO.N,GND*%
X15049000Y161099000D02*
X15748000Y161798000D01*
X17018000Y161798000D02*
X17526000Y161290000D01*
X15748000Y161798000D02*
X17018000Y161798000D01*
X15049000Y159766000D02*
X15049000Y161099000D01*
X15174000Y157266000D02*
X15174000Y159641000D01*
X15174000Y159641000D02*
X15049000Y159766000D01*
X42672000Y161544000D02*
X43434000Y161544000D01*
X41148000Y159830000D02*
X41148000Y160782000D01*
X43434000Y161544000D02*
X43942000Y161036000D01*
X41084000Y159766000D02*
X41148000Y159830000D01*
X41148000Y160782000D02*
X41910000Y161544000D01*
X41910000Y161544000D02*
X42672000Y161544000D01*
X41209000Y157266000D02*
X41209000Y159641000D01*
X41209000Y159641000D02*
X41084000Y159766000D01*
D53*
X69609000Y161036000D02*
X70866000Y161036000D01*
X71049000Y157551000D02*
X71374000Y157226000D01*
X68003500Y157551000D02*
X71049000Y157551000D01*
%TO.N,Net-(U8-SER)*%
X69342000Y158242000D02*
X69301000Y158201000D01*
X69301000Y158201000D02*
X68003500Y158201000D01*
%TO.N,GND*%
X72887000Y154951000D02*
X72390000Y155448000D01*
X73728500Y154951000D02*
X72887000Y154951000D01*
%TO.N,/control/SR.LATCH*%
X68003500Y156901000D02*
X67932500Y156972000D01*
X67932500Y156972000D02*
X65024000Y156972000D01*
%TO.N,/control/SR.CLOCK*%
X68003500Y156251000D02*
X66843000Y156251000D01*
X66843000Y156251000D02*
X65024000Y154432000D01*
%TO.N,+5V*%
X66802000Y154178000D02*
X66802000Y155036988D01*
X67366012Y155601000D02*
X68003500Y155601000D01*
X66802000Y155036988D02*
X67366012Y155601000D01*
D54*
%TO.N,GND*%
X65532000Y164338000D02*
X68834000Y164338000D01*
X64074000Y162880000D02*
X65532000Y164338000D01*
X64074000Y162774000D02*
X64074000Y162880000D01*
X64199000Y160274000D02*
X64199000Y162649000D01*
X64199000Y162649000D02*
X64074000Y162774000D01*
D53*
%TO.N,+5V*%
X68059000Y161036000D02*
X67056000Y161036000D01*
X67056000Y161036000D02*
X66802000Y161290000D01*
D54*
%TO.N,GND*%
X75758000Y163764000D02*
X72644000Y166878000D01*
X75758000Y162796000D02*
X75758000Y163764000D01*
X75758000Y162796000D02*
X75758000Y160421000D01*
X75758000Y160421000D02*
X75883000Y160296000D01*
X102616000Y161036000D02*
X101854000Y161798000D01*
X102616000Y159829000D02*
X102616000Y161036000D01*
X99314000Y161798000D02*
X98552000Y161036000D01*
X102679000Y159766000D02*
X102616000Y159829000D01*
X101854000Y161798000D02*
X99314000Y161798000D01*
X102804000Y157266000D02*
X102804000Y159641000D01*
X102804000Y159641000D02*
X102679000Y159766000D01*
X127254000Y161544000D02*
X125222000Y161544000D01*
X125222000Y161544000D02*
X124714000Y161036000D01*
X128079000Y159766000D02*
X128079000Y160973000D01*
X127508000Y161544000D02*
X127254000Y161544000D01*
X128079000Y160973000D02*
X127508000Y161544000D01*
X128204000Y157266000D02*
X128204000Y159641000D01*
X128204000Y159641000D02*
X128079000Y159766000D01*
X23368000Y132334000D02*
X23876000Y131826000D01*
X22606000Y132334000D02*
X23368000Y132334000D01*
X22034000Y130556000D02*
X22034000Y131762000D01*
X22034000Y131762000D02*
X22606000Y132334000D01*
X22159000Y128056000D02*
X22159000Y130431000D01*
X22159000Y130431000D02*
X22034000Y130556000D01*
X46736000Y132080000D02*
X48006000Y132080000D01*
X48006000Y132080000D02*
X48514000Y131572000D01*
X46164000Y130556000D02*
X46164000Y131508000D01*
X46164000Y131508000D02*
X46736000Y132080000D01*
X46289000Y128056000D02*
X46289000Y130431000D01*
X46289000Y130431000D02*
X46164000Y130556000D01*
D53*
%TO.N,+5V*%
X67876500Y117501000D02*
X66955000Y117501000D01*
X66955000Y117501000D02*
X66802000Y117348000D01*
X68059000Y122682000D02*
X67818000Y122682000D01*
X67818000Y122682000D02*
X66802000Y123698000D01*
%TO.N,Net-(Q27-G)*%
X44389000Y128056000D02*
X44389000Y127569000D01*
X46228000Y126746000D02*
X51816000Y121158000D01*
X70508610Y123775100D02*
X72882710Y121401000D01*
X44389000Y127569000D02*
X45212000Y126746000D01*
X67966100Y123775100D02*
X70508610Y123775100D01*
X45212000Y126746000D02*
X46228000Y126746000D01*
X51816000Y121158000D02*
X62484000Y121158000D01*
X67445000Y124296200D02*
X67966100Y123775100D01*
X72882710Y121401000D02*
X73601500Y121401000D01*
X62484000Y121158000D02*
X65622200Y124296200D01*
X65622200Y124296200D02*
X67445000Y124296200D01*
%TO.N,Net-(Q28-D)*%
X63311500Y124206000D02*
X64516000Y124206000D01*
X64516000Y124206000D02*
X64984000Y124674000D01*
X64984000Y124674000D02*
X68580000Y124674000D01*
%TO.N,GND*%
X72136000Y119380000D02*
X71120000Y119380000D01*
X71120000Y119380000D02*
X70866000Y119634000D01*
X72136000Y117679012D02*
X72136000Y119380000D01*
X72964012Y116851000D02*
X72136000Y117679012D01*
X73601500Y116851000D02*
X72964012Y116851000D01*
X67876500Y119451000D02*
X69525000Y119451000D01*
X70410800Y119178800D02*
X70866000Y119634000D01*
X69525000Y119451000D02*
X69797200Y119178800D01*
X69797200Y119178800D02*
X70410800Y119178800D01*
X70866000Y121425000D02*
X69609000Y122682000D01*
X70866000Y119634000D02*
X70866000Y121425000D01*
%TO.N,/display/led_row_2_3/LED_SER_OUT*%
X69850250Y119888250D02*
X69637500Y120101000D01*
X70104000Y119634500D02*
X69850250Y119888250D01*
X69850250Y119888250D02*
X69880400Y119888250D01*
X69637500Y120101000D02*
X67876500Y120101000D01*
D54*
%TO.N,GND*%
X69530000Y127294000D02*
X69530000Y129606000D01*
X69530000Y129606000D02*
X69342000Y129794000D01*
X73975000Y126786000D02*
X73975000Y129284000D01*
X73975000Y129284000D02*
X73977000Y129286000D01*
X93980000Y132334000D02*
X93472000Y131826000D01*
X96520000Y132334000D02*
X93980000Y132334000D01*
X96964000Y131890000D02*
X96520000Y132334000D01*
X96964000Y130556000D02*
X96964000Y131890000D01*
X97089000Y128056000D02*
X97089000Y130431000D01*
X97089000Y130431000D02*
X96964000Y130556000D01*
X121094000Y130556000D02*
X121158000Y130620000D01*
X118618000Y132588000D02*
X117856000Y131826000D01*
X121158000Y130620000D02*
X121158000Y131826000D01*
X121158000Y131826000D02*
X120396000Y132588000D01*
X120396000Y132588000D02*
X118618000Y132588000D01*
X121219000Y128056000D02*
X121219000Y130431000D01*
X121219000Y130431000D02*
X121094000Y130556000D01*
X17589000Y105791000D02*
X17589000Y106997000D01*
X17589000Y106997000D02*
X18034000Y107442000D01*
X18034000Y107442000D02*
X19812000Y107442000D01*
X17589000Y105791000D02*
X17589000Y103416000D01*
X17589000Y103416000D02*
X17714000Y103291000D01*
D53*
%TO.N,Net-(Q20-D)*%
X16764000Y99568000D02*
X16256000Y99060000D01*
X16764000Y100671000D02*
X16764000Y99568000D01*
X16256000Y99060000D02*
X14162500Y99060000D01*
X14162500Y99060000D02*
X13781500Y99441000D01*
%TO.N,Net-(Q20-G)*%
X15814000Y103291000D02*
X15814000Y105666000D01*
X15814000Y105666000D02*
X15939000Y105791000D01*
D54*
%TO.N,GND*%
X43817000Y110111000D02*
X44196000Y110490000D01*
X44196000Y110490000D02*
X46228000Y110490000D01*
X43817000Y108926000D02*
X43817000Y110111000D01*
X46228000Y110490000D02*
X46736000Y109982000D01*
X43942000Y106426000D02*
X43942000Y108801000D01*
X43942000Y108801000D02*
X43817000Y108926000D01*
D53*
%TO.N,Net-(Q21-G)*%
X42042000Y106426000D02*
X42042000Y108801000D01*
X42042000Y108801000D02*
X42167000Y108926000D01*
%TO.N,Net-(P21-Pad1)*%
X59182000Y98806000D02*
X58674000Y99314000D01*
X61024000Y98806000D02*
X59182000Y98806000D01*
X58674000Y101600000D02*
X52735640Y107538360D01*
X52735640Y107538360D02*
X52735640Y108522883D01*
%TO.N,+5V*%
X68003500Y66193000D02*
X66903000Y66193000D01*
X66903000Y66193000D02*
X66802000Y66294000D01*
%TO.N,GND*%
X73728500Y65543000D02*
X73640600Y65543000D01*
X73640600Y65543000D02*
X72613600Y64516000D01*
X71361000Y71374000D02*
X71912400Y71374000D01*
X70612000Y70625000D02*
X71361000Y71374000D01*
%TO.N,+5V*%
X66813000Y70093000D02*
X66802000Y70104000D01*
X68003500Y70093000D02*
X66813000Y70093000D01*
%TO.N,GND*%
X70327100Y68041100D02*
X70612000Y68326000D01*
X68105400Y68041100D02*
X70327100Y68041100D01*
X68003500Y68143000D02*
X68105400Y68041100D01*
X70612000Y70625000D02*
X69609000Y71628000D01*
X70612000Y68326000D02*
X70612000Y70625000D01*
%TO.N,/display/led_row_0_1/LED_SER_OUT*%
X69667400Y68793000D02*
X68003500Y68793000D01*
X69880400Y68580000D02*
X69667400Y68793000D01*
%TO.N,+5V*%
X67876500Y98451000D02*
X66903000Y98451000D01*
X66903000Y98451000D02*
X66802000Y98552000D01*
X67876500Y102351000D02*
X66813000Y102351000D01*
X66813000Y102351000D02*
X66802000Y102362000D01*
%TO.N,GND*%
X72147000Y97801000D02*
X72136000Y97790000D01*
X73601500Y97801000D02*
X72147000Y97801000D01*
X67876500Y100401000D02*
X67978400Y100299100D01*
X70327100Y100299100D02*
X70612000Y100584000D01*
X70612000Y100584000D02*
X70612000Y102108000D01*
X70612000Y102108000D02*
X70358000Y102362000D01*
X67978400Y100299100D02*
X70327100Y100299100D01*
X70358000Y102362000D02*
X69342000Y102362000D01*
%TO.N,Net-(U6-SER)*%
X69880400Y100838000D02*
X69667400Y101051000D01*
X69667400Y101051000D02*
X67876500Y101051000D01*
D54*
%TO.N,GND*%
X67249000Y107656000D02*
X67249000Y108143000D01*
X67249000Y108143000D02*
X67818000Y108712000D01*
X67818000Y108712000D02*
X68478000Y108712000D01*
X68478000Y108712000D02*
X69342000Y109576000D01*
X69342000Y109576000D02*
X69342000Y111760000D01*
D53*
%TO.N,Net-(Q23-D)*%
X73279000Y110276000D02*
X73279000Y113853500D01*
X73279000Y113853500D02*
X73086500Y114046000D01*
%TO.N,Net-(Q22-D)*%
X68199000Y110276000D02*
X68199000Y113853500D01*
X68199000Y113853500D02*
X68391500Y114046000D01*
%TO.N,Net-(Q22-G)*%
X69024000Y105918000D02*
X69149000Y106043000D01*
X69149000Y106043000D02*
X69149000Y107656000D01*
D54*
%TO.N,GND*%
X69355000Y102375000D02*
X69342000Y102362000D01*
X69355000Y103886000D02*
X69355000Y102375000D01*
X67374000Y105918000D02*
X67374000Y107531000D01*
X67374000Y107531000D02*
X67249000Y107656000D01*
X72329000Y111821000D02*
X72136000Y112014000D01*
X72329000Y107656000D02*
X72329000Y111821000D01*
X72454000Y105156000D02*
X72454000Y107531000D01*
X72454000Y107531000D02*
X72329000Y107656000D01*
X99568000Y107696000D02*
X97028000Y107696000D01*
X97028000Y107696000D02*
X96520000Y107188000D01*
X100139000Y105791000D02*
X100139000Y107125000D01*
X100139000Y107125000D02*
X99568000Y107696000D01*
X100264000Y103291000D02*
X100264000Y105666000D01*
X100264000Y105666000D02*
X100139000Y105791000D01*
X124968000Y107442000D02*
X122174000Y107442000D01*
X125539000Y105791000D02*
X125539000Y106871000D01*
X122174000Y107442000D02*
X121920000Y107188000D01*
X125539000Y106871000D02*
X124968000Y107442000D01*
X125664000Y103291000D02*
X125664000Y105666000D01*
X125664000Y105666000D02*
X125539000Y105791000D01*
X42418000Y54864000D02*
X42418000Y54610000D01*
X39814000Y54800000D02*
X39878000Y54864000D01*
X41910000Y55372000D02*
X42418000Y54864000D01*
X39814000Y53721000D02*
X39814000Y54800000D01*
X39878000Y54864000D02*
X40386000Y55372000D01*
X40386000Y55372000D02*
X41910000Y55372000D01*
X39939000Y51221000D02*
X39939000Y53596000D01*
X39939000Y53596000D02*
X39814000Y53721000D01*
X17780000Y54864000D02*
X18288000Y54356000D01*
X16002000Y54864000D02*
X17780000Y54864000D01*
X15357162Y53086000D02*
X15357162Y54219162D01*
X15357162Y54219162D02*
X16002000Y54864000D01*
X15357162Y53086000D02*
X15357162Y50773993D01*
X15357162Y50773993D02*
X15482162Y50648993D01*
X20320000Y83566000D02*
X20574000Y83312000D01*
X18224000Y81661000D02*
X18224000Y83248000D01*
X18224000Y83248000D02*
X18542000Y83566000D01*
X18542000Y83566000D02*
X20320000Y83566000D01*
X18224000Y81661000D02*
X18224000Y79286000D01*
X18224000Y79286000D02*
X18349000Y79161000D01*
X42926000Y83820000D02*
X44704000Y83820000D01*
X44704000Y83820000D02*
X45212000Y83312000D01*
X42418000Y81725000D02*
X42418000Y83312000D01*
X42418000Y83312000D02*
X42926000Y83820000D01*
X42354000Y81661000D02*
X42418000Y81725000D01*
X42479000Y79161000D02*
X42479000Y81536000D01*
X42479000Y81536000D02*
X42354000Y81661000D01*
X75501000Y82804000D02*
X72136000Y82804000D01*
X72136000Y82804000D02*
X71912400Y82804000D01*
X66484000Y81661000D02*
X67627000Y82804000D01*
X67627000Y82804000D02*
X72136000Y82804000D01*
X66609000Y79161000D02*
X66609000Y81536000D01*
X66609000Y81536000D02*
X66484000Y81661000D01*
X76644000Y81661000D02*
X75501000Y82804000D01*
X76769000Y79161000D02*
X76769000Y81536000D01*
X76769000Y81536000D02*
X76644000Y81661000D01*
X97028000Y83820000D02*
X96266000Y83058000D01*
X100076000Y83820000D02*
X97028000Y83820000D01*
X100774000Y81661000D02*
X100774000Y83122000D01*
X100774000Y83122000D02*
X100076000Y83820000D01*
X100774000Y81661000D02*
X100774000Y79286000D01*
X100774000Y79286000D02*
X100899000Y79161000D01*
X124904000Y83122000D02*
X124206000Y83820000D01*
X124904000Y81661000D02*
X124904000Y83122000D01*
X124206000Y83820000D02*
X120904000Y83820000D01*
X120904000Y83820000D02*
X120396000Y83312000D01*
X125029000Y79161000D02*
X125029000Y81536000D01*
X125029000Y81536000D02*
X124904000Y81661000D01*
D53*
%TO.N,Net-(U6-SER)*%
X69342000Y66294000D02*
X69342000Y66015006D01*
X69342000Y66015006D02*
X68869994Y65543000D01*
X68869994Y65543000D02*
X68003500Y65543000D01*
%TO.N,/control/SR.CLOCK*%
X70794600Y66843000D02*
X68003500Y66843000D01*
X70835600Y66802000D02*
X70794600Y66843000D01*
%TO.N,/control/SR.LATCH*%
X71374000Y67564000D02*
X71303000Y67493000D01*
X71303000Y67493000D02*
X68003500Y67493000D01*
D54*
%TO.N,GND*%
X72390000Y61214000D02*
X76517000Y61214000D01*
X76517000Y61214000D02*
X78803000Y58928000D01*
D53*
%TO.N,+5V*%
X67876500Y51551000D02*
X66813000Y51551000D01*
X66813000Y51551000D02*
X66802000Y51562000D01*
X66559000Y26151000D02*
X66548000Y26162000D01*
X67876500Y26151000D02*
X66559000Y26151000D01*
X66294000Y22352000D02*
X67775500Y22352000D01*
X67775500Y22352000D02*
X67876500Y22251000D01*
X72136000Y20320000D02*
X74930000Y20320000D01*
X67876500Y22251000D02*
X70205000Y22251000D01*
X70205000Y22251000D02*
X72136000Y20320000D01*
%TO.N,Net-(U4-SER)*%
X69342000Y21601000D02*
X67876500Y21601000D01*
%TO.N,+5V*%
X66903000Y47651000D02*
X66802000Y47752000D01*
X67876500Y47651000D02*
X66903000Y47651000D01*
%TO.N,GND*%
X73601500Y47001000D02*
X72379000Y47001000D01*
X72379000Y47001000D02*
X71912400Y47467600D01*
X71912400Y47467600D02*
X71912400Y49530000D01*
X71881500Y49499100D02*
X71912400Y49530000D01*
X67978400Y49499100D02*
X71881500Y49499100D01*
X67876500Y49601000D02*
X67978400Y49499100D01*
%TO.N,Net-(U4-SER)*%
X70104000Y50038000D02*
X69891000Y50251000D01*
X69891000Y50251000D02*
X67876500Y50251000D01*
D54*
%TO.N,GND*%
X64579000Y53721000D02*
X64579000Y51346000D01*
X64579000Y51346000D02*
X64704000Y51221000D01*
X99822000Y55880000D02*
X99314000Y55372000D01*
X102870000Y55880000D02*
X99822000Y55880000D01*
X103314000Y53721000D02*
X103314000Y55436000D01*
X103314000Y55436000D02*
X102870000Y55880000D01*
X103439000Y51221000D02*
X103439000Y53596000D01*
X103439000Y53596000D02*
X103314000Y53721000D01*
X127951040Y54928960D02*
X127508000Y55372000D01*
X127508000Y55372000D02*
X124714000Y55372000D01*
X127951040Y53717953D02*
X127951040Y54928960D01*
X127951040Y53717953D02*
X127951040Y51342953D01*
X127951040Y51342953D02*
X128076040Y51217953D01*
D53*
%TO.N,Net-(D5-K)*%
X31811500Y25146000D02*
X31811500Y27950421D01*
X31811500Y27950421D02*
X31548721Y28213200D01*
%TO.N,Net-(Q3-D)*%
X34736500Y25146000D02*
X36830000Y25146000D01*
X36830000Y25146000D02*
X37719000Y26035000D01*
X37719000Y26035000D02*
X37719000Y27646000D01*
%TO.N,Net-(Q2-D)*%
X8828500Y24638000D02*
X10160000Y24638000D01*
X8701500Y24511000D02*
X8828500Y24638000D01*
X10160000Y24638000D02*
X11049000Y25527000D01*
X11049000Y25527000D02*
X11049000Y27646000D01*
D54*
%TO.N,GND*%
X15494000Y26771000D02*
X15494000Y23876000D01*
X11999000Y30266000D02*
X15494000Y26771000D01*
X11874000Y32766000D02*
X11874000Y30391000D01*
X11874000Y30391000D02*
X11999000Y30266000D01*
X42418000Y29464000D02*
X42926000Y28956000D01*
X42926000Y28956000D02*
X42926000Y23876000D01*
X38669000Y30266000D02*
X41616000Y30266000D01*
X41616000Y30266000D02*
X42418000Y29464000D01*
X38669000Y30266000D02*
X38669000Y32641000D01*
X38669000Y32641000D02*
X38544000Y32766000D01*
X62344000Y-1384000D02*
X62230000Y-1270000D01*
X63578000Y-1384000D02*
X62344000Y-1384000D01*
X62116000Y16116000D02*
X61976000Y16256000D01*
X63578000Y16116000D02*
X62116000Y16116000D01*
D53*
X77205000Y21601000D02*
X77216000Y21590000D01*
X73601500Y21601000D02*
X77205000Y21601000D01*
X67876500Y24201000D02*
X69159000Y24201000D01*
X69159000Y24201000D02*
X70371000Y25413000D01*
X70371000Y25413000D02*
X70371000Y27686000D01*
D54*
X70371000Y27686000D02*
X72136000Y27686000D01*
X67016000Y30266000D02*
X67056000Y30226000D01*
X64704000Y30266000D02*
X67016000Y30266000D01*
X64704000Y30266000D02*
X64704000Y32641000D01*
X64704000Y32641000D02*
X64579000Y32766000D01*
X79184000Y32766000D02*
X79184000Y33846000D01*
X79184000Y33846000D02*
X76975000Y36055000D01*
X76975000Y36055000D02*
X74930000Y36055000D01*
X79309000Y30266000D02*
X79309000Y32641000D01*
X79309000Y32641000D02*
X79184000Y32766000D01*
X105219000Y32766000D02*
X105219000Y33719000D01*
X105219000Y33719000D02*
X104140000Y34798000D01*
X104140000Y34798000D02*
X100584000Y34798000D01*
X100584000Y34798000D02*
X99568000Y33782000D01*
X99568000Y33782000D02*
X99568000Y23876000D01*
X105344000Y30266000D02*
X105344000Y32641000D01*
X105344000Y32641000D02*
X105219000Y32766000D01*
X130619000Y31496000D02*
X130619000Y32703000D01*
X125984000Y33528000D02*
X125222000Y32766000D01*
X130619000Y32703000D02*
X129794000Y33528000D01*
X129794000Y33528000D02*
X125984000Y33528000D01*
X125222000Y32766000D02*
X125222000Y23622000D01*
X130619000Y31496000D02*
X130619000Y29121000D01*
X130619000Y29121000D02*
X130744000Y28996000D01*
D53*
%TO.N,/control/CAP_CHANGE.2*%
X81338000Y11811000D02*
X79883000Y11811000D01*
X79883000Y11811000D02*
X77925800Y9853800D01*
X-3048000Y25400000D02*
X-3048000Y128778000D01*
X77925800Y9853800D02*
X77925800Y6525510D01*
X77925800Y6525510D02*
X76356490Y4956200D01*
X17395800Y4956200D02*
X-3048000Y25400000D01*
X76356490Y4956200D02*
X17395800Y4956200D01*
%TO.N,/control/CAP_CHANGE.1*%
X77548000Y16116000D02*
X77548000Y6682000D01*
X64770000Y94488000D02*
X69764000Y89494000D01*
X77548000Y6682000D02*
X76200000Y5334000D01*
X76200000Y5334000D02*
X18034000Y5334000D01*
X18034000Y5334000D02*
X-2540000Y25908000D01*
X-2540000Y25908000D02*
X-2540000Y88900000D01*
X-2540000Y88900000D02*
X3048000Y94488000D01*
X3048000Y94488000D02*
X64770000Y94488000D01*
X69764000Y89494000D02*
X69764000Y87815500D01*
%TO.N,Net-(U2-GPIO21)*%
X44069000Y4191000D02*
X43942000Y4318000D01*
%TO.N,/control/CAP_CHANGE.0*%
X-1778000Y26162000D02*
X-1778000Y35814000D01*
X69383000Y38339290D02*
X69383000Y37523500D01*
X36830000Y6350000D02*
X18034000Y6350000D01*
X18034000Y6350000D02*
X-1778000Y26162000D01*
X69543100Y12139100D02*
X47323190Y12139100D01*
X45492290Y13970000D02*
X39379698Y13970000D01*
X71198000Y16116000D02*
X71198000Y13794000D01*
X-1778000Y35814000D02*
X-1715000Y35814000D01*
X47323190Y12139100D02*
X45492290Y13970000D01*
X39379698Y13970000D02*
X37846000Y12436302D01*
X37846000Y12436302D02*
X37846000Y7366000D01*
X71198000Y13794000D02*
X69543100Y12139100D01*
X37846000Y7366000D02*
X36830000Y6350000D01*
X-1715000Y35814000D02*
X2857000Y40386000D01*
X67336290Y40386000D02*
X69383000Y38339290D01*
X2857000Y40386000D02*
X67336290Y40386000D01*
%TO.N,+5V*%
X5392000Y37280000D02*
X5329000Y37280000D01*
X5329000Y37280000D02*
X3810000Y38799000D01*
X9906000Y92202000D02*
X9207000Y92901000D01*
X9207000Y92901000D02*
X6096000Y92901000D01*
X8382000Y148336000D02*
X5525000Y148336000D01*
X5525000Y148336000D02*
X5334000Y148527000D01*
%TO.N,Net-(U11-KEY11{slash}GPO9)*%
X69114000Y87815500D02*
X69114000Y88900290D01*
X69114000Y88900290D02*
X64034290Y93980000D01*
X23876000Y93980000D02*
X22352000Y92456000D01*
X22352000Y92456000D02*
X20129000Y92456000D01*
X64034290Y93980000D02*
X23876000Y93980000D01*
%TO.N,Net-(U11-KEY10{slash}GPO8)*%
X68464000Y87815500D02*
X68464000Y89016000D01*
X45212000Y92456000D02*
X44259000Y92456000D01*
X68464000Y89016000D02*
X64008000Y93472000D01*
X64008000Y93472000D02*
X46228000Y93472000D01*
X46228000Y93472000D02*
X45212000Y92456000D01*
%TO.N,/control/I2C.SCL*%
X68549100Y85598000D02*
X69850000Y85598000D01*
X70414000Y86162000D02*
X70414000Y87815500D01*
X69850000Y85598000D02*
X70414000Y86162000D01*
%TO.N,Net-(D28-K)*%
X11684000Y124206000D02*
X10922000Y124968000D01*
%TO.N,Net-(D29-K)*%
X35814000Y124206000D02*
X34798000Y125222000D01*
X36891500Y124206000D02*
X35814000Y124206000D01*
%TO.N,Net-(D30-K)*%
X59690000Y124206000D02*
X58928000Y124968000D01*
X60386500Y124206000D02*
X59690000Y124206000D01*
%TO.N,Net-(D31-K)*%
X82931000Y124841000D02*
X82296000Y124206000D01*
X82296000Y124206000D02*
X81091500Y124206000D01*
%TO.N,Net-(D32-K)*%
X106426000Y124206000D02*
X106680000Y124460000D01*
X104586500Y124206000D02*
X106426000Y124206000D01*
%TO.N,Net-(D33-K)*%
X128716500Y124206000D02*
X130556000Y124206000D01*
X130556000Y124206000D02*
X130810000Y124460000D01*
X131296402Y133371598D02*
X131318000Y133350000D01*
X131296402Y133384562D02*
X131296402Y133371598D01*
%TO.N,Net-(D27-K)*%
X131637500Y99822000D02*
X131256500Y99441000D01*
X133796400Y105884000D02*
X133796400Y105725600D01*
X132842000Y99822000D02*
X131637500Y99822000D01*
X133796400Y105725600D02*
X133858000Y105664000D01*
%TO.N,Net-(D26-K)*%
X108553117Y105822883D02*
X108458000Y105918000D01*
X108609478Y105822883D02*
X108553117Y105822883D01*
%TO.N,Net-(D25-K)*%
X77470000Y114046000D02*
X76011500Y114046000D01*
X83422559Y105822883D02*
X83422559Y105774559D01*
X83422559Y105774559D02*
X83312000Y105664000D01*
%TO.N,Net-(D24-K)*%
X58235640Y105822883D02*
X58235640Y105733640D01*
X58235640Y105733640D02*
X58166000Y105664000D01*
X64262000Y114300000D02*
X65212500Y114300000D01*
X65212500Y114300000D02*
X65466500Y114046000D01*
%TO.N,Net-(D23-K)*%
X33048721Y105822883D02*
X33178883Y105822883D01*
X33178883Y105822883D02*
X33274000Y105918000D01*
X37338000Y101092000D02*
X38731000Y101092000D01*
X38731000Y101092000D02*
X38985000Y101346000D01*
%TO.N,Net-(D22-K)*%
X10475500Y99822000D02*
X10856500Y99441000D01*
X9398000Y99822000D02*
X10475500Y99822000D01*
%TO.N,Net-(P19-Pad1)*%
X11494000Y96266000D02*
X9652000Y96266000D01*
X9652000Y96266000D02*
X7874000Y98044000D01*
X7874000Y98044000D02*
X7874000Y102776445D01*
X7874000Y102776445D02*
X2361802Y108288643D01*
%TO.N,Net-(D22-K)*%
X7861802Y105422198D02*
X7874000Y105410000D01*
X7861802Y105588643D02*
X7861802Y105422198D01*
%TO.N,+5V*%
X35879000Y20639000D02*
X36830000Y21590000D01*
X35879000Y12065000D02*
X35879000Y20639000D01*
%TO.N,GND*%
X75438000Y144259000D02*
X75438000Y143256000D01*
X75438000Y143256000D02*
X73152000Y140970000D01*
X73152000Y140970000D02*
X72136000Y140970000D01*
%TO.N,+5V*%
X71841000Y145727500D02*
X71841000Y147025000D01*
X73406000Y147320000D02*
X73791000Y146935000D01*
X71841000Y147025000D02*
X72136000Y147320000D01*
X72136000Y147320000D02*
X73406000Y147320000D01*
X73791000Y146935000D02*
X73791000Y145727500D01*
%TO.N,Net-(U12-KEY8{slash}GPO6)*%
X67941000Y151452500D02*
X67941000Y149737000D01*
X67941000Y149737000D02*
X69973800Y147704200D01*
X78863800Y147704200D02*
X79502000Y147066000D01*
X69973800Y147704200D02*
X78863800Y147704200D01*
X79502000Y147066000D02*
X80074000Y147066000D01*
%TO.N,+5V*%
X73791000Y145727500D02*
X75356500Y145727500D01*
X75356500Y145727500D02*
X75438000Y145809000D01*
X71714000Y87815500D02*
X71714000Y88986000D01*
X73664000Y88896000D02*
X73664000Y87815500D01*
X71714000Y88986000D02*
X72136000Y89408000D01*
X72136000Y89408000D02*
X73152000Y89408000D01*
X73152000Y89408000D02*
X73664000Y88896000D01*
X71333000Y37523500D02*
X71333000Y38567000D01*
X71504200Y38738200D02*
X73021800Y38738200D01*
X71333000Y38567000D02*
X71504200Y38738200D01*
X73021800Y38738200D02*
X73283000Y38477000D01*
X73283000Y38477000D02*
X73283000Y37523500D01*
%TO.N,Net-(U10-KEY8{slash}GPO6)*%
X67433000Y43248500D02*
X67433000Y41480420D01*
X67433000Y41480420D02*
X69797420Y39116000D01*
X69797420Y39116000D02*
X76708000Y39116000D01*
X78613000Y37211000D02*
X79439000Y37211000D01*
X76708000Y39116000D02*
X78613000Y37211000D01*
%TO.N,Net-(U10-KEY7{slash}GPO5)*%
X68083000Y43248500D02*
X68083000Y41364710D01*
X68083000Y41364710D02*
X69947510Y39500200D01*
X69947510Y39500200D02*
X100707800Y39500200D01*
X100707800Y39500200D02*
X103124000Y37084000D01*
X103124000Y37084000D02*
X105347000Y37084000D01*
X105347000Y37084000D02*
X105474000Y37211000D01*
%TO.N,Net-(U10-KEY6{slash}GPO4)*%
X68733000Y41249000D02*
X70104000Y39878000D01*
X70104000Y39878000D02*
X128016000Y39878000D01*
X130556000Y37338000D02*
X132017000Y37338000D01*
X132017000Y37338000D02*
X132144000Y37211000D01*
X128016000Y39878000D02*
X130556000Y37338000D01*
X68733000Y43248500D02*
X68733000Y41249000D01*
%TO.N,+5V*%
X73364500Y37605000D02*
X73283000Y37523500D01*
%TO.N,GND*%
X75692000Y85090000D02*
X75692000Y86093000D01*
X71912400Y82804000D02*
X73406000Y82804000D01*
X73406000Y82804000D02*
X75692000Y85090000D01*
%TO.N,+5V*%
X75692000Y87643000D02*
X73836500Y87643000D01*
X73836500Y87643000D02*
X73664000Y87815500D01*
%TO.N,GND*%
X75692000Y86093000D02*
X73901785Y86093000D01*
X73901785Y86093000D02*
X73014000Y86980785D01*
X73014000Y86980785D02*
X73014000Y87815500D01*
X72633000Y37523500D02*
X72633000Y36087400D01*
X72633000Y36087400D02*
X72613600Y36068000D01*
X72626600Y36055000D02*
X72613600Y36068000D01*
X74930000Y36055000D02*
X72626600Y36055000D01*
%TO.N,+5V*%
X68059000Y161036000D02*
X68059000Y159556500D01*
X68059000Y159556500D02*
X68003500Y159501000D01*
%TO.N,Net-(Q34-G)*%
X73728500Y158851000D02*
X73091012Y158851000D01*
X70866000Y162814000D02*
X66014000Y162814000D01*
X73091012Y158851000D02*
X72702100Y159239912D01*
X72702100Y159239912D02*
X72702100Y160977900D01*
X72702100Y160977900D02*
X70866000Y162814000D01*
X66014000Y162814000D02*
X65974000Y162774000D01*
X65849000Y160337000D02*
X65849000Y160274000D01*
%TO.N,Net-(Q33-G)*%
X73728500Y159501000D02*
X73728500Y162491500D01*
X73728500Y162491500D02*
X70358000Y165862000D01*
X66294000Y168148000D02*
X46228000Y168148000D01*
X70358000Y165862000D02*
X68580000Y165862000D01*
X68580000Y165862000D02*
X66294000Y168148000D01*
X46228000Y168148000D02*
X39370000Y161290000D01*
X39370000Y161290000D02*
X39370000Y159830000D01*
X39370000Y159830000D02*
X39434000Y159766000D01*
%TO.N,+5V*%
X67876500Y121401000D02*
X67876500Y122499500D01*
X67876500Y122499500D02*
X68059000Y122682000D01*
%TO.N,Net-(Q28-G)*%
X69088000Y125984000D02*
X68072000Y125984000D01*
X74676000Y122428000D02*
X72617710Y122428000D01*
X72617710Y122428000D02*
X69088000Y125957710D01*
X69088000Y125957710D02*
X69088000Y125984000D01*
X75184000Y121158000D02*
X75184000Y121920000D01*
X74777000Y120751000D02*
X75184000Y121158000D01*
X75184000Y121920000D02*
X74676000Y122428000D01*
X73601500Y120751000D02*
X74777000Y120751000D01*
X68072000Y125984000D02*
X67630000Y126426000D01*
X67630000Y126426000D02*
X67630000Y127294000D01*
%TO.N,+5V*%
X67805000Y103886000D02*
X67805000Y102422500D01*
X67805000Y102422500D02*
X67876500Y102351000D01*
%TO.N,Net-(Q21-G)*%
X73601500Y102351000D02*
X73601500Y102928500D01*
X62353800Y100707800D02*
X48136200Y100707800D01*
X73275800Y103254200D02*
X71751800Y103254200D01*
X70104000Y104902000D02*
X66548000Y104902000D01*
X66548000Y104902000D02*
X62353800Y100707800D01*
X73601500Y102928500D02*
X73275800Y103254200D01*
X42042000Y105532000D02*
X42042000Y106426000D01*
X71751800Y103254200D02*
X70104000Y104902000D01*
X48136200Y100707800D02*
X43942000Y104902000D01*
X43942000Y104902000D02*
X42672000Y104902000D01*
X42672000Y104902000D02*
X42042000Y105532000D01*
%TO.N,Net-(Q22-G)*%
X73601500Y101701000D02*
X75031000Y101701000D01*
X72390000Y103632000D02*
X70104000Y105918000D01*
X75184000Y101854000D02*
X75184000Y103124000D01*
X70104000Y105918000D02*
X69024000Y105918000D01*
X75031000Y101701000D02*
X75184000Y101854000D01*
X75184000Y103124000D02*
X74676000Y103632000D01*
X74676000Y103632000D02*
X72390000Y103632000D01*
%TO.N,+5V*%
X68003500Y70093000D02*
X68003500Y71572500D01*
X68003500Y71572500D02*
X68059000Y71628000D01*
%TO.N,Net-(Q15-G)*%
X74665000Y70093000D02*
X75438000Y70866000D01*
X75438000Y70866000D02*
X75438000Y71374000D01*
X43180000Y72644000D02*
X42418000Y73406000D01*
X42418000Y73406000D02*
X42418000Y77470000D01*
X74168000Y72644000D02*
X43180000Y72644000D01*
X73728500Y70093000D02*
X74665000Y70093000D01*
X75438000Y71374000D02*
X74168000Y72644000D01*
X42418000Y77470000D02*
X40727000Y79161000D01*
X40727000Y79161000D02*
X40579000Y79161000D01*
%TO.N,+5V*%
X67876500Y51551000D02*
X67876500Y53157500D01*
X67876500Y53157500D02*
X68059000Y53340000D01*
X68567000Y27686000D02*
X68326000Y27686000D01*
X68326000Y27686000D02*
X67876500Y27236500D01*
X67876500Y27236500D02*
X67876500Y26151000D01*
%TO.N,Net-(Q3-G)*%
X73601500Y26151000D02*
X73601500Y27363500D01*
X38862000Y26289000D02*
X38862000Y28015800D01*
X73601500Y27363500D02*
X72263000Y28702000D01*
X38175800Y28702000D02*
X37338000Y28702000D01*
X72263000Y28702000D02*
X67818000Y28702000D01*
X37338000Y28702000D02*
X36769000Y29271000D01*
X67818000Y28702000D02*
X62357000Y23241000D01*
X62357000Y23241000D02*
X41910000Y23241000D01*
X41910000Y23241000D02*
X38862000Y26289000D01*
X36769000Y29271000D02*
X36769000Y30266000D01*
X38862000Y28015800D02*
X38175800Y28702000D01*
%TO.N,Net-(Q4-G)*%
X74627900Y25889912D02*
X74627900Y26871390D01*
X74238988Y25501000D02*
X74627900Y25889912D01*
X74627900Y26871390D02*
X72289290Y29210000D01*
X72289290Y29210000D02*
X63860000Y29210000D01*
X73601500Y25501000D02*
X74238988Y25501000D01*
X63860000Y29210000D02*
X62804000Y30266000D01*
%TO.N,+5V*%
X135296400Y161566000D02*
X135296400Y167471600D01*
X135296400Y167471600D02*
X135128000Y167640000D01*
X109509478Y161566000D02*
X109509478Y167604522D01*
X109509478Y167604522D02*
X109474000Y167640000D01*
X83722559Y161566000D02*
X83722559Y167542559D01*
X83722559Y167542559D02*
X83820000Y167640000D01*
X57935640Y161566000D02*
X57935640Y167585960D01*
X57935640Y167585960D02*
X57912000Y167609600D01*
X32148721Y161566000D02*
X32148721Y167530721D01*
X32148721Y167530721D02*
X32258000Y167640000D01*
X6361802Y161566000D02*
X6361802Y167397802D01*
X6361802Y167397802D02*
X6604000Y167640000D01*
X10401678Y138442322D02*
X10414000Y138430000D01*
X10361800Y138442322D02*
X10401678Y138442322D01*
X34673442Y138559442D02*
X34798000Y138684000D01*
X34548720Y138559442D02*
X34673442Y138559442D01*
X58735640Y138622360D02*
X58674000Y138684000D01*
X58735640Y138559442D02*
X58735640Y138622360D01*
X82922560Y138559442D02*
X82922560Y138565440D01*
X82922560Y138565440D02*
X82804000Y138684000D01*
X107109480Y138605480D02*
X107188000Y138684000D01*
X107109480Y138559442D02*
X107109480Y138605480D01*
X131296402Y138662402D02*
X131318000Y138684000D01*
X131296402Y138662402D02*
X131296402Y138584562D01*
X133690000Y111084000D02*
X133604000Y110998000D01*
X133796400Y111084000D02*
X133690000Y111084000D01*
X108687117Y111022883D02*
X108712000Y110998000D01*
X108609478Y111022883D02*
X108687117Y111022883D01*
X83422559Y111108559D02*
X83566000Y111252000D01*
X83422559Y111022883D02*
X83422559Y111108559D01*
X58235640Y111022883D02*
X58235640Y111067640D01*
X58235640Y111067640D02*
X58420000Y111252000D01*
X33044883Y111022883D02*
X33020000Y110998000D01*
X33048721Y111022883D02*
X33044883Y111022883D01*
X7861802Y110756198D02*
X7874000Y110744000D01*
X7861802Y110788643D02*
X7861802Y110756198D01*
X10414000Y83526000D02*
X9875100Y84064900D01*
X9875100Y84064900D02*
X9875100Y92171100D01*
X9875100Y92171100D02*
X9906000Y92202000D01*
X34544000Y83526000D02*
X33274000Y84796000D01*
X33274000Y84796000D02*
X33274000Y91186000D01*
X33274000Y91186000D02*
X34290000Y92202000D01*
X58674000Y87884000D02*
X57150000Y89408000D01*
X58674000Y83526000D02*
X58674000Y87884000D01*
X57150000Y89408000D02*
X57150000Y92202000D01*
X82804000Y83526000D02*
X83566000Y84288000D01*
X83566000Y84288000D02*
X83566000Y91409600D01*
%TO.N,Net-(P17-Pad1)*%
X107188000Y90424000D02*
X105664000Y91948000D01*
X105664000Y91948000D02*
X99631000Y91948000D01*
%TO.N,Net-(U11-KEY7{slash}GPO5)*%
X68464000Y93540500D02*
X68464000Y92291710D01*
X74324490Y91062200D02*
X75210290Y91948000D01*
X75210290Y91948000D02*
X97981000Y91948000D01*
X68464000Y92291710D02*
X69693510Y91062200D01*
X69693510Y91062200D02*
X74324490Y91062200D01*
%TO.N,Net-(P18-Pad1)*%
X123634000Y92964000D02*
X128778000Y92964000D01*
X128778000Y92964000D02*
X131318000Y90424000D01*
%TO.N,Net-(U11-KEY6{slash}GPO4)*%
X69114000Y93540500D02*
X69114000Y92176000D01*
X69114000Y92176000D02*
X69850000Y91440000D01*
X69850000Y91440000D02*
X74168000Y91440000D01*
X75692000Y92964000D02*
X121476000Y92964000D01*
X74168000Y91440000D02*
X75692000Y92964000D01*
X121476000Y92964000D02*
X121984000Y92456000D01*
%TO.N,+5V*%
X106934000Y83526000D02*
X107726900Y84318900D01*
X107726900Y84318900D02*
X107726900Y91378700D01*
X107726900Y91378700D02*
X107188000Y91917600D01*
X131064000Y83526000D02*
X131856900Y84318900D01*
X131856900Y91605100D02*
X131260000Y92202000D01*
X131856900Y84318900D02*
X131856900Y91605100D01*
X133796400Y56050245D02*
X133796400Y61783600D01*
X133796400Y61783600D02*
X133604000Y61976000D01*
X108609478Y55949765D02*
X108609478Y61873478D01*
X108609478Y61873478D02*
X108712000Y61976000D01*
X83422559Y55949765D02*
X83312000Y56060324D01*
X83312000Y56060324D02*
X83312000Y61976000D01*
X50476235Y55949765D02*
X49022000Y57404000D01*
X58235640Y55949765D02*
X50476235Y55949765D01*
X33048721Y55949765D02*
X33048721Y61947279D01*
X33048721Y61947279D02*
X33020000Y61976000D01*
X7874000Y55481285D02*
X7874000Y61722000D01*
X7874000Y61722000D02*
X8128000Y61976000D01*
X57735640Y34212360D02*
X56896000Y35052000D01*
X56896000Y36772000D02*
X57404000Y37280000D01*
X57735640Y33413200D02*
X57735640Y34212360D01*
X56896000Y35052000D02*
X56896000Y36772000D01*
X31211100Y34320900D02*
X30734000Y34798000D01*
X31211100Y33750821D02*
X31211100Y34320900D01*
X30734000Y34798000D02*
X30734000Y36518000D01*
X31548721Y33413200D02*
X31211100Y33750821D01*
X30734000Y36518000D02*
X31496000Y37280000D01*
X4318000Y36206000D02*
X5392000Y37280000D01*
X5334000Y32726000D02*
X4318000Y33742000D01*
X4318000Y33742000D02*
X4318000Y36206000D01*
D55*
X66802000Y34798000D02*
X66802000Y35316000D01*
D53*
X83922559Y33413200D02*
X85344000Y34834641D01*
X85344000Y34834641D02*
X85344000Y36518000D01*
X85344000Y36518000D02*
X84582000Y37280000D01*
X111506000Y34809722D02*
X111506000Y36322000D01*
X110109478Y33413200D02*
X111506000Y34809722D01*
X111506000Y36322000D02*
X110548000Y37280000D01*
X110548000Y37280000D02*
X110490000Y37280000D01*
X136296400Y33538800D02*
X137160000Y34402400D01*
X137160000Y34402400D02*
X137160000Y36576000D01*
X137160000Y36576000D02*
X136398000Y37338000D01*
D55*
X74930000Y30734000D02*
X73348000Y32316000D01*
X68522000Y32316000D02*
X66802000Y34036000D01*
X73348000Y32316000D02*
X68522000Y32316000D01*
X74930000Y29210000D02*
X74930000Y30734000D01*
D53*
%TO.N,GND*%
X73141000Y145727500D02*
X73141000Y144791000D01*
%TO.N,/control/I2C.SCK*%
X73152000Y142494000D02*
X72491000Y143155000D01*
X72491000Y143155000D02*
X72491000Y145727500D01*
X73152000Y84836000D02*
X72364000Y85624000D01*
X72364000Y85624000D02*
X72364000Y87815500D01*
X73152000Y34036000D02*
X72898000Y34036000D01*
X72898000Y34036000D02*
X71983000Y34951000D01*
X71983000Y34951000D02*
X71983000Y37523500D01*
D54*
%TO.N,GND*%
X135890000Y7557000D02*
X135890000Y6350000D01*
%TO.N,/power/5V_COMB*%
X121666000Y14986000D02*
X120650000Y13970000D01*
X122806000Y14986000D02*
X121666000Y14986000D01*
%TO.N,GND*%
X64247000Y21097000D02*
X64008000Y21336000D01*
X64247000Y20092000D02*
X64247000Y21097000D01*
X62245000Y21321000D02*
X62230000Y21336000D01*
X62245000Y20092000D02*
X62245000Y21321000D01*
X64247000Y20092000D02*
X62245000Y20092000D01*
X35879000Y7177000D02*
X35814000Y7112000D01*
X35879000Y8255000D02*
X35879000Y7177000D01*
X51562000Y14465000D02*
X51562000Y13208000D01*
X51562000Y13208000D02*
X51816000Y12954000D01*
X51865000Y13003000D02*
X51816000Y12954000D01*
X53848000Y13003000D02*
X51865000Y13003000D01*
X115824000Y6399000D02*
X115824000Y5080000D01*
X113030000Y6399000D02*
X113030000Y5080000D01*
X115824000Y6399000D02*
X113030000Y6399000D01*
X108458000Y6653000D02*
X108458000Y5080000D01*
X105664000Y6653000D02*
X105664000Y5080000D01*
X108458000Y6653000D02*
X105664000Y6653000D01*
D53*
%TO.N,Net-(D2-A)*%
X101854000Y13525000D02*
X101854000Y15572500D01*
D54*
%TO.N,GND*%
X103299500Y17447500D02*
X103378000Y17526000D01*
X101854000Y17447500D02*
X103299500Y17447500D01*
X104394000Y13475000D02*
X104394000Y14986000D01*
X116840000Y13221000D02*
X116840000Y14732000D01*
X123889000Y17526000D02*
X122936000Y17526000D01*
X135890000Y19875000D02*
X135890000Y20828000D01*
X143510000Y22415000D02*
X143510000Y23368000D01*
X141986000Y22415000D02*
X141986000Y23368000D01*
X143510000Y22415000D02*
X141986000Y22415000D01*
X137668000Y16916000D02*
X138814000Y16916000D01*
X137735100Y10516000D02*
X137668000Y10448900D01*
X138814000Y10516000D02*
X137735100Y10516000D01*
D53*
%TO.N,Net-(J5-P5)*%
X22606000Y17323500D02*
X22606000Y21082000D01*
%TO.N,Net-(J5-P3-Pad4)*%
X25776000Y13513500D02*
X25776000Y20960000D01*
X25776000Y20960000D02*
X25654000Y21082000D01*
%TO.N,Net-(D3-A)*%
X88567500Y9652000D02*
X90615000Y9652000D01*
%TO.N,/control/ESP_IO13*%
X82677000Y6731000D02*
X85598000Y9652000D01*
X81338000Y6731000D02*
X82677000Y6731000D01*
X85598000Y9652000D02*
X86692500Y9652000D01*
%TO.N,/control/ESP_IO14*%
X86868000Y6096000D02*
X86233000Y5461000D01*
X86233000Y5461000D02*
X81338000Y5461000D01*
%TO.N,/control/DMX.P*%
X33274000Y9335000D02*
X33464000Y9525000D01*
X33464000Y9525000D02*
X35879000Y9525000D01*
%TO.N,/control/DMX.N*%
X33274000Y10985000D02*
X33464000Y10795000D01*
X33464000Y10795000D02*
X35879000Y10795000D01*
X24592000Y11730000D02*
G75*
G03*
X24892000Y11430000I300000J0D01*
G01*
X24592000Y12130000D02*
G75*
G03*
X24292000Y12430000I-300000J0D01*
G01*
X23092000Y12430000D02*
G75*
G03*
X22792000Y12130000I0J-300000D01*
G01*
X23392000Y12130000D02*
G75*
G03*
X23092000Y12430000I-300000J0D01*
G01*
X20992000Y11730000D02*
G75*
G03*
X21292000Y11430000I300000J0D01*
G01*
X20992000Y12130000D02*
G75*
G03*
X20692000Y12430000I-300000J0D01*
G01*
X21892000Y12430000D02*
G75*
G03*
X21592000Y12130000I0J-300000D01*
G01*
X22192000Y11730000D02*
G75*
G03*
X22492000Y11430000I300000J0D01*
G01*
X32829000Y11430000D02*
X24892000Y11430000D01*
X23392000Y11730000D02*
G75*
G03*
X23692000Y11430000I300000J0D01*
G01*
X33274000Y10985000D02*
X32829000Y11430000D01*
X22792000Y12130000D02*
X22792000Y11730000D01*
X23692000Y11430000D02*
G75*
G03*
X23992000Y11730000I0J300000D01*
G01*
X22192000Y12130000D02*
G75*
G03*
X21892000Y12430000I-300000J0D01*
G01*
X24292000Y12430000D02*
G75*
G03*
X23992000Y12130000I0J-300000D01*
G01*
X22492000Y11430000D02*
G75*
G03*
X22792000Y11730000I0J300000D01*
G01*
X23392000Y11730000D02*
X23392000Y12130000D01*
X20692000Y12430000D02*
G75*
G03*
X20392000Y12130000I0J-300000D01*
G01*
X21292000Y11430000D02*
G75*
G03*
X21592000Y11730000I0J300000D01*
G01*
X20092000Y11430000D02*
G75*
G03*
X20392000Y11730000I0J300000D01*
G01*
X24592000Y11730000D02*
X24592000Y12130000D01*
X23992000Y12130000D02*
X23992000Y11730000D01*
X22192000Y11730000D02*
X22192000Y12130000D01*
X21592000Y12130000D02*
X21592000Y11730000D01*
X20992000Y11730000D02*
X20992000Y12130000D01*
X20392000Y12130000D02*
X20392000Y11730000D01*
X20092000Y11430000D02*
X20066000Y11430000D01*
X20066000Y11430000D02*
X18796000Y12700000D01*
X18796000Y12700000D02*
X18796000Y13513500D01*
%TO.N,/control/DMX.P*%
X18288000Y10922000D02*
X17272000Y11938000D01*
X17272000Y15799500D02*
X18796000Y17323500D01*
X31813000Y9335000D02*
X30226000Y10922000D01*
X30226000Y10922000D02*
X18288000Y10922000D01*
X17272000Y11938000D02*
X17272000Y15799500D01*
X33274000Y9335000D02*
X31813000Y9335000D01*
%TO.N,Net-(U2-GPIO21)*%
X44069000Y4191000D02*
X81338000Y4191000D01*
X40829000Y9525000D02*
X42545000Y9525000D01*
X42926000Y9144000D02*
X42926000Y8636000D01*
X42545000Y9525000D02*
X42926000Y9144000D01*
X42926000Y8636000D02*
X42545000Y8255000D01*
X42545000Y8255000D02*
X40829000Y8255000D01*
%TO.N,Net-(U3-RO)*%
X43879000Y12192000D02*
X42672000Y12192000D01*
X42672000Y12192000D02*
X42545000Y12065000D01*
X42545000Y12065000D02*
X40829000Y12065000D01*
%TO.N,Net-(U3-~{RE})*%
X43879000Y10414000D02*
X42672000Y10414000D01*
X42672000Y10414000D02*
X42291000Y10795000D01*
X42291000Y10795000D02*
X40829000Y10795000D01*
%TO.N,Net-(U3-RO)*%
X40956000Y12192000D02*
X40829000Y12065000D01*
%TO.N,Net-(U2-GPIO18{slash}U1RXD{slash}ADC2_CH7{slash}CLK_OUT3)*%
X76278000Y16116000D02*
X76278000Y14302000D01*
X76278000Y14302000D02*
X73152000Y11176000D01*
X73152000Y11176000D02*
X47498000Y11176000D01*
X46736000Y10414000D02*
X45529000Y10414000D01*
X47498000Y11176000D02*
X46736000Y10414000D01*
%TO.N,Net-(U2-GPIO17{slash}U1TXD{slash}ADC2_CH6)*%
X75008000Y16116000D02*
X75008000Y13794000D01*
X47374200Y11553800D02*
X46736000Y12192000D01*
X75008000Y13794000D02*
X72767800Y11553800D01*
X72767800Y11553800D02*
X47374200Y11553800D01*
X46736000Y12192000D02*
X45529000Y12192000D01*
%TO.N,/control/SR.DATA*%
X66548000Y20320000D02*
X65024000Y21844000D01*
X65024000Y21844000D02*
X65024000Y23622000D01*
X65024000Y23622000D02*
X66253000Y24851000D01*
X66253000Y24851000D02*
X67876500Y24851000D01*
%TO.N,Net-(Q32-G)*%
X68003500Y158851000D02*
X64871000Y158851000D01*
X49276000Y155194000D02*
X46482000Y152400000D01*
X64871000Y158851000D02*
X61214000Y155194000D01*
X13716000Y155956000D02*
X13274000Y156398000D01*
X61214000Y155194000D02*
X49276000Y155194000D01*
X46482000Y152400000D02*
X18542000Y152400000D01*
X18542000Y152400000D02*
X14986000Y155956000D01*
X14986000Y155956000D02*
X13716000Y155956000D01*
X13274000Y156398000D02*
X13274000Y157266000D01*
D54*
%TO.N,/control/ESP_PROG.EN*%
X49276000Y16065000D02*
X51512000Y16065000D01*
X51512000Y16065000D02*
X51562000Y16015000D01*
D53*
X47752000Y16002000D02*
X49213000Y16002000D01*
X49213000Y16002000D02*
X49276000Y16065000D01*
D54*
%TO.N,+3V3*%
X48247000Y18529000D02*
X57891790Y18529000D01*
X46736000Y14478000D02*
X46736000Y17018000D01*
X46736000Y17018000D02*
X48247000Y18529000D01*
X46736000Y14478000D02*
X46799000Y14415000D01*
X46799000Y14415000D02*
X49276000Y14415000D01*
D53*
%TO.N,/control/ESP_PROG.IO0*%
X45344000Y-3810000D02*
X45720000Y-3810000D01*
X45720000Y-3810000D02*
X45726400Y-3803600D01*
X79254400Y-3803600D02*
X80088000Y-2970000D01*
X45726400Y-3803600D02*
X79254400Y-3803600D01*
X43058000Y-1524000D02*
X45344000Y-3810000D01*
X80088000Y-2970000D02*
X80088000Y-1384000D01*
%TO.N,/control/SR.LATCH*%
X71303000Y23551000D02*
X67876500Y23551000D01*
X71374000Y23622000D02*
X71303000Y23551000D01*
%TO.N,/control/SR.CLOCK*%
X70697707Y22901000D02*
X67876500Y22901000D01*
X70738707Y22860000D02*
X70697707Y22901000D01*
X69088000Y17780000D02*
X68658000Y17350000D01*
X68658000Y17350000D02*
X68658000Y16116000D01*
%TO.N,/control/SR.LATCH*%
X69928000Y17350000D02*
X70358000Y17780000D01*
X69928000Y16116000D02*
X69928000Y17350000D01*
D54*
%TO.N,+3V3*%
X77470000Y18542000D02*
X64247000Y18542000D01*
X63784000Y18529000D02*
X57891790Y18529000D01*
X81788000Y18542000D02*
X83375000Y18542000D01*
X83375000Y18542000D02*
X92265000Y9652000D01*
%TO.N,/control/ESP_PROG.EN*%
X66118000Y15188200D02*
X65153800Y14224000D01*
X66118000Y16116000D02*
X66118000Y15188200D01*
X65153800Y14224000D02*
X57658000Y14224000D01*
X57658000Y14224000D02*
X56134000Y15748000D01*
%TO.N,+3V3*%
X64260000Y18555000D02*
X64247000Y18542000D01*
X64247000Y18542000D02*
X62245000Y18542000D01*
X63309000Y17478000D02*
X64247000Y18416000D01*
X64247000Y18416000D02*
X64247000Y18542000D01*
X62245000Y18542000D02*
X63309000Y17478000D01*
X63322000Y17465000D02*
X64848000Y17465000D01*
X64848000Y17465000D02*
X64848000Y16116000D01*
X63309000Y17478000D02*
X63322000Y17465000D01*
%TO.N,/control/ESP_PROG.EN*%
X56134000Y15748000D02*
X54053000Y15748000D01*
X53848000Y15953000D02*
X51624000Y15953000D01*
D53*
%TO.N,/control/SR.DATA*%
X67388000Y17702000D02*
X67310000Y17780000D01*
X67388000Y16116000D02*
X67388000Y17702000D01*
%TO.N,Net-(U2-U0TXD{slash}GPIO43{slash}CLK_OUT1)*%
X67388000Y-1384000D02*
X67388000Y176000D01*
X67388000Y176000D02*
X66008000Y1556000D01*
X66008000Y1556000D02*
X48831000Y1556000D01*
%TO.N,Net-(U2-U0RXD{slash}GPIO44{slash}CLK_OUT2)*%
X48831000Y3334000D02*
X48863000Y3302000D01*
X48863000Y3302000D02*
X65786000Y3302000D01*
X68658000Y430000D02*
X68658000Y-1384000D01*
X65786000Y3302000D02*
X68658000Y430000D01*
D54*
%TO.N,+3V3*%
X47498000Y0D02*
X47943000Y-445000D01*
X47943000Y-445000D02*
X52832000Y-445000D01*
D53*
%TO.N,/control/I2C.SCK*%
X50800000Y-2032000D02*
X49085000Y-2032000D01*
X49085000Y-2032000D02*
X49022000Y-2095000D01*
X52193800Y-3425800D02*
X50800000Y-2032000D01*
%TO.N,/control/I2C.SCL*%
X54610000Y-2032000D02*
X52895000Y-2032000D01*
X52895000Y-2032000D02*
X52832000Y-2095000D01*
X64848000Y-1384000D02*
X64848000Y-2311800D01*
X64848000Y-2311800D02*
X64111800Y-3048000D01*
X64111800Y-3048000D02*
X55626000Y-3048000D01*
X55626000Y-3048000D02*
X54610000Y-2032000D01*
X70541000Y144582000D02*
X70541000Y145727500D01*
X69088000Y143256000D02*
X69215000Y143256000D01*
X69215000Y143256000D02*
X70541000Y144582000D01*
X64848000Y78000D02*
X65278000Y508000D01*
X64848000Y-1384000D02*
X64848000Y78000D01*
X68549100Y35814000D02*
X69342000Y35814000D01*
X69342000Y35814000D02*
X70033000Y36505000D01*
X70033000Y36505000D02*
X70033000Y37523500D01*
%TO.N,/control/I2C.SCK*%
X66118000Y-1384000D02*
X66118000Y78000D01*
X66118000Y78000D02*
X66294000Y254000D01*
D54*
%TO.N,/control/ESP_PROG.EN*%
X51624000Y15953000D02*
X51562000Y16015000D01*
X54053000Y15748000D02*
X53848000Y15953000D01*
D53*
%TO.N,/control/ESP_PROG.RX*%
X44328000Y-1524000D02*
X44328000Y2164000D01*
X44328000Y2164000D02*
X45498000Y3334000D01*
X45498000Y3334000D02*
X47181000Y3334000D01*
%TO.N,/control/ESP_PROG.TX*%
X45598000Y1148000D02*
X45974000Y1524000D01*
X45598000Y-1524000D02*
X45598000Y1148000D01*
X45974000Y1524000D02*
X47149000Y1524000D01*
X47149000Y1524000D02*
X47181000Y1556000D01*
%TO.N,/control/I2C.SCK*%
X66118000Y-1384000D02*
X66118000Y-2311800D01*
X66118000Y-2311800D02*
X65004000Y-3425800D01*
X65004000Y-3425800D02*
X52193800Y-3425800D01*
D54*
%TO.N,+3V3*%
X95507000Y8131000D02*
X94999000Y8639000D01*
X94999000Y8639000D02*
X93986000Y9652000D01*
X95755000Y8639000D02*
X94999000Y8639000D01*
X93986000Y9652000D02*
X92265000Y9652000D01*
X95507000Y8131000D02*
X95507000Y3048000D01*
D53*
%TO.N,/control/JTAG.TDI*%
X72136000Y254000D02*
X71628000Y254000D01*
X71628000Y254000D02*
X71198000Y-176000D01*
X71198000Y-176000D02*
X71198000Y-1384000D01*
X86043000Y-1524000D02*
X84074000Y-1524000D01*
%TO.N,/control/JTAG.TDO*%
X73660000Y762000D02*
X72468000Y-430000D01*
X72468000Y-430000D02*
X72468000Y-1384000D01*
%TO.N,/control/JTAG.TCK*%
X75453200Y1493600D02*
X73738000Y-221600D01*
X73738000Y-221600D02*
X73738000Y-1384000D01*
%TO.N,/control/JTAG.TDO*%
X86043000Y254000D02*
X83820000Y254000D01*
%TO.N,/control/JTAG.TCK*%
X86043000Y2032000D02*
X84074000Y2032000D01*
%TO.N,/control/JTAG.TMS*%
X86043000Y3810000D02*
X84074000Y3810000D01*
X69928000Y332000D02*
X69928000Y-1384000D01*
X70104000Y508000D02*
X69928000Y332000D01*
%TO.N,Net-(J3-Pad08)*%
X91437000Y-762000D02*
X89408000Y-762000D01*
X89408000Y-762000D02*
X88646000Y-1524000D01*
X88646000Y-1524000D02*
X87693000Y-1524000D01*
%TO.N,Net-(J3-Pad06)*%
X89408000Y508000D02*
X89154000Y254000D01*
X91437000Y508000D02*
X89408000Y508000D01*
X89154000Y254000D02*
X87693000Y254000D01*
%TO.N,Net-(J3-Pad04)*%
X89154000Y1778000D02*
X88900000Y2032000D01*
X91437000Y1778000D02*
X89154000Y1778000D01*
X88900000Y2032000D02*
X87693000Y2032000D01*
%TO.N,Net-(J3-Pad02)*%
X89408000Y3048000D02*
X88646000Y3810000D01*
X91437000Y3048000D02*
X89408000Y3048000D01*
X88646000Y3810000D02*
X87693000Y3810000D01*
D54*
%TO.N,+3V3*%
X108458000Y12330000D02*
X108444000Y12344000D01*
%TO.N,/power/5V_COMB*%
X115824000Y9349000D02*
X116217000Y8956000D01*
X116217000Y8956000D02*
X125143500Y8956000D01*
X116840000Y11671000D02*
X116840000Y10365000D01*
X116840000Y10365000D02*
X115824000Y9349000D01*
X113030000Y9349000D02*
X115824000Y9349000D01*
X113030000Y9349000D02*
X113030000Y12330000D01*
X113030000Y12330000D02*
X113044000Y12344000D01*
X125159000Y6604000D02*
X125159000Y8940500D01*
X125159000Y8940500D02*
X125143500Y8956000D01*
%TO.N,VBUS*%
X125606000Y14986000D02*
X125606000Y17459000D01*
X125606000Y17459000D02*
X125539000Y17526000D01*
X125143500Y12621500D02*
X125476000Y12954000D01*
X125143500Y10856000D02*
X125143500Y12621500D01*
X125476000Y12954000D02*
X125476000Y14856000D01*
X125476000Y14856000D02*
X125606000Y14986000D01*
X125143500Y10856000D02*
X136814000Y10856000D01*
X136814000Y10856000D02*
X137274000Y11316000D01*
X138814000Y16116000D02*
X137274000Y16116000D01*
X137274000Y16116000D02*
X136906000Y15748000D01*
X136906000Y11684000D02*
X137274000Y11316000D01*
X137274000Y11316000D02*
X138814000Y11316000D01*
D56*
%TO.N,/control/USB_P*%
X133033000Y13208000D02*
X132320499Y13208000D01*
X130716800Y13999000D02*
X128807000Y15908800D01*
X132320499Y13208000D02*
X131529499Y13999000D01*
X131529499Y13999000D02*
X130716800Y13999000D01*
X128807000Y15908800D02*
X128807000Y19464800D01*
X127414800Y20857000D02*
X82135200Y20857000D01*
X80010000Y16194000D02*
X80088000Y16116000D01*
X128807000Y19464800D02*
X127414800Y20857000D01*
X82135200Y20857000D02*
X80010000Y18731800D01*
X80010000Y18731800D02*
X80010000Y16194000D01*
%TO.N,/control/USB_N*%
X78818000Y18176200D02*
X78818000Y16116000D01*
X132320499Y15240000D02*
X131529499Y14449000D01*
X130903200Y14449000D02*
X129257000Y16095200D01*
X129257000Y19651200D02*
X127601200Y21307000D01*
X127601200Y21307000D02*
X81948800Y21307000D01*
X133033000Y15240000D02*
X132320499Y15240000D01*
X131529499Y14449000D02*
X130903200Y14449000D01*
X129257000Y16095200D02*
X129257000Y19651200D01*
X81948800Y21307000D02*
X78818000Y18176200D01*
D53*
%TO.N,Net-(J2-CC2)*%
X138814000Y11966000D02*
X140942000Y11966000D01*
X140942000Y11966000D02*
X141732000Y11176000D01*
X141732000Y11176000D02*
X141732000Y10668000D01*
X141732000Y10668000D02*
X140970000Y9906000D01*
X140970000Y9906000D02*
X136589000Y9906000D01*
X136589000Y9906000D02*
X135890000Y9207000D01*
%TO.N,Net-(J2-CC1)*%
X138814000Y14966000D02*
X140950000Y14966000D01*
X140950000Y14966000D02*
X141478000Y15494000D01*
X141478000Y17018000D02*
X140970000Y17526000D01*
X140970000Y17526000D02*
X136335000Y17526000D01*
X141478000Y15494000D02*
X141478000Y17018000D01*
X136335000Y17526000D02*
X135890000Y17971000D01*
%TO.N,/control/USB.N*%
X138814000Y14466000D02*
X136664000Y14466000D01*
X136664000Y14466000D02*
X135890000Y15240000D01*
X135890000Y15240000D02*
X134683000Y15240000D01*
%TO.N,/control/USB.P*%
X137414000Y13462000D02*
X136144000Y13462000D01*
X136144000Y13462000D02*
X135890000Y13208000D01*
X135890000Y13208000D02*
X134683000Y13208000D01*
X137414000Y13716000D02*
X137414000Y13462000D01*
X137414000Y13462000D02*
X137414000Y13208000D01*
X137656000Y12966000D02*
X138814000Y12966000D01*
X138011200Y13966000D02*
X138007200Y13970000D01*
X137668000Y13970000D02*
X137414000Y13716000D01*
X138007200Y13970000D02*
X137668000Y13970000D01*
X138814000Y13966000D02*
X138011200Y13966000D01*
X137414000Y13208000D02*
X137656000Y12966000D01*
%TO.N,/control/USB.N*%
X138814000Y13466000D02*
X139958000Y13466000D01*
X140208000Y13716000D02*
X140208000Y14224000D01*
X139958000Y13466000D02*
X140208000Y13716000D01*
X140208000Y14224000D02*
X139966000Y14466000D01*
X139966000Y14466000D02*
X138814000Y14466000D01*
D54*
%TO.N,/io/USB_SHIELD_GND*%
X143319000Y18836000D02*
X143319000Y8596000D01*
X143319000Y8596000D02*
X139389000Y8596000D01*
X143319000Y18836000D02*
X139389000Y18836000D01*
X141986000Y20765000D02*
X143510000Y20765000D01*
X142708000Y18836000D02*
X142240000Y19304000D01*
X143319000Y18836000D02*
X142708000Y18836000D01*
X142240000Y19304000D02*
X142240000Y20511000D01*
X142240000Y20511000D02*
X141986000Y20765000D01*
X143319000Y18836000D02*
X143319000Y20574000D01*
X143319000Y20574000D02*
X143510000Y20765000D01*
D53*
%TO.N,Net-(U8-SER)*%
X69342000Y117348000D02*
X68845000Y116851000D01*
X68845000Y116851000D02*
X67876500Y116851000D01*
%TO.N,/control/SR.CLOCK*%
X70835600Y154940000D02*
X69524600Y156251000D01*
X69524600Y156251000D02*
X68003500Y156251000D01*
%TO.N,/control/SR.LATCH*%
X71374000Y155448000D02*
X69921000Y156901000D01*
X69921000Y156901000D02*
X68003500Y156901000D01*
%TO.N,/display/led_row_2_3/LED_SER_OUT*%
X69099000Y97801000D02*
X69342000Y98044000D01*
X67876500Y97801000D02*
X69099000Y97801000D01*
%TO.N,/control/SR.CLOCK*%
X69778100Y118151000D02*
X67876500Y118151000D01*
X70835100Y117094000D02*
X69778100Y118151000D01*
%TO.N,/control/SR.LATCH*%
X71374000Y117856000D02*
X70429000Y118801000D01*
X70429000Y118801000D02*
X67876500Y118801000D01*
%TO.N,/control/SR.CLOCK*%
X70835100Y98298000D02*
X70032100Y99101000D01*
X70032100Y99101000D02*
X67876500Y99101000D01*
%TO.N,/control/SR.LATCH*%
X71374000Y99060000D02*
X70683000Y99751000D01*
X70683000Y99751000D02*
X67876500Y99751000D01*
%TO.N,/control/SR.CLOCK*%
X70835100Y47752000D02*
X70286100Y48301000D01*
X70286100Y48301000D02*
X67876500Y48301000D01*
%TO.N,/display/led_row_0_1/LED_SER_OUT*%
X67876500Y47001000D02*
X68845000Y47001000D01*
X68845000Y47001000D02*
X69088000Y47244000D01*
%TO.N,/control/SR.LATCH*%
X71374000Y48260000D02*
X70683000Y48951000D01*
X70683000Y48951000D02*
X67876500Y48951000D01*
%TO.N,Net-(P23-Pad1)*%
X108712000Y101092000D02*
X103109478Y106694522D01*
X108712000Y98361000D02*
X108712000Y101092000D01*
X103109478Y106694522D02*
X103109478Y108522883D01*
X108966000Y98107000D02*
X108712000Y98361000D01*
%TO.N,Net-(U11-KEY1)*%
X72364000Y93540500D02*
X72364000Y95224000D01*
X72364000Y95224000D02*
X73406000Y96266000D01*
X108775000Y96266000D02*
X108966000Y96457000D01*
X73406000Y96266000D02*
X108775000Y96266000D01*
%TO.N,Net-(P19-Pad1)*%
X2361802Y106604198D02*
X2361802Y108288643D01*
X7874000Y101092000D02*
X2361802Y106604198D01*
%TO.N,Net-(P20-Pad1)*%
X33274000Y99885000D02*
X33274000Y101346000D01*
X33274000Y101346000D02*
X27548721Y107071279D01*
X27548721Y107071279D02*
X27548721Y108522883D01*
%TO.N,Net-(U11-KEY4{slash}GPO2)*%
X70414000Y93540500D02*
X70414000Y94940000D01*
X44196000Y96012000D02*
X41973000Y98235000D01*
X70414000Y94940000D02*
X69342000Y96012000D01*
X69342000Y96012000D02*
X44196000Y96012000D01*
X41973000Y98235000D02*
X33274000Y98235000D01*
%TO.N,Net-(P30-Pad1)*%
X129540000Y147066000D02*
X131064000Y145542000D01*
X123634000Y147066000D02*
X129540000Y147066000D01*
X131064000Y145542000D02*
X123422402Y137900402D01*
X123422402Y137900402D02*
X123422402Y136338562D01*
%TO.N,Net-(P29-Pad1)*%
X105156000Y147066000D02*
X106680000Y145542000D01*
X99504000Y147066000D02*
X105156000Y147066000D01*
X106680000Y145542000D02*
X99235480Y138097480D01*
X99235480Y138097480D02*
X99235480Y136313442D01*
%TO.N,Net-(P28-Pad1)*%
X81724000Y147066000D02*
X81788000Y147002000D01*
X81788000Y147002000D02*
X81788000Y143052882D01*
X81788000Y143052882D02*
X75048560Y136313442D01*
%TO.N,Net-(P36-Pad1)*%
X133159000Y151511000D02*
X134239000Y151511000D01*
X135382000Y152654000D02*
X135382000Y153924000D01*
X134239000Y151511000D02*
X135382000Y152654000D01*
%TO.N,Net-(P35-Pad1)*%
X110427000Y153225000D02*
X109728000Y153924000D01*
X110998000Y153225000D02*
X110427000Y153225000D01*
%TO.N,Net-(Q37-G)*%
X124315300Y152509300D02*
X124460000Y152654000D01*
X124460000Y152654000D02*
X126304000Y154498000D01*
X99177900Y152536100D02*
X124342100Y152536100D01*
X96266000Y155448000D02*
X99177900Y152536100D01*
X124342100Y152536100D02*
X124460000Y152654000D01*
%TO.N,Net-(U12-KEY1)*%
X72491000Y151452500D02*
X72491000Y152755000D01*
X77090300Y152017700D02*
X103760300Y152017700D01*
X72491000Y152755000D02*
X73152000Y153416000D01*
X73152000Y153416000D02*
X75692000Y153416000D01*
X75692000Y153416000D02*
X77090300Y152017700D01*
X103760300Y152017700D02*
X104140000Y151638000D01*
X104140000Y151638000D02*
X110935000Y151638000D01*
X110935000Y151638000D02*
X110998000Y151575000D01*
%TO.N,Net-(P34-Pad1)*%
X83058000Y153416000D02*
X83566000Y153924000D01*
X80581000Y153416000D02*
X83058000Y153416000D01*
%TO.N,Net-(U12-KEY2{slash}GPO0)*%
X71841000Y151452500D02*
X71841000Y152639290D01*
X71841000Y152639290D02*
X73125710Y153924000D01*
X73125710Y153924000D02*
X76708000Y153924000D01*
X76708000Y153924000D02*
X77216000Y153416000D01*
X77216000Y153416000D02*
X78931000Y153416000D01*
%TO.N,Net-(Q37-G)*%
X76200000Y155448000D02*
X96266000Y155448000D01*
X74747000Y156901000D02*
X76200000Y155448000D01*
X126304000Y154498000D02*
X126304000Y157266000D01*
X73728500Y156901000D02*
X74747000Y156901000D01*
%TO.N,Net-(Q36-G)*%
X99192000Y156210000D02*
X100248000Y157266000D01*
X100248000Y157266000D02*
X100904000Y157266000D01*
X73728500Y157551000D02*
X74859000Y157551000D01*
X74859000Y157551000D02*
X76200000Y156210000D01*
X76200000Y156210000D02*
X99192000Y156210000D01*
%TO.N,Net-(D37-K)*%
X80264000Y162367500D02*
X80264000Y159004000D01*
X80264000Y159004000D02*
X81302000Y157966000D01*
X81302000Y157966000D02*
X84074000Y157966000D01*
%TO.N,Net-(Q35-D)*%
X76708000Y165416000D02*
X80140500Y165416000D01*
X80140500Y165416000D02*
X80264000Y165292500D01*
%TO.N,Net-(Q35-G)*%
X77533000Y160296000D02*
X77658000Y160421000D01*
X77658000Y160421000D02*
X77658000Y162796000D01*
X73728500Y158201000D02*
X76159000Y158201000D01*
X76159000Y158201000D02*
X77533000Y159575000D01*
X77533000Y159575000D02*
X77533000Y160296000D01*
%TO.N,Net-(P32-Pad1)*%
X31179000Y153924000D02*
X32004000Y153924000D01*
X30480000Y153225000D02*
X31179000Y153924000D01*
%TO.N,Net-(P33-Pad1)*%
X57912000Y153479000D02*
X57912000Y154432000D01*
%TO.N,Net-(U12-KEY3{slash}GPO1)*%
X67056000Y153670000D02*
X65278000Y151892000D01*
X57912000Y151829000D02*
X65215000Y151829000D01*
X65215000Y151829000D02*
X65278000Y151892000D01*
%TO.N,Net-(D36-K)*%
X60706000Y160589500D02*
X60706000Y159004000D01*
X60706000Y159004000D02*
X59668000Y157966000D01*
X59668000Y157966000D02*
X57404000Y157966000D01*
%TO.N,Net-(Q34-D)*%
X61508000Y165394000D02*
X60960000Y164846000D01*
X65024000Y165394000D02*
X61508000Y165394000D01*
X60960000Y164846000D02*
X60960000Y163768500D01*
X60960000Y163768500D02*
X60706000Y163514500D01*
%TO.N,Net-(Q34-G)*%
X65849000Y160274000D02*
X65974000Y160399000D01*
X65974000Y160399000D02*
X65974000Y162774000D01*
%TO.N,Net-(U10-KEY2{slash}GPO0)*%
X71333000Y43248500D02*
X71333000Y44663000D01*
X71333000Y44663000D02*
X72136000Y45466000D01*
X74676000Y45466000D02*
X75184000Y44958000D01*
X75184000Y44958000D02*
X80518000Y44958000D01*
X72136000Y45466000D02*
X74676000Y45466000D01*
%TO.N,Net-(U12-KEY0)*%
X129032000Y150622000D02*
X129794000Y151384000D01*
X104394000Y150622000D02*
X129032000Y150622000D01*
X73406000Y152908000D02*
X75438000Y152908000D01*
X73141000Y151452500D02*
X73141000Y152643000D01*
X73141000Y152643000D02*
X73406000Y152908000D01*
X103376100Y151639900D02*
X104394000Y150622000D01*
X129794000Y151384000D02*
X131382000Y151384000D01*
X75438000Y152908000D02*
X76708000Y151638000D01*
X76709900Y151639900D02*
X103376100Y151639900D01*
X76708000Y151638000D02*
X76709900Y151639900D01*
X131382000Y151384000D02*
X131509000Y151511000D01*
%TO.N,Net-(U11-KEY0)*%
X73014000Y93540500D02*
X73014000Y94604000D01*
X73014000Y94604000D02*
X73660000Y95250000D01*
X73660000Y95250000D02*
X127318000Y95250000D01*
X127318000Y95250000D02*
X128969000Y96901000D01*
%TO.N,Net-(U11-KEY2{slash}GPO0)*%
X71714000Y93540500D02*
X71714000Y95336000D01*
X76200000Y96774000D02*
X77978000Y98552000D01*
X71714000Y95336000D02*
X73152000Y96774000D01*
X73152000Y96774000D02*
X76200000Y96774000D01*
X77978000Y98552000D02*
X79439000Y98552000D01*
%TO.N,Net-(U12-KEY6{slash}GPO4)*%
X121730000Y147320000D02*
X121984000Y147066000D01*
X70996200Y148459800D02*
X119510200Y148459800D01*
X119510200Y148459800D02*
X120650000Y147320000D01*
X69241000Y150215000D02*
X70996200Y148459800D01*
X120650000Y147320000D02*
X121730000Y147320000D01*
X69241000Y151452500D02*
X69241000Y150215000D01*
%TO.N,Net-(U12-KEY7{slash}GPO5)*%
X96012000Y147066000D02*
X97854000Y147066000D01*
X94996000Y148082000D02*
X96012000Y147066000D01*
X70612000Y148082000D02*
X94996000Y148082000D01*
X68591000Y150103000D02*
X70612000Y148082000D01*
X68591000Y151452500D02*
X68591000Y150103000D01*
%TO.N,Net-(P25-Pad1)*%
X18479000Y147066000D02*
X13357478Y147066000D01*
X13357478Y147066000D02*
X2487800Y136196322D01*
%TO.N,Net-(P26-Pad1)*%
X34544000Y146749000D02*
X34544000Y144182722D01*
X34544000Y144182722D02*
X26674720Y136313442D01*
%TO.N,Net-(P27-Pad1)*%
X58674000Y146749000D02*
X58674000Y144125802D01*
X58674000Y144125802D02*
X50861640Y136313442D01*
%TO.N,Net-(Q33-D)*%
X40259000Y154646000D02*
X38822000Y154646000D01*
X38822000Y154646000D02*
X38227000Y154051000D01*
X36514500Y154051000D02*
X38227000Y154051000D01*
%TO.N,Net-(D35-K)*%
X33589500Y154051000D02*
X33589500Y155132500D01*
X33589500Y155132500D02*
X32004000Y156718000D01*
X32004000Y156718000D02*
X32004000Y157966000D01*
%TO.N,Net-(P31-Pad1)*%
X6350000Y152845000D02*
X6350000Y153924000D01*
X7684000Y151511000D02*
X6350000Y152845000D01*
%TO.N,Net-(D34-K)*%
X6604000Y156718000D02*
X6604000Y157966000D01*
X7935500Y154051000D02*
X7935500Y155132500D01*
X7935500Y155132500D02*
X6604000Y156464000D01*
X6604000Y156464000D02*
X6604000Y156718000D01*
%TO.N,Net-(Q32-D)*%
X14224000Y154646000D02*
X12914000Y154646000D01*
X12914000Y154646000D02*
X12319000Y154051000D01*
X12319000Y154051000D02*
X10860500Y154051000D01*
%TO.N,Net-(U12-KEY5{slash}GPO3)*%
X69891000Y151452500D02*
X69891000Y152506500D01*
X69891000Y152506500D02*
X69613300Y152784200D01*
X65043873Y150508300D02*
X11797700Y150508300D01*
X67319773Y152784200D02*
X65043873Y150508300D01*
X69613300Y152784200D02*
X67319773Y152784200D01*
X11797700Y150508300D02*
X10795000Y151511000D01*
X10795000Y151511000D02*
X9334000Y151511000D01*
%TO.N,Net-(U12-KEY4{slash}GPO2)*%
X70541000Y151452500D02*
X70541000Y152725000D01*
X67082290Y153162000D02*
X64806390Y150886100D01*
X37581900Y150886100D02*
X36830000Y151638000D01*
X30543000Y151638000D02*
X30480000Y151575000D01*
X64806390Y150886100D02*
X37581900Y150886100D01*
X70104000Y153162000D02*
X67082290Y153162000D01*
X70541000Y152725000D02*
X70104000Y153162000D01*
X36830000Y151638000D02*
X30543000Y151638000D01*
%TO.N,Net-(U12-KEY3{slash}GPO1)*%
X71191000Y151452500D02*
X71191000Y152837000D01*
X71191000Y152837000D02*
X70358000Y153670000D01*
X70358000Y153670000D02*
X67056000Y153670000D01*
%TO.N,Net-(Q31-D)*%
X121706000Y125436000D02*
X122936000Y124206000D01*
X120269000Y125436000D02*
X121706000Y125436000D01*
X122936000Y124206000D02*
X125791500Y124206000D01*
%TO.N,Net-(Q30-D)*%
X98592000Y125436000D02*
X99822000Y124206000D01*
X96139000Y125436000D02*
X98592000Y125436000D01*
X99822000Y124206000D02*
X101661500Y124206000D01*
%TO.N,Net-(Q29-D)*%
X73025000Y124166000D02*
X78126500Y124166000D01*
X78126500Y124166000D02*
X78166500Y124206000D01*
%TO.N,Net-(Q29-G)*%
X73601500Y120101000D02*
X75397000Y120101000D01*
X75946000Y120650000D02*
X75946000Y121946290D01*
X72774200Y122805800D02*
X71882000Y123698000D01*
X75397000Y120101000D02*
X75946000Y120650000D01*
X75946000Y121946290D02*
X75086490Y122805800D01*
X75086490Y122805800D02*
X72774200Y122805800D01*
X71882000Y123698000D02*
X71882000Y126593000D01*
X71882000Y126593000D02*
X72075000Y126786000D01*
X72075000Y126786000D02*
X72075000Y129034000D01*
X72075000Y129034000D02*
X72327000Y129286000D01*
%TO.N,Net-(Q28-G)*%
X67630000Y127294000D02*
X67630000Y129732000D01*
%TO.N,Net-(Q27-D)*%
X43902000Y125436000D02*
X42672000Y124206000D01*
X45339000Y125436000D02*
X43902000Y125436000D01*
X42672000Y124206000D02*
X39816500Y124206000D01*
%TO.N,Net-(D28-K)*%
X13396500Y124206000D02*
X11684000Y124206000D01*
%TO.N,Net-(Q26-D)*%
X21209000Y125436000D02*
X19264000Y125436000D01*
X18034000Y124206000D02*
X16321500Y124206000D01*
X19264000Y125436000D02*
X18034000Y124206000D01*
%TO.N,Net-(Q26-G)*%
X20259000Y128056000D02*
X20259000Y130431000D01*
X20259000Y130431000D02*
X20384000Y130556000D01*
%TO.N,Net-(P13-Pad1)*%
X18479000Y92456000D02*
X12700000Y92456000D01*
X12700000Y92456000D02*
X10414000Y90170000D01*
%TO.N,Net-(P14-Pad1)*%
X36322000Y92456000D02*
X34290000Y90424000D01*
X42609000Y92456000D02*
X36322000Y92456000D01*
%TO.N,Net-(P15-Pad1)*%
X57912000Y91948000D02*
X57912000Y90424000D01*
X58420000Y92456000D02*
X57912000Y91948000D01*
X59119000Y92456000D02*
X58420000Y92456000D01*
%TO.N,Net-(P16-Pad1)*%
X78335709Y90424000D02*
X82804000Y90424000D01*
%TO.N,Net-(U11-KEY8{slash}GPO6)*%
X67814000Y93540500D02*
X67814000Y92407420D01*
X69797420Y90424000D02*
X76685709Y90424000D01*
X67814000Y92407420D02*
X69797420Y90424000D01*
%TO.N,Net-(U11-KEY5{slash}GPO3)*%
X69764000Y93540500D02*
X69764000Y94574000D01*
X69764000Y94574000D02*
X68834000Y95504000D01*
X17018000Y95504000D02*
X16256000Y96266000D01*
X16256000Y96266000D02*
X13144000Y96266000D01*
X68834000Y95504000D02*
X17018000Y95504000D01*
%TO.N,Net-(U11-KEY3{slash}GPO1)*%
X71064000Y93540500D02*
X71064000Y94868994D01*
X69158994Y96774000D02*
X66040000Y96774000D01*
X71064000Y94868994D02*
X69158994Y96774000D01*
X66040000Y96774000D02*
X64008000Y98806000D01*
X64008000Y98806000D02*
X62674000Y98806000D01*
%TO.N,Net-(U11-KEY9{slash}GPO7)*%
X67814000Y87815500D02*
X66870500Y87815500D01*
X66870500Y87815500D02*
X62230000Y92456000D01*
X62230000Y92456000D02*
X60769000Y92456000D01*
%TO.N,Net-(P22-Pad1)*%
X83058000Y101854000D02*
X83058000Y103387442D01*
X83058000Y103387442D02*
X77922559Y108522883D01*
X82550000Y98552000D02*
X83058000Y99060000D01*
X81089000Y98552000D02*
X82550000Y98552000D01*
%TO.N,Net-(Q24-G)*%
X73601500Y100401000D02*
X73672500Y100330000D01*
X73672500Y100330000D02*
X97028000Y100330000D01*
X97028000Y100330000D02*
X98364000Y101666000D01*
X98364000Y101666000D02*
X98364000Y103291000D01*
%TO.N,Net-(P24-Pad1)*%
X130619000Y96901000D02*
X132715000Y96901000D01*
X132715000Y96901000D02*
X134112000Y98298000D01*
X134112000Y98298000D02*
X134112000Y102757523D01*
X134112000Y102757523D02*
X128296400Y108573123D01*
%TO.N,GND*%
X73660000Y93218000D02*
X73661900Y93219900D01*
%TO.N,Net-(P4-Pad1)*%
X82169000Y37211000D02*
X83820000Y35560000D01*
X81089000Y37211000D02*
X82169000Y37211000D01*
%TO.N,Net-(P6-Pad1)*%
X134493000Y37211000D02*
X136144000Y35560000D01*
X133794000Y37211000D02*
X134493000Y37211000D01*
%TO.N,Net-(P5-Pad1)*%
X108331000Y37211000D02*
X109982000Y35560000D01*
X107124000Y37211000D02*
X108331000Y37211000D01*
%TO.N,Net-(P1-Pad1)*%
X6858000Y36576000D02*
X5334000Y35052000D01*
X8319000Y36576000D02*
X6858000Y36576000D01*
%TO.N,Net-(P2-Pad1)*%
X34354000Y37211000D02*
X33401000Y37211000D01*
X33401000Y37211000D02*
X31750000Y35560000D01*
%TO.N,Net-(P3-Pad1)*%
X59563000Y37211000D02*
X57912000Y35560000D01*
X60389000Y37211000D02*
X59563000Y37211000D01*
%TO.N,Net-(U10-KEY10{slash}GPO8)*%
X68083000Y37523500D02*
X68083000Y38570710D01*
X67661510Y38992200D02*
X39754200Y38992200D01*
X68083000Y38570710D02*
X67661510Y38992200D01*
X39754200Y38992200D02*
X37973000Y37211000D01*
X37973000Y37211000D02*
X36004000Y37211000D01*
%TO.N,Net-(U10-KEY11{slash}GPO9)*%
X68733000Y37523500D02*
X68733000Y38455000D01*
X68733000Y38455000D02*
X67818000Y39370000D01*
X67818000Y39370000D02*
X15240000Y39370000D01*
X12446000Y36576000D02*
X9969000Y36576000D01*
X15240000Y39370000D02*
X12446000Y36576000D01*
%TO.N,Net-(U10-KEY9{slash}GPO7)*%
X67433000Y37523500D02*
X63685500Y37523500D01*
X63685500Y37523500D02*
X63373000Y37211000D01*
X63373000Y37211000D02*
X62039000Y37211000D01*
%TO.N,Net-(P7-Pad1)*%
X6096000Y45720000D02*
X6858000Y46482000D01*
X6096000Y45529000D02*
X6096000Y45720000D01*
%TO.N,Net-(U10-KEY5{slash}GPO3)*%
X68827600Y44964400D02*
X65792400Y44964400D01*
X69342000Y43289500D02*
X69342000Y44450000D01*
X69342000Y44450000D02*
X68827600Y44964400D01*
X65792400Y44964400D02*
X63754000Y42926000D01*
X69383000Y43248500D02*
X69342000Y43289500D01*
X63754000Y42926000D02*
X6604000Y42926000D01*
X6604000Y42926000D02*
X6096000Y43434000D01*
X6096000Y43434000D02*
X6096000Y43879000D01*
%TO.N,Net-(P8-Pad1)*%
X31305000Y46291000D02*
X31750000Y46736000D01*
X30226000Y46291000D02*
X31305000Y46291000D01*
%TO.N,Net-(U10-KEY4{slash}GPO2)*%
X70033000Y43248500D02*
X70033000Y44521000D01*
X70033000Y44521000D02*
X69211800Y45342200D01*
X69211800Y45342200D02*
X65408200Y45342200D01*
X65408200Y45342200D02*
X63500000Y43434000D01*
X63500000Y43434000D02*
X30734000Y43434000D01*
X30734000Y43434000D02*
X30226000Y43942000D01*
X30226000Y43942000D02*
X30226000Y44641000D01*
%TO.N,Net-(Q2-G)*%
X67876500Y25501000D02*
X65633000Y25501000D01*
X12446000Y25327000D02*
X12446000Y28448000D01*
X11938000Y28956000D02*
X10668000Y28956000D01*
X65633000Y25501000D02*
X62919000Y22787000D01*
X14986000Y22787000D02*
X12446000Y25327000D01*
X62919000Y22787000D02*
X14986000Y22787000D01*
X12446000Y28448000D02*
X11938000Y28956000D01*
X10668000Y28956000D02*
X10099000Y29525000D01*
X10099000Y29525000D02*
X10099000Y30266000D01*
%TO.N,Net-(P9-Pad1)*%
X56197000Y46291000D02*
X56642000Y46736000D01*
X55372000Y46291000D02*
X56197000Y46291000D01*
%TO.N,Net-(U10-KEY3{slash}GPO1)*%
X70683000Y43248500D02*
X70683000Y45141000D01*
X70683000Y45141000D02*
X70104000Y45720000D01*
X70104000Y45720000D02*
X65024000Y45720000D01*
X65024000Y45720000D02*
X64008000Y44704000D01*
X64008000Y44704000D02*
X55435000Y44704000D01*
X55435000Y44704000D02*
X55372000Y44641000D01*
%TO.N,Net-(P10-Pad1)*%
X83312000Y45212000D02*
X83058000Y44958000D01*
X83312000Y46197600D02*
X83312000Y45212000D01*
X83058000Y44958000D02*
X82168000Y44958000D01*
%TO.N,Net-(P11-Pad1)*%
X109982000Y45592000D02*
X109982000Y46736000D01*
%TO.N,Net-(Q13-G)*%
X73601500Y48951000D02*
X74747000Y48951000D01*
X74747000Y48951000D02*
X76962000Y46736000D01*
X96520000Y44704000D02*
X123444000Y44704000D01*
X76962000Y46736000D02*
X94488000Y46736000D01*
X94488000Y46736000D02*
X96520000Y44704000D01*
X123444000Y44704000D02*
X126176040Y47436040D01*
X126176040Y47436040D02*
X126176040Y51217953D01*
%TO.N,Net-(U10-KEY1)*%
X71983000Y43248500D02*
X71983000Y44551000D01*
X71983000Y44551000D02*
X72390000Y44958000D01*
X76454000Y42926000D02*
X109474000Y42926000D01*
X109474000Y42926000D02*
X109982000Y43434000D01*
X74422000Y44958000D02*
X76454000Y42926000D01*
X72390000Y44958000D02*
X74422000Y44958000D01*
X109982000Y43434000D02*
X109982000Y43942000D01*
%TO.N,Net-(P12-Pad1)*%
X133350000Y44704000D02*
X135128000Y46482000D01*
X131127000Y44704000D02*
X133350000Y44704000D01*
%TO.N,Net-(Q12-G)*%
X101092000Y47244000D02*
X101539000Y47691000D01*
X76988290Y47244000D02*
X101092000Y47244000D01*
X73601500Y49601000D02*
X74631290Y49601000D01*
X74631290Y49601000D02*
X76988290Y47244000D01*
%TO.N,Net-(Q11-D)*%
X78486000Y51500500D02*
X77978000Y52008500D01*
X77978000Y52008500D02*
X77978000Y53808000D01*
%TO.N,Net-(D13-K)*%
X82611500Y48575500D02*
X83312000Y49276000D01*
X78486000Y48575500D02*
X82611500Y48575500D01*
X83312000Y50639206D02*
X83422559Y50749765D01*
X83312000Y49276000D02*
X83312000Y50639206D01*
%TO.N,Net-(Q11-G)*%
X73601500Y50251000D02*
X75397000Y50251000D01*
X75397000Y50251000D02*
X75692000Y50546000D01*
X75692000Y50546000D02*
X75692000Y54102000D01*
X75692000Y54102000D02*
X77028000Y55438000D01*
X77028000Y55438000D02*
X77028000Y56428000D01*
%TO.N,Net-(D4-K)*%
X5776500Y24511000D02*
X5334000Y24953500D01*
X5334000Y24953500D02*
X5334000Y27526000D01*
%TO.N,Net-(D9-K)*%
X136336500Y25146000D02*
X136336500Y28298700D01*
X136336500Y28298700D02*
X136296400Y28338800D01*
%TO.N,Net-(Q7-D)*%
X129794000Y26376000D02*
X130850000Y26376000D01*
X130850000Y26376000D02*
X132080000Y25146000D01*
X132080000Y25146000D02*
X133411500Y25146000D01*
%TO.N,Net-(Q10-D)*%
X63754000Y47498000D02*
X63246000Y46990000D01*
X63754000Y48601000D02*
X63754000Y47498000D01*
X63246000Y46990000D02*
X61025500Y46990000D01*
X61025500Y46990000D02*
X60644500Y47371000D01*
%TO.N,Net-(Q10-G)*%
X62929000Y53721000D02*
X62804000Y53596000D01*
X62804000Y53596000D02*
X62804000Y51221000D01*
%TO.N,Net-(Q8-G)*%
X13582162Y50648993D02*
X13582162Y50425838D01*
X15494000Y48514000D02*
X15494000Y46990000D01*
X65786000Y50292000D02*
X66395000Y50901000D01*
X15494000Y46990000D02*
X17018000Y45466000D01*
X13582162Y50425838D02*
X15494000Y48514000D01*
X17018000Y45466000D02*
X64008000Y45466000D01*
X64008000Y45466000D02*
X65786000Y47244000D01*
X65786000Y47244000D02*
X65786000Y50292000D01*
X66395000Y50901000D02*
X67876500Y50901000D01*
%TO.N,Net-(Q33-D)*%
X36133500Y153924000D02*
X36006500Y154051000D01*
%TO.N,Net-(Q36-D)*%
X105471500Y154051000D02*
X103886000Y154051000D01*
X103291000Y154646000D02*
X101854000Y154646000D01*
X103886000Y154051000D02*
X103291000Y154646000D01*
%TO.N,Net-(D38-K)*%
X108396500Y154051000D02*
X108396500Y155640500D01*
X108396500Y155640500D02*
X109474000Y156718000D01*
X109474000Y156718000D02*
X109474000Y157966000D01*
%TO.N,Net-(Q37-G)*%
X126304000Y157266000D02*
X126304000Y159641000D01*
X126304000Y159641000D02*
X126429000Y159766000D01*
%TO.N,Net-(Q37-D)*%
X130871500Y154051000D02*
X128905000Y154051000D01*
X128905000Y154051000D02*
X128310000Y154646000D01*
X128310000Y154646000D02*
X127254000Y154646000D01*
%TO.N,Net-(D39-K)*%
X133796500Y154051000D02*
X133796500Y155386500D01*
X133796500Y155386500D02*
X134874000Y156464000D01*
X134874000Y156464000D02*
X134874000Y157966000D01*
%TO.N,Net-(Q36-G)*%
X100904000Y157266000D02*
X100904000Y159641000D01*
X100904000Y159641000D02*
X101029000Y159766000D01*
%TO.N,Net-(Q33-G)*%
X39434000Y159766000D02*
X39309000Y159641000D01*
X39309000Y159641000D02*
X39309000Y157266000D01*
%TO.N,Net-(Q31-G)*%
X119319000Y128056000D02*
X119319000Y130431000D01*
X119319000Y130431000D02*
X119444000Y130556000D01*
X73601500Y118801000D02*
X115753000Y118801000D01*
X119319000Y122367000D02*
X119319000Y128056000D01*
X115753000Y118801000D02*
X119319000Y122367000D01*
%TO.N,Net-(Q30-G)*%
X73601500Y119451000D02*
X91257000Y119451000D01*
X91257000Y119451000D02*
X95189000Y123383000D01*
X95189000Y123383000D02*
X95189000Y128056000D01*
X95189000Y128056000D02*
X95189000Y130431000D01*
X95189000Y130431000D02*
X95314000Y130556000D01*
%TO.N,Net-(Q26-G)*%
X67876500Y120751000D02*
X28093000Y120751000D01*
X28093000Y120751000D02*
X22352000Y126492000D01*
X22352000Y126492000D02*
X20574000Y126492000D01*
X20574000Y126492000D02*
X20259000Y126807000D01*
X20259000Y126807000D02*
X20259000Y128056000D01*
%TO.N,Net-(Q25-D)*%
X124714000Y99568000D02*
X124968000Y99314000D01*
X124714000Y100671000D02*
X124714000Y99568000D01*
X124968000Y99314000D02*
X128204500Y99314000D01*
X128204500Y99314000D02*
X128331500Y99441000D01*
%TO.N,Net-(Q25-G)*%
X123764000Y103291000D02*
X123764000Y105666000D01*
X123764000Y105666000D02*
X123889000Y105791000D01*
X73601500Y99751000D02*
X96845000Y99751000D01*
X121666000Y97282000D02*
X123764000Y99380000D01*
X96845000Y99751000D02*
X99314000Y97282000D01*
X99314000Y97282000D02*
X121666000Y97282000D01*
X123764000Y99380000D02*
X123764000Y103291000D01*
%TO.N,Net-(D26-K)*%
X107442000Y98806000D02*
X107950000Y99314000D01*
X105856500Y98806000D02*
X107442000Y98806000D01*
%TO.N,Net-(Q24-D)*%
X99314000Y99568000D02*
X100076000Y98806000D01*
X99314000Y100671000D02*
X99314000Y99568000D01*
X100076000Y98806000D02*
X102931500Y98806000D01*
%TO.N,Net-(Q24-G)*%
X98364000Y103291000D02*
X98364000Y105666000D01*
X98364000Y105666000D02*
X98489000Y105791000D01*
%TO.N,Net-(Q23-G)*%
X73601500Y101051000D02*
X75397000Y101051000D01*
X75397000Y101051000D02*
X76200000Y101854000D01*
X76200000Y101854000D02*
X76200000Y103124000D01*
X76200000Y103124000D02*
X75184000Y104140000D01*
X75184000Y104140000D02*
X74676000Y104140000D01*
X74676000Y104140000D02*
X74104000Y104712000D01*
X74104000Y104712000D02*
X74104000Y105156000D01*
X74229000Y107656000D02*
X74229000Y105281000D01*
X74229000Y105281000D02*
X74104000Y105156000D01*
X74104000Y105156000D02*
X74168000Y105156000D01*
%TO.N,Net-(Q20-G)*%
X15814000Y103291000D02*
X16997000Y102108000D01*
X65278000Y100330000D02*
X66649000Y101701000D01*
X16997000Y102108000D02*
X18288000Y102108000D01*
X18288000Y102108000D02*
X21336000Y99060000D01*
X21336000Y99060000D02*
X45720000Y99060000D01*
X45720000Y99060000D02*
X46990000Y100330000D01*
X46990000Y100330000D02*
X65278000Y100330000D01*
X66649000Y101701000D02*
X67876500Y101701000D01*
%TO.N,Net-(D16-K)*%
X10856500Y74041000D02*
X10414000Y74483500D01*
X10414000Y74483500D02*
X10414000Y78326000D01*
%TO.N,Net-(D17-K)*%
X34986500Y74041000D02*
X34544000Y74483500D01*
X34544000Y74483500D02*
X34544000Y78326000D01*
%TO.N,Net-(Q15-D)*%
X41529000Y76541000D02*
X41529000Y75057000D01*
X41529000Y75057000D02*
X40513000Y74041000D01*
X40513000Y74041000D02*
X37911500Y74041000D01*
%TO.N,Net-(Q14-D)*%
X17399000Y74803000D02*
X16510000Y73914000D01*
X13908500Y73914000D02*
X13781500Y74041000D01*
X17399000Y76541000D02*
X17399000Y74803000D01*
X16510000Y73914000D02*
X13908500Y73914000D01*
%TO.N,Net-(Q14-G)*%
X68003500Y69443000D02*
X21489000Y69443000D01*
X21489000Y69443000D02*
X18542000Y72390000D01*
X18542000Y72390000D02*
X18542000Y77068000D01*
X18542000Y77068000D02*
X16449000Y79161000D01*
%TO.N,Net-(D18-K)*%
X59116500Y74041000D02*
X59116500Y77883500D01*
X59116500Y77883500D02*
X58674000Y78326000D01*
%TO.N,Net-(Q16-D)*%
X65659000Y74803000D02*
X64770000Y73914000D01*
X65659000Y76541000D02*
X65659000Y74803000D01*
X62168500Y73914000D02*
X62041500Y74041000D01*
X64770000Y73914000D02*
X62168500Y73914000D01*
%TO.N,Net-(D19-K)*%
X82361500Y74041000D02*
X82361500Y77883500D01*
X82361500Y77883500D02*
X82804000Y78326000D01*
%TO.N,Net-(Q17-D)*%
X75819000Y75565000D02*
X76962000Y74422000D01*
X75819000Y76541000D02*
X75819000Y75565000D01*
X76962000Y74422000D02*
X79055500Y74422000D01*
X79055500Y74422000D02*
X79436500Y74041000D01*
%TO.N,Net-(D20-K)*%
X106491500Y74041000D02*
X106934000Y74483500D01*
X106934000Y74483500D02*
X106934000Y78326000D01*
%TO.N,Net-(Q18-D)*%
X99949000Y75311000D02*
X101346000Y73914000D01*
X99949000Y76541000D02*
X99949000Y75311000D01*
X101346000Y73914000D02*
X103439500Y73914000D01*
X103439500Y73914000D02*
X103566500Y74041000D01*
%TO.N,Net-(D21-K)*%
X130621500Y74041000D02*
X130621500Y77883500D01*
X130621500Y77883500D02*
X131064000Y78326000D01*
%TO.N,Net-(Q19-D)*%
X124079000Y75057000D02*
X125222000Y73914000D01*
X124079000Y76541000D02*
X124079000Y75057000D01*
X125222000Y73914000D02*
X127569500Y73914000D01*
X127569500Y73914000D02*
X127696500Y74041000D01*
%TO.N,Net-(Q14-G)*%
X16449000Y79161000D02*
X16449000Y81536000D01*
X16449000Y81536000D02*
X16574000Y81661000D01*
%TO.N,Net-(Q16-G)*%
X73728500Y69443000D02*
X74365988Y69443000D01*
X74365988Y69443000D02*
X74466988Y69342000D01*
X74930000Y69342000D02*
X75946000Y70358000D01*
X74466988Y69342000D02*
X74930000Y69342000D01*
X75946000Y70358000D02*
X75946000Y71882000D01*
X75946000Y71882000D02*
X70358000Y77470000D01*
X70358000Y77470000D02*
X66294000Y77470000D01*
X64709000Y79055000D02*
X64709000Y79161000D01*
X66294000Y77470000D02*
X64709000Y79055000D01*
%TO.N,Net-(Q17-G)*%
X73728500Y68793000D02*
X75397000Y68793000D01*
X75397000Y68793000D02*
X76454000Y69850000D01*
X76454000Y73406000D02*
X74869000Y74991000D01*
X76454000Y69850000D02*
X76454000Y73406000D01*
X74869000Y74991000D02*
X74869000Y79161000D01*
%TO.N,Net-(Q15-G)*%
X40579000Y79161000D02*
X40579000Y81536000D01*
X40579000Y81536000D02*
X40704000Y81661000D01*
%TO.N,Net-(Q16-G)*%
X64709000Y79161000D02*
X64709000Y81536000D01*
X64709000Y81536000D02*
X64834000Y81661000D01*
%TO.N,Net-(Q17-G)*%
X74869000Y79161000D02*
X74869000Y81536000D01*
X74869000Y81536000D02*
X74994000Y81661000D01*
%TO.N,Net-(Q18-G)*%
X98999000Y79161000D02*
X98999000Y81536000D01*
X98999000Y81536000D02*
X99124000Y81661000D01*
X73728500Y68143000D02*
X96083000Y68143000D01*
X96083000Y68143000D02*
X98999000Y71059000D01*
X98999000Y71059000D02*
X98999000Y79161000D01*
%TO.N,Net-(Q19-G)*%
X123129000Y79161000D02*
X123129000Y81536000D01*
X123129000Y81536000D02*
X123254000Y81661000D01*
X119817000Y67493000D02*
X123190000Y70866000D01*
X123190000Y70866000D02*
X123129000Y70927000D01*
X73728500Y67493000D02*
X119817000Y67493000D01*
X123129000Y70927000D02*
X123129000Y79161000D01*
%TO.N,Net-(D10-K)*%
X8316500Y46736000D02*
X8316500Y49838785D01*
X8316500Y49838785D02*
X7874000Y50281285D01*
%TO.N,Net-(Q8-D)*%
X13992993Y48028993D02*
X12954000Y46990000D01*
X14532162Y48028993D02*
X13992993Y48028993D01*
X12954000Y46990000D02*
X11495500Y46990000D01*
X11495500Y46990000D02*
X11241500Y46736000D01*
%TO.N,Net-(D11-K)*%
X33081500Y47371000D02*
X33081500Y50716986D01*
X33081500Y50716986D02*
X33048721Y50749765D01*
%TO.N,Net-(Q9-D)*%
X38441000Y48601000D02*
X37338000Y47498000D01*
X36133500Y47498000D02*
X36006500Y47371000D01*
X38989000Y48601000D02*
X38441000Y48601000D01*
X37338000Y47498000D02*
X36133500Y47498000D01*
%TO.N,Net-(D15-K)*%
X133161500Y47498000D02*
X133161500Y50215345D01*
X133161500Y50215345D02*
X133796400Y50850245D01*
%TO.N,Net-(Q13-D)*%
X128778000Y47498000D02*
X130236500Y47498000D01*
X127126040Y48597953D02*
X127678047Y48597953D01*
X127678047Y48597953D02*
X128778000Y47498000D01*
%TO.N,Net-(D14-K)*%
X108396500Y47498000D02*
X108396500Y50536787D01*
X108396500Y50536787D02*
X108609478Y50749765D01*
%TO.N,Net-(Q12-D)*%
X102489000Y48601000D02*
X103291000Y48601000D01*
X103291000Y48601000D02*
X104394000Y47498000D01*
X104394000Y47498000D02*
X105471500Y47498000D01*
%TO.N,Net-(Q12-G)*%
X101539000Y47691000D02*
X101539000Y51221000D01*
%TO.N,Net-(Q11-G)*%
X77028000Y56428000D02*
X77028000Y58803000D01*
X77028000Y58803000D02*
X77153000Y58928000D01*
%TO.N,Net-(D14-K)*%
X108396500Y46736000D02*
X108609478Y46948978D01*
%TO.N,Net-(Q13-G)*%
X126301040Y53717953D02*
X126176040Y53592953D01*
X126176040Y53592953D02*
X126176040Y51217953D01*
%TO.N,Net-(Q12-G)*%
X101539000Y51221000D02*
X101539000Y53596000D01*
X101539000Y53596000D02*
X101664000Y53721000D01*
%TO.N,Net-(Q9-G)*%
X73601500Y51551000D02*
X73406000Y51746500D01*
X38164000Y54928000D02*
X38164000Y53721000D01*
X73406000Y51746500D02*
X73406000Y54102000D01*
X68834000Y58674000D02*
X41910000Y58674000D01*
X73406000Y54102000D02*
X68834000Y58674000D01*
X41910000Y58674000D02*
X38164000Y54928000D01*
X38164000Y53721000D02*
X38039000Y53596000D01*
X38039000Y53596000D02*
X38039000Y51221000D01*
%TO.N,Net-(Q8-G)*%
X13582162Y50648993D02*
X13582162Y52961000D01*
X13582162Y52961000D02*
X13707162Y53086000D01*
%TO.N,Net-(D6-K)*%
X57846500Y25146000D02*
X57846500Y28102340D01*
X57846500Y28102340D02*
X57735640Y28213200D01*
%TO.N,Net-(Q4-D)*%
X63754000Y27646000D02*
X63754000Y26670000D01*
X63754000Y26670000D02*
X62230000Y25146000D01*
X62230000Y25146000D02*
X60771500Y25146000D01*
%TO.N,Net-(D7-K)*%
X83631500Y25146000D02*
X83631500Y27922141D01*
X83631500Y27922141D02*
X83922559Y28213200D01*
%TO.N,Net-(D8-K)*%
X109666500Y25146000D02*
X109666500Y27770222D01*
X109666500Y27770222D02*
X110109478Y28213200D01*
%TO.N,Net-(Q6-D)*%
X104394000Y26162000D02*
X105410000Y25146000D01*
X104394000Y27646000D02*
X104394000Y26162000D01*
X105410000Y25146000D02*
X106741500Y25146000D01*
%TO.N,Net-(Q5-D)*%
X78359000Y25781000D02*
X78994000Y25146000D01*
X78359000Y27646000D02*
X78359000Y25781000D01*
X78994000Y25146000D02*
X80706500Y25146000D01*
%TO.N,Net-(Q2-G)*%
X10099000Y30266000D02*
X10099000Y32641000D01*
X10099000Y32641000D02*
X10224000Y32766000D01*
%TO.N,Net-(Q7-G)*%
X73601500Y23551000D02*
X75072000Y23551000D01*
X75072000Y23551000D02*
X76017000Y22606000D01*
X76017000Y22606000D02*
X126238000Y22606000D01*
X126238000Y22606000D02*
X128844000Y25212000D01*
X128844000Y25212000D02*
X128844000Y28996000D01*
%TO.N,Net-(Q6-G)*%
X73601500Y24201000D02*
X75367000Y24201000D01*
X75367000Y24201000D02*
X76454000Y23114000D01*
X76454000Y23114000D02*
X100330000Y23114000D01*
X100330000Y23114000D02*
X103444000Y26228000D01*
X103444000Y26228000D02*
X103444000Y30266000D01*
%TO.N,Net-(Q3-G)*%
X36769000Y30266000D02*
X36769000Y32641000D01*
X36769000Y32641000D02*
X36894000Y32766000D01*
%TO.N,Net-(Q4-G)*%
X62929000Y32766000D02*
X62804000Y32641000D01*
X62804000Y32641000D02*
X62804000Y30266000D01*
%TO.N,Net-(Q5-G)*%
X73601500Y24851000D02*
X76159000Y24851000D01*
X76159000Y24851000D02*
X77409000Y26101000D01*
X77409000Y26101000D02*
X77409000Y30266000D01*
%TD*%
%TA.AperFunction,Conductor*%
%TO.N,+3V3*%
G36*
X106671243Y14204315D02*
G01*
X106716998Y14151511D01*
X106721858Y14139159D01*
X106739383Y14086503D01*
X106739386Y14086497D01*
X106817171Y13965463D01*
X106817179Y13965452D01*
X106862923Y13912660D01*
X106862926Y13912657D01*
X106862930Y13912653D01*
X106971664Y13818433D01*
X106971667Y13818432D01*
X106971668Y13818431D01*
X107102536Y13758664D01*
X107102537Y13758664D01*
X107102541Y13758662D01*
X107166250Y13739955D01*
X107225028Y13702180D01*
X107254052Y13638624D01*
X107247496Y13577646D01*
X107200403Y13451384D01*
X107200401Y13451373D01*
X107194000Y13391845D01*
X107194000Y12594000D01*
X108570000Y12594000D01*
X108637039Y12574315D01*
X108682794Y12521511D01*
X108694000Y12470000D01*
X108694000Y12218000D01*
X108674315Y12150961D01*
X108621511Y12105206D01*
X108570000Y12094000D01*
X107194000Y12094000D01*
X107194000Y11296156D01*
X107200401Y11236628D01*
X107200403Y11236621D01*
X107250645Y11101914D01*
X107250649Y11101907D01*
X107336809Y10986813D01*
X107336812Y10986810D01*
X107451906Y10900650D01*
X107451915Y10900645D01*
X107548574Y10864594D01*
X107604508Y10822723D01*
X107628926Y10757259D01*
X107614075Y10688986D01*
X107564670Y10639580D01*
X107544248Y10630707D01*
X107488884Y10612361D01*
X107488875Y10612357D01*
X107339654Y10520316D01*
X107215683Y10396345D01*
X107215680Y10396341D01*
X107166538Y10316669D01*
X107114590Y10269944D01*
X107045628Y10258723D01*
X106981546Y10286566D01*
X106955462Y10316669D01*
X106906319Y10396341D01*
X106906316Y10396345D01*
X106782345Y10520316D01*
X106633124Y10612357D01*
X106633119Y10612359D01*
X106466697Y10667506D01*
X106466690Y10667507D01*
X106363986Y10678000D01*
X105914000Y10678000D01*
X105914000Y9853000D01*
X108584000Y9853000D01*
X108651039Y9833315D01*
X108696794Y9780511D01*
X108708000Y9729000D01*
X108708000Y9477000D01*
X108688315Y9409961D01*
X108635511Y9364206D01*
X108584000Y9353000D01*
X104264001Y9353000D01*
X104264001Y9228014D01*
X104274494Y9125303D01*
X104326124Y8969496D01*
X104328526Y8899668D01*
X104292794Y8839626D01*
X104230274Y8808433D01*
X104210484Y8806509D01*
X96618961Y8679984D01*
X96551603Y8698549D01*
X96504975Y8750583D01*
X96493492Y8791814D01*
X96489531Y8832033D01*
X96432350Y9020534D01*
X96366076Y9144524D01*
X95889374Y8667823D01*
X95131258Y8655188D01*
X94641922Y9144524D01*
X94575652Y9020539D01*
X94518468Y8832031D01*
X94510847Y8754654D01*
X94484685Y8689867D01*
X94427651Y8649508D01*
X94389510Y8642826D01*
X94106066Y8638102D01*
X94038708Y8656667D01*
X93992080Y8708701D01*
X93980000Y8762085D01*
X93980000Y9498078D01*
X94995476Y9498078D01*
X95504000Y8989554D01*
X95504001Y8989554D01*
X96012522Y9498078D01*
X96012522Y9498079D01*
X95888538Y9564348D01*
X95700030Y9621532D01*
X95503999Y9640839D01*
X95307969Y9621532D01*
X95119461Y9564348D01*
X94995476Y9498078D01*
X93980000Y9498078D01*
X93980000Y9853000D01*
X104264000Y9853000D01*
X105414000Y9853000D01*
X105414000Y10678000D01*
X104964028Y10678000D01*
X104964012Y10677999D01*
X104861302Y10667506D01*
X104694880Y10612359D01*
X104694875Y10612357D01*
X104545654Y10520316D01*
X104421684Y10396346D01*
X104329643Y10247125D01*
X104329641Y10247120D01*
X104274494Y10080698D01*
X104274493Y10080691D01*
X104264000Y9977987D01*
X104264000Y9853000D01*
X93980000Y9853000D01*
X93980000Y11625000D01*
X100879001Y11625000D01*
X100879001Y11618418D01*
X100885408Y11547898D01*
X100885409Y11547893D01*
X100935981Y11385604D01*
X101023927Y11240123D01*
X101144122Y11119928D01*
X101289604Y11031981D01*
X101289603Y11031981D01*
X101451894Y10981410D01*
X101451892Y10981410D01*
X101522418Y10975001D01*
X101603999Y10975002D01*
X101604000Y10975002D01*
X101604000Y11625000D01*
X102104000Y11625000D01*
X102104000Y10975001D01*
X102185581Y10975001D01*
X102256102Y10981409D01*
X102256107Y10981410D01*
X102418396Y11031982D01*
X102563877Y11119928D01*
X102684072Y11240123D01*
X102772019Y11385605D01*
X102822590Y11547894D01*
X102829000Y11618428D01*
X102829000Y11625000D01*
X102104000Y11625000D01*
X101604000Y11625000D01*
X100879001Y11625000D01*
X93980000Y11625000D01*
X93980000Y11675000D01*
X103419001Y11675000D01*
X103419001Y11651678D01*
X103429144Y11552393D01*
X103482452Y11391519D01*
X103482457Y11391508D01*
X103571424Y11247272D01*
X103571427Y11247268D01*
X103691267Y11127428D01*
X103691271Y11127425D01*
X103835507Y11038458D01*
X103835518Y11038453D01*
X103996393Y10985145D01*
X104095683Y10975001D01*
X104143998Y10975002D01*
X104143999Y10975002D01*
X104144000Y11675000D01*
X104644000Y11675000D01*
X104644000Y10975001D01*
X104692308Y10975001D01*
X104692322Y10975002D01*
X104791607Y10985145D01*
X104952481Y11038453D01*
X104952492Y11038458D01*
X105096728Y11127425D01*
X105096732Y11127428D01*
X105216572Y11247268D01*
X105216575Y11247272D01*
X105305542Y11391508D01*
X105305547Y11391519D01*
X105358855Y11552394D01*
X105368999Y11651678D01*
X105369000Y11651691D01*
X105369000Y11675000D01*
X104644000Y11675000D01*
X104144000Y11675000D01*
X103419001Y11675000D01*
X93980000Y11675000D01*
X93980000Y12576000D01*
X93999685Y12643039D01*
X94052489Y12688794D01*
X94104000Y12700000D01*
X100919003Y12700000D01*
X100986042Y12680315D01*
X101031797Y12627511D01*
X101041741Y12558353D01*
X101025120Y12511850D01*
X100935980Y12364396D01*
X100885409Y12202107D01*
X100879000Y12131573D01*
X100879000Y12125000D01*
X102828999Y12125000D01*
X102828999Y12131583D01*
X102822591Y12202103D01*
X102822590Y12202108D01*
X102772018Y12364397D01*
X102682880Y12511850D01*
X102665044Y12579405D01*
X102686562Y12645878D01*
X102740602Y12690166D01*
X102788997Y12700000D01*
X103409247Y12700000D01*
X103476286Y12680315D01*
X103522041Y12627511D01*
X103531985Y12558353D01*
X103514786Y12510903D01*
X103482454Y12458487D01*
X103482452Y12458482D01*
X103429144Y12297607D01*
X103419000Y12198323D01*
X103419000Y12175000D01*
X105368999Y12175000D01*
X105368999Y12198308D01*
X105368998Y12198323D01*
X105358855Y12297608D01*
X105305547Y12458482D01*
X105305545Y12458487D01*
X105273214Y12510903D01*
X105254774Y12578295D01*
X105275696Y12644959D01*
X105329338Y12689729D01*
X105378753Y12700000D01*
X105410000Y12700000D01*
X105410000Y14100000D01*
X105429685Y14167039D01*
X105482489Y14212794D01*
X105534000Y14224000D01*
X106604204Y14224000D01*
X106671243Y14204315D01*
G37*
%TD.AperFunction*%
%TD*%
%TA.AperFunction,Conductor*%
%TO.N,/power/5V_COMB*%
G36*
X116028539Y14204315D02*
G01*
X116074294Y14151511D01*
X116085500Y14100000D01*
X116085500Y14018874D01*
X116065815Y13951835D01*
X116049181Y13931193D01*
X116017032Y13899045D01*
X116017029Y13899041D01*
X115928001Y13754706D01*
X115927996Y13754695D01*
X115874651Y13593710D01*
X115864500Y13494353D01*
X115864500Y12947663D01*
X115864501Y12947645D01*
X115874650Y12848293D01*
X115874651Y12848290D01*
X115927996Y12687306D01*
X115928001Y12687295D01*
X116017029Y12542960D01*
X116017032Y12542956D01*
X116026660Y12533328D01*
X116060145Y12472005D01*
X116055161Y12402313D01*
X116026663Y12357969D01*
X116017428Y12348735D01*
X116017424Y12348729D01*
X115928457Y12204493D01*
X115928452Y12204482D01*
X115875144Y12043607D01*
X115865000Y11944323D01*
X115865000Y11921000D01*
X117814999Y11921000D01*
X117814999Y11944308D01*
X117814998Y11944323D01*
X117804855Y12043608D01*
X117751547Y12204482D01*
X117751542Y12204493D01*
X117662575Y12348729D01*
X117662572Y12348733D01*
X117653339Y12357966D01*
X117619854Y12419289D01*
X117624838Y12488981D01*
X117653343Y12533332D01*
X117662968Y12542956D01*
X117752003Y12687303D01*
X117805349Y12848292D01*
X117815500Y12947655D01*
X117815499Y13494344D01*
X117805349Y13593708D01*
X117752003Y13754697D01*
X117751999Y13754703D01*
X117751998Y13754706D01*
X117662970Y13899041D01*
X117662967Y13899045D01*
X117630819Y13931193D01*
X117597334Y13992516D01*
X117594500Y14018874D01*
X117594500Y14100000D01*
X117614185Y14167039D01*
X117666989Y14212794D01*
X117718500Y14224000D01*
X121288000Y14224000D01*
X121355039Y14204315D01*
X121400794Y14151511D01*
X121412000Y14100000D01*
X121412000Y8760000D01*
X121392315Y8692961D01*
X121339511Y8647206D01*
X121288000Y8636000D01*
X117307254Y8636000D01*
X117240215Y8655685D01*
X117194460Y8708489D01*
X117184516Y8777647D01*
X117189548Y8799004D01*
X117213505Y8871303D01*
X117213506Y8871310D01*
X117223999Y8974014D01*
X117224000Y8974027D01*
X117224000Y9099000D01*
X112904000Y9099000D01*
X112836961Y9118685D01*
X112791206Y9171489D01*
X112780000Y9223000D01*
X112780000Y10424000D01*
X113280000Y10424000D01*
X113280000Y9599000D01*
X115574000Y9599000D01*
X115574000Y10424000D01*
X116074000Y10424000D01*
X116074000Y9599000D01*
X117223999Y9599000D01*
X117223999Y9723972D01*
X117223998Y9723987D01*
X117213505Y9826698D01*
X117158358Y9993120D01*
X117158356Y9993125D01*
X117066315Y10142346D01*
X116942345Y10266316D01*
X116793124Y10358357D01*
X116793119Y10358359D01*
X116626697Y10413506D01*
X116626690Y10413507D01*
X116523986Y10424000D01*
X116074000Y10424000D01*
X115574000Y10424000D01*
X115124028Y10424000D01*
X115124012Y10423999D01*
X115021302Y10413506D01*
X114854880Y10358359D01*
X114854875Y10358357D01*
X114705654Y10266316D01*
X114581682Y10142344D01*
X114532537Y10062668D01*
X114480588Y10015944D01*
X114411626Y10004723D01*
X114347544Y10032567D01*
X114321460Y10062670D01*
X114272317Y10142344D01*
X114148345Y10266316D01*
X113999124Y10358357D01*
X113999119Y10358359D01*
X113832697Y10413506D01*
X113832690Y10413507D01*
X113729986Y10424000D01*
X113280000Y10424000D01*
X112780000Y10424000D01*
X112780000Y10443850D01*
X112770391Y10461447D01*
X112768820Y10505451D01*
X112773500Y10538000D01*
X112773500Y10742448D01*
X112772862Y10760314D01*
X112772639Y10764456D01*
X112788701Y10832450D01*
X112794000Y10839399D01*
X112794000Y10844000D01*
X113293999Y10844000D01*
X113841828Y10844000D01*
X113841844Y10844001D01*
X113901372Y10850402D01*
X113901379Y10850404D01*
X114036086Y10900646D01*
X114036093Y10900650D01*
X114151187Y10986810D01*
X114151190Y10986813D01*
X114237350Y11101907D01*
X114237354Y11101914D01*
X114287596Y11236621D01*
X114287598Y11236628D01*
X114293999Y11296156D01*
X114294000Y11296173D01*
X114294000Y11421000D01*
X115865001Y11421000D01*
X115865001Y11397678D01*
X115875144Y11298393D01*
X115928452Y11137519D01*
X115928457Y11137508D01*
X116017424Y10993272D01*
X116017427Y10993268D01*
X116137267Y10873428D01*
X116137271Y10873425D01*
X116281507Y10784458D01*
X116281518Y10784453D01*
X116442393Y10731145D01*
X116541683Y10721001D01*
X116589999Y10721002D01*
X116590000Y10721002D01*
X116590000Y11421000D01*
X117090000Y11421000D01*
X117090000Y10721001D01*
X117138308Y10721001D01*
X117138322Y10721002D01*
X117237607Y10731145D01*
X117398481Y10784453D01*
X117398492Y10784458D01*
X117542728Y10873425D01*
X117542732Y10873428D01*
X117662572Y10993268D01*
X117662575Y10993272D01*
X117751542Y11137508D01*
X117751547Y11137519D01*
X117804855Y11298394D01*
X117814999Y11397678D01*
X117815000Y11397691D01*
X117815000Y11421000D01*
X117090000Y11421000D01*
X116590000Y11421000D01*
X115865001Y11421000D01*
X114294000Y11421000D01*
X114294000Y12094000D01*
X113294000Y12094000D01*
X113293999Y10844000D01*
X112794000Y10844000D01*
X112794000Y12470000D01*
X112813685Y12537039D01*
X112866489Y12582794D01*
X112918000Y12594000D01*
X114294000Y12594000D01*
X114294000Y13391828D01*
X114293999Y13391845D01*
X114287598Y13451373D01*
X114287596Y13451380D01*
X114241156Y13575893D01*
X114236172Y13645584D01*
X114269657Y13706907D01*
X114330978Y13740392D01*
X114334967Y13741259D01*
X114335656Y13741489D01*
X114437497Y13775384D01*
X114437501Y13775387D01*
X114437504Y13775387D01*
X114558543Y13853175D01*
X114611347Y13898930D01*
X114705567Y14007664D01*
X114765338Y14138541D01*
X114765339Y14138543D01*
X114766884Y14142685D01*
X114768803Y14141970D01*
X114802040Y14193702D01*
X114865592Y14222735D01*
X114883256Y14224000D01*
X115961500Y14224000D01*
X116028539Y14204315D01*
G37*
%TD.AperFunction*%
%TD*%
%TA.AperFunction,Conductor*%
%TO.N,GND*%
G36*
X108522345Y20236815D02*
G01*
X108568100Y20184011D01*
X108578044Y20114853D01*
X108549019Y20051297D01*
X108529617Y20033233D01*
X108486809Y20001187D01*
X108400649Y19886094D01*
X108400645Y19886087D01*
X108350403Y19751380D01*
X108350401Y19751373D01*
X108344000Y19691845D01*
X108344000Y18894000D01*
X113144000Y18894000D01*
X113144000Y19691828D01*
X113143999Y19691845D01*
X113137598Y19751373D01*
X113137596Y19751380D01*
X113087354Y19886087D01*
X113087350Y19886094D01*
X113001190Y20001187D01*
X112958383Y20033233D01*
X112916512Y20089167D01*
X112911528Y20158859D01*
X112945013Y20220182D01*
X113006337Y20253666D01*
X113032694Y20256500D01*
X114176000Y20256500D01*
X114243039Y20236815D01*
X114288794Y20184011D01*
X114300000Y20132500D01*
X114300000Y14348000D01*
X114280315Y14280961D01*
X114227511Y14235206D01*
X114176000Y14224000D01*
X112268000Y14224000D01*
X112268000Y13954578D01*
X112248315Y13887539D01*
X112195511Y13841784D01*
X112187333Y13838396D01*
X112051671Y13787798D01*
X112051669Y13787796D01*
X111967894Y13725082D01*
X111902430Y13700665D01*
X111834157Y13715516D01*
X111819272Y13725082D01*
X111736088Y13787354D01*
X111736086Y13787355D01*
X111601379Y13837597D01*
X111601372Y13837599D01*
X111541844Y13844000D01*
X110994000Y13844000D01*
X110993999Y10844000D01*
X111541828Y10844000D01*
X111541844Y10844001D01*
X111601372Y10850402D01*
X111601379Y10850404D01*
X111736086Y10900646D01*
X111736089Y10900648D01*
X111819271Y10962918D01*
X111884735Y10987336D01*
X111953008Y10972485D01*
X111967887Y10962923D01*
X112051669Y10900204D01*
X112051670Y10900204D01*
X112051673Y10900202D01*
X112187332Y10849605D01*
X112243266Y10807734D01*
X112267684Y10742270D01*
X112268000Y10733423D01*
X112268000Y10538000D01*
X112248315Y10470961D01*
X112195511Y10425206D01*
X112144000Y10414000D01*
X109734730Y10414000D01*
X109667691Y10433685D01*
X109647049Y10450319D01*
X109576657Y10520711D01*
X109576656Y10520712D01*
X109427334Y10612814D01*
X109358429Y10635647D01*
X109300984Y10675421D01*
X109274162Y10739937D01*
X109286478Y10808712D01*
X109334021Y10859912D01*
X109354098Y10869534D01*
X109436331Y10900204D01*
X109520105Y10962918D01*
X109585569Y10987335D01*
X109653842Y10972484D01*
X109668727Y10962918D01*
X109751910Y10900648D01*
X109751913Y10900646D01*
X109886620Y10850404D01*
X109886627Y10850402D01*
X109946155Y10844001D01*
X109946172Y10844000D01*
X110494000Y10844000D01*
X110494000Y13844000D01*
X109946155Y13844000D01*
X109886627Y13837599D01*
X109886620Y13837597D01*
X109751913Y13787355D01*
X109751910Y13787353D01*
X109668727Y13725082D01*
X109603262Y13700665D01*
X109534989Y13715517D01*
X109520106Y13725082D01*
X109436331Y13787796D01*
X109436328Y13787798D01*
X109300667Y13838396D01*
X109244733Y13880267D01*
X109220316Y13945732D01*
X109220000Y13954578D01*
X109220000Y14224000D01*
X107312000Y14224000D01*
X107244961Y14243685D01*
X107199206Y14296489D01*
X107188000Y14348000D01*
X107188000Y18394000D01*
X108344000Y18394000D01*
X108344000Y17596156D01*
X108350401Y17536628D01*
X108350403Y17536621D01*
X108400645Y17401914D01*
X108400649Y17401907D01*
X108486809Y17286813D01*
X108486812Y17286810D01*
X108601906Y17200650D01*
X108601913Y17200646D01*
X108736620Y17150404D01*
X108736627Y17150402D01*
X108796155Y17144001D01*
X108796172Y17144000D01*
X110494000Y17144000D01*
X110494000Y17144001D01*
X110993999Y17144001D01*
X110994000Y17144000D01*
X112691828Y17144000D01*
X112691844Y17144001D01*
X112751372Y17150402D01*
X112751379Y17150404D01*
X112886086Y17200646D01*
X112886093Y17200650D01*
X113001187Y17286810D01*
X113001190Y17286813D01*
X113087350Y17401907D01*
X113087354Y17401914D01*
X113137596Y17536621D01*
X113137598Y17536628D01*
X113143999Y17596156D01*
X113144000Y17596173D01*
X113144000Y18394000D01*
X110994000Y18394000D01*
X110993999Y17144001D01*
X110494000Y17144001D01*
X110494000Y18394000D01*
X108344000Y18394000D01*
X107188000Y18394000D01*
X107188000Y20132500D01*
X107207685Y20199539D01*
X107260489Y20245294D01*
X107312000Y20256500D01*
X108455306Y20256500D01*
X108522345Y20236815D01*
G37*
%TD.AperFunction*%
%TD*%
%TA.AperFunction,Conductor*%
%TO.N,GND*%
G36*
X99511039Y2266315D02*
G01*
X99556794Y2213511D01*
X99568000Y2162000D01*
X99568000Y-2416000D01*
X99548315Y-2483039D01*
X99495511Y-2528794D01*
X99444000Y-2540000D01*
X97526000Y-2540000D01*
X97458961Y-2520315D01*
X97413206Y-2467511D01*
X97402000Y-2416000D01*
X97402000Y-2282000D01*
X95381000Y-2282000D01*
X95313961Y-2262315D01*
X95268206Y-2209511D01*
X95257000Y-2158000D01*
X95257000Y-1012000D01*
X95757000Y-1012000D01*
X95757000Y-1782000D01*
X97402000Y-1782000D01*
X97402000Y-1614172D01*
X97401999Y-1614155D01*
X97395598Y-1554627D01*
X97395597Y-1554623D01*
X97352969Y-1440334D01*
X97347985Y-1370643D01*
X97352969Y-1353666D01*
X97395597Y-1239376D01*
X97395598Y-1239372D01*
X97401999Y-1179844D01*
X97402000Y-1179827D01*
X97402000Y-1012000D01*
X95757000Y-1012000D01*
X95257000Y-1012000D01*
X95257000Y258000D01*
X95757000Y258000D01*
X95757000Y-512000D01*
X97402000Y-512000D01*
X97402000Y-344172D01*
X97401999Y-344155D01*
X97395598Y-284627D01*
X97395597Y-284623D01*
X97352969Y-170334D01*
X97347985Y-100643D01*
X97352969Y-83666D01*
X97395597Y30624D01*
X97395598Y30628D01*
X97401999Y90156D01*
X97402000Y90173D01*
X97402000Y258000D01*
X95757000Y258000D01*
X95257000Y258000D01*
X95257000Y1528000D01*
X95757000Y1528000D01*
X95757000Y758000D01*
X97402000Y758000D01*
X97402000Y925828D01*
X97401999Y925845D01*
X97395598Y985373D01*
X97395597Y985377D01*
X97352969Y1099666D01*
X97347985Y1169357D01*
X97352969Y1186334D01*
X97395597Y1300624D01*
X97395598Y1300628D01*
X97401999Y1360156D01*
X97402000Y1360173D01*
X97402000Y1528000D01*
X95757000Y1528000D01*
X95257000Y1528000D01*
X95257000Y1904000D01*
X95276685Y1971039D01*
X95329489Y2016794D01*
X95381000Y2028000D01*
X97401999Y2028000D01*
X97402000Y2162000D01*
X97421685Y2229039D01*
X97474489Y2274794D01*
X97526000Y2286000D01*
X99444000Y2286000D01*
X99511039Y2266315D01*
G37*
%TD.AperFunction*%
%TD*%
%TA.AperFunction,Conductor*%
%TO.N,GND*%
G36*
X74619039Y10648315D02*
G01*
X74664794Y10595511D01*
X74676000Y10544000D01*
X74676000Y6047400D01*
X74656315Y5980361D01*
X74603511Y5934606D01*
X74552000Y5923400D01*
X68450000Y5923400D01*
X68382961Y5943085D01*
X68337206Y5995889D01*
X68326000Y6047400D01*
X68326000Y7216000D01*
X68948000Y7216000D01*
X68948000Y6968156D01*
X68954401Y6908628D01*
X68954403Y6908621D01*
X69004645Y6773914D01*
X69004649Y6773907D01*
X69090809Y6658813D01*
X69090812Y6658810D01*
X69205906Y6572650D01*
X69205913Y6572646D01*
X69340620Y6522404D01*
X69340627Y6522402D01*
X69400155Y6516001D01*
X69400172Y6516000D01*
X69648000Y6516000D01*
X69648000Y7216000D01*
X70148000Y7216000D01*
X70148000Y6516000D01*
X70395828Y6516000D01*
X70395844Y6516001D01*
X70455372Y6522402D01*
X70455383Y6522405D01*
X70554665Y6559435D01*
X70624356Y6564420D01*
X70641333Y6559436D01*
X70740623Y6522403D01*
X70740627Y6522402D01*
X70800155Y6516001D01*
X70800172Y6516000D01*
X71048000Y6516000D01*
X71048000Y7216000D01*
X71548000Y7216000D01*
X71548000Y6516000D01*
X71795828Y6516000D01*
X71795844Y6516001D01*
X71855372Y6522402D01*
X71855376Y6522403D01*
X71954666Y6559436D01*
X72024358Y6564420D01*
X72041334Y6559436D01*
X72140623Y6522403D01*
X72140627Y6522402D01*
X72200155Y6516001D01*
X72200172Y6516000D01*
X72448000Y6516000D01*
X72448000Y7216000D01*
X72948000Y7216000D01*
X72948000Y6516000D01*
X73195828Y6516000D01*
X73195844Y6516001D01*
X73255372Y6522402D01*
X73255379Y6522404D01*
X73390086Y6572646D01*
X73390093Y6572650D01*
X73505187Y6658810D01*
X73505190Y6658813D01*
X73591350Y6773907D01*
X73591354Y6773914D01*
X73641596Y6908621D01*
X73641598Y6908628D01*
X73647999Y6968156D01*
X73648000Y6968173D01*
X73648000Y7216000D01*
X72948000Y7216000D01*
X72448000Y7216000D01*
X71548000Y7216000D01*
X71048000Y7216000D01*
X70148000Y7216000D01*
X69648000Y7216000D01*
X68948000Y7216000D01*
X68326000Y7216000D01*
X68326000Y8616000D01*
X68948000Y8616000D01*
X68948000Y8368156D01*
X68954401Y8308628D01*
X68954403Y8308617D01*
X68991434Y8209332D01*
X68996418Y8139640D01*
X68991434Y8122668D01*
X68954403Y8023384D01*
X68954401Y8023373D01*
X68948000Y7963845D01*
X68948000Y7716000D01*
X69648000Y7716000D01*
X69648000Y8616000D01*
X70148000Y8616000D01*
X70148000Y7716000D01*
X71048000Y7716000D01*
X71048000Y8616000D01*
X71548000Y8616000D01*
X71548000Y7716000D01*
X72448000Y7716000D01*
X72448000Y8616000D01*
X72948000Y8616000D01*
X72948000Y7716000D01*
X73648000Y7716000D01*
X73648000Y7963828D01*
X73647999Y7963845D01*
X73641598Y8023373D01*
X73641597Y8023377D01*
X73604564Y8122666D01*
X73599580Y8192358D01*
X73604564Y8209334D01*
X73641597Y8308624D01*
X73641598Y8308628D01*
X73647999Y8368156D01*
X73648000Y8368173D01*
X73648000Y8616000D01*
X72948000Y8616000D01*
X72448000Y8616000D01*
X71548000Y8616000D01*
X71048000Y8616000D01*
X70148000Y8616000D01*
X69648000Y8616000D01*
X68948000Y8616000D01*
X68326000Y8616000D01*
X68326000Y10016000D01*
X68948000Y10016000D01*
X68948000Y9768156D01*
X68954401Y9708628D01*
X68954403Y9708617D01*
X68991434Y9609332D01*
X68996418Y9539640D01*
X68991434Y9522668D01*
X68954403Y9423384D01*
X68954401Y9423373D01*
X68948000Y9363845D01*
X68948000Y9116000D01*
X69648000Y9116000D01*
X69648000Y10016000D01*
X70148000Y10016000D01*
X70148000Y9116000D01*
X71048000Y9116000D01*
X71048000Y10016000D01*
X71548000Y10016000D01*
X71548000Y9116000D01*
X72448000Y9116000D01*
X72448000Y10016000D01*
X72948000Y10016000D01*
X72948000Y9116000D01*
X73648000Y9116000D01*
X73648000Y9363828D01*
X73647999Y9363845D01*
X73641598Y9423373D01*
X73641597Y9423377D01*
X73604564Y9522666D01*
X73599580Y9592358D01*
X73604564Y9609334D01*
X73641597Y9708624D01*
X73641598Y9708628D01*
X73647999Y9768156D01*
X73648000Y9768173D01*
X73648000Y10016000D01*
X72948000Y10016000D01*
X72448000Y10016000D01*
X71548000Y10016000D01*
X71048000Y10016000D01*
X70148000Y10016000D01*
X69648000Y10016000D01*
X68948000Y10016000D01*
X68326000Y10016000D01*
X68326000Y10462600D01*
X68345685Y10529639D01*
X68398489Y10575394D01*
X68450000Y10586600D01*
X68826038Y10586600D01*
X68893077Y10566915D01*
X68913719Y10550281D01*
X68948000Y10516000D01*
X72448000Y10516000D01*
X72482281Y10550281D01*
X72543604Y10583766D01*
X72569962Y10586600D01*
X72826038Y10586600D01*
X72893077Y10566915D01*
X72913719Y10550281D01*
X72948000Y10516000D01*
X73648000Y10516000D01*
X73648000Y10544000D01*
X73667685Y10611039D01*
X73720489Y10656794D01*
X73772000Y10668000D01*
X74552000Y10668000D01*
X74619039Y10648315D01*
G37*
%TD.AperFunction*%
%TD*%
M02*
