M48
; DRILL file {KiCad 7.0.7} date 2024 March 09, Saturday 11:29:06
; FORMAT={-:-/ absolute / inch / decimal}
; #@! TF.CreationDate,2024-03-09T11:29:06+01:00
; #@! TF.GenerationSoftware,Kicad,Pcbnew,7.0.7
; #@! TF.FileFunction,Plated,1,4,PTH
FMAT,2
INCH
; #@! TA.AperFunction,Plated,PTH,ViaDrill
T1C0.0118
; #@! TA.AperFunction,Plated,PTH,ComponentDrill
T2C0.0256
; #@! TA.AperFunction,Plated,PTH,ComponentDrill
T3C0.0394
; #@! TA.AperFunction,Plated,PTH,ComponentDrill
T4C0.0472
; #@! TA.AperFunction,Plated,PTH,ComponentDrill
T5C0.0630
%
G90
G05
T1
X0.21Y1.38
X0.2123Y1.4677
X0.25Y6.06
X0.26Y6.6
X0.27Y1.83
X0.3095Y4.157
X0.31Y4.36
X0.32Y2.44
X0.33Y5.84
X0.37Y3.93
X0.39Y3.63
X0.4079Y5.2458
X0.41Y5.45
X0.41Y3.55
X0.43Y4.92
X0.61Y0.94
X0.69Y6.35
X0.72Y2.14
X0.78Y4.23
X0.81Y3.28
X0.94Y5.19
X1.24Y1.4677
X1.25Y1.84
X1.25Y1.4
X1.26Y6.06
X1.27Y6.6
X1.3Y4.37
X1.3Y2.44
X1.31Y4.17
X1.35Y3.63
X1.35Y3.56
X1.3602Y5.2504
X1.37Y5.46
X1.37Y4.93
X1.41Y0.28
X1.45Y0.85
X1.47Y3.98
X1.66Y0.24
X1.67Y2.15
X1.69Y0.94
X1.73Y6.34
X1.73Y0.17
X1.78Y3.28
X1.84Y4.33
X1.84Y0.57
X1.87Y0.0
X1.88Y0.63
X1.91Y5.18
X1.93Y2.26
X2.04Y0.51
X2.23Y1.84
X2.25Y3.63
X2.26Y1.4677
X2.28Y6.5988
X2.28Y6.08
X2.28Y3.56
X2.28Y1.4
X2.29Y4.16
X2.3Y4.38
X2.31Y5.46
X2.31Y4.0
X2.31Y3.91
X2.3124Y5.2504
X2.32Y4.92
X2.44Y0.64
X2.45Y0.84
X2.45Y-0.05
X2.52Y0.84
X2.53Y4.5
X2.57Y0.02
X2.61Y0.88
X2.61Y0.01
X2.62Y1.03
X2.62Y0.8
X2.63Y6.35
X2.63Y6.07
X2.63Y4.87
X2.63Y4.62
X2.63Y4.03
X2.63Y3.88
X2.63Y2.76
X2.63Y2.61
X2.63Y2.03
X2.63Y1.88
X2.63Y1.4
X2.63Y1.37
X2.63Y1.34
X2.64Y1.19
X2.65Y0.7
X2.6988Y3.37
X2.6988Y1.41
X2.71Y6.47
X2.71Y0.39
X2.71Y0.26
X2.72Y5.64
X2.72Y1.86
X2.72Y0.7
X2.73Y6.23
X2.73Y5.21
X2.73Y4.62
X2.73Y4.4
X2.73Y4.03
X2.73Y3.86
X2.73Y2.61
X2.73Y0.8504
X2.7388Y2.16
X2.7512Y4.72
X2.7512Y3.97
X2.7512Y2.7
X2.76Y1.97
X2.76Y0.02
X2.77Y0.7
X2.785Y0.9
X2.7888Y4.61
X2.7888Y3.87
X2.7888Y1.88
X2.7888Y6.1
X2.7888Y2.63
X2.79Y6.34
X2.81Y6.19
X2.81Y6.12
X2.81Y4.64
X2.81Y3.9
X2.81Y2.66
X2.81Y1.9
X2.81Y0.93
X2.8312Y3.26
X2.8312Y2.81
X2.8312Y1.95
X2.84Y5.55
X2.84Y5.19
X2.84Y4.7
X2.84Y4.41
X2.84Y3.85
X2.84Y1.09
X2.84Y0.01
X2.85Y6.12
X2.85Y2.41
X2.8588Y2.54
X2.8588Y1.42
X2.86Y6.57
X2.88Y5.91
X2.88Y5.67
X2.88Y5.61
X2.88Y3.34
X2.88Y1.34
X2.9Y0.03
X2.91Y0.39
X2.91Y0.26
X2.95Y5.7939
X2.95Y3.51
X2.95Y1.24
X2.95Y1.21
X2.95Y1.18
X2.95Y1.15
X2.95Y0.8
X2.9706Y0.0588
X3.01Y1.4677
X3.0177Y3.7288
X3.02Y1.6112
X3.04Y0.85
X3.05Y4.49
X3.06Y0.73
X3.22Y0.73
X3.26Y5.46
X3.26Y3.56
X3.2647Y5.2504
X3.265Y4.915
X3.27Y4.01
X3.27Y3.9
X3.28Y4.16
X3.28Y2.44
X3.28Y1.8188
X3.29Y6.06
X3.29Y4.38
X3.29Y3.5988
X3.3Y6.6
X3.3Y1.4
X3.3Y0.01
X3.31Y0.15
X3.31Y0.08
X3.31Y-0.06
X3.33Y1.4677
X3.68Y5.19
X3.79Y3.27
X3.8Y4.22
X3.87Y0.05
X3.87Y-0.01
X3.87Y-0.08
X3.88Y6.34
X3.91Y2.18
X3.92Y0.94
X4.07Y0.69
X4.11Y0.59
X4.16Y0.2
X4.2Y4.9
X4.2169Y5.2504
X4.22Y5.46
X4.22Y3.6188
X4.22Y3.56
X4.25Y3.91
X4.25Y0.62
X4.27Y4.17
X4.27Y0.2
X4.28Y4.37
X4.28Y2.44
X4.31Y6.6
X4.32Y6.06
X4.3233Y0.62
X4.33Y1.84
X4.33Y1.4
X4.35Y1.4677
X4.3967Y0.62
X4.45Y0.2
X4.47Y0.62
X4.56Y0.2
X4.6Y0.58
X4.64Y5.19
X4.74Y3.28
X4.8Y4.22
X4.84Y0.69
X4.91Y6.34
X4.91Y2.18
X4.93Y0.93
X5.15Y4.9
X5.1677Y3.63
X5.1691Y5.4561
X5.17Y5.25
X5.17Y3.56
X5.23Y3.93
X5.26Y4.37
X5.26Y2.44
X5.27Y4.16
X5.32Y6.6
X5.32Y1.83
X5.33Y6.06
X5.35Y0.82
X5.35Y0.25
X5.36Y1.4
X5.37Y1.47
X5.39Y0.62
X5.39Y0.46
X5.42Y0.666
X5.42Y0.4114
X5.59Y0.92
X5.65Y0.92
T2
X1.6452Y-0.06
X1.6952Y-0.06
X1.7452Y-0.06
X1.7952Y-0.06
T3
X5.0002Y0.0304
X5.1002Y0.0304
T4
X0.4152Y0.2816
X0.74Y0.682
X0.74Y0.532
X1.0148Y0.532
T5
X0.59Y0.682
X0.89Y0.682
T0
M30
