%TF.GenerationSoftware,KiCad,Pcbnew,7.0.7*%
%TF.CreationDate,2024-03-09T13:17:10+01:00*%
%TF.ProjectId,button-board,62757474-6f6e-42d6-926f-6172642e6b69,rev?*%
%TF.SameCoordinates,Original*%
%TF.FileFunction,Other,Comment*%
%FSLAX46Y46*%
G04 Gerber Fmt 4.6, Leading zero omitted, Abs format (unit mm)*
G04 Created by KiCad (PCBNEW 7.0.7) date 2024-03-09 13:17:10*
%MOMM*%
%LPD*%
G01*
G04 APERTURE LIST*
%ADD10C,0.300000*%
%ADD11C,0.150000*%
G04 APERTURE END LIST*
D10*
X105553165Y92899407D02*
X105481737Y92970835D01*
X105481737Y92970835D02*
X105410308Y93113692D01*
X105410308Y93113692D02*
X105410308Y93470835D01*
X105410308Y93470835D02*
X105481737Y93613692D01*
X105481737Y93613692D02*
X105553165Y93685121D01*
X105553165Y93685121D02*
X105696022Y93756550D01*
X105696022Y93756550D02*
X105838880Y93756550D01*
X105838880Y93756550D02*
X106053165Y93685121D01*
X106053165Y93685121D02*
X106910308Y92827978D01*
X106910308Y92827978D02*
X106910308Y93756550D01*
X105410308Y94685121D02*
X105410308Y94827978D01*
X105410308Y94827978D02*
X105481737Y94970835D01*
X105481737Y94970835D02*
X105553165Y95042263D01*
X105553165Y95042263D02*
X105696022Y95113692D01*
X105696022Y95113692D02*
X105981737Y95185121D01*
X105981737Y95185121D02*
X106338880Y95185121D01*
X106338880Y95185121D02*
X106624594Y95113692D01*
X106624594Y95113692D02*
X106767451Y95042263D01*
X106767451Y95042263D02*
X106838880Y94970835D01*
X106838880Y94970835D02*
X106910308Y94827978D01*
X106910308Y94827978D02*
X106910308Y94685121D01*
X106910308Y94685121D02*
X106838880Y94542263D01*
X106838880Y94542263D02*
X106767451Y94470835D01*
X106767451Y94470835D02*
X106624594Y94399406D01*
X106624594Y94399406D02*
X106338880Y94327978D01*
X106338880Y94327978D02*
X105981737Y94327978D01*
X105981737Y94327978D02*
X105696022Y94399406D01*
X105696022Y94399406D02*
X105553165Y94470835D01*
X105553165Y94470835D02*
X105481737Y94542263D01*
X105481737Y94542263D02*
X105410308Y94685121D01*
X106910308Y95827977D02*
X105910308Y95827977D01*
X106053165Y95827977D02*
X105981737Y95899406D01*
X105981737Y95899406D02*
X105910308Y96042263D01*
X105910308Y96042263D02*
X105910308Y96256549D01*
X105910308Y96256549D02*
X105981737Y96399406D01*
X105981737Y96399406D02*
X106124594Y96470834D01*
X106124594Y96470834D02*
X106910308Y96470834D01*
X106124594Y96470834D02*
X105981737Y96542263D01*
X105981737Y96542263D02*
X105910308Y96685120D01*
X105910308Y96685120D02*
X105910308Y96899406D01*
X105910308Y96899406D02*
X105981737Y97042263D01*
X105981737Y97042263D02*
X106124594Y97113692D01*
X106124594Y97113692D02*
X106910308Y97113692D01*
X106910308Y97827977D02*
X105910308Y97827977D01*
X106053165Y97827977D02*
X105981737Y97899406D01*
X105981737Y97899406D02*
X105910308Y98042263D01*
X105910308Y98042263D02*
X105910308Y98256549D01*
X105910308Y98256549D02*
X105981737Y98399406D01*
X105981737Y98399406D02*
X106124594Y98470834D01*
X106124594Y98470834D02*
X106910308Y98470834D01*
X106124594Y98470834D02*
X105981737Y98542263D01*
X105981737Y98542263D02*
X105910308Y98685120D01*
X105910308Y98685120D02*
X105910308Y98899406D01*
X105910308Y98899406D02*
X105981737Y99042263D01*
X105981737Y99042263D02*
X106124594Y99113692D01*
X106124594Y99113692D02*
X106910308Y99113692D01*
X106910308Y101185120D02*
X106838880Y101042263D01*
X106838880Y101042263D02*
X106767451Y100970834D01*
X106767451Y100970834D02*
X106624594Y100899406D01*
X106624594Y100899406D02*
X106196022Y100899406D01*
X106196022Y100899406D02*
X106053165Y100970834D01*
X106053165Y100970834D02*
X105981737Y101042263D01*
X105981737Y101042263D02*
X105910308Y101185120D01*
X105910308Y101185120D02*
X105910308Y101399406D01*
X105910308Y101399406D02*
X105981737Y101542263D01*
X105981737Y101542263D02*
X106053165Y101613691D01*
X106053165Y101613691D02*
X106196022Y101685120D01*
X106196022Y101685120D02*
X106624594Y101685120D01*
X106624594Y101685120D02*
X106767451Y101613691D01*
X106767451Y101613691D02*
X106838880Y101542263D01*
X106838880Y101542263D02*
X106910308Y101399406D01*
X106910308Y101399406D02*
X106910308Y101185120D01*
X105910308Y102970834D02*
X106910308Y102970834D01*
X105910308Y102327977D02*
X106696022Y102327977D01*
X106696022Y102327977D02*
X106838880Y102399406D01*
X106838880Y102399406D02*
X106910308Y102542263D01*
X106910308Y102542263D02*
X106910308Y102756549D01*
X106910308Y102756549D02*
X106838880Y102899406D01*
X106838880Y102899406D02*
X106767451Y102970834D01*
X105910308Y103470835D02*
X105910308Y104042263D01*
X105410308Y103685120D02*
X106696022Y103685120D01*
X106696022Y103685120D02*
X106838880Y103756549D01*
X106838880Y103756549D02*
X106910308Y103899406D01*
X106910308Y103899406D02*
X106910308Y104042263D01*
X106838880Y105113692D02*
X106910308Y104970835D01*
X106910308Y104970835D02*
X106910308Y104685120D01*
X106910308Y104685120D02*
X106838880Y104542263D01*
X106838880Y104542263D02*
X106696022Y104470835D01*
X106696022Y104470835D02*
X106124594Y104470835D01*
X106124594Y104470835D02*
X105981737Y104542263D01*
X105981737Y104542263D02*
X105910308Y104685120D01*
X105910308Y104685120D02*
X105910308Y104970835D01*
X105910308Y104970835D02*
X105981737Y105113692D01*
X105981737Y105113692D02*
X106124594Y105185120D01*
X106124594Y105185120D02*
X106267451Y105185120D01*
X106267451Y105185120D02*
X106410308Y104470835D01*
X106910308Y105827977D02*
X105910308Y105827977D01*
X106196022Y105827977D02*
X106053165Y105899406D01*
X106053165Y105899406D02*
X105981737Y105970834D01*
X105981737Y105970834D02*
X105910308Y106113692D01*
X105910308Y106113692D02*
X105910308Y106256549D01*
X106838880Y106827977D02*
X106910308Y106827977D01*
X106910308Y106827977D02*
X107053165Y106756548D01*
X107053165Y106756548D02*
X107124594Y106685120D01*
X106910308Y109399406D02*
X106910308Y108542263D01*
X106910308Y108970834D02*
X105410308Y108970834D01*
X105410308Y108970834D02*
X105624594Y108827977D01*
X105624594Y108827977D02*
X105767451Y108685120D01*
X105767451Y108685120D02*
X105838880Y108542263D01*
X105410308Y110327977D02*
X105410308Y110470834D01*
X105410308Y110470834D02*
X105481737Y110613691D01*
X105481737Y110613691D02*
X105553165Y110685119D01*
X105553165Y110685119D02*
X105696022Y110756548D01*
X105696022Y110756548D02*
X105981737Y110827977D01*
X105981737Y110827977D02*
X106338880Y110827977D01*
X106338880Y110827977D02*
X106624594Y110756548D01*
X106624594Y110756548D02*
X106767451Y110685119D01*
X106767451Y110685119D02*
X106838880Y110613691D01*
X106838880Y110613691D02*
X106910308Y110470834D01*
X106910308Y110470834D02*
X106910308Y110327977D01*
X106910308Y110327977D02*
X106838880Y110185119D01*
X106838880Y110185119D02*
X106767451Y110113691D01*
X106767451Y110113691D02*
X106624594Y110042262D01*
X106624594Y110042262D02*
X106338880Y109970834D01*
X106338880Y109970834D02*
X105981737Y109970834D01*
X105981737Y109970834D02*
X105696022Y110042262D01*
X105696022Y110042262D02*
X105553165Y110113691D01*
X105553165Y110113691D02*
X105481737Y110185119D01*
X105481737Y110185119D02*
X105410308Y110327977D01*
X106910308Y111470833D02*
X105910308Y111470833D01*
X106053165Y111470833D02*
X105981737Y111542262D01*
X105981737Y111542262D02*
X105910308Y111685119D01*
X105910308Y111685119D02*
X105910308Y111899405D01*
X105910308Y111899405D02*
X105981737Y112042262D01*
X105981737Y112042262D02*
X106124594Y112113690D01*
X106124594Y112113690D02*
X106910308Y112113690D01*
X106124594Y112113690D02*
X105981737Y112185119D01*
X105981737Y112185119D02*
X105910308Y112327976D01*
X105910308Y112327976D02*
X105910308Y112542262D01*
X105910308Y112542262D02*
X105981737Y112685119D01*
X105981737Y112685119D02*
X106124594Y112756548D01*
X106124594Y112756548D02*
X106910308Y112756548D01*
X106910308Y113470833D02*
X105910308Y113470833D01*
X106053165Y113470833D02*
X105981737Y113542262D01*
X105981737Y113542262D02*
X105910308Y113685119D01*
X105910308Y113685119D02*
X105910308Y113899405D01*
X105910308Y113899405D02*
X105981737Y114042262D01*
X105981737Y114042262D02*
X106124594Y114113690D01*
X106124594Y114113690D02*
X106910308Y114113690D01*
X106124594Y114113690D02*
X105981737Y114185119D01*
X105981737Y114185119D02*
X105910308Y114327976D01*
X105910308Y114327976D02*
X105910308Y114542262D01*
X105910308Y114542262D02*
X105981737Y114685119D01*
X105981737Y114685119D02*
X106124594Y114756548D01*
X106124594Y114756548D02*
X106910308Y114756548D01*
X106910308Y116613690D02*
X105910308Y116613690D01*
X105410308Y116613690D02*
X105481737Y116542262D01*
X105481737Y116542262D02*
X105553165Y116613690D01*
X105553165Y116613690D02*
X105481737Y116685119D01*
X105481737Y116685119D02*
X105410308Y116613690D01*
X105410308Y116613690D02*
X105553165Y116613690D01*
X105910308Y117327976D02*
X106910308Y117327976D01*
X106053165Y117327976D02*
X105981737Y117399405D01*
X105981737Y117399405D02*
X105910308Y117542262D01*
X105910308Y117542262D02*
X105910308Y117756548D01*
X105910308Y117756548D02*
X105981737Y117899405D01*
X105981737Y117899405D02*
X106124594Y117970833D01*
X106124594Y117970833D02*
X106910308Y117970833D01*
X105910308Y118685119D02*
X106910308Y118685119D01*
X106053165Y118685119D02*
X105981737Y118756548D01*
X105981737Y118756548D02*
X105910308Y118899405D01*
X105910308Y118899405D02*
X105910308Y119113691D01*
X105910308Y119113691D02*
X105981737Y119256548D01*
X105981737Y119256548D02*
X106124594Y119327976D01*
X106124594Y119327976D02*
X106910308Y119327976D01*
X106838880Y120613691D02*
X106910308Y120470834D01*
X106910308Y120470834D02*
X106910308Y120185119D01*
X106910308Y120185119D02*
X106838880Y120042262D01*
X106838880Y120042262D02*
X106696022Y119970834D01*
X106696022Y119970834D02*
X106124594Y119970834D01*
X106124594Y119970834D02*
X105981737Y120042262D01*
X105981737Y120042262D02*
X105910308Y120185119D01*
X105910308Y120185119D02*
X105910308Y120470834D01*
X105910308Y120470834D02*
X105981737Y120613691D01*
X105981737Y120613691D02*
X106124594Y120685119D01*
X106124594Y120685119D02*
X106267451Y120685119D01*
X106267451Y120685119D02*
X106410308Y119970834D01*
X106910308Y121327976D02*
X105910308Y121327976D01*
X106196022Y121327976D02*
X106053165Y121399405D01*
X106053165Y121399405D02*
X105981737Y121470833D01*
X105981737Y121470833D02*
X105910308Y121613691D01*
X105910308Y121613691D02*
X105910308Y121756548D01*
X81366245Y92899407D02*
X81294817Y92970835D01*
X81294817Y92970835D02*
X81223388Y93113692D01*
X81223388Y93113692D02*
X81223388Y93470835D01*
X81223388Y93470835D02*
X81294817Y93613692D01*
X81294817Y93613692D02*
X81366245Y93685121D01*
X81366245Y93685121D02*
X81509102Y93756550D01*
X81509102Y93756550D02*
X81651960Y93756550D01*
X81651960Y93756550D02*
X81866245Y93685121D01*
X81866245Y93685121D02*
X82723388Y92827978D01*
X82723388Y92827978D02*
X82723388Y93756550D01*
X81223388Y94685121D02*
X81223388Y94827978D01*
X81223388Y94827978D02*
X81294817Y94970835D01*
X81294817Y94970835D02*
X81366245Y95042263D01*
X81366245Y95042263D02*
X81509102Y95113692D01*
X81509102Y95113692D02*
X81794817Y95185121D01*
X81794817Y95185121D02*
X82151960Y95185121D01*
X82151960Y95185121D02*
X82437674Y95113692D01*
X82437674Y95113692D02*
X82580531Y95042263D01*
X82580531Y95042263D02*
X82651960Y94970835D01*
X82651960Y94970835D02*
X82723388Y94827978D01*
X82723388Y94827978D02*
X82723388Y94685121D01*
X82723388Y94685121D02*
X82651960Y94542263D01*
X82651960Y94542263D02*
X82580531Y94470835D01*
X82580531Y94470835D02*
X82437674Y94399406D01*
X82437674Y94399406D02*
X82151960Y94327978D01*
X82151960Y94327978D02*
X81794817Y94327978D01*
X81794817Y94327978D02*
X81509102Y94399406D01*
X81509102Y94399406D02*
X81366245Y94470835D01*
X81366245Y94470835D02*
X81294817Y94542263D01*
X81294817Y94542263D02*
X81223388Y94685121D01*
X82723388Y95827977D02*
X81723388Y95827977D01*
X81866245Y95827977D02*
X81794817Y95899406D01*
X81794817Y95899406D02*
X81723388Y96042263D01*
X81723388Y96042263D02*
X81723388Y96256549D01*
X81723388Y96256549D02*
X81794817Y96399406D01*
X81794817Y96399406D02*
X81937674Y96470834D01*
X81937674Y96470834D02*
X82723388Y96470834D01*
X81937674Y96470834D02*
X81794817Y96542263D01*
X81794817Y96542263D02*
X81723388Y96685120D01*
X81723388Y96685120D02*
X81723388Y96899406D01*
X81723388Y96899406D02*
X81794817Y97042263D01*
X81794817Y97042263D02*
X81937674Y97113692D01*
X81937674Y97113692D02*
X82723388Y97113692D01*
X82723388Y97827977D02*
X81723388Y97827977D01*
X81866245Y97827977D02*
X81794817Y97899406D01*
X81794817Y97899406D02*
X81723388Y98042263D01*
X81723388Y98042263D02*
X81723388Y98256549D01*
X81723388Y98256549D02*
X81794817Y98399406D01*
X81794817Y98399406D02*
X81937674Y98470834D01*
X81937674Y98470834D02*
X82723388Y98470834D01*
X81937674Y98470834D02*
X81794817Y98542263D01*
X81794817Y98542263D02*
X81723388Y98685120D01*
X81723388Y98685120D02*
X81723388Y98899406D01*
X81723388Y98899406D02*
X81794817Y99042263D01*
X81794817Y99042263D02*
X81937674Y99113692D01*
X81937674Y99113692D02*
X82723388Y99113692D01*
X82723388Y101185120D02*
X82651960Y101042263D01*
X82651960Y101042263D02*
X82580531Y100970834D01*
X82580531Y100970834D02*
X82437674Y100899406D01*
X82437674Y100899406D02*
X82009102Y100899406D01*
X82009102Y100899406D02*
X81866245Y100970834D01*
X81866245Y100970834D02*
X81794817Y101042263D01*
X81794817Y101042263D02*
X81723388Y101185120D01*
X81723388Y101185120D02*
X81723388Y101399406D01*
X81723388Y101399406D02*
X81794817Y101542263D01*
X81794817Y101542263D02*
X81866245Y101613691D01*
X81866245Y101613691D02*
X82009102Y101685120D01*
X82009102Y101685120D02*
X82437674Y101685120D01*
X82437674Y101685120D02*
X82580531Y101613691D01*
X82580531Y101613691D02*
X82651960Y101542263D01*
X82651960Y101542263D02*
X82723388Y101399406D01*
X82723388Y101399406D02*
X82723388Y101185120D01*
X81723388Y102970834D02*
X82723388Y102970834D01*
X81723388Y102327977D02*
X82509102Y102327977D01*
X82509102Y102327977D02*
X82651960Y102399406D01*
X82651960Y102399406D02*
X82723388Y102542263D01*
X82723388Y102542263D02*
X82723388Y102756549D01*
X82723388Y102756549D02*
X82651960Y102899406D01*
X82651960Y102899406D02*
X82580531Y102970834D01*
X81723388Y103470835D02*
X81723388Y104042263D01*
X81223388Y103685120D02*
X82509102Y103685120D01*
X82509102Y103685120D02*
X82651960Y103756549D01*
X82651960Y103756549D02*
X82723388Y103899406D01*
X82723388Y103899406D02*
X82723388Y104042263D01*
X82651960Y105113692D02*
X82723388Y104970835D01*
X82723388Y104970835D02*
X82723388Y104685120D01*
X82723388Y104685120D02*
X82651960Y104542263D01*
X82651960Y104542263D02*
X82509102Y104470835D01*
X82509102Y104470835D02*
X81937674Y104470835D01*
X81937674Y104470835D02*
X81794817Y104542263D01*
X81794817Y104542263D02*
X81723388Y104685120D01*
X81723388Y104685120D02*
X81723388Y104970835D01*
X81723388Y104970835D02*
X81794817Y105113692D01*
X81794817Y105113692D02*
X81937674Y105185120D01*
X81937674Y105185120D02*
X82080531Y105185120D01*
X82080531Y105185120D02*
X82223388Y104470835D01*
X82723388Y105827977D02*
X81723388Y105827977D01*
X82009102Y105827977D02*
X81866245Y105899406D01*
X81866245Y105899406D02*
X81794817Y105970834D01*
X81794817Y105970834D02*
X81723388Y106113692D01*
X81723388Y106113692D02*
X81723388Y106256549D01*
X82651960Y106827977D02*
X82723388Y106827977D01*
X82723388Y106827977D02*
X82866245Y106756548D01*
X82866245Y106756548D02*
X82937674Y106685120D01*
X82723388Y109399406D02*
X82723388Y108542263D01*
X82723388Y108970834D02*
X81223388Y108970834D01*
X81223388Y108970834D02*
X81437674Y108827977D01*
X81437674Y108827977D02*
X81580531Y108685120D01*
X81580531Y108685120D02*
X81651960Y108542263D01*
X81223388Y110327977D02*
X81223388Y110470834D01*
X81223388Y110470834D02*
X81294817Y110613691D01*
X81294817Y110613691D02*
X81366245Y110685119D01*
X81366245Y110685119D02*
X81509102Y110756548D01*
X81509102Y110756548D02*
X81794817Y110827977D01*
X81794817Y110827977D02*
X82151960Y110827977D01*
X82151960Y110827977D02*
X82437674Y110756548D01*
X82437674Y110756548D02*
X82580531Y110685119D01*
X82580531Y110685119D02*
X82651960Y110613691D01*
X82651960Y110613691D02*
X82723388Y110470834D01*
X82723388Y110470834D02*
X82723388Y110327977D01*
X82723388Y110327977D02*
X82651960Y110185119D01*
X82651960Y110185119D02*
X82580531Y110113691D01*
X82580531Y110113691D02*
X82437674Y110042262D01*
X82437674Y110042262D02*
X82151960Y109970834D01*
X82151960Y109970834D02*
X81794817Y109970834D01*
X81794817Y109970834D02*
X81509102Y110042262D01*
X81509102Y110042262D02*
X81366245Y110113691D01*
X81366245Y110113691D02*
X81294817Y110185119D01*
X81294817Y110185119D02*
X81223388Y110327977D01*
X82723388Y111470833D02*
X81723388Y111470833D01*
X81866245Y111470833D02*
X81794817Y111542262D01*
X81794817Y111542262D02*
X81723388Y111685119D01*
X81723388Y111685119D02*
X81723388Y111899405D01*
X81723388Y111899405D02*
X81794817Y112042262D01*
X81794817Y112042262D02*
X81937674Y112113690D01*
X81937674Y112113690D02*
X82723388Y112113690D01*
X81937674Y112113690D02*
X81794817Y112185119D01*
X81794817Y112185119D02*
X81723388Y112327976D01*
X81723388Y112327976D02*
X81723388Y112542262D01*
X81723388Y112542262D02*
X81794817Y112685119D01*
X81794817Y112685119D02*
X81937674Y112756548D01*
X81937674Y112756548D02*
X82723388Y112756548D01*
X82723388Y113470833D02*
X81723388Y113470833D01*
X81866245Y113470833D02*
X81794817Y113542262D01*
X81794817Y113542262D02*
X81723388Y113685119D01*
X81723388Y113685119D02*
X81723388Y113899405D01*
X81723388Y113899405D02*
X81794817Y114042262D01*
X81794817Y114042262D02*
X81937674Y114113690D01*
X81937674Y114113690D02*
X82723388Y114113690D01*
X81937674Y114113690D02*
X81794817Y114185119D01*
X81794817Y114185119D02*
X81723388Y114327976D01*
X81723388Y114327976D02*
X81723388Y114542262D01*
X81723388Y114542262D02*
X81794817Y114685119D01*
X81794817Y114685119D02*
X81937674Y114756548D01*
X81937674Y114756548D02*
X82723388Y114756548D01*
X82723388Y116613690D02*
X81723388Y116613690D01*
X81223388Y116613690D02*
X81294817Y116542262D01*
X81294817Y116542262D02*
X81366245Y116613690D01*
X81366245Y116613690D02*
X81294817Y116685119D01*
X81294817Y116685119D02*
X81223388Y116613690D01*
X81223388Y116613690D02*
X81366245Y116613690D01*
X81723388Y117327976D02*
X82723388Y117327976D01*
X81866245Y117327976D02*
X81794817Y117399405D01*
X81794817Y117399405D02*
X81723388Y117542262D01*
X81723388Y117542262D02*
X81723388Y117756548D01*
X81723388Y117756548D02*
X81794817Y117899405D01*
X81794817Y117899405D02*
X81937674Y117970833D01*
X81937674Y117970833D02*
X82723388Y117970833D01*
X81723388Y118685119D02*
X82723388Y118685119D01*
X81866245Y118685119D02*
X81794817Y118756548D01*
X81794817Y118756548D02*
X81723388Y118899405D01*
X81723388Y118899405D02*
X81723388Y119113691D01*
X81723388Y119113691D02*
X81794817Y119256548D01*
X81794817Y119256548D02*
X81937674Y119327976D01*
X81937674Y119327976D02*
X82723388Y119327976D01*
X82651960Y120613691D02*
X82723388Y120470834D01*
X82723388Y120470834D02*
X82723388Y120185119D01*
X82723388Y120185119D02*
X82651960Y120042262D01*
X82651960Y120042262D02*
X82509102Y119970834D01*
X82509102Y119970834D02*
X81937674Y119970834D01*
X81937674Y119970834D02*
X81794817Y120042262D01*
X81794817Y120042262D02*
X81723388Y120185119D01*
X81723388Y120185119D02*
X81723388Y120470834D01*
X81723388Y120470834D02*
X81794817Y120613691D01*
X81794817Y120613691D02*
X81937674Y120685119D01*
X81937674Y120685119D02*
X82080531Y120685119D01*
X82080531Y120685119D02*
X82223388Y119970834D01*
X82723388Y121327976D02*
X81723388Y121327976D01*
X82009102Y121327976D02*
X81866245Y121399405D01*
X81866245Y121399405D02*
X81794817Y121470833D01*
X81794817Y121470833D02*
X81723388Y121613691D01*
X81723388Y121613691D02*
X81723388Y121756548D01*
X58036468Y66219991D02*
X58036468Y65362848D01*
X58036468Y65791419D02*
X56536468Y65791419D01*
X56536468Y65791419D02*
X56750754Y65648562D01*
X56750754Y65648562D02*
X56893611Y65505705D01*
X56893611Y65505705D02*
X56965040Y65362848D01*
X56536468Y67577133D02*
X56536468Y66862847D01*
X56536468Y66862847D02*
X57250754Y66791419D01*
X57250754Y66791419D02*
X57179325Y66862847D01*
X57179325Y66862847D02*
X57107897Y67005704D01*
X57107897Y67005704D02*
X57107897Y67362847D01*
X57107897Y67362847D02*
X57179325Y67505704D01*
X57179325Y67505704D02*
X57250754Y67577133D01*
X57250754Y67577133D02*
X57393611Y67648562D01*
X57393611Y67648562D02*
X57750754Y67648562D01*
X57750754Y67648562D02*
X57893611Y67577133D01*
X57893611Y67577133D02*
X57965040Y67505704D01*
X57965040Y67505704D02*
X58036468Y67362847D01*
X58036468Y67362847D02*
X58036468Y67005704D01*
X58036468Y67005704D02*
X57965040Y66862847D01*
X57965040Y66862847D02*
X57893611Y66791419D01*
X58036468Y68291418D02*
X57036468Y68291418D01*
X57179325Y68291418D02*
X57107897Y68362847D01*
X57107897Y68362847D02*
X57036468Y68505704D01*
X57036468Y68505704D02*
X57036468Y68719990D01*
X57036468Y68719990D02*
X57107897Y68862847D01*
X57107897Y68862847D02*
X57250754Y68934275D01*
X57250754Y68934275D02*
X58036468Y68934275D01*
X57250754Y68934275D02*
X57107897Y69005704D01*
X57107897Y69005704D02*
X57036468Y69148561D01*
X57036468Y69148561D02*
X57036468Y69362847D01*
X57036468Y69362847D02*
X57107897Y69505704D01*
X57107897Y69505704D02*
X57250754Y69577133D01*
X57250754Y69577133D02*
X58036468Y69577133D01*
X58036468Y70291418D02*
X57036468Y70291418D01*
X57179325Y70291418D02*
X57107897Y70362847D01*
X57107897Y70362847D02*
X57036468Y70505704D01*
X57036468Y70505704D02*
X57036468Y70719990D01*
X57036468Y70719990D02*
X57107897Y70862847D01*
X57107897Y70862847D02*
X57250754Y70934275D01*
X57250754Y70934275D02*
X58036468Y70934275D01*
X57250754Y70934275D02*
X57107897Y71005704D01*
X57107897Y71005704D02*
X57036468Y71148561D01*
X57036468Y71148561D02*
X57036468Y71362847D01*
X57036468Y71362847D02*
X57107897Y71505704D01*
X57107897Y71505704D02*
X57250754Y71577133D01*
X57250754Y71577133D02*
X58036468Y71577133D01*
X58036468Y73648561D02*
X57965040Y73505704D01*
X57965040Y73505704D02*
X57893611Y73434275D01*
X57893611Y73434275D02*
X57750754Y73362847D01*
X57750754Y73362847D02*
X57322182Y73362847D01*
X57322182Y73362847D02*
X57179325Y73434275D01*
X57179325Y73434275D02*
X57107897Y73505704D01*
X57107897Y73505704D02*
X57036468Y73648561D01*
X57036468Y73648561D02*
X57036468Y73862847D01*
X57036468Y73862847D02*
X57107897Y74005704D01*
X57107897Y74005704D02*
X57179325Y74077132D01*
X57179325Y74077132D02*
X57322182Y74148561D01*
X57322182Y74148561D02*
X57750754Y74148561D01*
X57750754Y74148561D02*
X57893611Y74077132D01*
X57893611Y74077132D02*
X57965040Y74005704D01*
X57965040Y74005704D02*
X58036468Y73862847D01*
X58036468Y73862847D02*
X58036468Y73648561D01*
X57036468Y75434275D02*
X58036468Y75434275D01*
X57036468Y74791418D02*
X57822182Y74791418D01*
X57822182Y74791418D02*
X57965040Y74862847D01*
X57965040Y74862847D02*
X58036468Y75005704D01*
X58036468Y75005704D02*
X58036468Y75219990D01*
X58036468Y75219990D02*
X57965040Y75362847D01*
X57965040Y75362847D02*
X57893611Y75434275D01*
X57036468Y75934276D02*
X57036468Y76505704D01*
X56536468Y76148561D02*
X57822182Y76148561D01*
X57822182Y76148561D02*
X57965040Y76219990D01*
X57965040Y76219990D02*
X58036468Y76362847D01*
X58036468Y76362847D02*
X58036468Y76505704D01*
X57965040Y77577133D02*
X58036468Y77434276D01*
X58036468Y77434276D02*
X58036468Y77148561D01*
X58036468Y77148561D02*
X57965040Y77005704D01*
X57965040Y77005704D02*
X57822182Y76934276D01*
X57822182Y76934276D02*
X57250754Y76934276D01*
X57250754Y76934276D02*
X57107897Y77005704D01*
X57107897Y77005704D02*
X57036468Y77148561D01*
X57036468Y77148561D02*
X57036468Y77434276D01*
X57036468Y77434276D02*
X57107897Y77577133D01*
X57107897Y77577133D02*
X57250754Y77648561D01*
X57250754Y77648561D02*
X57393611Y77648561D01*
X57393611Y77648561D02*
X57536468Y76934276D01*
X58036468Y78291418D02*
X57036468Y78291418D01*
X57322182Y78291418D02*
X57179325Y78362847D01*
X57179325Y78362847D02*
X57107897Y78434275D01*
X57107897Y78434275D02*
X57036468Y78577133D01*
X57036468Y78577133D02*
X57036468Y78719990D01*
X57965040Y79291418D02*
X58036468Y79291418D01*
X58036468Y79291418D02*
X58179325Y79219989D01*
X58179325Y79219989D02*
X58250754Y79148561D01*
X56536468Y80934275D02*
X56536468Y81934275D01*
X56536468Y81934275D02*
X58036468Y81291418D01*
X57893611Y82505703D02*
X57965040Y82577132D01*
X57965040Y82577132D02*
X58036468Y82505703D01*
X58036468Y82505703D02*
X57965040Y82434275D01*
X57965040Y82434275D02*
X57893611Y82505703D01*
X57893611Y82505703D02*
X58036468Y82505703D01*
X56536468Y83934275D02*
X56536468Y83219989D01*
X56536468Y83219989D02*
X57250754Y83148561D01*
X57250754Y83148561D02*
X57179325Y83219989D01*
X57179325Y83219989D02*
X57107897Y83362846D01*
X57107897Y83362846D02*
X57107897Y83719989D01*
X57107897Y83719989D02*
X57179325Y83862846D01*
X57179325Y83862846D02*
X57250754Y83934275D01*
X57250754Y83934275D02*
X57393611Y84005704D01*
X57393611Y84005704D02*
X57750754Y84005704D01*
X57750754Y84005704D02*
X57893611Y83934275D01*
X57893611Y83934275D02*
X57965040Y83862846D01*
X57965040Y83862846D02*
X58036468Y83719989D01*
X58036468Y83719989D02*
X58036468Y83362846D01*
X58036468Y83362846D02*
X57965040Y83219989D01*
X57965040Y83219989D02*
X57893611Y83148561D01*
X58036468Y84648560D02*
X57036468Y84648560D01*
X57179325Y84648560D02*
X57107897Y84719989D01*
X57107897Y84719989D02*
X57036468Y84862846D01*
X57036468Y84862846D02*
X57036468Y85077132D01*
X57036468Y85077132D02*
X57107897Y85219989D01*
X57107897Y85219989D02*
X57250754Y85291417D01*
X57250754Y85291417D02*
X58036468Y85291417D01*
X57250754Y85291417D02*
X57107897Y85362846D01*
X57107897Y85362846D02*
X57036468Y85505703D01*
X57036468Y85505703D02*
X57036468Y85719989D01*
X57036468Y85719989D02*
X57107897Y85862846D01*
X57107897Y85862846D02*
X57250754Y85934275D01*
X57250754Y85934275D02*
X58036468Y85934275D01*
X58036468Y86648560D02*
X57036468Y86648560D01*
X57179325Y86648560D02*
X57107897Y86719989D01*
X57107897Y86719989D02*
X57036468Y86862846D01*
X57036468Y86862846D02*
X57036468Y87077132D01*
X57036468Y87077132D02*
X57107897Y87219989D01*
X57107897Y87219989D02*
X57250754Y87291417D01*
X57250754Y87291417D02*
X58036468Y87291417D01*
X57250754Y87291417D02*
X57107897Y87362846D01*
X57107897Y87362846D02*
X57036468Y87505703D01*
X57036468Y87505703D02*
X57036468Y87719989D01*
X57036468Y87719989D02*
X57107897Y87862846D01*
X57107897Y87862846D02*
X57250754Y87934275D01*
X57250754Y87934275D02*
X58036468Y87934275D01*
X58036468Y89791417D02*
X57036468Y89791417D01*
X56536468Y89791417D02*
X56607897Y89719989D01*
X56607897Y89719989D02*
X56679325Y89791417D01*
X56679325Y89791417D02*
X56607897Y89862846D01*
X56607897Y89862846D02*
X56536468Y89791417D01*
X56536468Y89791417D02*
X56679325Y89791417D01*
X57036468Y90505703D02*
X58036468Y90505703D01*
X57179325Y90505703D02*
X57107897Y90577132D01*
X57107897Y90577132D02*
X57036468Y90719989D01*
X57036468Y90719989D02*
X57036468Y90934275D01*
X57036468Y90934275D02*
X57107897Y91077132D01*
X57107897Y91077132D02*
X57250754Y91148560D01*
X57250754Y91148560D02*
X58036468Y91148560D01*
X57036468Y91862846D02*
X58036468Y91862846D01*
X57179325Y91862846D02*
X57107897Y91934275D01*
X57107897Y91934275D02*
X57036468Y92077132D01*
X57036468Y92077132D02*
X57036468Y92291418D01*
X57036468Y92291418D02*
X57107897Y92434275D01*
X57107897Y92434275D02*
X57250754Y92505703D01*
X57250754Y92505703D02*
X58036468Y92505703D01*
X57965040Y93791418D02*
X58036468Y93648561D01*
X58036468Y93648561D02*
X58036468Y93362846D01*
X58036468Y93362846D02*
X57965040Y93219989D01*
X57965040Y93219989D02*
X57822182Y93148561D01*
X57822182Y93148561D02*
X57250754Y93148561D01*
X57250754Y93148561D02*
X57107897Y93219989D01*
X57107897Y93219989D02*
X57036468Y93362846D01*
X57036468Y93362846D02*
X57036468Y93648561D01*
X57036468Y93648561D02*
X57107897Y93791418D01*
X57107897Y93791418D02*
X57250754Y93862846D01*
X57250754Y93862846D02*
X57393611Y93862846D01*
X57393611Y93862846D02*
X57536468Y93148561D01*
X58036468Y94505703D02*
X57036468Y94505703D01*
X57322182Y94505703D02*
X57179325Y94577132D01*
X57179325Y94577132D02*
X57107897Y94648560D01*
X57107897Y94648560D02*
X57036468Y94791418D01*
X57036468Y94791418D02*
X57036468Y94934275D01*
X8805485Y92548047D02*
X8734057Y92619475D01*
X8734057Y92619475D02*
X8662628Y92762332D01*
X8662628Y92762332D02*
X8662628Y93119475D01*
X8662628Y93119475D02*
X8734057Y93262332D01*
X8734057Y93262332D02*
X8805485Y93333761D01*
X8805485Y93333761D02*
X8948342Y93405190D01*
X8948342Y93405190D02*
X9091200Y93405190D01*
X9091200Y93405190D02*
X9305485Y93333761D01*
X9305485Y93333761D02*
X10162628Y92476618D01*
X10162628Y92476618D02*
X10162628Y93405190D01*
X8662628Y94333761D02*
X8662628Y94476618D01*
X8662628Y94476618D02*
X8734057Y94619475D01*
X8734057Y94619475D02*
X8805485Y94690903D01*
X8805485Y94690903D02*
X8948342Y94762332D01*
X8948342Y94762332D02*
X9234057Y94833761D01*
X9234057Y94833761D02*
X9591200Y94833761D01*
X9591200Y94833761D02*
X9876914Y94762332D01*
X9876914Y94762332D02*
X10019771Y94690903D01*
X10019771Y94690903D02*
X10091200Y94619475D01*
X10091200Y94619475D02*
X10162628Y94476618D01*
X10162628Y94476618D02*
X10162628Y94333761D01*
X10162628Y94333761D02*
X10091200Y94190903D01*
X10091200Y94190903D02*
X10019771Y94119475D01*
X10019771Y94119475D02*
X9876914Y94048046D01*
X9876914Y94048046D02*
X9591200Y93976618D01*
X9591200Y93976618D02*
X9234057Y93976618D01*
X9234057Y93976618D02*
X8948342Y94048046D01*
X8948342Y94048046D02*
X8805485Y94119475D01*
X8805485Y94119475D02*
X8734057Y94190903D01*
X8734057Y94190903D02*
X8662628Y94333761D01*
X10162628Y95476617D02*
X9162628Y95476617D01*
X9305485Y95476617D02*
X9234057Y95548046D01*
X9234057Y95548046D02*
X9162628Y95690903D01*
X9162628Y95690903D02*
X9162628Y95905189D01*
X9162628Y95905189D02*
X9234057Y96048046D01*
X9234057Y96048046D02*
X9376914Y96119474D01*
X9376914Y96119474D02*
X10162628Y96119474D01*
X9376914Y96119474D02*
X9234057Y96190903D01*
X9234057Y96190903D02*
X9162628Y96333760D01*
X9162628Y96333760D02*
X9162628Y96548046D01*
X9162628Y96548046D02*
X9234057Y96690903D01*
X9234057Y96690903D02*
X9376914Y96762332D01*
X9376914Y96762332D02*
X10162628Y96762332D01*
X10162628Y97476617D02*
X9162628Y97476617D01*
X9305485Y97476617D02*
X9234057Y97548046D01*
X9234057Y97548046D02*
X9162628Y97690903D01*
X9162628Y97690903D02*
X9162628Y97905189D01*
X9162628Y97905189D02*
X9234057Y98048046D01*
X9234057Y98048046D02*
X9376914Y98119474D01*
X9376914Y98119474D02*
X10162628Y98119474D01*
X9376914Y98119474D02*
X9234057Y98190903D01*
X9234057Y98190903D02*
X9162628Y98333760D01*
X9162628Y98333760D02*
X9162628Y98548046D01*
X9162628Y98548046D02*
X9234057Y98690903D01*
X9234057Y98690903D02*
X9376914Y98762332D01*
X9376914Y98762332D02*
X10162628Y98762332D01*
X10162628Y100833760D02*
X10091200Y100690903D01*
X10091200Y100690903D02*
X10019771Y100619474D01*
X10019771Y100619474D02*
X9876914Y100548046D01*
X9876914Y100548046D02*
X9448342Y100548046D01*
X9448342Y100548046D02*
X9305485Y100619474D01*
X9305485Y100619474D02*
X9234057Y100690903D01*
X9234057Y100690903D02*
X9162628Y100833760D01*
X9162628Y100833760D02*
X9162628Y101048046D01*
X9162628Y101048046D02*
X9234057Y101190903D01*
X9234057Y101190903D02*
X9305485Y101262331D01*
X9305485Y101262331D02*
X9448342Y101333760D01*
X9448342Y101333760D02*
X9876914Y101333760D01*
X9876914Y101333760D02*
X10019771Y101262331D01*
X10019771Y101262331D02*
X10091200Y101190903D01*
X10091200Y101190903D02*
X10162628Y101048046D01*
X10162628Y101048046D02*
X10162628Y100833760D01*
X9162628Y102619474D02*
X10162628Y102619474D01*
X9162628Y101976617D02*
X9948342Y101976617D01*
X9948342Y101976617D02*
X10091200Y102048046D01*
X10091200Y102048046D02*
X10162628Y102190903D01*
X10162628Y102190903D02*
X10162628Y102405189D01*
X10162628Y102405189D02*
X10091200Y102548046D01*
X10091200Y102548046D02*
X10019771Y102619474D01*
X9162628Y103119475D02*
X9162628Y103690903D01*
X8662628Y103333760D02*
X9948342Y103333760D01*
X9948342Y103333760D02*
X10091200Y103405189D01*
X10091200Y103405189D02*
X10162628Y103548046D01*
X10162628Y103548046D02*
X10162628Y103690903D01*
X10091200Y104762332D02*
X10162628Y104619475D01*
X10162628Y104619475D02*
X10162628Y104333760D01*
X10162628Y104333760D02*
X10091200Y104190903D01*
X10091200Y104190903D02*
X9948342Y104119475D01*
X9948342Y104119475D02*
X9376914Y104119475D01*
X9376914Y104119475D02*
X9234057Y104190903D01*
X9234057Y104190903D02*
X9162628Y104333760D01*
X9162628Y104333760D02*
X9162628Y104619475D01*
X9162628Y104619475D02*
X9234057Y104762332D01*
X9234057Y104762332D02*
X9376914Y104833760D01*
X9376914Y104833760D02*
X9519771Y104833760D01*
X9519771Y104833760D02*
X9662628Y104119475D01*
X10162628Y105476617D02*
X9162628Y105476617D01*
X9448342Y105476617D02*
X9305485Y105548046D01*
X9305485Y105548046D02*
X9234057Y105619474D01*
X9234057Y105619474D02*
X9162628Y105762332D01*
X9162628Y105762332D02*
X9162628Y105905189D01*
X10091200Y106476617D02*
X10162628Y106476617D01*
X10162628Y106476617D02*
X10305485Y106405188D01*
X10305485Y106405188D02*
X10376914Y106333760D01*
X10162628Y109048046D02*
X10162628Y108190903D01*
X10162628Y108619474D02*
X8662628Y108619474D01*
X8662628Y108619474D02*
X8876914Y108476617D01*
X8876914Y108476617D02*
X9019771Y108333760D01*
X9019771Y108333760D02*
X9091200Y108190903D01*
X8662628Y109976617D02*
X8662628Y110119474D01*
X8662628Y110119474D02*
X8734057Y110262331D01*
X8734057Y110262331D02*
X8805485Y110333759D01*
X8805485Y110333759D02*
X8948342Y110405188D01*
X8948342Y110405188D02*
X9234057Y110476617D01*
X9234057Y110476617D02*
X9591200Y110476617D01*
X9591200Y110476617D02*
X9876914Y110405188D01*
X9876914Y110405188D02*
X10019771Y110333759D01*
X10019771Y110333759D02*
X10091200Y110262331D01*
X10091200Y110262331D02*
X10162628Y110119474D01*
X10162628Y110119474D02*
X10162628Y109976617D01*
X10162628Y109976617D02*
X10091200Y109833759D01*
X10091200Y109833759D02*
X10019771Y109762331D01*
X10019771Y109762331D02*
X9876914Y109690902D01*
X9876914Y109690902D02*
X9591200Y109619474D01*
X9591200Y109619474D02*
X9234057Y109619474D01*
X9234057Y109619474D02*
X8948342Y109690902D01*
X8948342Y109690902D02*
X8805485Y109762331D01*
X8805485Y109762331D02*
X8734057Y109833759D01*
X8734057Y109833759D02*
X8662628Y109976617D01*
X10162628Y111119473D02*
X9162628Y111119473D01*
X9305485Y111119473D02*
X9234057Y111190902D01*
X9234057Y111190902D02*
X9162628Y111333759D01*
X9162628Y111333759D02*
X9162628Y111548045D01*
X9162628Y111548045D02*
X9234057Y111690902D01*
X9234057Y111690902D02*
X9376914Y111762330D01*
X9376914Y111762330D02*
X10162628Y111762330D01*
X9376914Y111762330D02*
X9234057Y111833759D01*
X9234057Y111833759D02*
X9162628Y111976616D01*
X9162628Y111976616D02*
X9162628Y112190902D01*
X9162628Y112190902D02*
X9234057Y112333759D01*
X9234057Y112333759D02*
X9376914Y112405188D01*
X9376914Y112405188D02*
X10162628Y112405188D01*
X10162628Y113119473D02*
X9162628Y113119473D01*
X9305485Y113119473D02*
X9234057Y113190902D01*
X9234057Y113190902D02*
X9162628Y113333759D01*
X9162628Y113333759D02*
X9162628Y113548045D01*
X9162628Y113548045D02*
X9234057Y113690902D01*
X9234057Y113690902D02*
X9376914Y113762330D01*
X9376914Y113762330D02*
X10162628Y113762330D01*
X9376914Y113762330D02*
X9234057Y113833759D01*
X9234057Y113833759D02*
X9162628Y113976616D01*
X9162628Y113976616D02*
X9162628Y114190902D01*
X9162628Y114190902D02*
X9234057Y114333759D01*
X9234057Y114333759D02*
X9376914Y114405188D01*
X9376914Y114405188D02*
X10162628Y114405188D01*
X10162628Y116262330D02*
X9162628Y116262330D01*
X8662628Y116262330D02*
X8734057Y116190902D01*
X8734057Y116190902D02*
X8805485Y116262330D01*
X8805485Y116262330D02*
X8734057Y116333759D01*
X8734057Y116333759D02*
X8662628Y116262330D01*
X8662628Y116262330D02*
X8805485Y116262330D01*
X9162628Y116976616D02*
X10162628Y116976616D01*
X9305485Y116976616D02*
X9234057Y117048045D01*
X9234057Y117048045D02*
X9162628Y117190902D01*
X9162628Y117190902D02*
X9162628Y117405188D01*
X9162628Y117405188D02*
X9234057Y117548045D01*
X9234057Y117548045D02*
X9376914Y117619473D01*
X9376914Y117619473D02*
X10162628Y117619473D01*
X9162628Y118333759D02*
X10162628Y118333759D01*
X9305485Y118333759D02*
X9234057Y118405188D01*
X9234057Y118405188D02*
X9162628Y118548045D01*
X9162628Y118548045D02*
X9162628Y118762331D01*
X9162628Y118762331D02*
X9234057Y118905188D01*
X9234057Y118905188D02*
X9376914Y118976616D01*
X9376914Y118976616D02*
X10162628Y118976616D01*
X10091200Y120262331D02*
X10162628Y120119474D01*
X10162628Y120119474D02*
X10162628Y119833759D01*
X10162628Y119833759D02*
X10091200Y119690902D01*
X10091200Y119690902D02*
X9948342Y119619474D01*
X9948342Y119619474D02*
X9376914Y119619474D01*
X9376914Y119619474D02*
X9234057Y119690902D01*
X9234057Y119690902D02*
X9162628Y119833759D01*
X9162628Y119833759D02*
X9162628Y120119474D01*
X9162628Y120119474D02*
X9234057Y120262331D01*
X9234057Y120262331D02*
X9376914Y120333759D01*
X9376914Y120333759D02*
X9519771Y120333759D01*
X9519771Y120333759D02*
X9662628Y119619474D01*
X10162628Y120976616D02*
X9162628Y120976616D01*
X9448342Y120976616D02*
X9305485Y121048045D01*
X9305485Y121048045D02*
X9234057Y121119473D01*
X9234057Y121119473D02*
X9162628Y121262331D01*
X9162628Y121262331D02*
X9162628Y121405188D01*
X7662630Y65751511D02*
X7662630Y64894368D01*
X7662630Y65322939D02*
X6162630Y65322939D01*
X6162630Y65322939D02*
X6376916Y65180082D01*
X6376916Y65180082D02*
X6519773Y65037225D01*
X6519773Y65037225D02*
X6591202Y64894368D01*
X6162630Y67108653D02*
X6162630Y66394367D01*
X6162630Y66394367D02*
X6876916Y66322939D01*
X6876916Y66322939D02*
X6805487Y66394367D01*
X6805487Y66394367D02*
X6734059Y66537224D01*
X6734059Y66537224D02*
X6734059Y66894367D01*
X6734059Y66894367D02*
X6805487Y67037224D01*
X6805487Y67037224D02*
X6876916Y67108653D01*
X6876916Y67108653D02*
X7019773Y67180082D01*
X7019773Y67180082D02*
X7376916Y67180082D01*
X7376916Y67180082D02*
X7519773Y67108653D01*
X7519773Y67108653D02*
X7591202Y67037224D01*
X7591202Y67037224D02*
X7662630Y66894367D01*
X7662630Y66894367D02*
X7662630Y66537224D01*
X7662630Y66537224D02*
X7591202Y66394367D01*
X7591202Y66394367D02*
X7519773Y66322939D01*
X7662630Y67822938D02*
X6662630Y67822938D01*
X6805487Y67822938D02*
X6734059Y67894367D01*
X6734059Y67894367D02*
X6662630Y68037224D01*
X6662630Y68037224D02*
X6662630Y68251510D01*
X6662630Y68251510D02*
X6734059Y68394367D01*
X6734059Y68394367D02*
X6876916Y68465795D01*
X6876916Y68465795D02*
X7662630Y68465795D01*
X6876916Y68465795D02*
X6734059Y68537224D01*
X6734059Y68537224D02*
X6662630Y68680081D01*
X6662630Y68680081D02*
X6662630Y68894367D01*
X6662630Y68894367D02*
X6734059Y69037224D01*
X6734059Y69037224D02*
X6876916Y69108653D01*
X6876916Y69108653D02*
X7662630Y69108653D01*
X7662630Y69822938D02*
X6662630Y69822938D01*
X6805487Y69822938D02*
X6734059Y69894367D01*
X6734059Y69894367D02*
X6662630Y70037224D01*
X6662630Y70037224D02*
X6662630Y70251510D01*
X6662630Y70251510D02*
X6734059Y70394367D01*
X6734059Y70394367D02*
X6876916Y70465795D01*
X6876916Y70465795D02*
X7662630Y70465795D01*
X6876916Y70465795D02*
X6734059Y70537224D01*
X6734059Y70537224D02*
X6662630Y70680081D01*
X6662630Y70680081D02*
X6662630Y70894367D01*
X6662630Y70894367D02*
X6734059Y71037224D01*
X6734059Y71037224D02*
X6876916Y71108653D01*
X6876916Y71108653D02*
X7662630Y71108653D01*
X7662630Y73180081D02*
X7591202Y73037224D01*
X7591202Y73037224D02*
X7519773Y72965795D01*
X7519773Y72965795D02*
X7376916Y72894367D01*
X7376916Y72894367D02*
X6948344Y72894367D01*
X6948344Y72894367D02*
X6805487Y72965795D01*
X6805487Y72965795D02*
X6734059Y73037224D01*
X6734059Y73037224D02*
X6662630Y73180081D01*
X6662630Y73180081D02*
X6662630Y73394367D01*
X6662630Y73394367D02*
X6734059Y73537224D01*
X6734059Y73537224D02*
X6805487Y73608652D01*
X6805487Y73608652D02*
X6948344Y73680081D01*
X6948344Y73680081D02*
X7376916Y73680081D01*
X7376916Y73680081D02*
X7519773Y73608652D01*
X7519773Y73608652D02*
X7591202Y73537224D01*
X7591202Y73537224D02*
X7662630Y73394367D01*
X7662630Y73394367D02*
X7662630Y73180081D01*
X6662630Y74965795D02*
X7662630Y74965795D01*
X6662630Y74322938D02*
X7448344Y74322938D01*
X7448344Y74322938D02*
X7591202Y74394367D01*
X7591202Y74394367D02*
X7662630Y74537224D01*
X7662630Y74537224D02*
X7662630Y74751510D01*
X7662630Y74751510D02*
X7591202Y74894367D01*
X7591202Y74894367D02*
X7519773Y74965795D01*
X6662630Y75465796D02*
X6662630Y76037224D01*
X6162630Y75680081D02*
X7448344Y75680081D01*
X7448344Y75680081D02*
X7591202Y75751510D01*
X7591202Y75751510D02*
X7662630Y75894367D01*
X7662630Y75894367D02*
X7662630Y76037224D01*
X7591202Y77108653D02*
X7662630Y76965796D01*
X7662630Y76965796D02*
X7662630Y76680081D01*
X7662630Y76680081D02*
X7591202Y76537224D01*
X7591202Y76537224D02*
X7448344Y76465796D01*
X7448344Y76465796D02*
X6876916Y76465796D01*
X6876916Y76465796D02*
X6734059Y76537224D01*
X6734059Y76537224D02*
X6662630Y76680081D01*
X6662630Y76680081D02*
X6662630Y76965796D01*
X6662630Y76965796D02*
X6734059Y77108653D01*
X6734059Y77108653D02*
X6876916Y77180081D01*
X6876916Y77180081D02*
X7019773Y77180081D01*
X7019773Y77180081D02*
X7162630Y76465796D01*
X7662630Y77822938D02*
X6662630Y77822938D01*
X6948344Y77822938D02*
X6805487Y77894367D01*
X6805487Y77894367D02*
X6734059Y77965795D01*
X6734059Y77965795D02*
X6662630Y78108653D01*
X6662630Y78108653D02*
X6662630Y78251510D01*
X7591202Y78822938D02*
X7662630Y78822938D01*
X7662630Y78822938D02*
X7805487Y78751509D01*
X7805487Y78751509D02*
X7876916Y78680081D01*
X6162630Y80465795D02*
X6162630Y81465795D01*
X6162630Y81465795D02*
X7662630Y80822938D01*
X7519773Y82037223D02*
X7591202Y82108652D01*
X7591202Y82108652D02*
X7662630Y82037223D01*
X7662630Y82037223D02*
X7591202Y81965795D01*
X7591202Y81965795D02*
X7519773Y82037223D01*
X7519773Y82037223D02*
X7662630Y82037223D01*
X6162630Y83465795D02*
X6162630Y82751509D01*
X6162630Y82751509D02*
X6876916Y82680081D01*
X6876916Y82680081D02*
X6805487Y82751509D01*
X6805487Y82751509D02*
X6734059Y82894366D01*
X6734059Y82894366D02*
X6734059Y83251509D01*
X6734059Y83251509D02*
X6805487Y83394366D01*
X6805487Y83394366D02*
X6876916Y83465795D01*
X6876916Y83465795D02*
X7019773Y83537224D01*
X7019773Y83537224D02*
X7376916Y83537224D01*
X7376916Y83537224D02*
X7519773Y83465795D01*
X7519773Y83465795D02*
X7591202Y83394366D01*
X7591202Y83394366D02*
X7662630Y83251509D01*
X7662630Y83251509D02*
X7662630Y82894366D01*
X7662630Y82894366D02*
X7591202Y82751509D01*
X7591202Y82751509D02*
X7519773Y82680081D01*
X7662630Y84180080D02*
X6662630Y84180080D01*
X6805487Y84180080D02*
X6734059Y84251509D01*
X6734059Y84251509D02*
X6662630Y84394366D01*
X6662630Y84394366D02*
X6662630Y84608652D01*
X6662630Y84608652D02*
X6734059Y84751509D01*
X6734059Y84751509D02*
X6876916Y84822937D01*
X6876916Y84822937D02*
X7662630Y84822937D01*
X6876916Y84822937D02*
X6734059Y84894366D01*
X6734059Y84894366D02*
X6662630Y85037223D01*
X6662630Y85037223D02*
X6662630Y85251509D01*
X6662630Y85251509D02*
X6734059Y85394366D01*
X6734059Y85394366D02*
X6876916Y85465795D01*
X6876916Y85465795D02*
X7662630Y85465795D01*
X7662630Y86180080D02*
X6662630Y86180080D01*
X6805487Y86180080D02*
X6734059Y86251509D01*
X6734059Y86251509D02*
X6662630Y86394366D01*
X6662630Y86394366D02*
X6662630Y86608652D01*
X6662630Y86608652D02*
X6734059Y86751509D01*
X6734059Y86751509D02*
X6876916Y86822937D01*
X6876916Y86822937D02*
X7662630Y86822937D01*
X6876916Y86822937D02*
X6734059Y86894366D01*
X6734059Y86894366D02*
X6662630Y87037223D01*
X6662630Y87037223D02*
X6662630Y87251509D01*
X6662630Y87251509D02*
X6734059Y87394366D01*
X6734059Y87394366D02*
X6876916Y87465795D01*
X6876916Y87465795D02*
X7662630Y87465795D01*
X7662630Y89322937D02*
X6662630Y89322937D01*
X6162630Y89322937D02*
X6234059Y89251509D01*
X6234059Y89251509D02*
X6305487Y89322937D01*
X6305487Y89322937D02*
X6234059Y89394366D01*
X6234059Y89394366D02*
X6162630Y89322937D01*
X6162630Y89322937D02*
X6305487Y89322937D01*
X6662630Y90037223D02*
X7662630Y90037223D01*
X6805487Y90037223D02*
X6734059Y90108652D01*
X6734059Y90108652D02*
X6662630Y90251509D01*
X6662630Y90251509D02*
X6662630Y90465795D01*
X6662630Y90465795D02*
X6734059Y90608652D01*
X6734059Y90608652D02*
X6876916Y90680080D01*
X6876916Y90680080D02*
X7662630Y90680080D01*
X6662630Y91394366D02*
X7662630Y91394366D01*
X6805487Y91394366D02*
X6734059Y91465795D01*
X6734059Y91465795D02*
X6662630Y91608652D01*
X6662630Y91608652D02*
X6662630Y91822938D01*
X6662630Y91822938D02*
X6734059Y91965795D01*
X6734059Y91965795D02*
X6876916Y92037223D01*
X6876916Y92037223D02*
X7662630Y92037223D01*
X7591202Y93322938D02*
X7662630Y93180081D01*
X7662630Y93180081D02*
X7662630Y92894366D01*
X7662630Y92894366D02*
X7591202Y92751509D01*
X7591202Y92751509D02*
X7448344Y92680081D01*
X7448344Y92680081D02*
X6876916Y92680081D01*
X6876916Y92680081D02*
X6734059Y92751509D01*
X6734059Y92751509D02*
X6662630Y92894366D01*
X6662630Y92894366D02*
X6662630Y93180081D01*
X6662630Y93180081D02*
X6734059Y93322938D01*
X6734059Y93322938D02*
X6876916Y93394366D01*
X6876916Y93394366D02*
X7019773Y93394366D01*
X7019773Y93394366D02*
X7162630Y92680081D01*
X7662630Y94037223D02*
X6662630Y94037223D01*
X6948344Y94037223D02*
X6805487Y94108652D01*
X6805487Y94108652D02*
X6734059Y94180080D01*
X6734059Y94180080D02*
X6662630Y94322938D01*
X6662630Y94322938D02*
X6662630Y94465795D01*
X108553163Y38508283D02*
X108481735Y38579711D01*
X108481735Y38579711D02*
X108410306Y38722568D01*
X108410306Y38722568D02*
X108410306Y39079711D01*
X108410306Y39079711D02*
X108481735Y39222568D01*
X108481735Y39222568D02*
X108553163Y39293997D01*
X108553163Y39293997D02*
X108696020Y39365426D01*
X108696020Y39365426D02*
X108838878Y39365426D01*
X108838878Y39365426D02*
X109053163Y39293997D01*
X109053163Y39293997D02*
X109910306Y38436854D01*
X109910306Y38436854D02*
X109910306Y39365426D01*
X109767449Y40008282D02*
X109838878Y40079711D01*
X109838878Y40079711D02*
X109910306Y40008282D01*
X109910306Y40008282D02*
X109838878Y39936854D01*
X109838878Y39936854D02*
X109767449Y40008282D01*
X109767449Y40008282D02*
X109910306Y40008282D01*
X108410306Y41436854D02*
X108410306Y40722568D01*
X108410306Y40722568D02*
X109124592Y40651140D01*
X109124592Y40651140D02*
X109053163Y40722568D01*
X109053163Y40722568D02*
X108981735Y40865425D01*
X108981735Y40865425D02*
X108981735Y41222568D01*
X108981735Y41222568D02*
X109053163Y41365425D01*
X109053163Y41365425D02*
X109124592Y41436854D01*
X109124592Y41436854D02*
X109267449Y41508283D01*
X109267449Y41508283D02*
X109624592Y41508283D01*
X109624592Y41508283D02*
X109767449Y41436854D01*
X109767449Y41436854D02*
X109838878Y41365425D01*
X109838878Y41365425D02*
X109910306Y41222568D01*
X109910306Y41222568D02*
X109910306Y40865425D01*
X109910306Y40865425D02*
X109838878Y40722568D01*
X109838878Y40722568D02*
X109767449Y40651140D01*
X108910306Y42793996D02*
X109910306Y42793996D01*
X108338878Y42436854D02*
X109410306Y42079711D01*
X109410306Y42079711D02*
X109410306Y43008282D01*
X109910306Y43579710D02*
X108910306Y43579710D01*
X109053163Y43579710D02*
X108981735Y43651139D01*
X108981735Y43651139D02*
X108910306Y43793996D01*
X108910306Y43793996D02*
X108910306Y44008282D01*
X108910306Y44008282D02*
X108981735Y44151139D01*
X108981735Y44151139D02*
X109124592Y44222567D01*
X109124592Y44222567D02*
X109910306Y44222567D01*
X109124592Y44222567D02*
X108981735Y44293996D01*
X108981735Y44293996D02*
X108910306Y44436853D01*
X108910306Y44436853D02*
X108910306Y44651139D01*
X108910306Y44651139D02*
X108981735Y44793996D01*
X108981735Y44793996D02*
X109124592Y44865425D01*
X109124592Y44865425D02*
X109910306Y44865425D01*
X109910306Y45579710D02*
X108910306Y45579710D01*
X109053163Y45579710D02*
X108981735Y45651139D01*
X108981735Y45651139D02*
X108910306Y45793996D01*
X108910306Y45793996D02*
X108910306Y46008282D01*
X108910306Y46008282D02*
X108981735Y46151139D01*
X108981735Y46151139D02*
X109124592Y46222567D01*
X109124592Y46222567D02*
X109910306Y46222567D01*
X109124592Y46222567D02*
X108981735Y46293996D01*
X108981735Y46293996D02*
X108910306Y46436853D01*
X108910306Y46436853D02*
X108910306Y46651139D01*
X108910306Y46651139D02*
X108981735Y46793996D01*
X108981735Y46793996D02*
X109124592Y46865425D01*
X109124592Y46865425D02*
X109910306Y46865425D01*
X109910306Y48722567D02*
X108910306Y48722567D01*
X108410306Y48722567D02*
X108481735Y48651139D01*
X108481735Y48651139D02*
X108553163Y48722567D01*
X108553163Y48722567D02*
X108481735Y48793996D01*
X108481735Y48793996D02*
X108410306Y48722567D01*
X108410306Y48722567D02*
X108553163Y48722567D01*
X108910306Y49436853D02*
X109910306Y49436853D01*
X109053163Y49436853D02*
X108981735Y49508282D01*
X108981735Y49508282D02*
X108910306Y49651139D01*
X108910306Y49651139D02*
X108910306Y49865425D01*
X108910306Y49865425D02*
X108981735Y50008282D01*
X108981735Y50008282D02*
X109124592Y50079710D01*
X109124592Y50079710D02*
X109910306Y50079710D01*
X108910306Y50793996D02*
X109910306Y50793996D01*
X109053163Y50793996D02*
X108981735Y50865425D01*
X108981735Y50865425D02*
X108910306Y51008282D01*
X108910306Y51008282D02*
X108910306Y51222568D01*
X108910306Y51222568D02*
X108981735Y51365425D01*
X108981735Y51365425D02*
X109124592Y51436853D01*
X109124592Y51436853D02*
X109910306Y51436853D01*
X109838878Y52722568D02*
X109910306Y52579711D01*
X109910306Y52579711D02*
X109910306Y52293996D01*
X109910306Y52293996D02*
X109838878Y52151139D01*
X109838878Y52151139D02*
X109696020Y52079711D01*
X109696020Y52079711D02*
X109124592Y52079711D01*
X109124592Y52079711D02*
X108981735Y52151139D01*
X108981735Y52151139D02*
X108910306Y52293996D01*
X108910306Y52293996D02*
X108910306Y52579711D01*
X108910306Y52579711D02*
X108981735Y52722568D01*
X108981735Y52722568D02*
X109124592Y52793996D01*
X109124592Y52793996D02*
X109267449Y52793996D01*
X109267449Y52793996D02*
X109410306Y52079711D01*
X109910306Y53436853D02*
X108910306Y53436853D01*
X109196020Y53436853D02*
X109053163Y53508282D01*
X109053163Y53508282D02*
X108981735Y53579710D01*
X108981735Y53579710D02*
X108910306Y53722568D01*
X108910306Y53722568D02*
X108910306Y53865425D01*
X110481735Y55936853D02*
X110410306Y55865424D01*
X110410306Y55865424D02*
X110196020Y55722567D01*
X110196020Y55722567D02*
X110053163Y55651138D01*
X110053163Y55651138D02*
X109838878Y55579710D01*
X109838878Y55579710D02*
X109481735Y55508281D01*
X109481735Y55508281D02*
X109196020Y55508281D01*
X109196020Y55508281D02*
X108838878Y55579710D01*
X108838878Y55579710D02*
X108624592Y55651138D01*
X108624592Y55651138D02*
X108481735Y55722567D01*
X108481735Y55722567D02*
X108267449Y55865424D01*
X108267449Y55865424D02*
X108196020Y55936853D01*
X108910306Y56508281D02*
X109910306Y56508281D01*
X109053163Y56508281D02*
X108981735Y56579710D01*
X108981735Y56579710D02*
X108910306Y56722567D01*
X108910306Y56722567D02*
X108910306Y56936853D01*
X108910306Y56936853D02*
X108981735Y57079710D01*
X108981735Y57079710D02*
X109124592Y57151138D01*
X109124592Y57151138D02*
X109910306Y57151138D01*
X109910306Y58079710D02*
X109838878Y57936853D01*
X109838878Y57936853D02*
X109767449Y57865424D01*
X109767449Y57865424D02*
X109624592Y57793996D01*
X109624592Y57793996D02*
X109196020Y57793996D01*
X109196020Y57793996D02*
X109053163Y57865424D01*
X109053163Y57865424D02*
X108981735Y57936853D01*
X108981735Y57936853D02*
X108910306Y58079710D01*
X108910306Y58079710D02*
X108910306Y58293996D01*
X108910306Y58293996D02*
X108981735Y58436853D01*
X108981735Y58436853D02*
X109053163Y58508281D01*
X109053163Y58508281D02*
X109196020Y58579710D01*
X109196020Y58579710D02*
X109624592Y58579710D01*
X109624592Y58579710D02*
X109767449Y58508281D01*
X109767449Y58508281D02*
X109838878Y58436853D01*
X109838878Y58436853D02*
X109910306Y58293996D01*
X109910306Y58293996D02*
X109910306Y58079710D01*
X109838878Y60293996D02*
X109910306Y60436853D01*
X109910306Y60436853D02*
X109910306Y60722567D01*
X109910306Y60722567D02*
X109838878Y60865424D01*
X109838878Y60865424D02*
X109696020Y60936853D01*
X109696020Y60936853D02*
X109624592Y60936853D01*
X109624592Y60936853D02*
X109481735Y60865424D01*
X109481735Y60865424D02*
X109410306Y60722567D01*
X109410306Y60722567D02*
X109410306Y60508281D01*
X109410306Y60508281D02*
X109338878Y60365424D01*
X109338878Y60365424D02*
X109196020Y60293996D01*
X109196020Y60293996D02*
X109124592Y60293996D01*
X109124592Y60293996D02*
X108981735Y60365424D01*
X108981735Y60365424D02*
X108910306Y60508281D01*
X108910306Y60508281D02*
X108910306Y60722567D01*
X108910306Y60722567D02*
X108981735Y60865424D01*
X109910306Y61579710D02*
X108910306Y61579710D01*
X109053163Y61579710D02*
X108981735Y61651139D01*
X108981735Y61651139D02*
X108910306Y61793996D01*
X108910306Y61793996D02*
X108910306Y62008282D01*
X108910306Y62008282D02*
X108981735Y62151139D01*
X108981735Y62151139D02*
X109124592Y62222567D01*
X109124592Y62222567D02*
X109910306Y62222567D01*
X109124592Y62222567D02*
X108981735Y62293996D01*
X108981735Y62293996D02*
X108910306Y62436853D01*
X108910306Y62436853D02*
X108910306Y62651139D01*
X108910306Y62651139D02*
X108981735Y62793996D01*
X108981735Y62793996D02*
X109124592Y62865425D01*
X109124592Y62865425D02*
X109910306Y62865425D01*
X109910306Y64222567D02*
X109124592Y64222567D01*
X109124592Y64222567D02*
X108981735Y64151139D01*
X108981735Y64151139D02*
X108910306Y64008282D01*
X108910306Y64008282D02*
X108910306Y63722567D01*
X108910306Y63722567D02*
X108981735Y63579710D01*
X109838878Y64222567D02*
X109910306Y64079710D01*
X109910306Y64079710D02*
X109910306Y63722567D01*
X109910306Y63722567D02*
X109838878Y63579710D01*
X109838878Y63579710D02*
X109696020Y63508282D01*
X109696020Y63508282D02*
X109553163Y63508282D01*
X109553163Y63508282D02*
X109410306Y63579710D01*
X109410306Y63579710D02*
X109338878Y63722567D01*
X109338878Y63722567D02*
X109338878Y64079710D01*
X109338878Y64079710D02*
X109267449Y64222567D01*
X109910306Y65151139D02*
X109838878Y65008282D01*
X109838878Y65008282D02*
X109696020Y64936853D01*
X109696020Y64936853D02*
X108410306Y64936853D01*
X109910306Y65936853D02*
X109838878Y65793996D01*
X109838878Y65793996D02*
X109696020Y65722567D01*
X109696020Y65722567D02*
X108410306Y65722567D01*
X109838878Y67079710D02*
X109910306Y66936853D01*
X109910306Y66936853D02*
X109910306Y66651138D01*
X109910306Y66651138D02*
X109838878Y66508281D01*
X109838878Y66508281D02*
X109696020Y66436853D01*
X109696020Y66436853D02*
X109124592Y66436853D01*
X109124592Y66436853D02*
X108981735Y66508281D01*
X108981735Y66508281D02*
X108910306Y66651138D01*
X108910306Y66651138D02*
X108910306Y66936853D01*
X108910306Y66936853D02*
X108981735Y67079710D01*
X108981735Y67079710D02*
X109124592Y67151138D01*
X109124592Y67151138D02*
X109267449Y67151138D01*
X109267449Y67151138D02*
X109410306Y66436853D01*
X109910306Y67793995D02*
X108910306Y67793995D01*
X109196020Y67793995D02*
X109053163Y67865424D01*
X109053163Y67865424D02*
X108981735Y67936852D01*
X108981735Y67936852D02*
X108910306Y68079710D01*
X108910306Y68079710D02*
X108910306Y68222567D01*
X109838878Y68793995D02*
X109910306Y68793995D01*
X109910306Y68793995D02*
X110053163Y68722566D01*
X110053163Y68722566D02*
X110124592Y68651138D01*
X109910306Y70579709D02*
X108910306Y70579709D01*
X109196020Y70579709D02*
X109053163Y70651138D01*
X109053163Y70651138D02*
X108981735Y70722566D01*
X108981735Y70722566D02*
X108910306Y70865424D01*
X108910306Y70865424D02*
X108910306Y71008281D01*
X109838878Y72079709D02*
X109910306Y71936852D01*
X109910306Y71936852D02*
X109910306Y71651137D01*
X109910306Y71651137D02*
X109838878Y71508280D01*
X109838878Y71508280D02*
X109696020Y71436852D01*
X109696020Y71436852D02*
X109124592Y71436852D01*
X109124592Y71436852D02*
X108981735Y71508280D01*
X108981735Y71508280D02*
X108910306Y71651137D01*
X108910306Y71651137D02*
X108910306Y71936852D01*
X108910306Y71936852D02*
X108981735Y72079709D01*
X108981735Y72079709D02*
X109124592Y72151137D01*
X109124592Y72151137D02*
X109267449Y72151137D01*
X109267449Y72151137D02*
X109410306Y71436852D01*
X109910306Y73436851D02*
X109124592Y73436851D01*
X109124592Y73436851D02*
X108981735Y73365423D01*
X108981735Y73365423D02*
X108910306Y73222566D01*
X108910306Y73222566D02*
X108910306Y72936851D01*
X108910306Y72936851D02*
X108981735Y72793994D01*
X109838878Y73436851D02*
X109910306Y73293994D01*
X109910306Y73293994D02*
X109910306Y72936851D01*
X109910306Y72936851D02*
X109838878Y72793994D01*
X109838878Y72793994D02*
X109696020Y72722566D01*
X109696020Y72722566D02*
X109553163Y72722566D01*
X109553163Y72722566D02*
X109410306Y72793994D01*
X109410306Y72793994D02*
X109338878Y72936851D01*
X109338878Y72936851D02*
X109338878Y73293994D01*
X109338878Y73293994D02*
X109267449Y73436851D01*
X109910306Y74151137D02*
X108910306Y74151137D01*
X109196020Y74151137D02*
X109053163Y74222566D01*
X109053163Y74222566D02*
X108981735Y74293994D01*
X108981735Y74293994D02*
X108910306Y74436852D01*
X108910306Y74436852D02*
X108910306Y74579709D01*
X109910306Y76222565D02*
X108910306Y76222565D01*
X109053163Y76222565D02*
X108981735Y76293994D01*
X108981735Y76293994D02*
X108910306Y76436851D01*
X108910306Y76436851D02*
X108910306Y76651137D01*
X108910306Y76651137D02*
X108981735Y76793994D01*
X108981735Y76793994D02*
X109124592Y76865422D01*
X109124592Y76865422D02*
X109910306Y76865422D01*
X109124592Y76865422D02*
X108981735Y76936851D01*
X108981735Y76936851D02*
X108910306Y77079708D01*
X108910306Y77079708D02*
X108910306Y77293994D01*
X108910306Y77293994D02*
X108981735Y77436851D01*
X108981735Y77436851D02*
X109124592Y77508280D01*
X109124592Y77508280D02*
X109910306Y77508280D01*
X109910306Y78436851D02*
X109838878Y78293994D01*
X109838878Y78293994D02*
X109767449Y78222565D01*
X109767449Y78222565D02*
X109624592Y78151137D01*
X109624592Y78151137D02*
X109196020Y78151137D01*
X109196020Y78151137D02*
X109053163Y78222565D01*
X109053163Y78222565D02*
X108981735Y78293994D01*
X108981735Y78293994D02*
X108910306Y78436851D01*
X108910306Y78436851D02*
X108910306Y78651137D01*
X108910306Y78651137D02*
X108981735Y78793994D01*
X108981735Y78793994D02*
X109053163Y78865422D01*
X109053163Y78865422D02*
X109196020Y78936851D01*
X109196020Y78936851D02*
X109624592Y78936851D01*
X109624592Y78936851D02*
X109767449Y78865422D01*
X109767449Y78865422D02*
X109838878Y78793994D01*
X109838878Y78793994D02*
X109910306Y78651137D01*
X109910306Y78651137D02*
X109910306Y78436851D01*
X108910306Y80222565D02*
X109910306Y80222565D01*
X108910306Y79579708D02*
X109696020Y79579708D01*
X109696020Y79579708D02*
X109838878Y79651137D01*
X109838878Y79651137D02*
X109910306Y79793994D01*
X109910306Y79793994D02*
X109910306Y80008280D01*
X109910306Y80008280D02*
X109838878Y80151137D01*
X109838878Y80151137D02*
X109767449Y80222565D01*
X108910306Y80936851D02*
X109910306Y80936851D01*
X109053163Y80936851D02*
X108981735Y81008280D01*
X108981735Y81008280D02*
X108910306Y81151137D01*
X108910306Y81151137D02*
X108910306Y81365423D01*
X108910306Y81365423D02*
X108981735Y81508280D01*
X108981735Y81508280D02*
X109124592Y81579708D01*
X109124592Y81579708D02*
X109910306Y81579708D01*
X108910306Y82079709D02*
X108910306Y82651137D01*
X108410306Y82293994D02*
X109696020Y82293994D01*
X109696020Y82293994D02*
X109838878Y82365423D01*
X109838878Y82365423D02*
X109910306Y82508280D01*
X109910306Y82508280D02*
X109910306Y82651137D01*
X109910306Y84293994D02*
X108910306Y84293994D01*
X109053163Y84293994D02*
X108981735Y84365423D01*
X108981735Y84365423D02*
X108910306Y84508280D01*
X108910306Y84508280D02*
X108910306Y84722566D01*
X108910306Y84722566D02*
X108981735Y84865423D01*
X108981735Y84865423D02*
X109124592Y84936851D01*
X109124592Y84936851D02*
X109910306Y84936851D01*
X109124592Y84936851D02*
X108981735Y85008280D01*
X108981735Y85008280D02*
X108910306Y85151137D01*
X108910306Y85151137D02*
X108910306Y85365423D01*
X108910306Y85365423D02*
X108981735Y85508280D01*
X108981735Y85508280D02*
X109124592Y85579709D01*
X109124592Y85579709D02*
X109910306Y85579709D01*
X108910306Y86936851D02*
X109910306Y86936851D01*
X108910306Y86293994D02*
X109696020Y86293994D01*
X109696020Y86293994D02*
X109838878Y86365423D01*
X109838878Y86365423D02*
X109910306Y86508280D01*
X109910306Y86508280D02*
X109910306Y86722566D01*
X109910306Y86722566D02*
X109838878Y86865423D01*
X109838878Y86865423D02*
X109767449Y86936851D01*
X109838878Y87579709D02*
X109910306Y87722566D01*
X109910306Y87722566D02*
X109910306Y88008280D01*
X109910306Y88008280D02*
X109838878Y88151137D01*
X109838878Y88151137D02*
X109696020Y88222566D01*
X109696020Y88222566D02*
X109624592Y88222566D01*
X109624592Y88222566D02*
X109481735Y88151137D01*
X109481735Y88151137D02*
X109410306Y88008280D01*
X109410306Y88008280D02*
X109410306Y87793994D01*
X109410306Y87793994D02*
X109338878Y87651137D01*
X109338878Y87651137D02*
X109196020Y87579709D01*
X109196020Y87579709D02*
X109124592Y87579709D01*
X109124592Y87579709D02*
X108981735Y87651137D01*
X108981735Y87651137D02*
X108910306Y87793994D01*
X108910306Y87793994D02*
X108910306Y88008280D01*
X108910306Y88008280D02*
X108981735Y88151137D01*
X108910306Y88651138D02*
X108910306Y89222566D01*
X108410306Y88865423D02*
X109696020Y88865423D01*
X109696020Y88865423D02*
X109838878Y88936852D01*
X109838878Y88936852D02*
X109910306Y89079709D01*
X109910306Y89079709D02*
X109910306Y89222566D01*
X109910306Y91079709D02*
X109838878Y90936852D01*
X109838878Y90936852D02*
X109767449Y90865423D01*
X109767449Y90865423D02*
X109624592Y90793995D01*
X109624592Y90793995D02*
X109196020Y90793995D01*
X109196020Y90793995D02*
X109053163Y90865423D01*
X109053163Y90865423D02*
X108981735Y90936852D01*
X108981735Y90936852D02*
X108910306Y91079709D01*
X108910306Y91079709D02*
X108910306Y91293995D01*
X108910306Y91293995D02*
X108981735Y91436852D01*
X108981735Y91436852D02*
X109053163Y91508280D01*
X109053163Y91508280D02*
X109196020Y91579709D01*
X109196020Y91579709D02*
X109624592Y91579709D01*
X109624592Y91579709D02*
X109767449Y91508280D01*
X109767449Y91508280D02*
X109838878Y91436852D01*
X109838878Y91436852D02*
X109910306Y91293995D01*
X109910306Y91293995D02*
X109910306Y91079709D01*
X108910306Y92079709D02*
X109910306Y92436852D01*
X109910306Y92436852D02*
X108910306Y92793995D01*
X109838878Y93936852D02*
X109910306Y93793995D01*
X109910306Y93793995D02*
X109910306Y93508280D01*
X109910306Y93508280D02*
X109838878Y93365423D01*
X109838878Y93365423D02*
X109696020Y93293995D01*
X109696020Y93293995D02*
X109124592Y93293995D01*
X109124592Y93293995D02*
X108981735Y93365423D01*
X108981735Y93365423D02*
X108910306Y93508280D01*
X108910306Y93508280D02*
X108910306Y93793995D01*
X108910306Y93793995D02*
X108981735Y93936852D01*
X108981735Y93936852D02*
X109124592Y94008280D01*
X109124592Y94008280D02*
X109267449Y94008280D01*
X109267449Y94008280D02*
X109410306Y93293995D01*
X109910306Y94651137D02*
X108910306Y94651137D01*
X109196020Y94651137D02*
X109053163Y94722566D01*
X109053163Y94722566D02*
X108981735Y94793994D01*
X108981735Y94793994D02*
X108910306Y94936852D01*
X108910306Y94936852D02*
X108910306Y95079709D01*
X109910306Y95793994D02*
X109838878Y95651137D01*
X109838878Y95651137D02*
X109696020Y95579708D01*
X109696020Y95579708D02*
X108410306Y95579708D01*
X109910306Y97008279D02*
X109124592Y97008279D01*
X109124592Y97008279D02*
X108981735Y96936851D01*
X108981735Y96936851D02*
X108910306Y96793994D01*
X108910306Y96793994D02*
X108910306Y96508279D01*
X108910306Y96508279D02*
X108981735Y96365422D01*
X109838878Y97008279D02*
X109910306Y96865422D01*
X109910306Y96865422D02*
X109910306Y96508279D01*
X109910306Y96508279D02*
X109838878Y96365422D01*
X109838878Y96365422D02*
X109696020Y96293994D01*
X109696020Y96293994D02*
X109553163Y96293994D01*
X109553163Y96293994D02*
X109410306Y96365422D01*
X109410306Y96365422D02*
X109338878Y96508279D01*
X109338878Y96508279D02*
X109338878Y96865422D01*
X109338878Y96865422D02*
X109267449Y97008279D01*
X108910306Y97722565D02*
X110410306Y97722565D01*
X108981735Y97722565D02*
X108910306Y97865422D01*
X108910306Y97865422D02*
X108910306Y98151137D01*
X108910306Y98151137D02*
X108981735Y98293994D01*
X108981735Y98293994D02*
X109053163Y98365422D01*
X109053163Y98365422D02*
X109196020Y98436851D01*
X109196020Y98436851D02*
X109624592Y98436851D01*
X109624592Y98436851D02*
X109767449Y98365422D01*
X109767449Y98365422D02*
X109838878Y98293994D01*
X109838878Y98293994D02*
X109910306Y98151137D01*
X109910306Y98151137D02*
X109910306Y97865422D01*
X109910306Y97865422D02*
X109838878Y97722565D01*
X108910306Y100079708D02*
X109910306Y100365422D01*
X109910306Y100365422D02*
X109196020Y100651137D01*
X109196020Y100651137D02*
X109910306Y100936851D01*
X109910306Y100936851D02*
X108910306Y101222565D01*
X109910306Y101793994D02*
X108910306Y101793994D01*
X108410306Y101793994D02*
X108481735Y101722566D01*
X108481735Y101722566D02*
X108553163Y101793994D01*
X108553163Y101793994D02*
X108481735Y101865423D01*
X108481735Y101865423D02*
X108410306Y101793994D01*
X108410306Y101793994D02*
X108553163Y101793994D01*
X108910306Y102293995D02*
X108910306Y102865423D01*
X108410306Y102508280D02*
X109696020Y102508280D01*
X109696020Y102508280D02*
X109838878Y102579709D01*
X109838878Y102579709D02*
X109910306Y102722566D01*
X109910306Y102722566D02*
X109910306Y102865423D01*
X109910306Y103365423D02*
X108410306Y103365423D01*
X109910306Y104008280D02*
X109124592Y104008280D01*
X109124592Y104008280D02*
X108981735Y103936852D01*
X108981735Y103936852D02*
X108910306Y103793995D01*
X108910306Y103793995D02*
X108910306Y103579709D01*
X108910306Y103579709D02*
X108981735Y103436852D01*
X108981735Y103436852D02*
X109053163Y103365423D01*
X108910306Y105865423D02*
X110410306Y105865423D01*
X108981735Y105865423D02*
X108910306Y106008280D01*
X108910306Y106008280D02*
X108910306Y106293995D01*
X108910306Y106293995D02*
X108981735Y106436852D01*
X108981735Y106436852D02*
X109053163Y106508280D01*
X109053163Y106508280D02*
X109196020Y106579709D01*
X109196020Y106579709D02*
X109624592Y106579709D01*
X109624592Y106579709D02*
X109767449Y106508280D01*
X109767449Y106508280D02*
X109838878Y106436852D01*
X109838878Y106436852D02*
X109910306Y106293995D01*
X109910306Y106293995D02*
X109910306Y106008280D01*
X109910306Y106008280D02*
X109838878Y105865423D01*
X109910306Y107865423D02*
X109124592Y107865423D01*
X109124592Y107865423D02*
X108981735Y107793995D01*
X108981735Y107793995D02*
X108910306Y107651138D01*
X108910306Y107651138D02*
X108910306Y107365423D01*
X108910306Y107365423D02*
X108981735Y107222566D01*
X109838878Y107865423D02*
X109910306Y107722566D01*
X109910306Y107722566D02*
X109910306Y107365423D01*
X109910306Y107365423D02*
X109838878Y107222566D01*
X109838878Y107222566D02*
X109696020Y107151138D01*
X109696020Y107151138D02*
X109553163Y107151138D01*
X109553163Y107151138D02*
X109410306Y107222566D01*
X109410306Y107222566D02*
X109338878Y107365423D01*
X109338878Y107365423D02*
X109338878Y107722566D01*
X109338878Y107722566D02*
X109267449Y107865423D01*
X109910306Y109222566D02*
X108410306Y109222566D01*
X109838878Y109222566D02*
X109910306Y109079709D01*
X109910306Y109079709D02*
X109910306Y108793995D01*
X109910306Y108793995D02*
X109838878Y108651138D01*
X109838878Y108651138D02*
X109767449Y108579709D01*
X109767449Y108579709D02*
X109624592Y108508281D01*
X109624592Y108508281D02*
X109196020Y108508281D01*
X109196020Y108508281D02*
X109053163Y108579709D01*
X109053163Y108579709D02*
X108981735Y108651138D01*
X108981735Y108651138D02*
X108910306Y108793995D01*
X108910306Y108793995D02*
X108910306Y109079709D01*
X108910306Y109079709D02*
X108981735Y109222566D01*
X109838878Y109865424D02*
X109910306Y110008281D01*
X109910306Y110008281D02*
X109910306Y110293995D01*
X109910306Y110293995D02*
X109838878Y110436852D01*
X109838878Y110436852D02*
X109696020Y110508281D01*
X109696020Y110508281D02*
X109624592Y110508281D01*
X109624592Y110508281D02*
X109481735Y110436852D01*
X109481735Y110436852D02*
X109410306Y110293995D01*
X109410306Y110293995D02*
X109410306Y110079709D01*
X109410306Y110079709D02*
X109338878Y109936852D01*
X109338878Y109936852D02*
X109196020Y109865424D01*
X109196020Y109865424D02*
X109124592Y109865424D01*
X109124592Y109865424D02*
X108981735Y109936852D01*
X108981735Y109936852D02*
X108910306Y110079709D01*
X108910306Y110079709D02*
X108910306Y110293995D01*
X108910306Y110293995D02*
X108981735Y110436852D01*
X110481735Y111008281D02*
X110410306Y111079710D01*
X110410306Y111079710D02*
X110196020Y111222567D01*
X110196020Y111222567D02*
X110053163Y111293995D01*
X110053163Y111293995D02*
X109838878Y111365424D01*
X109838878Y111365424D02*
X109481735Y111436853D01*
X109481735Y111436853D02*
X109196020Y111436853D01*
X109196020Y111436853D02*
X108838878Y111365424D01*
X108838878Y111365424D02*
X108624592Y111293995D01*
X108624592Y111293995D02*
X108481735Y111222567D01*
X108481735Y111222567D02*
X108267449Y111079710D01*
X108267449Y111079710D02*
X108196020Y111008281D01*
X108410306Y66219991D02*
X108410306Y65362848D01*
X108410306Y65791419D02*
X106910306Y65791419D01*
X106910306Y65791419D02*
X107124592Y65648562D01*
X107124592Y65648562D02*
X107267449Y65505705D01*
X107267449Y65505705D02*
X107338878Y65362848D01*
X106910306Y67577133D02*
X106910306Y66862847D01*
X106910306Y66862847D02*
X107624592Y66791419D01*
X107624592Y66791419D02*
X107553163Y66862847D01*
X107553163Y66862847D02*
X107481735Y67005704D01*
X107481735Y67005704D02*
X107481735Y67362847D01*
X107481735Y67362847D02*
X107553163Y67505704D01*
X107553163Y67505704D02*
X107624592Y67577133D01*
X107624592Y67577133D02*
X107767449Y67648562D01*
X107767449Y67648562D02*
X108124592Y67648562D01*
X108124592Y67648562D02*
X108267449Y67577133D01*
X108267449Y67577133D02*
X108338878Y67505704D01*
X108338878Y67505704D02*
X108410306Y67362847D01*
X108410306Y67362847D02*
X108410306Y67005704D01*
X108410306Y67005704D02*
X108338878Y66862847D01*
X108338878Y66862847D02*
X108267449Y66791419D01*
X108410306Y68291418D02*
X107410306Y68291418D01*
X107553163Y68291418D02*
X107481735Y68362847D01*
X107481735Y68362847D02*
X107410306Y68505704D01*
X107410306Y68505704D02*
X107410306Y68719990D01*
X107410306Y68719990D02*
X107481735Y68862847D01*
X107481735Y68862847D02*
X107624592Y68934275D01*
X107624592Y68934275D02*
X108410306Y68934275D01*
X107624592Y68934275D02*
X107481735Y69005704D01*
X107481735Y69005704D02*
X107410306Y69148561D01*
X107410306Y69148561D02*
X107410306Y69362847D01*
X107410306Y69362847D02*
X107481735Y69505704D01*
X107481735Y69505704D02*
X107624592Y69577133D01*
X107624592Y69577133D02*
X108410306Y69577133D01*
X108410306Y70291418D02*
X107410306Y70291418D01*
X107553163Y70291418D02*
X107481735Y70362847D01*
X107481735Y70362847D02*
X107410306Y70505704D01*
X107410306Y70505704D02*
X107410306Y70719990D01*
X107410306Y70719990D02*
X107481735Y70862847D01*
X107481735Y70862847D02*
X107624592Y70934275D01*
X107624592Y70934275D02*
X108410306Y70934275D01*
X107624592Y70934275D02*
X107481735Y71005704D01*
X107481735Y71005704D02*
X107410306Y71148561D01*
X107410306Y71148561D02*
X107410306Y71362847D01*
X107410306Y71362847D02*
X107481735Y71505704D01*
X107481735Y71505704D02*
X107624592Y71577133D01*
X107624592Y71577133D02*
X108410306Y71577133D01*
X108410306Y73648561D02*
X108338878Y73505704D01*
X108338878Y73505704D02*
X108267449Y73434275D01*
X108267449Y73434275D02*
X108124592Y73362847D01*
X108124592Y73362847D02*
X107696020Y73362847D01*
X107696020Y73362847D02*
X107553163Y73434275D01*
X107553163Y73434275D02*
X107481735Y73505704D01*
X107481735Y73505704D02*
X107410306Y73648561D01*
X107410306Y73648561D02*
X107410306Y73862847D01*
X107410306Y73862847D02*
X107481735Y74005704D01*
X107481735Y74005704D02*
X107553163Y74077132D01*
X107553163Y74077132D02*
X107696020Y74148561D01*
X107696020Y74148561D02*
X108124592Y74148561D01*
X108124592Y74148561D02*
X108267449Y74077132D01*
X108267449Y74077132D02*
X108338878Y74005704D01*
X108338878Y74005704D02*
X108410306Y73862847D01*
X108410306Y73862847D02*
X108410306Y73648561D01*
X107410306Y75434275D02*
X108410306Y75434275D01*
X107410306Y74791418D02*
X108196020Y74791418D01*
X108196020Y74791418D02*
X108338878Y74862847D01*
X108338878Y74862847D02*
X108410306Y75005704D01*
X108410306Y75005704D02*
X108410306Y75219990D01*
X108410306Y75219990D02*
X108338878Y75362847D01*
X108338878Y75362847D02*
X108267449Y75434275D01*
X107410306Y75934276D02*
X107410306Y76505704D01*
X106910306Y76148561D02*
X108196020Y76148561D01*
X108196020Y76148561D02*
X108338878Y76219990D01*
X108338878Y76219990D02*
X108410306Y76362847D01*
X108410306Y76362847D02*
X108410306Y76505704D01*
X108338878Y77577133D02*
X108410306Y77434276D01*
X108410306Y77434276D02*
X108410306Y77148561D01*
X108410306Y77148561D02*
X108338878Y77005704D01*
X108338878Y77005704D02*
X108196020Y76934276D01*
X108196020Y76934276D02*
X107624592Y76934276D01*
X107624592Y76934276D02*
X107481735Y77005704D01*
X107481735Y77005704D02*
X107410306Y77148561D01*
X107410306Y77148561D02*
X107410306Y77434276D01*
X107410306Y77434276D02*
X107481735Y77577133D01*
X107481735Y77577133D02*
X107624592Y77648561D01*
X107624592Y77648561D02*
X107767449Y77648561D01*
X107767449Y77648561D02*
X107910306Y76934276D01*
X108410306Y78291418D02*
X107410306Y78291418D01*
X107696020Y78291418D02*
X107553163Y78362847D01*
X107553163Y78362847D02*
X107481735Y78434275D01*
X107481735Y78434275D02*
X107410306Y78577133D01*
X107410306Y78577133D02*
X107410306Y78719990D01*
X108338878Y79291418D02*
X108410306Y79291418D01*
X108410306Y79291418D02*
X108553163Y79219989D01*
X108553163Y79219989D02*
X108624592Y79148561D01*
X106910306Y80934275D02*
X106910306Y81934275D01*
X106910306Y81934275D02*
X108410306Y81291418D01*
X108267449Y82505703D02*
X108338878Y82577132D01*
X108338878Y82577132D02*
X108410306Y82505703D01*
X108410306Y82505703D02*
X108338878Y82434275D01*
X108338878Y82434275D02*
X108267449Y82505703D01*
X108267449Y82505703D02*
X108410306Y82505703D01*
X106910306Y83934275D02*
X106910306Y83219989D01*
X106910306Y83219989D02*
X107624592Y83148561D01*
X107624592Y83148561D02*
X107553163Y83219989D01*
X107553163Y83219989D02*
X107481735Y83362846D01*
X107481735Y83362846D02*
X107481735Y83719989D01*
X107481735Y83719989D02*
X107553163Y83862846D01*
X107553163Y83862846D02*
X107624592Y83934275D01*
X107624592Y83934275D02*
X107767449Y84005704D01*
X107767449Y84005704D02*
X108124592Y84005704D01*
X108124592Y84005704D02*
X108267449Y83934275D01*
X108267449Y83934275D02*
X108338878Y83862846D01*
X108338878Y83862846D02*
X108410306Y83719989D01*
X108410306Y83719989D02*
X108410306Y83362846D01*
X108410306Y83362846D02*
X108338878Y83219989D01*
X108338878Y83219989D02*
X108267449Y83148561D01*
X108410306Y84648560D02*
X107410306Y84648560D01*
X107553163Y84648560D02*
X107481735Y84719989D01*
X107481735Y84719989D02*
X107410306Y84862846D01*
X107410306Y84862846D02*
X107410306Y85077132D01*
X107410306Y85077132D02*
X107481735Y85219989D01*
X107481735Y85219989D02*
X107624592Y85291417D01*
X107624592Y85291417D02*
X108410306Y85291417D01*
X107624592Y85291417D02*
X107481735Y85362846D01*
X107481735Y85362846D02*
X107410306Y85505703D01*
X107410306Y85505703D02*
X107410306Y85719989D01*
X107410306Y85719989D02*
X107481735Y85862846D01*
X107481735Y85862846D02*
X107624592Y85934275D01*
X107624592Y85934275D02*
X108410306Y85934275D01*
X108410306Y86648560D02*
X107410306Y86648560D01*
X107553163Y86648560D02*
X107481735Y86719989D01*
X107481735Y86719989D02*
X107410306Y86862846D01*
X107410306Y86862846D02*
X107410306Y87077132D01*
X107410306Y87077132D02*
X107481735Y87219989D01*
X107481735Y87219989D02*
X107624592Y87291417D01*
X107624592Y87291417D02*
X108410306Y87291417D01*
X107624592Y87291417D02*
X107481735Y87362846D01*
X107481735Y87362846D02*
X107410306Y87505703D01*
X107410306Y87505703D02*
X107410306Y87719989D01*
X107410306Y87719989D02*
X107481735Y87862846D01*
X107481735Y87862846D02*
X107624592Y87934275D01*
X107624592Y87934275D02*
X108410306Y87934275D01*
X108410306Y89791417D02*
X107410306Y89791417D01*
X106910306Y89791417D02*
X106981735Y89719989D01*
X106981735Y89719989D02*
X107053163Y89791417D01*
X107053163Y89791417D02*
X106981735Y89862846D01*
X106981735Y89862846D02*
X106910306Y89791417D01*
X106910306Y89791417D02*
X107053163Y89791417D01*
X107410306Y90505703D02*
X108410306Y90505703D01*
X107553163Y90505703D02*
X107481735Y90577132D01*
X107481735Y90577132D02*
X107410306Y90719989D01*
X107410306Y90719989D02*
X107410306Y90934275D01*
X107410306Y90934275D02*
X107481735Y91077132D01*
X107481735Y91077132D02*
X107624592Y91148560D01*
X107624592Y91148560D02*
X108410306Y91148560D01*
X107410306Y91862846D02*
X108410306Y91862846D01*
X107553163Y91862846D02*
X107481735Y91934275D01*
X107481735Y91934275D02*
X107410306Y92077132D01*
X107410306Y92077132D02*
X107410306Y92291418D01*
X107410306Y92291418D02*
X107481735Y92434275D01*
X107481735Y92434275D02*
X107624592Y92505703D01*
X107624592Y92505703D02*
X108410306Y92505703D01*
X108338878Y93791418D02*
X108410306Y93648561D01*
X108410306Y93648561D02*
X108410306Y93362846D01*
X108410306Y93362846D02*
X108338878Y93219989D01*
X108338878Y93219989D02*
X108196020Y93148561D01*
X108196020Y93148561D02*
X107624592Y93148561D01*
X107624592Y93148561D02*
X107481735Y93219989D01*
X107481735Y93219989D02*
X107410306Y93362846D01*
X107410306Y93362846D02*
X107410306Y93648561D01*
X107410306Y93648561D02*
X107481735Y93791418D01*
X107481735Y93791418D02*
X107624592Y93862846D01*
X107624592Y93862846D02*
X107767449Y93862846D01*
X107767449Y93862846D02*
X107910306Y93148561D01*
X108410306Y94505703D02*
X107410306Y94505703D01*
X107696020Y94505703D02*
X107553163Y94577132D01*
X107553163Y94577132D02*
X107481735Y94648560D01*
X107481735Y94648560D02*
X107410306Y94791418D01*
X107410306Y94791418D02*
X107410306Y94934275D01*
X32992405Y92899407D02*
X32920977Y92970835D01*
X32920977Y92970835D02*
X32849548Y93113692D01*
X32849548Y93113692D02*
X32849548Y93470835D01*
X32849548Y93470835D02*
X32920977Y93613692D01*
X32920977Y93613692D02*
X32992405Y93685121D01*
X32992405Y93685121D02*
X33135262Y93756550D01*
X33135262Y93756550D02*
X33278120Y93756550D01*
X33278120Y93756550D02*
X33492405Y93685121D01*
X33492405Y93685121D02*
X34349548Y92827978D01*
X34349548Y92827978D02*
X34349548Y93756550D01*
X32849548Y94685121D02*
X32849548Y94827978D01*
X32849548Y94827978D02*
X32920977Y94970835D01*
X32920977Y94970835D02*
X32992405Y95042263D01*
X32992405Y95042263D02*
X33135262Y95113692D01*
X33135262Y95113692D02*
X33420977Y95185121D01*
X33420977Y95185121D02*
X33778120Y95185121D01*
X33778120Y95185121D02*
X34063834Y95113692D01*
X34063834Y95113692D02*
X34206691Y95042263D01*
X34206691Y95042263D02*
X34278120Y94970835D01*
X34278120Y94970835D02*
X34349548Y94827978D01*
X34349548Y94827978D02*
X34349548Y94685121D01*
X34349548Y94685121D02*
X34278120Y94542263D01*
X34278120Y94542263D02*
X34206691Y94470835D01*
X34206691Y94470835D02*
X34063834Y94399406D01*
X34063834Y94399406D02*
X33778120Y94327978D01*
X33778120Y94327978D02*
X33420977Y94327978D01*
X33420977Y94327978D02*
X33135262Y94399406D01*
X33135262Y94399406D02*
X32992405Y94470835D01*
X32992405Y94470835D02*
X32920977Y94542263D01*
X32920977Y94542263D02*
X32849548Y94685121D01*
X34349548Y95827977D02*
X33349548Y95827977D01*
X33492405Y95827977D02*
X33420977Y95899406D01*
X33420977Y95899406D02*
X33349548Y96042263D01*
X33349548Y96042263D02*
X33349548Y96256549D01*
X33349548Y96256549D02*
X33420977Y96399406D01*
X33420977Y96399406D02*
X33563834Y96470834D01*
X33563834Y96470834D02*
X34349548Y96470834D01*
X33563834Y96470834D02*
X33420977Y96542263D01*
X33420977Y96542263D02*
X33349548Y96685120D01*
X33349548Y96685120D02*
X33349548Y96899406D01*
X33349548Y96899406D02*
X33420977Y97042263D01*
X33420977Y97042263D02*
X33563834Y97113692D01*
X33563834Y97113692D02*
X34349548Y97113692D01*
X34349548Y97827977D02*
X33349548Y97827977D01*
X33492405Y97827977D02*
X33420977Y97899406D01*
X33420977Y97899406D02*
X33349548Y98042263D01*
X33349548Y98042263D02*
X33349548Y98256549D01*
X33349548Y98256549D02*
X33420977Y98399406D01*
X33420977Y98399406D02*
X33563834Y98470834D01*
X33563834Y98470834D02*
X34349548Y98470834D01*
X33563834Y98470834D02*
X33420977Y98542263D01*
X33420977Y98542263D02*
X33349548Y98685120D01*
X33349548Y98685120D02*
X33349548Y98899406D01*
X33349548Y98899406D02*
X33420977Y99042263D01*
X33420977Y99042263D02*
X33563834Y99113692D01*
X33563834Y99113692D02*
X34349548Y99113692D01*
X34349548Y101185120D02*
X34278120Y101042263D01*
X34278120Y101042263D02*
X34206691Y100970834D01*
X34206691Y100970834D02*
X34063834Y100899406D01*
X34063834Y100899406D02*
X33635262Y100899406D01*
X33635262Y100899406D02*
X33492405Y100970834D01*
X33492405Y100970834D02*
X33420977Y101042263D01*
X33420977Y101042263D02*
X33349548Y101185120D01*
X33349548Y101185120D02*
X33349548Y101399406D01*
X33349548Y101399406D02*
X33420977Y101542263D01*
X33420977Y101542263D02*
X33492405Y101613691D01*
X33492405Y101613691D02*
X33635262Y101685120D01*
X33635262Y101685120D02*
X34063834Y101685120D01*
X34063834Y101685120D02*
X34206691Y101613691D01*
X34206691Y101613691D02*
X34278120Y101542263D01*
X34278120Y101542263D02*
X34349548Y101399406D01*
X34349548Y101399406D02*
X34349548Y101185120D01*
X33349548Y102970834D02*
X34349548Y102970834D01*
X33349548Y102327977D02*
X34135262Y102327977D01*
X34135262Y102327977D02*
X34278120Y102399406D01*
X34278120Y102399406D02*
X34349548Y102542263D01*
X34349548Y102542263D02*
X34349548Y102756549D01*
X34349548Y102756549D02*
X34278120Y102899406D01*
X34278120Y102899406D02*
X34206691Y102970834D01*
X33349548Y103470835D02*
X33349548Y104042263D01*
X32849548Y103685120D02*
X34135262Y103685120D01*
X34135262Y103685120D02*
X34278120Y103756549D01*
X34278120Y103756549D02*
X34349548Y103899406D01*
X34349548Y103899406D02*
X34349548Y104042263D01*
X34278120Y105113692D02*
X34349548Y104970835D01*
X34349548Y104970835D02*
X34349548Y104685120D01*
X34349548Y104685120D02*
X34278120Y104542263D01*
X34278120Y104542263D02*
X34135262Y104470835D01*
X34135262Y104470835D02*
X33563834Y104470835D01*
X33563834Y104470835D02*
X33420977Y104542263D01*
X33420977Y104542263D02*
X33349548Y104685120D01*
X33349548Y104685120D02*
X33349548Y104970835D01*
X33349548Y104970835D02*
X33420977Y105113692D01*
X33420977Y105113692D02*
X33563834Y105185120D01*
X33563834Y105185120D02*
X33706691Y105185120D01*
X33706691Y105185120D02*
X33849548Y104470835D01*
X34349548Y105827977D02*
X33349548Y105827977D01*
X33635262Y105827977D02*
X33492405Y105899406D01*
X33492405Y105899406D02*
X33420977Y105970834D01*
X33420977Y105970834D02*
X33349548Y106113692D01*
X33349548Y106113692D02*
X33349548Y106256549D01*
X34278120Y106827977D02*
X34349548Y106827977D01*
X34349548Y106827977D02*
X34492405Y106756548D01*
X34492405Y106756548D02*
X34563834Y106685120D01*
X34349548Y109399406D02*
X34349548Y108542263D01*
X34349548Y108970834D02*
X32849548Y108970834D01*
X32849548Y108970834D02*
X33063834Y108827977D01*
X33063834Y108827977D02*
X33206691Y108685120D01*
X33206691Y108685120D02*
X33278120Y108542263D01*
X32849548Y110327977D02*
X32849548Y110470834D01*
X32849548Y110470834D02*
X32920977Y110613691D01*
X32920977Y110613691D02*
X32992405Y110685119D01*
X32992405Y110685119D02*
X33135262Y110756548D01*
X33135262Y110756548D02*
X33420977Y110827977D01*
X33420977Y110827977D02*
X33778120Y110827977D01*
X33778120Y110827977D02*
X34063834Y110756548D01*
X34063834Y110756548D02*
X34206691Y110685119D01*
X34206691Y110685119D02*
X34278120Y110613691D01*
X34278120Y110613691D02*
X34349548Y110470834D01*
X34349548Y110470834D02*
X34349548Y110327977D01*
X34349548Y110327977D02*
X34278120Y110185119D01*
X34278120Y110185119D02*
X34206691Y110113691D01*
X34206691Y110113691D02*
X34063834Y110042262D01*
X34063834Y110042262D02*
X33778120Y109970834D01*
X33778120Y109970834D02*
X33420977Y109970834D01*
X33420977Y109970834D02*
X33135262Y110042262D01*
X33135262Y110042262D02*
X32992405Y110113691D01*
X32992405Y110113691D02*
X32920977Y110185119D01*
X32920977Y110185119D02*
X32849548Y110327977D01*
X34349548Y111470833D02*
X33349548Y111470833D01*
X33492405Y111470833D02*
X33420977Y111542262D01*
X33420977Y111542262D02*
X33349548Y111685119D01*
X33349548Y111685119D02*
X33349548Y111899405D01*
X33349548Y111899405D02*
X33420977Y112042262D01*
X33420977Y112042262D02*
X33563834Y112113690D01*
X33563834Y112113690D02*
X34349548Y112113690D01*
X33563834Y112113690D02*
X33420977Y112185119D01*
X33420977Y112185119D02*
X33349548Y112327976D01*
X33349548Y112327976D02*
X33349548Y112542262D01*
X33349548Y112542262D02*
X33420977Y112685119D01*
X33420977Y112685119D02*
X33563834Y112756548D01*
X33563834Y112756548D02*
X34349548Y112756548D01*
X34349548Y113470833D02*
X33349548Y113470833D01*
X33492405Y113470833D02*
X33420977Y113542262D01*
X33420977Y113542262D02*
X33349548Y113685119D01*
X33349548Y113685119D02*
X33349548Y113899405D01*
X33349548Y113899405D02*
X33420977Y114042262D01*
X33420977Y114042262D02*
X33563834Y114113690D01*
X33563834Y114113690D02*
X34349548Y114113690D01*
X33563834Y114113690D02*
X33420977Y114185119D01*
X33420977Y114185119D02*
X33349548Y114327976D01*
X33349548Y114327976D02*
X33349548Y114542262D01*
X33349548Y114542262D02*
X33420977Y114685119D01*
X33420977Y114685119D02*
X33563834Y114756548D01*
X33563834Y114756548D02*
X34349548Y114756548D01*
X34349548Y116613690D02*
X33349548Y116613690D01*
X32849548Y116613690D02*
X32920977Y116542262D01*
X32920977Y116542262D02*
X32992405Y116613690D01*
X32992405Y116613690D02*
X32920977Y116685119D01*
X32920977Y116685119D02*
X32849548Y116613690D01*
X32849548Y116613690D02*
X32992405Y116613690D01*
X33349548Y117327976D02*
X34349548Y117327976D01*
X33492405Y117327976D02*
X33420977Y117399405D01*
X33420977Y117399405D02*
X33349548Y117542262D01*
X33349548Y117542262D02*
X33349548Y117756548D01*
X33349548Y117756548D02*
X33420977Y117899405D01*
X33420977Y117899405D02*
X33563834Y117970833D01*
X33563834Y117970833D02*
X34349548Y117970833D01*
X33349548Y118685119D02*
X34349548Y118685119D01*
X33492405Y118685119D02*
X33420977Y118756548D01*
X33420977Y118756548D02*
X33349548Y118899405D01*
X33349548Y118899405D02*
X33349548Y119113691D01*
X33349548Y119113691D02*
X33420977Y119256548D01*
X33420977Y119256548D02*
X33563834Y119327976D01*
X33563834Y119327976D02*
X34349548Y119327976D01*
X34278120Y120613691D02*
X34349548Y120470834D01*
X34349548Y120470834D02*
X34349548Y120185119D01*
X34349548Y120185119D02*
X34278120Y120042262D01*
X34278120Y120042262D02*
X34135262Y119970834D01*
X34135262Y119970834D02*
X33563834Y119970834D01*
X33563834Y119970834D02*
X33420977Y120042262D01*
X33420977Y120042262D02*
X33349548Y120185119D01*
X33349548Y120185119D02*
X33349548Y120470834D01*
X33349548Y120470834D02*
X33420977Y120613691D01*
X33420977Y120613691D02*
X33563834Y120685119D01*
X33563834Y120685119D02*
X33706691Y120685119D01*
X33706691Y120685119D02*
X33849548Y119970834D01*
X34349548Y121327976D02*
X33349548Y121327976D01*
X33635262Y121327976D02*
X33492405Y121399405D01*
X33492405Y121399405D02*
X33420977Y121470833D01*
X33420977Y121470833D02*
X33349548Y121613691D01*
X33349548Y121613691D02*
X33349548Y121756548D01*
X133597228Y66320471D02*
X133597228Y65463328D01*
X133597228Y65891899D02*
X132097228Y65891899D01*
X132097228Y65891899D02*
X132311514Y65749042D01*
X132311514Y65749042D02*
X132454371Y65606185D01*
X132454371Y65606185D02*
X132525800Y65463328D01*
X132097228Y67677613D02*
X132097228Y66963327D01*
X132097228Y66963327D02*
X132811514Y66891899D01*
X132811514Y66891899D02*
X132740085Y66963327D01*
X132740085Y66963327D02*
X132668657Y67106184D01*
X132668657Y67106184D02*
X132668657Y67463327D01*
X132668657Y67463327D02*
X132740085Y67606184D01*
X132740085Y67606184D02*
X132811514Y67677613D01*
X132811514Y67677613D02*
X132954371Y67749042D01*
X132954371Y67749042D02*
X133311514Y67749042D01*
X133311514Y67749042D02*
X133454371Y67677613D01*
X133454371Y67677613D02*
X133525800Y67606184D01*
X133525800Y67606184D02*
X133597228Y67463327D01*
X133597228Y67463327D02*
X133597228Y67106184D01*
X133597228Y67106184D02*
X133525800Y66963327D01*
X133525800Y66963327D02*
X133454371Y66891899D01*
X133597228Y68391898D02*
X132597228Y68391898D01*
X132740085Y68391898D02*
X132668657Y68463327D01*
X132668657Y68463327D02*
X132597228Y68606184D01*
X132597228Y68606184D02*
X132597228Y68820470D01*
X132597228Y68820470D02*
X132668657Y68963327D01*
X132668657Y68963327D02*
X132811514Y69034755D01*
X132811514Y69034755D02*
X133597228Y69034755D01*
X132811514Y69034755D02*
X132668657Y69106184D01*
X132668657Y69106184D02*
X132597228Y69249041D01*
X132597228Y69249041D02*
X132597228Y69463327D01*
X132597228Y69463327D02*
X132668657Y69606184D01*
X132668657Y69606184D02*
X132811514Y69677613D01*
X132811514Y69677613D02*
X133597228Y69677613D01*
X133597228Y70391898D02*
X132597228Y70391898D01*
X132740085Y70391898D02*
X132668657Y70463327D01*
X132668657Y70463327D02*
X132597228Y70606184D01*
X132597228Y70606184D02*
X132597228Y70820470D01*
X132597228Y70820470D02*
X132668657Y70963327D01*
X132668657Y70963327D02*
X132811514Y71034755D01*
X132811514Y71034755D02*
X133597228Y71034755D01*
X132811514Y71034755D02*
X132668657Y71106184D01*
X132668657Y71106184D02*
X132597228Y71249041D01*
X132597228Y71249041D02*
X132597228Y71463327D01*
X132597228Y71463327D02*
X132668657Y71606184D01*
X132668657Y71606184D02*
X132811514Y71677613D01*
X132811514Y71677613D02*
X133597228Y71677613D01*
X133597228Y73749041D02*
X133525800Y73606184D01*
X133525800Y73606184D02*
X133454371Y73534755D01*
X133454371Y73534755D02*
X133311514Y73463327D01*
X133311514Y73463327D02*
X132882942Y73463327D01*
X132882942Y73463327D02*
X132740085Y73534755D01*
X132740085Y73534755D02*
X132668657Y73606184D01*
X132668657Y73606184D02*
X132597228Y73749041D01*
X132597228Y73749041D02*
X132597228Y73963327D01*
X132597228Y73963327D02*
X132668657Y74106184D01*
X132668657Y74106184D02*
X132740085Y74177612D01*
X132740085Y74177612D02*
X132882942Y74249041D01*
X132882942Y74249041D02*
X133311514Y74249041D01*
X133311514Y74249041D02*
X133454371Y74177612D01*
X133454371Y74177612D02*
X133525800Y74106184D01*
X133525800Y74106184D02*
X133597228Y73963327D01*
X133597228Y73963327D02*
X133597228Y73749041D01*
X132597228Y75534755D02*
X133597228Y75534755D01*
X132597228Y74891898D02*
X133382942Y74891898D01*
X133382942Y74891898D02*
X133525800Y74963327D01*
X133525800Y74963327D02*
X133597228Y75106184D01*
X133597228Y75106184D02*
X133597228Y75320470D01*
X133597228Y75320470D02*
X133525800Y75463327D01*
X133525800Y75463327D02*
X133454371Y75534755D01*
X132597228Y76034756D02*
X132597228Y76606184D01*
X132097228Y76249041D02*
X133382942Y76249041D01*
X133382942Y76249041D02*
X133525800Y76320470D01*
X133525800Y76320470D02*
X133597228Y76463327D01*
X133597228Y76463327D02*
X133597228Y76606184D01*
X133525800Y77677613D02*
X133597228Y77534756D01*
X133597228Y77534756D02*
X133597228Y77249041D01*
X133597228Y77249041D02*
X133525800Y77106184D01*
X133525800Y77106184D02*
X133382942Y77034756D01*
X133382942Y77034756D02*
X132811514Y77034756D01*
X132811514Y77034756D02*
X132668657Y77106184D01*
X132668657Y77106184D02*
X132597228Y77249041D01*
X132597228Y77249041D02*
X132597228Y77534756D01*
X132597228Y77534756D02*
X132668657Y77677613D01*
X132668657Y77677613D02*
X132811514Y77749041D01*
X132811514Y77749041D02*
X132954371Y77749041D01*
X132954371Y77749041D02*
X133097228Y77034756D01*
X133597228Y78391898D02*
X132597228Y78391898D01*
X132882942Y78391898D02*
X132740085Y78463327D01*
X132740085Y78463327D02*
X132668657Y78534755D01*
X132668657Y78534755D02*
X132597228Y78677613D01*
X132597228Y78677613D02*
X132597228Y78820470D01*
X133525800Y79391898D02*
X133597228Y79391898D01*
X133597228Y79391898D02*
X133740085Y79320469D01*
X133740085Y79320469D02*
X133811514Y79249041D01*
X132097228Y81034755D02*
X132097228Y82034755D01*
X132097228Y82034755D02*
X133597228Y81391898D01*
X133454371Y82606183D02*
X133525800Y82677612D01*
X133525800Y82677612D02*
X133597228Y82606183D01*
X133597228Y82606183D02*
X133525800Y82534755D01*
X133525800Y82534755D02*
X133454371Y82606183D01*
X133454371Y82606183D02*
X133597228Y82606183D01*
X132097228Y84034755D02*
X132097228Y83320469D01*
X132097228Y83320469D02*
X132811514Y83249041D01*
X132811514Y83249041D02*
X132740085Y83320469D01*
X132740085Y83320469D02*
X132668657Y83463326D01*
X132668657Y83463326D02*
X132668657Y83820469D01*
X132668657Y83820469D02*
X132740085Y83963326D01*
X132740085Y83963326D02*
X132811514Y84034755D01*
X132811514Y84034755D02*
X132954371Y84106184D01*
X132954371Y84106184D02*
X133311514Y84106184D01*
X133311514Y84106184D02*
X133454371Y84034755D01*
X133454371Y84034755D02*
X133525800Y83963326D01*
X133525800Y83963326D02*
X133597228Y83820469D01*
X133597228Y83820469D02*
X133597228Y83463326D01*
X133597228Y83463326D02*
X133525800Y83320469D01*
X133525800Y83320469D02*
X133454371Y83249041D01*
X133597228Y84749040D02*
X132597228Y84749040D01*
X132740085Y84749040D02*
X132668657Y84820469D01*
X132668657Y84820469D02*
X132597228Y84963326D01*
X132597228Y84963326D02*
X132597228Y85177612D01*
X132597228Y85177612D02*
X132668657Y85320469D01*
X132668657Y85320469D02*
X132811514Y85391897D01*
X132811514Y85391897D02*
X133597228Y85391897D01*
X132811514Y85391897D02*
X132668657Y85463326D01*
X132668657Y85463326D02*
X132597228Y85606183D01*
X132597228Y85606183D02*
X132597228Y85820469D01*
X132597228Y85820469D02*
X132668657Y85963326D01*
X132668657Y85963326D02*
X132811514Y86034755D01*
X132811514Y86034755D02*
X133597228Y86034755D01*
X133597228Y86749040D02*
X132597228Y86749040D01*
X132740085Y86749040D02*
X132668657Y86820469D01*
X132668657Y86820469D02*
X132597228Y86963326D01*
X132597228Y86963326D02*
X132597228Y87177612D01*
X132597228Y87177612D02*
X132668657Y87320469D01*
X132668657Y87320469D02*
X132811514Y87391897D01*
X132811514Y87391897D02*
X133597228Y87391897D01*
X132811514Y87391897D02*
X132668657Y87463326D01*
X132668657Y87463326D02*
X132597228Y87606183D01*
X132597228Y87606183D02*
X132597228Y87820469D01*
X132597228Y87820469D02*
X132668657Y87963326D01*
X132668657Y87963326D02*
X132811514Y88034755D01*
X132811514Y88034755D02*
X133597228Y88034755D01*
X133597228Y89891897D02*
X132597228Y89891897D01*
X132097228Y89891897D02*
X132168657Y89820469D01*
X132168657Y89820469D02*
X132240085Y89891897D01*
X132240085Y89891897D02*
X132168657Y89963326D01*
X132168657Y89963326D02*
X132097228Y89891897D01*
X132097228Y89891897D02*
X132240085Y89891897D01*
X132597228Y90606183D02*
X133597228Y90606183D01*
X132740085Y90606183D02*
X132668657Y90677612D01*
X132668657Y90677612D02*
X132597228Y90820469D01*
X132597228Y90820469D02*
X132597228Y91034755D01*
X132597228Y91034755D02*
X132668657Y91177612D01*
X132668657Y91177612D02*
X132811514Y91249040D01*
X132811514Y91249040D02*
X133597228Y91249040D01*
X132597228Y91963326D02*
X133597228Y91963326D01*
X132740085Y91963326D02*
X132668657Y92034755D01*
X132668657Y92034755D02*
X132597228Y92177612D01*
X132597228Y92177612D02*
X132597228Y92391898D01*
X132597228Y92391898D02*
X132668657Y92534755D01*
X132668657Y92534755D02*
X132811514Y92606183D01*
X132811514Y92606183D02*
X133597228Y92606183D01*
X133525800Y93891898D02*
X133597228Y93749041D01*
X133597228Y93749041D02*
X133597228Y93463326D01*
X133597228Y93463326D02*
X133525800Y93320469D01*
X133525800Y93320469D02*
X133382942Y93249041D01*
X133382942Y93249041D02*
X132811514Y93249041D01*
X132811514Y93249041D02*
X132668657Y93320469D01*
X132668657Y93320469D02*
X132597228Y93463326D01*
X132597228Y93463326D02*
X132597228Y93749041D01*
X132597228Y93749041D02*
X132668657Y93891898D01*
X132668657Y93891898D02*
X132811514Y93963326D01*
X132811514Y93963326D02*
X132954371Y93963326D01*
X132954371Y93963326D02*
X133097228Y93249041D01*
X133597228Y94606183D02*
X132597228Y94606183D01*
X132882942Y94606183D02*
X132740085Y94677612D01*
X132740085Y94677612D02*
X132668657Y94749040D01*
X132668657Y94749040D02*
X132597228Y94891898D01*
X132597228Y94891898D02*
X132597228Y95034755D01*
X134740085Y38633883D02*
X134668657Y38705311D01*
X134668657Y38705311D02*
X134597228Y38848168D01*
X134597228Y38848168D02*
X134597228Y39205311D01*
X134597228Y39205311D02*
X134668657Y39348168D01*
X134668657Y39348168D02*
X134740085Y39419597D01*
X134740085Y39419597D02*
X134882942Y39491026D01*
X134882942Y39491026D02*
X135025800Y39491026D01*
X135025800Y39491026D02*
X135240085Y39419597D01*
X135240085Y39419597D02*
X136097228Y38562454D01*
X136097228Y38562454D02*
X136097228Y39491026D01*
X135954371Y40133882D02*
X136025800Y40205311D01*
X136025800Y40205311D02*
X136097228Y40133882D01*
X136097228Y40133882D02*
X136025800Y40062454D01*
X136025800Y40062454D02*
X135954371Y40133882D01*
X135954371Y40133882D02*
X136097228Y40133882D01*
X134597228Y41562454D02*
X134597228Y40848168D01*
X134597228Y40848168D02*
X135311514Y40776740D01*
X135311514Y40776740D02*
X135240085Y40848168D01*
X135240085Y40848168D02*
X135168657Y40991025D01*
X135168657Y40991025D02*
X135168657Y41348168D01*
X135168657Y41348168D02*
X135240085Y41491025D01*
X135240085Y41491025D02*
X135311514Y41562454D01*
X135311514Y41562454D02*
X135454371Y41633883D01*
X135454371Y41633883D02*
X135811514Y41633883D01*
X135811514Y41633883D02*
X135954371Y41562454D01*
X135954371Y41562454D02*
X136025800Y41491025D01*
X136025800Y41491025D02*
X136097228Y41348168D01*
X136097228Y41348168D02*
X136097228Y40991025D01*
X136097228Y40991025D02*
X136025800Y40848168D01*
X136025800Y40848168D02*
X135954371Y40776740D01*
X135097228Y42919596D02*
X136097228Y42919596D01*
X134525800Y42562454D02*
X135597228Y42205311D01*
X135597228Y42205311D02*
X135597228Y43133882D01*
X136097228Y43705310D02*
X135097228Y43705310D01*
X135240085Y43705310D02*
X135168657Y43776739D01*
X135168657Y43776739D02*
X135097228Y43919596D01*
X135097228Y43919596D02*
X135097228Y44133882D01*
X135097228Y44133882D02*
X135168657Y44276739D01*
X135168657Y44276739D02*
X135311514Y44348167D01*
X135311514Y44348167D02*
X136097228Y44348167D01*
X135311514Y44348167D02*
X135168657Y44419596D01*
X135168657Y44419596D02*
X135097228Y44562453D01*
X135097228Y44562453D02*
X135097228Y44776739D01*
X135097228Y44776739D02*
X135168657Y44919596D01*
X135168657Y44919596D02*
X135311514Y44991025D01*
X135311514Y44991025D02*
X136097228Y44991025D01*
X136097228Y45705310D02*
X135097228Y45705310D01*
X135240085Y45705310D02*
X135168657Y45776739D01*
X135168657Y45776739D02*
X135097228Y45919596D01*
X135097228Y45919596D02*
X135097228Y46133882D01*
X135097228Y46133882D02*
X135168657Y46276739D01*
X135168657Y46276739D02*
X135311514Y46348167D01*
X135311514Y46348167D02*
X136097228Y46348167D01*
X135311514Y46348167D02*
X135168657Y46419596D01*
X135168657Y46419596D02*
X135097228Y46562453D01*
X135097228Y46562453D02*
X135097228Y46776739D01*
X135097228Y46776739D02*
X135168657Y46919596D01*
X135168657Y46919596D02*
X135311514Y46991025D01*
X135311514Y46991025D02*
X136097228Y46991025D01*
X136097228Y48848167D02*
X135097228Y48848167D01*
X134597228Y48848167D02*
X134668657Y48776739D01*
X134668657Y48776739D02*
X134740085Y48848167D01*
X134740085Y48848167D02*
X134668657Y48919596D01*
X134668657Y48919596D02*
X134597228Y48848167D01*
X134597228Y48848167D02*
X134740085Y48848167D01*
X135097228Y49562453D02*
X136097228Y49562453D01*
X135240085Y49562453D02*
X135168657Y49633882D01*
X135168657Y49633882D02*
X135097228Y49776739D01*
X135097228Y49776739D02*
X135097228Y49991025D01*
X135097228Y49991025D02*
X135168657Y50133882D01*
X135168657Y50133882D02*
X135311514Y50205310D01*
X135311514Y50205310D02*
X136097228Y50205310D01*
X135097228Y50919596D02*
X136097228Y50919596D01*
X135240085Y50919596D02*
X135168657Y50991025D01*
X135168657Y50991025D02*
X135097228Y51133882D01*
X135097228Y51133882D02*
X135097228Y51348168D01*
X135097228Y51348168D02*
X135168657Y51491025D01*
X135168657Y51491025D02*
X135311514Y51562453D01*
X135311514Y51562453D02*
X136097228Y51562453D01*
X136025800Y52848168D02*
X136097228Y52705311D01*
X136097228Y52705311D02*
X136097228Y52419596D01*
X136097228Y52419596D02*
X136025800Y52276739D01*
X136025800Y52276739D02*
X135882942Y52205311D01*
X135882942Y52205311D02*
X135311514Y52205311D01*
X135311514Y52205311D02*
X135168657Y52276739D01*
X135168657Y52276739D02*
X135097228Y52419596D01*
X135097228Y52419596D02*
X135097228Y52705311D01*
X135097228Y52705311D02*
X135168657Y52848168D01*
X135168657Y52848168D02*
X135311514Y52919596D01*
X135311514Y52919596D02*
X135454371Y52919596D01*
X135454371Y52919596D02*
X135597228Y52205311D01*
X136097228Y53562453D02*
X135097228Y53562453D01*
X135382942Y53562453D02*
X135240085Y53633882D01*
X135240085Y53633882D02*
X135168657Y53705310D01*
X135168657Y53705310D02*
X135097228Y53848168D01*
X135097228Y53848168D02*
X135097228Y53991025D01*
X136668657Y56062453D02*
X136597228Y55991024D01*
X136597228Y55991024D02*
X136382942Y55848167D01*
X136382942Y55848167D02*
X136240085Y55776738D01*
X136240085Y55776738D02*
X136025800Y55705310D01*
X136025800Y55705310D02*
X135668657Y55633881D01*
X135668657Y55633881D02*
X135382942Y55633881D01*
X135382942Y55633881D02*
X135025800Y55705310D01*
X135025800Y55705310D02*
X134811514Y55776738D01*
X134811514Y55776738D02*
X134668657Y55848167D01*
X134668657Y55848167D02*
X134454371Y55991024D01*
X134454371Y55991024D02*
X134382942Y56062453D01*
X135097228Y56633881D02*
X136097228Y56633881D01*
X135240085Y56633881D02*
X135168657Y56705310D01*
X135168657Y56705310D02*
X135097228Y56848167D01*
X135097228Y56848167D02*
X135097228Y57062453D01*
X135097228Y57062453D02*
X135168657Y57205310D01*
X135168657Y57205310D02*
X135311514Y57276738D01*
X135311514Y57276738D02*
X136097228Y57276738D01*
X136097228Y58205310D02*
X136025800Y58062453D01*
X136025800Y58062453D02*
X135954371Y57991024D01*
X135954371Y57991024D02*
X135811514Y57919596D01*
X135811514Y57919596D02*
X135382942Y57919596D01*
X135382942Y57919596D02*
X135240085Y57991024D01*
X135240085Y57991024D02*
X135168657Y58062453D01*
X135168657Y58062453D02*
X135097228Y58205310D01*
X135097228Y58205310D02*
X135097228Y58419596D01*
X135097228Y58419596D02*
X135168657Y58562453D01*
X135168657Y58562453D02*
X135240085Y58633881D01*
X135240085Y58633881D02*
X135382942Y58705310D01*
X135382942Y58705310D02*
X135811514Y58705310D01*
X135811514Y58705310D02*
X135954371Y58633881D01*
X135954371Y58633881D02*
X136025800Y58562453D01*
X136025800Y58562453D02*
X136097228Y58419596D01*
X136097228Y58419596D02*
X136097228Y58205310D01*
X136025800Y60419596D02*
X136097228Y60562453D01*
X136097228Y60562453D02*
X136097228Y60848167D01*
X136097228Y60848167D02*
X136025800Y60991024D01*
X136025800Y60991024D02*
X135882942Y61062453D01*
X135882942Y61062453D02*
X135811514Y61062453D01*
X135811514Y61062453D02*
X135668657Y60991024D01*
X135668657Y60991024D02*
X135597228Y60848167D01*
X135597228Y60848167D02*
X135597228Y60633881D01*
X135597228Y60633881D02*
X135525800Y60491024D01*
X135525800Y60491024D02*
X135382942Y60419596D01*
X135382942Y60419596D02*
X135311514Y60419596D01*
X135311514Y60419596D02*
X135168657Y60491024D01*
X135168657Y60491024D02*
X135097228Y60633881D01*
X135097228Y60633881D02*
X135097228Y60848167D01*
X135097228Y60848167D02*
X135168657Y60991024D01*
X136097228Y61705310D02*
X135097228Y61705310D01*
X135240085Y61705310D02*
X135168657Y61776739D01*
X135168657Y61776739D02*
X135097228Y61919596D01*
X135097228Y61919596D02*
X135097228Y62133882D01*
X135097228Y62133882D02*
X135168657Y62276739D01*
X135168657Y62276739D02*
X135311514Y62348167D01*
X135311514Y62348167D02*
X136097228Y62348167D01*
X135311514Y62348167D02*
X135168657Y62419596D01*
X135168657Y62419596D02*
X135097228Y62562453D01*
X135097228Y62562453D02*
X135097228Y62776739D01*
X135097228Y62776739D02*
X135168657Y62919596D01*
X135168657Y62919596D02*
X135311514Y62991025D01*
X135311514Y62991025D02*
X136097228Y62991025D01*
X136097228Y64348167D02*
X135311514Y64348167D01*
X135311514Y64348167D02*
X135168657Y64276739D01*
X135168657Y64276739D02*
X135097228Y64133882D01*
X135097228Y64133882D02*
X135097228Y63848167D01*
X135097228Y63848167D02*
X135168657Y63705310D01*
X136025800Y64348167D02*
X136097228Y64205310D01*
X136097228Y64205310D02*
X136097228Y63848167D01*
X136097228Y63848167D02*
X136025800Y63705310D01*
X136025800Y63705310D02*
X135882942Y63633882D01*
X135882942Y63633882D02*
X135740085Y63633882D01*
X135740085Y63633882D02*
X135597228Y63705310D01*
X135597228Y63705310D02*
X135525800Y63848167D01*
X135525800Y63848167D02*
X135525800Y64205310D01*
X135525800Y64205310D02*
X135454371Y64348167D01*
X136097228Y65276739D02*
X136025800Y65133882D01*
X136025800Y65133882D02*
X135882942Y65062453D01*
X135882942Y65062453D02*
X134597228Y65062453D01*
X136097228Y66062453D02*
X136025800Y65919596D01*
X136025800Y65919596D02*
X135882942Y65848167D01*
X135882942Y65848167D02*
X134597228Y65848167D01*
X136025800Y67205310D02*
X136097228Y67062453D01*
X136097228Y67062453D02*
X136097228Y66776738D01*
X136097228Y66776738D02*
X136025800Y66633881D01*
X136025800Y66633881D02*
X135882942Y66562453D01*
X135882942Y66562453D02*
X135311514Y66562453D01*
X135311514Y66562453D02*
X135168657Y66633881D01*
X135168657Y66633881D02*
X135097228Y66776738D01*
X135097228Y66776738D02*
X135097228Y67062453D01*
X135097228Y67062453D02*
X135168657Y67205310D01*
X135168657Y67205310D02*
X135311514Y67276738D01*
X135311514Y67276738D02*
X135454371Y67276738D01*
X135454371Y67276738D02*
X135597228Y66562453D01*
X136097228Y67919595D02*
X135097228Y67919595D01*
X135382942Y67919595D02*
X135240085Y67991024D01*
X135240085Y67991024D02*
X135168657Y68062452D01*
X135168657Y68062452D02*
X135097228Y68205310D01*
X135097228Y68205310D02*
X135097228Y68348167D01*
X136025800Y68919595D02*
X136097228Y68919595D01*
X136097228Y68919595D02*
X136240085Y68848166D01*
X136240085Y68848166D02*
X136311514Y68776738D01*
X136097228Y70705309D02*
X135097228Y70705309D01*
X135382942Y70705309D02*
X135240085Y70776738D01*
X135240085Y70776738D02*
X135168657Y70848166D01*
X135168657Y70848166D02*
X135097228Y70991024D01*
X135097228Y70991024D02*
X135097228Y71133881D01*
X136025800Y72205309D02*
X136097228Y72062452D01*
X136097228Y72062452D02*
X136097228Y71776737D01*
X136097228Y71776737D02*
X136025800Y71633880D01*
X136025800Y71633880D02*
X135882942Y71562452D01*
X135882942Y71562452D02*
X135311514Y71562452D01*
X135311514Y71562452D02*
X135168657Y71633880D01*
X135168657Y71633880D02*
X135097228Y71776737D01*
X135097228Y71776737D02*
X135097228Y72062452D01*
X135097228Y72062452D02*
X135168657Y72205309D01*
X135168657Y72205309D02*
X135311514Y72276737D01*
X135311514Y72276737D02*
X135454371Y72276737D01*
X135454371Y72276737D02*
X135597228Y71562452D01*
X136097228Y73562451D02*
X135311514Y73562451D01*
X135311514Y73562451D02*
X135168657Y73491023D01*
X135168657Y73491023D02*
X135097228Y73348166D01*
X135097228Y73348166D02*
X135097228Y73062451D01*
X135097228Y73062451D02*
X135168657Y72919594D01*
X136025800Y73562451D02*
X136097228Y73419594D01*
X136097228Y73419594D02*
X136097228Y73062451D01*
X136097228Y73062451D02*
X136025800Y72919594D01*
X136025800Y72919594D02*
X135882942Y72848166D01*
X135882942Y72848166D02*
X135740085Y72848166D01*
X135740085Y72848166D02*
X135597228Y72919594D01*
X135597228Y72919594D02*
X135525800Y73062451D01*
X135525800Y73062451D02*
X135525800Y73419594D01*
X135525800Y73419594D02*
X135454371Y73562451D01*
X136097228Y74276737D02*
X135097228Y74276737D01*
X135382942Y74276737D02*
X135240085Y74348166D01*
X135240085Y74348166D02*
X135168657Y74419594D01*
X135168657Y74419594D02*
X135097228Y74562452D01*
X135097228Y74562452D02*
X135097228Y74705309D01*
X136097228Y76348165D02*
X135097228Y76348165D01*
X135240085Y76348165D02*
X135168657Y76419594D01*
X135168657Y76419594D02*
X135097228Y76562451D01*
X135097228Y76562451D02*
X135097228Y76776737D01*
X135097228Y76776737D02*
X135168657Y76919594D01*
X135168657Y76919594D02*
X135311514Y76991022D01*
X135311514Y76991022D02*
X136097228Y76991022D01*
X135311514Y76991022D02*
X135168657Y77062451D01*
X135168657Y77062451D02*
X135097228Y77205308D01*
X135097228Y77205308D02*
X135097228Y77419594D01*
X135097228Y77419594D02*
X135168657Y77562451D01*
X135168657Y77562451D02*
X135311514Y77633880D01*
X135311514Y77633880D02*
X136097228Y77633880D01*
X136097228Y78562451D02*
X136025800Y78419594D01*
X136025800Y78419594D02*
X135954371Y78348165D01*
X135954371Y78348165D02*
X135811514Y78276737D01*
X135811514Y78276737D02*
X135382942Y78276737D01*
X135382942Y78276737D02*
X135240085Y78348165D01*
X135240085Y78348165D02*
X135168657Y78419594D01*
X135168657Y78419594D02*
X135097228Y78562451D01*
X135097228Y78562451D02*
X135097228Y78776737D01*
X135097228Y78776737D02*
X135168657Y78919594D01*
X135168657Y78919594D02*
X135240085Y78991022D01*
X135240085Y78991022D02*
X135382942Y79062451D01*
X135382942Y79062451D02*
X135811514Y79062451D01*
X135811514Y79062451D02*
X135954371Y78991022D01*
X135954371Y78991022D02*
X136025800Y78919594D01*
X136025800Y78919594D02*
X136097228Y78776737D01*
X136097228Y78776737D02*
X136097228Y78562451D01*
X135097228Y80348165D02*
X136097228Y80348165D01*
X135097228Y79705308D02*
X135882942Y79705308D01*
X135882942Y79705308D02*
X136025800Y79776737D01*
X136025800Y79776737D02*
X136097228Y79919594D01*
X136097228Y79919594D02*
X136097228Y80133880D01*
X136097228Y80133880D02*
X136025800Y80276737D01*
X136025800Y80276737D02*
X135954371Y80348165D01*
X135097228Y81062451D02*
X136097228Y81062451D01*
X135240085Y81062451D02*
X135168657Y81133880D01*
X135168657Y81133880D02*
X135097228Y81276737D01*
X135097228Y81276737D02*
X135097228Y81491023D01*
X135097228Y81491023D02*
X135168657Y81633880D01*
X135168657Y81633880D02*
X135311514Y81705308D01*
X135311514Y81705308D02*
X136097228Y81705308D01*
X135097228Y82205309D02*
X135097228Y82776737D01*
X134597228Y82419594D02*
X135882942Y82419594D01*
X135882942Y82419594D02*
X136025800Y82491023D01*
X136025800Y82491023D02*
X136097228Y82633880D01*
X136097228Y82633880D02*
X136097228Y82776737D01*
X136097228Y84419594D02*
X135097228Y84419594D01*
X135240085Y84419594D02*
X135168657Y84491023D01*
X135168657Y84491023D02*
X135097228Y84633880D01*
X135097228Y84633880D02*
X135097228Y84848166D01*
X135097228Y84848166D02*
X135168657Y84991023D01*
X135168657Y84991023D02*
X135311514Y85062451D01*
X135311514Y85062451D02*
X136097228Y85062451D01*
X135311514Y85062451D02*
X135168657Y85133880D01*
X135168657Y85133880D02*
X135097228Y85276737D01*
X135097228Y85276737D02*
X135097228Y85491023D01*
X135097228Y85491023D02*
X135168657Y85633880D01*
X135168657Y85633880D02*
X135311514Y85705309D01*
X135311514Y85705309D02*
X136097228Y85705309D01*
X135097228Y87062451D02*
X136097228Y87062451D01*
X135097228Y86419594D02*
X135882942Y86419594D01*
X135882942Y86419594D02*
X136025800Y86491023D01*
X136025800Y86491023D02*
X136097228Y86633880D01*
X136097228Y86633880D02*
X136097228Y86848166D01*
X136097228Y86848166D02*
X136025800Y86991023D01*
X136025800Y86991023D02*
X135954371Y87062451D01*
X136025800Y87705309D02*
X136097228Y87848166D01*
X136097228Y87848166D02*
X136097228Y88133880D01*
X136097228Y88133880D02*
X136025800Y88276737D01*
X136025800Y88276737D02*
X135882942Y88348166D01*
X135882942Y88348166D02*
X135811514Y88348166D01*
X135811514Y88348166D02*
X135668657Y88276737D01*
X135668657Y88276737D02*
X135597228Y88133880D01*
X135597228Y88133880D02*
X135597228Y87919594D01*
X135597228Y87919594D02*
X135525800Y87776737D01*
X135525800Y87776737D02*
X135382942Y87705309D01*
X135382942Y87705309D02*
X135311514Y87705309D01*
X135311514Y87705309D02*
X135168657Y87776737D01*
X135168657Y87776737D02*
X135097228Y87919594D01*
X135097228Y87919594D02*
X135097228Y88133880D01*
X135097228Y88133880D02*
X135168657Y88276737D01*
X135097228Y88776738D02*
X135097228Y89348166D01*
X134597228Y88991023D02*
X135882942Y88991023D01*
X135882942Y88991023D02*
X136025800Y89062452D01*
X136025800Y89062452D02*
X136097228Y89205309D01*
X136097228Y89205309D02*
X136097228Y89348166D01*
X136097228Y91205309D02*
X136025800Y91062452D01*
X136025800Y91062452D02*
X135954371Y90991023D01*
X135954371Y90991023D02*
X135811514Y90919595D01*
X135811514Y90919595D02*
X135382942Y90919595D01*
X135382942Y90919595D02*
X135240085Y90991023D01*
X135240085Y90991023D02*
X135168657Y91062452D01*
X135168657Y91062452D02*
X135097228Y91205309D01*
X135097228Y91205309D02*
X135097228Y91419595D01*
X135097228Y91419595D02*
X135168657Y91562452D01*
X135168657Y91562452D02*
X135240085Y91633880D01*
X135240085Y91633880D02*
X135382942Y91705309D01*
X135382942Y91705309D02*
X135811514Y91705309D01*
X135811514Y91705309D02*
X135954371Y91633880D01*
X135954371Y91633880D02*
X136025800Y91562452D01*
X136025800Y91562452D02*
X136097228Y91419595D01*
X136097228Y91419595D02*
X136097228Y91205309D01*
X135097228Y92205309D02*
X136097228Y92562452D01*
X136097228Y92562452D02*
X135097228Y92919595D01*
X136025800Y94062452D02*
X136097228Y93919595D01*
X136097228Y93919595D02*
X136097228Y93633880D01*
X136097228Y93633880D02*
X136025800Y93491023D01*
X136025800Y93491023D02*
X135882942Y93419595D01*
X135882942Y93419595D02*
X135311514Y93419595D01*
X135311514Y93419595D02*
X135168657Y93491023D01*
X135168657Y93491023D02*
X135097228Y93633880D01*
X135097228Y93633880D02*
X135097228Y93919595D01*
X135097228Y93919595D02*
X135168657Y94062452D01*
X135168657Y94062452D02*
X135311514Y94133880D01*
X135311514Y94133880D02*
X135454371Y94133880D01*
X135454371Y94133880D02*
X135597228Y93419595D01*
X136097228Y94776737D02*
X135097228Y94776737D01*
X135382942Y94776737D02*
X135240085Y94848166D01*
X135240085Y94848166D02*
X135168657Y94919594D01*
X135168657Y94919594D02*
X135097228Y95062452D01*
X135097228Y95062452D02*
X135097228Y95205309D01*
X136097228Y95919594D02*
X136025800Y95776737D01*
X136025800Y95776737D02*
X135882942Y95705308D01*
X135882942Y95705308D02*
X134597228Y95705308D01*
X136097228Y97133879D02*
X135311514Y97133879D01*
X135311514Y97133879D02*
X135168657Y97062451D01*
X135168657Y97062451D02*
X135097228Y96919594D01*
X135097228Y96919594D02*
X135097228Y96633879D01*
X135097228Y96633879D02*
X135168657Y96491022D01*
X136025800Y97133879D02*
X136097228Y96991022D01*
X136097228Y96991022D02*
X136097228Y96633879D01*
X136097228Y96633879D02*
X136025800Y96491022D01*
X136025800Y96491022D02*
X135882942Y96419594D01*
X135882942Y96419594D02*
X135740085Y96419594D01*
X135740085Y96419594D02*
X135597228Y96491022D01*
X135597228Y96491022D02*
X135525800Y96633879D01*
X135525800Y96633879D02*
X135525800Y96991022D01*
X135525800Y96991022D02*
X135454371Y97133879D01*
X135097228Y97848165D02*
X136597228Y97848165D01*
X135168657Y97848165D02*
X135097228Y97991022D01*
X135097228Y97991022D02*
X135097228Y98276737D01*
X135097228Y98276737D02*
X135168657Y98419594D01*
X135168657Y98419594D02*
X135240085Y98491022D01*
X135240085Y98491022D02*
X135382942Y98562451D01*
X135382942Y98562451D02*
X135811514Y98562451D01*
X135811514Y98562451D02*
X135954371Y98491022D01*
X135954371Y98491022D02*
X136025800Y98419594D01*
X136025800Y98419594D02*
X136097228Y98276737D01*
X136097228Y98276737D02*
X136097228Y97991022D01*
X136097228Y97991022D02*
X136025800Y97848165D01*
X135097228Y100205308D02*
X136097228Y100491022D01*
X136097228Y100491022D02*
X135382942Y100776737D01*
X135382942Y100776737D02*
X136097228Y101062451D01*
X136097228Y101062451D02*
X135097228Y101348165D01*
X136097228Y101919594D02*
X135097228Y101919594D01*
X134597228Y101919594D02*
X134668657Y101848166D01*
X134668657Y101848166D02*
X134740085Y101919594D01*
X134740085Y101919594D02*
X134668657Y101991023D01*
X134668657Y101991023D02*
X134597228Y101919594D01*
X134597228Y101919594D02*
X134740085Y101919594D01*
X135097228Y102419595D02*
X135097228Y102991023D01*
X134597228Y102633880D02*
X135882942Y102633880D01*
X135882942Y102633880D02*
X136025800Y102705309D01*
X136025800Y102705309D02*
X136097228Y102848166D01*
X136097228Y102848166D02*
X136097228Y102991023D01*
X136097228Y103491023D02*
X134597228Y103491023D01*
X136097228Y104133880D02*
X135311514Y104133880D01*
X135311514Y104133880D02*
X135168657Y104062452D01*
X135168657Y104062452D02*
X135097228Y103919595D01*
X135097228Y103919595D02*
X135097228Y103705309D01*
X135097228Y103705309D02*
X135168657Y103562452D01*
X135168657Y103562452D02*
X135240085Y103491023D01*
X135097228Y105991023D02*
X136597228Y105991023D01*
X135168657Y105991023D02*
X135097228Y106133880D01*
X135097228Y106133880D02*
X135097228Y106419595D01*
X135097228Y106419595D02*
X135168657Y106562452D01*
X135168657Y106562452D02*
X135240085Y106633880D01*
X135240085Y106633880D02*
X135382942Y106705309D01*
X135382942Y106705309D02*
X135811514Y106705309D01*
X135811514Y106705309D02*
X135954371Y106633880D01*
X135954371Y106633880D02*
X136025800Y106562452D01*
X136025800Y106562452D02*
X136097228Y106419595D01*
X136097228Y106419595D02*
X136097228Y106133880D01*
X136097228Y106133880D02*
X136025800Y105991023D01*
X136097228Y107991023D02*
X135311514Y107991023D01*
X135311514Y107991023D02*
X135168657Y107919595D01*
X135168657Y107919595D02*
X135097228Y107776738D01*
X135097228Y107776738D02*
X135097228Y107491023D01*
X135097228Y107491023D02*
X135168657Y107348166D01*
X136025800Y107991023D02*
X136097228Y107848166D01*
X136097228Y107848166D02*
X136097228Y107491023D01*
X136097228Y107491023D02*
X136025800Y107348166D01*
X136025800Y107348166D02*
X135882942Y107276738D01*
X135882942Y107276738D02*
X135740085Y107276738D01*
X135740085Y107276738D02*
X135597228Y107348166D01*
X135597228Y107348166D02*
X135525800Y107491023D01*
X135525800Y107491023D02*
X135525800Y107848166D01*
X135525800Y107848166D02*
X135454371Y107991023D01*
X136097228Y109348166D02*
X134597228Y109348166D01*
X136025800Y109348166D02*
X136097228Y109205309D01*
X136097228Y109205309D02*
X136097228Y108919595D01*
X136097228Y108919595D02*
X136025800Y108776738D01*
X136025800Y108776738D02*
X135954371Y108705309D01*
X135954371Y108705309D02*
X135811514Y108633881D01*
X135811514Y108633881D02*
X135382942Y108633881D01*
X135382942Y108633881D02*
X135240085Y108705309D01*
X135240085Y108705309D02*
X135168657Y108776738D01*
X135168657Y108776738D02*
X135097228Y108919595D01*
X135097228Y108919595D02*
X135097228Y109205309D01*
X135097228Y109205309D02*
X135168657Y109348166D01*
X136025800Y109991024D02*
X136097228Y110133881D01*
X136097228Y110133881D02*
X136097228Y110419595D01*
X136097228Y110419595D02*
X136025800Y110562452D01*
X136025800Y110562452D02*
X135882942Y110633881D01*
X135882942Y110633881D02*
X135811514Y110633881D01*
X135811514Y110633881D02*
X135668657Y110562452D01*
X135668657Y110562452D02*
X135597228Y110419595D01*
X135597228Y110419595D02*
X135597228Y110205309D01*
X135597228Y110205309D02*
X135525800Y110062452D01*
X135525800Y110062452D02*
X135382942Y109991024D01*
X135382942Y109991024D02*
X135311514Y109991024D01*
X135311514Y109991024D02*
X135168657Y110062452D01*
X135168657Y110062452D02*
X135097228Y110205309D01*
X135097228Y110205309D02*
X135097228Y110419595D01*
X135097228Y110419595D02*
X135168657Y110562452D01*
X136668657Y111133881D02*
X136597228Y111205310D01*
X136597228Y111205310D02*
X136382942Y111348167D01*
X136382942Y111348167D02*
X136240085Y111419595D01*
X136240085Y111419595D02*
X136025800Y111491024D01*
X136025800Y111491024D02*
X135668657Y111562453D01*
X135668657Y111562453D02*
X135382942Y111562453D01*
X135382942Y111562453D02*
X135025800Y111491024D01*
X135025800Y111491024D02*
X134811514Y111419595D01*
X134811514Y111419595D02*
X134668657Y111348167D01*
X134668657Y111348167D02*
X134454371Y111205310D01*
X134454371Y111205310D02*
X134382942Y111133881D01*
X5162630Y38779826D02*
X5162630Y37922683D01*
X5162630Y38351254D02*
X3662630Y38351254D01*
X3662630Y38351254D02*
X3876916Y38208397D01*
X3876916Y38208397D02*
X4019773Y38065540D01*
X4019773Y38065540D02*
X4091202Y37922683D01*
X3662630Y39708397D02*
X3662630Y39851254D01*
X3662630Y39851254D02*
X3734059Y39994111D01*
X3734059Y39994111D02*
X3805487Y40065539D01*
X3805487Y40065539D02*
X3948344Y40136968D01*
X3948344Y40136968D02*
X4234059Y40208397D01*
X4234059Y40208397D02*
X4591202Y40208397D01*
X4591202Y40208397D02*
X4876916Y40136968D01*
X4876916Y40136968D02*
X5019773Y40065539D01*
X5019773Y40065539D02*
X5091202Y39994111D01*
X5091202Y39994111D02*
X5162630Y39851254D01*
X5162630Y39851254D02*
X5162630Y39708397D01*
X5162630Y39708397D02*
X5091202Y39565539D01*
X5091202Y39565539D02*
X5019773Y39494111D01*
X5019773Y39494111D02*
X4876916Y39422682D01*
X4876916Y39422682D02*
X4591202Y39351254D01*
X4591202Y39351254D02*
X4234059Y39351254D01*
X4234059Y39351254D02*
X3948344Y39422682D01*
X3948344Y39422682D02*
X3805487Y39494111D01*
X3805487Y39494111D02*
X3734059Y39565539D01*
X3734059Y39565539D02*
X3662630Y39708397D01*
X5162630Y40851253D02*
X4162630Y40851253D01*
X4305487Y40851253D02*
X4234059Y40922682D01*
X4234059Y40922682D02*
X4162630Y41065539D01*
X4162630Y41065539D02*
X4162630Y41279825D01*
X4162630Y41279825D02*
X4234059Y41422682D01*
X4234059Y41422682D02*
X4376916Y41494110D01*
X4376916Y41494110D02*
X5162630Y41494110D01*
X4376916Y41494110D02*
X4234059Y41565539D01*
X4234059Y41565539D02*
X4162630Y41708396D01*
X4162630Y41708396D02*
X4162630Y41922682D01*
X4162630Y41922682D02*
X4234059Y42065539D01*
X4234059Y42065539D02*
X4376916Y42136968D01*
X4376916Y42136968D02*
X5162630Y42136968D01*
X5162630Y42851253D02*
X4162630Y42851253D01*
X4305487Y42851253D02*
X4234059Y42922682D01*
X4234059Y42922682D02*
X4162630Y43065539D01*
X4162630Y43065539D02*
X4162630Y43279825D01*
X4162630Y43279825D02*
X4234059Y43422682D01*
X4234059Y43422682D02*
X4376916Y43494110D01*
X4376916Y43494110D02*
X5162630Y43494110D01*
X4376916Y43494110D02*
X4234059Y43565539D01*
X4234059Y43565539D02*
X4162630Y43708396D01*
X4162630Y43708396D02*
X4162630Y43922682D01*
X4162630Y43922682D02*
X4234059Y44065539D01*
X4234059Y44065539D02*
X4376916Y44136968D01*
X4376916Y44136968D02*
X5162630Y44136968D01*
X5162630Y46208396D02*
X5091202Y46065539D01*
X5091202Y46065539D02*
X5019773Y45994110D01*
X5019773Y45994110D02*
X4876916Y45922682D01*
X4876916Y45922682D02*
X4448344Y45922682D01*
X4448344Y45922682D02*
X4305487Y45994110D01*
X4305487Y45994110D02*
X4234059Y46065539D01*
X4234059Y46065539D02*
X4162630Y46208396D01*
X4162630Y46208396D02*
X4162630Y46422682D01*
X4162630Y46422682D02*
X4234059Y46565539D01*
X4234059Y46565539D02*
X4305487Y46636967D01*
X4305487Y46636967D02*
X4448344Y46708396D01*
X4448344Y46708396D02*
X4876916Y46708396D01*
X4876916Y46708396D02*
X5019773Y46636967D01*
X5019773Y46636967D02*
X5091202Y46565539D01*
X5091202Y46565539D02*
X5162630Y46422682D01*
X5162630Y46422682D02*
X5162630Y46208396D01*
X4162630Y47994110D02*
X5162630Y47994110D01*
X4162630Y47351253D02*
X4948344Y47351253D01*
X4948344Y47351253D02*
X5091202Y47422682D01*
X5091202Y47422682D02*
X5162630Y47565539D01*
X5162630Y47565539D02*
X5162630Y47779825D01*
X5162630Y47779825D02*
X5091202Y47922682D01*
X5091202Y47922682D02*
X5019773Y47994110D01*
X4162630Y48494111D02*
X4162630Y49065539D01*
X3662630Y48708396D02*
X4948344Y48708396D01*
X4948344Y48708396D02*
X5091202Y48779825D01*
X5091202Y48779825D02*
X5162630Y48922682D01*
X5162630Y48922682D02*
X5162630Y49065539D01*
X5091202Y50136968D02*
X5162630Y49994111D01*
X5162630Y49994111D02*
X5162630Y49708396D01*
X5162630Y49708396D02*
X5091202Y49565539D01*
X5091202Y49565539D02*
X4948344Y49494111D01*
X4948344Y49494111D02*
X4376916Y49494111D01*
X4376916Y49494111D02*
X4234059Y49565539D01*
X4234059Y49565539D02*
X4162630Y49708396D01*
X4162630Y49708396D02*
X4162630Y49994111D01*
X4162630Y49994111D02*
X4234059Y50136968D01*
X4234059Y50136968D02*
X4376916Y50208396D01*
X4376916Y50208396D02*
X4519773Y50208396D01*
X4519773Y50208396D02*
X4662630Y49494111D01*
X5162630Y50851253D02*
X4162630Y50851253D01*
X4448344Y50851253D02*
X4305487Y50922682D01*
X4305487Y50922682D02*
X4234059Y50994110D01*
X4234059Y50994110D02*
X4162630Y51136968D01*
X4162630Y51136968D02*
X4162630Y51279825D01*
X5091202Y51851253D02*
X5162630Y51851253D01*
X5162630Y51851253D02*
X5305487Y51779824D01*
X5305487Y51779824D02*
X5376916Y51708396D01*
X4162630Y54279824D02*
X5162630Y54279824D01*
X3591202Y53922682D02*
X4662630Y53565539D01*
X4662630Y53565539D02*
X4662630Y54494110D01*
X5162630Y55065538D02*
X4162630Y55065538D01*
X4305487Y55065538D02*
X4234059Y55136967D01*
X4234059Y55136967D02*
X4162630Y55279824D01*
X4162630Y55279824D02*
X4162630Y55494110D01*
X4162630Y55494110D02*
X4234059Y55636967D01*
X4234059Y55636967D02*
X4376916Y55708395D01*
X4376916Y55708395D02*
X5162630Y55708395D01*
X4376916Y55708395D02*
X4234059Y55779824D01*
X4234059Y55779824D02*
X4162630Y55922681D01*
X4162630Y55922681D02*
X4162630Y56136967D01*
X4162630Y56136967D02*
X4234059Y56279824D01*
X4234059Y56279824D02*
X4376916Y56351253D01*
X4376916Y56351253D02*
X5162630Y56351253D01*
X5162630Y57065538D02*
X4162630Y57065538D01*
X4305487Y57065538D02*
X4234059Y57136967D01*
X4234059Y57136967D02*
X4162630Y57279824D01*
X4162630Y57279824D02*
X4162630Y57494110D01*
X4162630Y57494110D02*
X4234059Y57636967D01*
X4234059Y57636967D02*
X4376916Y57708395D01*
X4376916Y57708395D02*
X5162630Y57708395D01*
X4376916Y57708395D02*
X4234059Y57779824D01*
X4234059Y57779824D02*
X4162630Y57922681D01*
X4162630Y57922681D02*
X4162630Y58136967D01*
X4162630Y58136967D02*
X4234059Y58279824D01*
X4234059Y58279824D02*
X4376916Y58351253D01*
X4376916Y58351253D02*
X5162630Y58351253D01*
X5162630Y60208395D02*
X4162630Y60208395D01*
X3662630Y60208395D02*
X3734059Y60136967D01*
X3734059Y60136967D02*
X3805487Y60208395D01*
X3805487Y60208395D02*
X3734059Y60279824D01*
X3734059Y60279824D02*
X3662630Y60208395D01*
X3662630Y60208395D02*
X3805487Y60208395D01*
X4162630Y60922681D02*
X5162630Y60922681D01*
X4305487Y60922681D02*
X4234059Y60994110D01*
X4234059Y60994110D02*
X4162630Y61136967D01*
X4162630Y61136967D02*
X4162630Y61351253D01*
X4162630Y61351253D02*
X4234059Y61494110D01*
X4234059Y61494110D02*
X4376916Y61565538D01*
X4376916Y61565538D02*
X5162630Y61565538D01*
X4162630Y62279824D02*
X5162630Y62279824D01*
X4305487Y62279824D02*
X4234059Y62351253D01*
X4234059Y62351253D02*
X4162630Y62494110D01*
X4162630Y62494110D02*
X4162630Y62708396D01*
X4162630Y62708396D02*
X4234059Y62851253D01*
X4234059Y62851253D02*
X4376916Y62922681D01*
X4376916Y62922681D02*
X5162630Y62922681D01*
X5091202Y64208396D02*
X5162630Y64065539D01*
X5162630Y64065539D02*
X5162630Y63779824D01*
X5162630Y63779824D02*
X5091202Y63636967D01*
X5091202Y63636967D02*
X4948344Y63565539D01*
X4948344Y63565539D02*
X4376916Y63565539D01*
X4376916Y63565539D02*
X4234059Y63636967D01*
X4234059Y63636967D02*
X4162630Y63779824D01*
X4162630Y63779824D02*
X4162630Y64065539D01*
X4162630Y64065539D02*
X4234059Y64208396D01*
X4234059Y64208396D02*
X4376916Y64279824D01*
X4376916Y64279824D02*
X4519773Y64279824D01*
X4519773Y64279824D02*
X4662630Y63565539D01*
X5162630Y64922681D02*
X4162630Y64922681D01*
X4448344Y64922681D02*
X4305487Y64994110D01*
X4305487Y64994110D02*
X4234059Y65065538D01*
X4234059Y65065538D02*
X4162630Y65208396D01*
X4162630Y65208396D02*
X4162630Y65351253D01*
X57179325Y92899407D02*
X57107897Y92970835D01*
X57107897Y92970835D02*
X57036468Y93113692D01*
X57036468Y93113692D02*
X57036468Y93470835D01*
X57036468Y93470835D02*
X57107897Y93613692D01*
X57107897Y93613692D02*
X57179325Y93685121D01*
X57179325Y93685121D02*
X57322182Y93756550D01*
X57322182Y93756550D02*
X57465040Y93756550D01*
X57465040Y93756550D02*
X57679325Y93685121D01*
X57679325Y93685121D02*
X58536468Y92827978D01*
X58536468Y92827978D02*
X58536468Y93756550D01*
X57036468Y94685121D02*
X57036468Y94827978D01*
X57036468Y94827978D02*
X57107897Y94970835D01*
X57107897Y94970835D02*
X57179325Y95042263D01*
X57179325Y95042263D02*
X57322182Y95113692D01*
X57322182Y95113692D02*
X57607897Y95185121D01*
X57607897Y95185121D02*
X57965040Y95185121D01*
X57965040Y95185121D02*
X58250754Y95113692D01*
X58250754Y95113692D02*
X58393611Y95042263D01*
X58393611Y95042263D02*
X58465040Y94970835D01*
X58465040Y94970835D02*
X58536468Y94827978D01*
X58536468Y94827978D02*
X58536468Y94685121D01*
X58536468Y94685121D02*
X58465040Y94542263D01*
X58465040Y94542263D02*
X58393611Y94470835D01*
X58393611Y94470835D02*
X58250754Y94399406D01*
X58250754Y94399406D02*
X57965040Y94327978D01*
X57965040Y94327978D02*
X57607897Y94327978D01*
X57607897Y94327978D02*
X57322182Y94399406D01*
X57322182Y94399406D02*
X57179325Y94470835D01*
X57179325Y94470835D02*
X57107897Y94542263D01*
X57107897Y94542263D02*
X57036468Y94685121D01*
X58536468Y95827977D02*
X57536468Y95827977D01*
X57679325Y95827977D02*
X57607897Y95899406D01*
X57607897Y95899406D02*
X57536468Y96042263D01*
X57536468Y96042263D02*
X57536468Y96256549D01*
X57536468Y96256549D02*
X57607897Y96399406D01*
X57607897Y96399406D02*
X57750754Y96470834D01*
X57750754Y96470834D02*
X58536468Y96470834D01*
X57750754Y96470834D02*
X57607897Y96542263D01*
X57607897Y96542263D02*
X57536468Y96685120D01*
X57536468Y96685120D02*
X57536468Y96899406D01*
X57536468Y96899406D02*
X57607897Y97042263D01*
X57607897Y97042263D02*
X57750754Y97113692D01*
X57750754Y97113692D02*
X58536468Y97113692D01*
X58536468Y97827977D02*
X57536468Y97827977D01*
X57679325Y97827977D02*
X57607897Y97899406D01*
X57607897Y97899406D02*
X57536468Y98042263D01*
X57536468Y98042263D02*
X57536468Y98256549D01*
X57536468Y98256549D02*
X57607897Y98399406D01*
X57607897Y98399406D02*
X57750754Y98470834D01*
X57750754Y98470834D02*
X58536468Y98470834D01*
X57750754Y98470834D02*
X57607897Y98542263D01*
X57607897Y98542263D02*
X57536468Y98685120D01*
X57536468Y98685120D02*
X57536468Y98899406D01*
X57536468Y98899406D02*
X57607897Y99042263D01*
X57607897Y99042263D02*
X57750754Y99113692D01*
X57750754Y99113692D02*
X58536468Y99113692D01*
X58536468Y101185120D02*
X58465040Y101042263D01*
X58465040Y101042263D02*
X58393611Y100970834D01*
X58393611Y100970834D02*
X58250754Y100899406D01*
X58250754Y100899406D02*
X57822182Y100899406D01*
X57822182Y100899406D02*
X57679325Y100970834D01*
X57679325Y100970834D02*
X57607897Y101042263D01*
X57607897Y101042263D02*
X57536468Y101185120D01*
X57536468Y101185120D02*
X57536468Y101399406D01*
X57536468Y101399406D02*
X57607897Y101542263D01*
X57607897Y101542263D02*
X57679325Y101613691D01*
X57679325Y101613691D02*
X57822182Y101685120D01*
X57822182Y101685120D02*
X58250754Y101685120D01*
X58250754Y101685120D02*
X58393611Y101613691D01*
X58393611Y101613691D02*
X58465040Y101542263D01*
X58465040Y101542263D02*
X58536468Y101399406D01*
X58536468Y101399406D02*
X58536468Y101185120D01*
X57536468Y102970834D02*
X58536468Y102970834D01*
X57536468Y102327977D02*
X58322182Y102327977D01*
X58322182Y102327977D02*
X58465040Y102399406D01*
X58465040Y102399406D02*
X58536468Y102542263D01*
X58536468Y102542263D02*
X58536468Y102756549D01*
X58536468Y102756549D02*
X58465040Y102899406D01*
X58465040Y102899406D02*
X58393611Y102970834D01*
X57536468Y103470835D02*
X57536468Y104042263D01*
X57036468Y103685120D02*
X58322182Y103685120D01*
X58322182Y103685120D02*
X58465040Y103756549D01*
X58465040Y103756549D02*
X58536468Y103899406D01*
X58536468Y103899406D02*
X58536468Y104042263D01*
X58465040Y105113692D02*
X58536468Y104970835D01*
X58536468Y104970835D02*
X58536468Y104685120D01*
X58536468Y104685120D02*
X58465040Y104542263D01*
X58465040Y104542263D02*
X58322182Y104470835D01*
X58322182Y104470835D02*
X57750754Y104470835D01*
X57750754Y104470835D02*
X57607897Y104542263D01*
X57607897Y104542263D02*
X57536468Y104685120D01*
X57536468Y104685120D02*
X57536468Y104970835D01*
X57536468Y104970835D02*
X57607897Y105113692D01*
X57607897Y105113692D02*
X57750754Y105185120D01*
X57750754Y105185120D02*
X57893611Y105185120D01*
X57893611Y105185120D02*
X58036468Y104470835D01*
X58536468Y105827977D02*
X57536468Y105827977D01*
X57822182Y105827977D02*
X57679325Y105899406D01*
X57679325Y105899406D02*
X57607897Y105970834D01*
X57607897Y105970834D02*
X57536468Y106113692D01*
X57536468Y106113692D02*
X57536468Y106256549D01*
X58465040Y106827977D02*
X58536468Y106827977D01*
X58536468Y106827977D02*
X58679325Y106756548D01*
X58679325Y106756548D02*
X58750754Y106685120D01*
X58536468Y109399406D02*
X58536468Y108542263D01*
X58536468Y108970834D02*
X57036468Y108970834D01*
X57036468Y108970834D02*
X57250754Y108827977D01*
X57250754Y108827977D02*
X57393611Y108685120D01*
X57393611Y108685120D02*
X57465040Y108542263D01*
X57036468Y110327977D02*
X57036468Y110470834D01*
X57036468Y110470834D02*
X57107897Y110613691D01*
X57107897Y110613691D02*
X57179325Y110685119D01*
X57179325Y110685119D02*
X57322182Y110756548D01*
X57322182Y110756548D02*
X57607897Y110827977D01*
X57607897Y110827977D02*
X57965040Y110827977D01*
X57965040Y110827977D02*
X58250754Y110756548D01*
X58250754Y110756548D02*
X58393611Y110685119D01*
X58393611Y110685119D02*
X58465040Y110613691D01*
X58465040Y110613691D02*
X58536468Y110470834D01*
X58536468Y110470834D02*
X58536468Y110327977D01*
X58536468Y110327977D02*
X58465040Y110185119D01*
X58465040Y110185119D02*
X58393611Y110113691D01*
X58393611Y110113691D02*
X58250754Y110042262D01*
X58250754Y110042262D02*
X57965040Y109970834D01*
X57965040Y109970834D02*
X57607897Y109970834D01*
X57607897Y109970834D02*
X57322182Y110042262D01*
X57322182Y110042262D02*
X57179325Y110113691D01*
X57179325Y110113691D02*
X57107897Y110185119D01*
X57107897Y110185119D02*
X57036468Y110327977D01*
X58536468Y111470833D02*
X57536468Y111470833D01*
X57679325Y111470833D02*
X57607897Y111542262D01*
X57607897Y111542262D02*
X57536468Y111685119D01*
X57536468Y111685119D02*
X57536468Y111899405D01*
X57536468Y111899405D02*
X57607897Y112042262D01*
X57607897Y112042262D02*
X57750754Y112113690D01*
X57750754Y112113690D02*
X58536468Y112113690D01*
X57750754Y112113690D02*
X57607897Y112185119D01*
X57607897Y112185119D02*
X57536468Y112327976D01*
X57536468Y112327976D02*
X57536468Y112542262D01*
X57536468Y112542262D02*
X57607897Y112685119D01*
X57607897Y112685119D02*
X57750754Y112756548D01*
X57750754Y112756548D02*
X58536468Y112756548D01*
X58536468Y113470833D02*
X57536468Y113470833D01*
X57679325Y113470833D02*
X57607897Y113542262D01*
X57607897Y113542262D02*
X57536468Y113685119D01*
X57536468Y113685119D02*
X57536468Y113899405D01*
X57536468Y113899405D02*
X57607897Y114042262D01*
X57607897Y114042262D02*
X57750754Y114113690D01*
X57750754Y114113690D02*
X58536468Y114113690D01*
X57750754Y114113690D02*
X57607897Y114185119D01*
X57607897Y114185119D02*
X57536468Y114327976D01*
X57536468Y114327976D02*
X57536468Y114542262D01*
X57536468Y114542262D02*
X57607897Y114685119D01*
X57607897Y114685119D02*
X57750754Y114756548D01*
X57750754Y114756548D02*
X58536468Y114756548D01*
X58536468Y116613690D02*
X57536468Y116613690D01*
X57036468Y116613690D02*
X57107897Y116542262D01*
X57107897Y116542262D02*
X57179325Y116613690D01*
X57179325Y116613690D02*
X57107897Y116685119D01*
X57107897Y116685119D02*
X57036468Y116613690D01*
X57036468Y116613690D02*
X57179325Y116613690D01*
X57536468Y117327976D02*
X58536468Y117327976D01*
X57679325Y117327976D02*
X57607897Y117399405D01*
X57607897Y117399405D02*
X57536468Y117542262D01*
X57536468Y117542262D02*
X57536468Y117756548D01*
X57536468Y117756548D02*
X57607897Y117899405D01*
X57607897Y117899405D02*
X57750754Y117970833D01*
X57750754Y117970833D02*
X58536468Y117970833D01*
X57536468Y118685119D02*
X58536468Y118685119D01*
X57679325Y118685119D02*
X57607897Y118756548D01*
X57607897Y118756548D02*
X57536468Y118899405D01*
X57536468Y118899405D02*
X57536468Y119113691D01*
X57536468Y119113691D02*
X57607897Y119256548D01*
X57607897Y119256548D02*
X57750754Y119327976D01*
X57750754Y119327976D02*
X58536468Y119327976D01*
X58465040Y120613691D02*
X58536468Y120470834D01*
X58536468Y120470834D02*
X58536468Y120185119D01*
X58536468Y120185119D02*
X58465040Y120042262D01*
X58465040Y120042262D02*
X58322182Y119970834D01*
X58322182Y119970834D02*
X57750754Y119970834D01*
X57750754Y119970834D02*
X57607897Y120042262D01*
X57607897Y120042262D02*
X57536468Y120185119D01*
X57536468Y120185119D02*
X57536468Y120470834D01*
X57536468Y120470834D02*
X57607897Y120613691D01*
X57607897Y120613691D02*
X57750754Y120685119D01*
X57750754Y120685119D02*
X57893611Y120685119D01*
X57893611Y120685119D02*
X58036468Y119970834D01*
X58536468Y121327976D02*
X57536468Y121327976D01*
X57822182Y121327976D02*
X57679325Y121399405D01*
X57679325Y121399405D02*
X57607897Y121470833D01*
X57607897Y121470833D02*
X57536468Y121613691D01*
X57536468Y121613691D02*
X57536468Y121756548D01*
X57536468Y39365426D02*
X57536468Y38508283D01*
X57536468Y38936854D02*
X56036468Y38936854D01*
X56036468Y38936854D02*
X56250754Y38793997D01*
X56250754Y38793997D02*
X56393611Y38651140D01*
X56393611Y38651140D02*
X56465040Y38508283D01*
X56036468Y40293997D02*
X56036468Y40436854D01*
X56036468Y40436854D02*
X56107897Y40579711D01*
X56107897Y40579711D02*
X56179325Y40651139D01*
X56179325Y40651139D02*
X56322182Y40722568D01*
X56322182Y40722568D02*
X56607897Y40793997D01*
X56607897Y40793997D02*
X56965040Y40793997D01*
X56965040Y40793997D02*
X57250754Y40722568D01*
X57250754Y40722568D02*
X57393611Y40651139D01*
X57393611Y40651139D02*
X57465040Y40579711D01*
X57465040Y40579711D02*
X57536468Y40436854D01*
X57536468Y40436854D02*
X57536468Y40293997D01*
X57536468Y40293997D02*
X57465040Y40151139D01*
X57465040Y40151139D02*
X57393611Y40079711D01*
X57393611Y40079711D02*
X57250754Y40008282D01*
X57250754Y40008282D02*
X56965040Y39936854D01*
X56965040Y39936854D02*
X56607897Y39936854D01*
X56607897Y39936854D02*
X56322182Y40008282D01*
X56322182Y40008282D02*
X56179325Y40079711D01*
X56179325Y40079711D02*
X56107897Y40151139D01*
X56107897Y40151139D02*
X56036468Y40293997D01*
X57536468Y41436853D02*
X56536468Y41436853D01*
X56679325Y41436853D02*
X56607897Y41508282D01*
X56607897Y41508282D02*
X56536468Y41651139D01*
X56536468Y41651139D02*
X56536468Y41865425D01*
X56536468Y41865425D02*
X56607897Y42008282D01*
X56607897Y42008282D02*
X56750754Y42079710D01*
X56750754Y42079710D02*
X57536468Y42079710D01*
X56750754Y42079710D02*
X56607897Y42151139D01*
X56607897Y42151139D02*
X56536468Y42293996D01*
X56536468Y42293996D02*
X56536468Y42508282D01*
X56536468Y42508282D02*
X56607897Y42651139D01*
X56607897Y42651139D02*
X56750754Y42722568D01*
X56750754Y42722568D02*
X57536468Y42722568D01*
X57536468Y43436853D02*
X56536468Y43436853D01*
X56679325Y43436853D02*
X56607897Y43508282D01*
X56607897Y43508282D02*
X56536468Y43651139D01*
X56536468Y43651139D02*
X56536468Y43865425D01*
X56536468Y43865425D02*
X56607897Y44008282D01*
X56607897Y44008282D02*
X56750754Y44079710D01*
X56750754Y44079710D02*
X57536468Y44079710D01*
X56750754Y44079710D02*
X56607897Y44151139D01*
X56607897Y44151139D02*
X56536468Y44293996D01*
X56536468Y44293996D02*
X56536468Y44508282D01*
X56536468Y44508282D02*
X56607897Y44651139D01*
X56607897Y44651139D02*
X56750754Y44722568D01*
X56750754Y44722568D02*
X57536468Y44722568D01*
X57536468Y46793996D02*
X57465040Y46651139D01*
X57465040Y46651139D02*
X57393611Y46579710D01*
X57393611Y46579710D02*
X57250754Y46508282D01*
X57250754Y46508282D02*
X56822182Y46508282D01*
X56822182Y46508282D02*
X56679325Y46579710D01*
X56679325Y46579710D02*
X56607897Y46651139D01*
X56607897Y46651139D02*
X56536468Y46793996D01*
X56536468Y46793996D02*
X56536468Y47008282D01*
X56536468Y47008282D02*
X56607897Y47151139D01*
X56607897Y47151139D02*
X56679325Y47222567D01*
X56679325Y47222567D02*
X56822182Y47293996D01*
X56822182Y47293996D02*
X57250754Y47293996D01*
X57250754Y47293996D02*
X57393611Y47222567D01*
X57393611Y47222567D02*
X57465040Y47151139D01*
X57465040Y47151139D02*
X57536468Y47008282D01*
X57536468Y47008282D02*
X57536468Y46793996D01*
X56536468Y48579710D02*
X57536468Y48579710D01*
X56536468Y47936853D02*
X57322182Y47936853D01*
X57322182Y47936853D02*
X57465040Y48008282D01*
X57465040Y48008282D02*
X57536468Y48151139D01*
X57536468Y48151139D02*
X57536468Y48365425D01*
X57536468Y48365425D02*
X57465040Y48508282D01*
X57465040Y48508282D02*
X57393611Y48579710D01*
X56536468Y49079711D02*
X56536468Y49651139D01*
X56036468Y49293996D02*
X57322182Y49293996D01*
X57322182Y49293996D02*
X57465040Y49365425D01*
X57465040Y49365425D02*
X57536468Y49508282D01*
X57536468Y49508282D02*
X57536468Y49651139D01*
X57465040Y50722568D02*
X57536468Y50579711D01*
X57536468Y50579711D02*
X57536468Y50293996D01*
X57536468Y50293996D02*
X57465040Y50151139D01*
X57465040Y50151139D02*
X57322182Y50079711D01*
X57322182Y50079711D02*
X56750754Y50079711D01*
X56750754Y50079711D02*
X56607897Y50151139D01*
X56607897Y50151139D02*
X56536468Y50293996D01*
X56536468Y50293996D02*
X56536468Y50579711D01*
X56536468Y50579711D02*
X56607897Y50722568D01*
X56607897Y50722568D02*
X56750754Y50793996D01*
X56750754Y50793996D02*
X56893611Y50793996D01*
X56893611Y50793996D02*
X57036468Y50079711D01*
X57536468Y51436853D02*
X56536468Y51436853D01*
X56822182Y51436853D02*
X56679325Y51508282D01*
X56679325Y51508282D02*
X56607897Y51579710D01*
X56607897Y51579710D02*
X56536468Y51722568D01*
X56536468Y51722568D02*
X56536468Y51865425D01*
X57465040Y52436853D02*
X57536468Y52436853D01*
X57536468Y52436853D02*
X57679325Y52365424D01*
X57679325Y52365424D02*
X57750754Y52293996D01*
X56536468Y54865424D02*
X57536468Y54865424D01*
X55965040Y54508282D02*
X57036468Y54151139D01*
X57036468Y54151139D02*
X57036468Y55079710D01*
X57536468Y55651138D02*
X56536468Y55651138D01*
X56679325Y55651138D02*
X56607897Y55722567D01*
X56607897Y55722567D02*
X56536468Y55865424D01*
X56536468Y55865424D02*
X56536468Y56079710D01*
X56536468Y56079710D02*
X56607897Y56222567D01*
X56607897Y56222567D02*
X56750754Y56293995D01*
X56750754Y56293995D02*
X57536468Y56293995D01*
X56750754Y56293995D02*
X56607897Y56365424D01*
X56607897Y56365424D02*
X56536468Y56508281D01*
X56536468Y56508281D02*
X56536468Y56722567D01*
X56536468Y56722567D02*
X56607897Y56865424D01*
X56607897Y56865424D02*
X56750754Y56936853D01*
X56750754Y56936853D02*
X57536468Y56936853D01*
X57536468Y57651138D02*
X56536468Y57651138D01*
X56679325Y57651138D02*
X56607897Y57722567D01*
X56607897Y57722567D02*
X56536468Y57865424D01*
X56536468Y57865424D02*
X56536468Y58079710D01*
X56536468Y58079710D02*
X56607897Y58222567D01*
X56607897Y58222567D02*
X56750754Y58293995D01*
X56750754Y58293995D02*
X57536468Y58293995D01*
X56750754Y58293995D02*
X56607897Y58365424D01*
X56607897Y58365424D02*
X56536468Y58508281D01*
X56536468Y58508281D02*
X56536468Y58722567D01*
X56536468Y58722567D02*
X56607897Y58865424D01*
X56607897Y58865424D02*
X56750754Y58936853D01*
X56750754Y58936853D02*
X57536468Y58936853D01*
X57536468Y60793995D02*
X56536468Y60793995D01*
X56036468Y60793995D02*
X56107897Y60722567D01*
X56107897Y60722567D02*
X56179325Y60793995D01*
X56179325Y60793995D02*
X56107897Y60865424D01*
X56107897Y60865424D02*
X56036468Y60793995D01*
X56036468Y60793995D02*
X56179325Y60793995D01*
X56536468Y61508281D02*
X57536468Y61508281D01*
X56679325Y61508281D02*
X56607897Y61579710D01*
X56607897Y61579710D02*
X56536468Y61722567D01*
X56536468Y61722567D02*
X56536468Y61936853D01*
X56536468Y61936853D02*
X56607897Y62079710D01*
X56607897Y62079710D02*
X56750754Y62151138D01*
X56750754Y62151138D02*
X57536468Y62151138D01*
X56536468Y62865424D02*
X57536468Y62865424D01*
X56679325Y62865424D02*
X56607897Y62936853D01*
X56607897Y62936853D02*
X56536468Y63079710D01*
X56536468Y63079710D02*
X56536468Y63293996D01*
X56536468Y63293996D02*
X56607897Y63436853D01*
X56607897Y63436853D02*
X56750754Y63508281D01*
X56750754Y63508281D02*
X57536468Y63508281D01*
X57465040Y64793996D02*
X57536468Y64651139D01*
X57536468Y64651139D02*
X57536468Y64365424D01*
X57536468Y64365424D02*
X57465040Y64222567D01*
X57465040Y64222567D02*
X57322182Y64151139D01*
X57322182Y64151139D02*
X56750754Y64151139D01*
X56750754Y64151139D02*
X56607897Y64222567D01*
X56607897Y64222567D02*
X56536468Y64365424D01*
X56536468Y64365424D02*
X56536468Y64651139D01*
X56536468Y64651139D02*
X56607897Y64793996D01*
X56607897Y64793996D02*
X56750754Y64865424D01*
X56750754Y64865424D02*
X56893611Y64865424D01*
X56893611Y64865424D02*
X57036468Y64151139D01*
X57536468Y65508281D02*
X56536468Y65508281D01*
X56822182Y65508281D02*
X56679325Y65579710D01*
X56679325Y65579710D02*
X56607897Y65651138D01*
X56607897Y65651138D02*
X56536468Y65793996D01*
X56536468Y65793996D02*
X56536468Y65936853D01*
X83223387Y66219991D02*
X83223387Y65362848D01*
X83223387Y65791419D02*
X81723387Y65791419D01*
X81723387Y65791419D02*
X81937673Y65648562D01*
X81937673Y65648562D02*
X82080530Y65505705D01*
X82080530Y65505705D02*
X82151959Y65362848D01*
X81723387Y67577133D02*
X81723387Y66862847D01*
X81723387Y66862847D02*
X82437673Y66791419D01*
X82437673Y66791419D02*
X82366244Y66862847D01*
X82366244Y66862847D02*
X82294816Y67005704D01*
X82294816Y67005704D02*
X82294816Y67362847D01*
X82294816Y67362847D02*
X82366244Y67505704D01*
X82366244Y67505704D02*
X82437673Y67577133D01*
X82437673Y67577133D02*
X82580530Y67648562D01*
X82580530Y67648562D02*
X82937673Y67648562D01*
X82937673Y67648562D02*
X83080530Y67577133D01*
X83080530Y67577133D02*
X83151959Y67505704D01*
X83151959Y67505704D02*
X83223387Y67362847D01*
X83223387Y67362847D02*
X83223387Y67005704D01*
X83223387Y67005704D02*
X83151959Y66862847D01*
X83151959Y66862847D02*
X83080530Y66791419D01*
X83223387Y68291418D02*
X82223387Y68291418D01*
X82366244Y68291418D02*
X82294816Y68362847D01*
X82294816Y68362847D02*
X82223387Y68505704D01*
X82223387Y68505704D02*
X82223387Y68719990D01*
X82223387Y68719990D02*
X82294816Y68862847D01*
X82294816Y68862847D02*
X82437673Y68934275D01*
X82437673Y68934275D02*
X83223387Y68934275D01*
X82437673Y68934275D02*
X82294816Y69005704D01*
X82294816Y69005704D02*
X82223387Y69148561D01*
X82223387Y69148561D02*
X82223387Y69362847D01*
X82223387Y69362847D02*
X82294816Y69505704D01*
X82294816Y69505704D02*
X82437673Y69577133D01*
X82437673Y69577133D02*
X83223387Y69577133D01*
X83223387Y70291418D02*
X82223387Y70291418D01*
X82366244Y70291418D02*
X82294816Y70362847D01*
X82294816Y70362847D02*
X82223387Y70505704D01*
X82223387Y70505704D02*
X82223387Y70719990D01*
X82223387Y70719990D02*
X82294816Y70862847D01*
X82294816Y70862847D02*
X82437673Y70934275D01*
X82437673Y70934275D02*
X83223387Y70934275D01*
X82437673Y70934275D02*
X82294816Y71005704D01*
X82294816Y71005704D02*
X82223387Y71148561D01*
X82223387Y71148561D02*
X82223387Y71362847D01*
X82223387Y71362847D02*
X82294816Y71505704D01*
X82294816Y71505704D02*
X82437673Y71577133D01*
X82437673Y71577133D02*
X83223387Y71577133D01*
X83223387Y73648561D02*
X83151959Y73505704D01*
X83151959Y73505704D02*
X83080530Y73434275D01*
X83080530Y73434275D02*
X82937673Y73362847D01*
X82937673Y73362847D02*
X82509101Y73362847D01*
X82509101Y73362847D02*
X82366244Y73434275D01*
X82366244Y73434275D02*
X82294816Y73505704D01*
X82294816Y73505704D02*
X82223387Y73648561D01*
X82223387Y73648561D02*
X82223387Y73862847D01*
X82223387Y73862847D02*
X82294816Y74005704D01*
X82294816Y74005704D02*
X82366244Y74077132D01*
X82366244Y74077132D02*
X82509101Y74148561D01*
X82509101Y74148561D02*
X82937673Y74148561D01*
X82937673Y74148561D02*
X83080530Y74077132D01*
X83080530Y74077132D02*
X83151959Y74005704D01*
X83151959Y74005704D02*
X83223387Y73862847D01*
X83223387Y73862847D02*
X83223387Y73648561D01*
X82223387Y75434275D02*
X83223387Y75434275D01*
X82223387Y74791418D02*
X83009101Y74791418D01*
X83009101Y74791418D02*
X83151959Y74862847D01*
X83151959Y74862847D02*
X83223387Y75005704D01*
X83223387Y75005704D02*
X83223387Y75219990D01*
X83223387Y75219990D02*
X83151959Y75362847D01*
X83151959Y75362847D02*
X83080530Y75434275D01*
X82223387Y75934276D02*
X82223387Y76505704D01*
X81723387Y76148561D02*
X83009101Y76148561D01*
X83009101Y76148561D02*
X83151959Y76219990D01*
X83151959Y76219990D02*
X83223387Y76362847D01*
X83223387Y76362847D02*
X83223387Y76505704D01*
X83151959Y77577133D02*
X83223387Y77434276D01*
X83223387Y77434276D02*
X83223387Y77148561D01*
X83223387Y77148561D02*
X83151959Y77005704D01*
X83151959Y77005704D02*
X83009101Y76934276D01*
X83009101Y76934276D02*
X82437673Y76934276D01*
X82437673Y76934276D02*
X82294816Y77005704D01*
X82294816Y77005704D02*
X82223387Y77148561D01*
X82223387Y77148561D02*
X82223387Y77434276D01*
X82223387Y77434276D02*
X82294816Y77577133D01*
X82294816Y77577133D02*
X82437673Y77648561D01*
X82437673Y77648561D02*
X82580530Y77648561D01*
X82580530Y77648561D02*
X82723387Y76934276D01*
X83223387Y78291418D02*
X82223387Y78291418D01*
X82509101Y78291418D02*
X82366244Y78362847D01*
X82366244Y78362847D02*
X82294816Y78434275D01*
X82294816Y78434275D02*
X82223387Y78577133D01*
X82223387Y78577133D02*
X82223387Y78719990D01*
X83151959Y79291418D02*
X83223387Y79291418D01*
X83223387Y79291418D02*
X83366244Y79219989D01*
X83366244Y79219989D02*
X83437673Y79148561D01*
X81723387Y80934275D02*
X81723387Y81934275D01*
X81723387Y81934275D02*
X83223387Y81291418D01*
X83080530Y82505703D02*
X83151959Y82577132D01*
X83151959Y82577132D02*
X83223387Y82505703D01*
X83223387Y82505703D02*
X83151959Y82434275D01*
X83151959Y82434275D02*
X83080530Y82505703D01*
X83080530Y82505703D02*
X83223387Y82505703D01*
X81723387Y83934275D02*
X81723387Y83219989D01*
X81723387Y83219989D02*
X82437673Y83148561D01*
X82437673Y83148561D02*
X82366244Y83219989D01*
X82366244Y83219989D02*
X82294816Y83362846D01*
X82294816Y83362846D02*
X82294816Y83719989D01*
X82294816Y83719989D02*
X82366244Y83862846D01*
X82366244Y83862846D02*
X82437673Y83934275D01*
X82437673Y83934275D02*
X82580530Y84005704D01*
X82580530Y84005704D02*
X82937673Y84005704D01*
X82937673Y84005704D02*
X83080530Y83934275D01*
X83080530Y83934275D02*
X83151959Y83862846D01*
X83151959Y83862846D02*
X83223387Y83719989D01*
X83223387Y83719989D02*
X83223387Y83362846D01*
X83223387Y83362846D02*
X83151959Y83219989D01*
X83151959Y83219989D02*
X83080530Y83148561D01*
X83223387Y84648560D02*
X82223387Y84648560D01*
X82366244Y84648560D02*
X82294816Y84719989D01*
X82294816Y84719989D02*
X82223387Y84862846D01*
X82223387Y84862846D02*
X82223387Y85077132D01*
X82223387Y85077132D02*
X82294816Y85219989D01*
X82294816Y85219989D02*
X82437673Y85291417D01*
X82437673Y85291417D02*
X83223387Y85291417D01*
X82437673Y85291417D02*
X82294816Y85362846D01*
X82294816Y85362846D02*
X82223387Y85505703D01*
X82223387Y85505703D02*
X82223387Y85719989D01*
X82223387Y85719989D02*
X82294816Y85862846D01*
X82294816Y85862846D02*
X82437673Y85934275D01*
X82437673Y85934275D02*
X83223387Y85934275D01*
X83223387Y86648560D02*
X82223387Y86648560D01*
X82366244Y86648560D02*
X82294816Y86719989D01*
X82294816Y86719989D02*
X82223387Y86862846D01*
X82223387Y86862846D02*
X82223387Y87077132D01*
X82223387Y87077132D02*
X82294816Y87219989D01*
X82294816Y87219989D02*
X82437673Y87291417D01*
X82437673Y87291417D02*
X83223387Y87291417D01*
X82437673Y87291417D02*
X82294816Y87362846D01*
X82294816Y87362846D02*
X82223387Y87505703D01*
X82223387Y87505703D02*
X82223387Y87719989D01*
X82223387Y87719989D02*
X82294816Y87862846D01*
X82294816Y87862846D02*
X82437673Y87934275D01*
X82437673Y87934275D02*
X83223387Y87934275D01*
X83223387Y89791417D02*
X82223387Y89791417D01*
X81723387Y89791417D02*
X81794816Y89719989D01*
X81794816Y89719989D02*
X81866244Y89791417D01*
X81866244Y89791417D02*
X81794816Y89862846D01*
X81794816Y89862846D02*
X81723387Y89791417D01*
X81723387Y89791417D02*
X81866244Y89791417D01*
X82223387Y90505703D02*
X83223387Y90505703D01*
X82366244Y90505703D02*
X82294816Y90577132D01*
X82294816Y90577132D02*
X82223387Y90719989D01*
X82223387Y90719989D02*
X82223387Y90934275D01*
X82223387Y90934275D02*
X82294816Y91077132D01*
X82294816Y91077132D02*
X82437673Y91148560D01*
X82437673Y91148560D02*
X83223387Y91148560D01*
X82223387Y91862846D02*
X83223387Y91862846D01*
X82366244Y91862846D02*
X82294816Y91934275D01*
X82294816Y91934275D02*
X82223387Y92077132D01*
X82223387Y92077132D02*
X82223387Y92291418D01*
X82223387Y92291418D02*
X82294816Y92434275D01*
X82294816Y92434275D02*
X82437673Y92505703D01*
X82437673Y92505703D02*
X83223387Y92505703D01*
X83151959Y93791418D02*
X83223387Y93648561D01*
X83223387Y93648561D02*
X83223387Y93362846D01*
X83223387Y93362846D02*
X83151959Y93219989D01*
X83151959Y93219989D02*
X83009101Y93148561D01*
X83009101Y93148561D02*
X82437673Y93148561D01*
X82437673Y93148561D02*
X82294816Y93219989D01*
X82294816Y93219989D02*
X82223387Y93362846D01*
X82223387Y93362846D02*
X82223387Y93648561D01*
X82223387Y93648561D02*
X82294816Y93791418D01*
X82294816Y93791418D02*
X82437673Y93862846D01*
X82437673Y93862846D02*
X82580530Y93862846D01*
X82580530Y93862846D02*
X82723387Y93148561D01*
X83223387Y94505703D02*
X82223387Y94505703D01*
X82509101Y94505703D02*
X82366244Y94577132D01*
X82366244Y94577132D02*
X82294816Y94648560D01*
X82294816Y94648560D02*
X82223387Y94791418D01*
X82223387Y94791418D02*
X82223387Y94934275D01*
X82366244Y38508283D02*
X82294816Y38579711D01*
X82294816Y38579711D02*
X82223387Y38722568D01*
X82223387Y38722568D02*
X82223387Y39079711D01*
X82223387Y39079711D02*
X82294816Y39222568D01*
X82294816Y39222568D02*
X82366244Y39293997D01*
X82366244Y39293997D02*
X82509101Y39365426D01*
X82509101Y39365426D02*
X82651959Y39365426D01*
X82651959Y39365426D02*
X82866244Y39293997D01*
X82866244Y39293997D02*
X83723387Y38436854D01*
X83723387Y38436854D02*
X83723387Y39365426D01*
X83580530Y40008282D02*
X83651959Y40079711D01*
X83651959Y40079711D02*
X83723387Y40008282D01*
X83723387Y40008282D02*
X83651959Y39936854D01*
X83651959Y39936854D02*
X83580530Y40008282D01*
X83580530Y40008282D02*
X83723387Y40008282D01*
X82223387Y41436854D02*
X82223387Y40722568D01*
X82223387Y40722568D02*
X82937673Y40651140D01*
X82937673Y40651140D02*
X82866244Y40722568D01*
X82866244Y40722568D02*
X82794816Y40865425D01*
X82794816Y40865425D02*
X82794816Y41222568D01*
X82794816Y41222568D02*
X82866244Y41365425D01*
X82866244Y41365425D02*
X82937673Y41436854D01*
X82937673Y41436854D02*
X83080530Y41508283D01*
X83080530Y41508283D02*
X83437673Y41508283D01*
X83437673Y41508283D02*
X83580530Y41436854D01*
X83580530Y41436854D02*
X83651959Y41365425D01*
X83651959Y41365425D02*
X83723387Y41222568D01*
X83723387Y41222568D02*
X83723387Y40865425D01*
X83723387Y40865425D02*
X83651959Y40722568D01*
X83651959Y40722568D02*
X83580530Y40651140D01*
X82723387Y42793996D02*
X83723387Y42793996D01*
X82151959Y42436854D02*
X83223387Y42079711D01*
X83223387Y42079711D02*
X83223387Y43008282D01*
X83723387Y43579710D02*
X82723387Y43579710D01*
X82866244Y43579710D02*
X82794816Y43651139D01*
X82794816Y43651139D02*
X82723387Y43793996D01*
X82723387Y43793996D02*
X82723387Y44008282D01*
X82723387Y44008282D02*
X82794816Y44151139D01*
X82794816Y44151139D02*
X82937673Y44222567D01*
X82937673Y44222567D02*
X83723387Y44222567D01*
X82937673Y44222567D02*
X82794816Y44293996D01*
X82794816Y44293996D02*
X82723387Y44436853D01*
X82723387Y44436853D02*
X82723387Y44651139D01*
X82723387Y44651139D02*
X82794816Y44793996D01*
X82794816Y44793996D02*
X82937673Y44865425D01*
X82937673Y44865425D02*
X83723387Y44865425D01*
X83723387Y45579710D02*
X82723387Y45579710D01*
X82866244Y45579710D02*
X82794816Y45651139D01*
X82794816Y45651139D02*
X82723387Y45793996D01*
X82723387Y45793996D02*
X82723387Y46008282D01*
X82723387Y46008282D02*
X82794816Y46151139D01*
X82794816Y46151139D02*
X82937673Y46222567D01*
X82937673Y46222567D02*
X83723387Y46222567D01*
X82937673Y46222567D02*
X82794816Y46293996D01*
X82794816Y46293996D02*
X82723387Y46436853D01*
X82723387Y46436853D02*
X82723387Y46651139D01*
X82723387Y46651139D02*
X82794816Y46793996D01*
X82794816Y46793996D02*
X82937673Y46865425D01*
X82937673Y46865425D02*
X83723387Y46865425D01*
X83723387Y48722567D02*
X82723387Y48722567D01*
X82223387Y48722567D02*
X82294816Y48651139D01*
X82294816Y48651139D02*
X82366244Y48722567D01*
X82366244Y48722567D02*
X82294816Y48793996D01*
X82294816Y48793996D02*
X82223387Y48722567D01*
X82223387Y48722567D02*
X82366244Y48722567D01*
X82723387Y49436853D02*
X83723387Y49436853D01*
X82866244Y49436853D02*
X82794816Y49508282D01*
X82794816Y49508282D02*
X82723387Y49651139D01*
X82723387Y49651139D02*
X82723387Y49865425D01*
X82723387Y49865425D02*
X82794816Y50008282D01*
X82794816Y50008282D02*
X82937673Y50079710D01*
X82937673Y50079710D02*
X83723387Y50079710D01*
X82723387Y50793996D02*
X83723387Y50793996D01*
X82866244Y50793996D02*
X82794816Y50865425D01*
X82794816Y50865425D02*
X82723387Y51008282D01*
X82723387Y51008282D02*
X82723387Y51222568D01*
X82723387Y51222568D02*
X82794816Y51365425D01*
X82794816Y51365425D02*
X82937673Y51436853D01*
X82937673Y51436853D02*
X83723387Y51436853D01*
X83651959Y52722568D02*
X83723387Y52579711D01*
X83723387Y52579711D02*
X83723387Y52293996D01*
X83723387Y52293996D02*
X83651959Y52151139D01*
X83651959Y52151139D02*
X83509101Y52079711D01*
X83509101Y52079711D02*
X82937673Y52079711D01*
X82937673Y52079711D02*
X82794816Y52151139D01*
X82794816Y52151139D02*
X82723387Y52293996D01*
X82723387Y52293996D02*
X82723387Y52579711D01*
X82723387Y52579711D02*
X82794816Y52722568D01*
X82794816Y52722568D02*
X82937673Y52793996D01*
X82937673Y52793996D02*
X83080530Y52793996D01*
X83080530Y52793996D02*
X83223387Y52079711D01*
X83723387Y53436853D02*
X82723387Y53436853D01*
X83009101Y53436853D02*
X82866244Y53508282D01*
X82866244Y53508282D02*
X82794816Y53579710D01*
X82794816Y53579710D02*
X82723387Y53722568D01*
X82723387Y53722568D02*
X82723387Y53865425D01*
X84294816Y55936853D02*
X84223387Y55865424D01*
X84223387Y55865424D02*
X84009101Y55722567D01*
X84009101Y55722567D02*
X83866244Y55651138D01*
X83866244Y55651138D02*
X83651959Y55579710D01*
X83651959Y55579710D02*
X83294816Y55508281D01*
X83294816Y55508281D02*
X83009101Y55508281D01*
X83009101Y55508281D02*
X82651959Y55579710D01*
X82651959Y55579710D02*
X82437673Y55651138D01*
X82437673Y55651138D02*
X82294816Y55722567D01*
X82294816Y55722567D02*
X82080530Y55865424D01*
X82080530Y55865424D02*
X82009101Y55936853D01*
X82723387Y56508281D02*
X83723387Y56508281D01*
X82866244Y56508281D02*
X82794816Y56579710D01*
X82794816Y56579710D02*
X82723387Y56722567D01*
X82723387Y56722567D02*
X82723387Y56936853D01*
X82723387Y56936853D02*
X82794816Y57079710D01*
X82794816Y57079710D02*
X82937673Y57151138D01*
X82937673Y57151138D02*
X83723387Y57151138D01*
X83723387Y58079710D02*
X83651959Y57936853D01*
X83651959Y57936853D02*
X83580530Y57865424D01*
X83580530Y57865424D02*
X83437673Y57793996D01*
X83437673Y57793996D02*
X83009101Y57793996D01*
X83009101Y57793996D02*
X82866244Y57865424D01*
X82866244Y57865424D02*
X82794816Y57936853D01*
X82794816Y57936853D02*
X82723387Y58079710D01*
X82723387Y58079710D02*
X82723387Y58293996D01*
X82723387Y58293996D02*
X82794816Y58436853D01*
X82794816Y58436853D02*
X82866244Y58508281D01*
X82866244Y58508281D02*
X83009101Y58579710D01*
X83009101Y58579710D02*
X83437673Y58579710D01*
X83437673Y58579710D02*
X83580530Y58508281D01*
X83580530Y58508281D02*
X83651959Y58436853D01*
X83651959Y58436853D02*
X83723387Y58293996D01*
X83723387Y58293996D02*
X83723387Y58079710D01*
X83651959Y60293996D02*
X83723387Y60436853D01*
X83723387Y60436853D02*
X83723387Y60722567D01*
X83723387Y60722567D02*
X83651959Y60865424D01*
X83651959Y60865424D02*
X83509101Y60936853D01*
X83509101Y60936853D02*
X83437673Y60936853D01*
X83437673Y60936853D02*
X83294816Y60865424D01*
X83294816Y60865424D02*
X83223387Y60722567D01*
X83223387Y60722567D02*
X83223387Y60508281D01*
X83223387Y60508281D02*
X83151959Y60365424D01*
X83151959Y60365424D02*
X83009101Y60293996D01*
X83009101Y60293996D02*
X82937673Y60293996D01*
X82937673Y60293996D02*
X82794816Y60365424D01*
X82794816Y60365424D02*
X82723387Y60508281D01*
X82723387Y60508281D02*
X82723387Y60722567D01*
X82723387Y60722567D02*
X82794816Y60865424D01*
X83723387Y61579710D02*
X82723387Y61579710D01*
X82866244Y61579710D02*
X82794816Y61651139D01*
X82794816Y61651139D02*
X82723387Y61793996D01*
X82723387Y61793996D02*
X82723387Y62008282D01*
X82723387Y62008282D02*
X82794816Y62151139D01*
X82794816Y62151139D02*
X82937673Y62222567D01*
X82937673Y62222567D02*
X83723387Y62222567D01*
X82937673Y62222567D02*
X82794816Y62293996D01*
X82794816Y62293996D02*
X82723387Y62436853D01*
X82723387Y62436853D02*
X82723387Y62651139D01*
X82723387Y62651139D02*
X82794816Y62793996D01*
X82794816Y62793996D02*
X82937673Y62865425D01*
X82937673Y62865425D02*
X83723387Y62865425D01*
X83723387Y64222567D02*
X82937673Y64222567D01*
X82937673Y64222567D02*
X82794816Y64151139D01*
X82794816Y64151139D02*
X82723387Y64008282D01*
X82723387Y64008282D02*
X82723387Y63722567D01*
X82723387Y63722567D02*
X82794816Y63579710D01*
X83651959Y64222567D02*
X83723387Y64079710D01*
X83723387Y64079710D02*
X83723387Y63722567D01*
X83723387Y63722567D02*
X83651959Y63579710D01*
X83651959Y63579710D02*
X83509101Y63508282D01*
X83509101Y63508282D02*
X83366244Y63508282D01*
X83366244Y63508282D02*
X83223387Y63579710D01*
X83223387Y63579710D02*
X83151959Y63722567D01*
X83151959Y63722567D02*
X83151959Y64079710D01*
X83151959Y64079710D02*
X83080530Y64222567D01*
X83723387Y65151139D02*
X83651959Y65008282D01*
X83651959Y65008282D02*
X83509101Y64936853D01*
X83509101Y64936853D02*
X82223387Y64936853D01*
X83723387Y65936853D02*
X83651959Y65793996D01*
X83651959Y65793996D02*
X83509101Y65722567D01*
X83509101Y65722567D02*
X82223387Y65722567D01*
X83651959Y67079710D02*
X83723387Y66936853D01*
X83723387Y66936853D02*
X83723387Y66651138D01*
X83723387Y66651138D02*
X83651959Y66508281D01*
X83651959Y66508281D02*
X83509101Y66436853D01*
X83509101Y66436853D02*
X82937673Y66436853D01*
X82937673Y66436853D02*
X82794816Y66508281D01*
X82794816Y66508281D02*
X82723387Y66651138D01*
X82723387Y66651138D02*
X82723387Y66936853D01*
X82723387Y66936853D02*
X82794816Y67079710D01*
X82794816Y67079710D02*
X82937673Y67151138D01*
X82937673Y67151138D02*
X83080530Y67151138D01*
X83080530Y67151138D02*
X83223387Y66436853D01*
X83723387Y67793995D02*
X82723387Y67793995D01*
X83009101Y67793995D02*
X82866244Y67865424D01*
X82866244Y67865424D02*
X82794816Y67936852D01*
X82794816Y67936852D02*
X82723387Y68079710D01*
X82723387Y68079710D02*
X82723387Y68222567D01*
X83651959Y68793995D02*
X83723387Y68793995D01*
X83723387Y68793995D02*
X83866244Y68722566D01*
X83866244Y68722566D02*
X83937673Y68651138D01*
X83723387Y70579709D02*
X82723387Y70579709D01*
X83009101Y70579709D02*
X82866244Y70651138D01*
X82866244Y70651138D02*
X82794816Y70722566D01*
X82794816Y70722566D02*
X82723387Y70865424D01*
X82723387Y70865424D02*
X82723387Y71008281D01*
X83651959Y72079709D02*
X83723387Y71936852D01*
X83723387Y71936852D02*
X83723387Y71651137D01*
X83723387Y71651137D02*
X83651959Y71508280D01*
X83651959Y71508280D02*
X83509101Y71436852D01*
X83509101Y71436852D02*
X82937673Y71436852D01*
X82937673Y71436852D02*
X82794816Y71508280D01*
X82794816Y71508280D02*
X82723387Y71651137D01*
X82723387Y71651137D02*
X82723387Y71936852D01*
X82723387Y71936852D02*
X82794816Y72079709D01*
X82794816Y72079709D02*
X82937673Y72151137D01*
X82937673Y72151137D02*
X83080530Y72151137D01*
X83080530Y72151137D02*
X83223387Y71436852D01*
X83723387Y73436851D02*
X82937673Y73436851D01*
X82937673Y73436851D02*
X82794816Y73365423D01*
X82794816Y73365423D02*
X82723387Y73222566D01*
X82723387Y73222566D02*
X82723387Y72936851D01*
X82723387Y72936851D02*
X82794816Y72793994D01*
X83651959Y73436851D02*
X83723387Y73293994D01*
X83723387Y73293994D02*
X83723387Y72936851D01*
X83723387Y72936851D02*
X83651959Y72793994D01*
X83651959Y72793994D02*
X83509101Y72722566D01*
X83509101Y72722566D02*
X83366244Y72722566D01*
X83366244Y72722566D02*
X83223387Y72793994D01*
X83223387Y72793994D02*
X83151959Y72936851D01*
X83151959Y72936851D02*
X83151959Y73293994D01*
X83151959Y73293994D02*
X83080530Y73436851D01*
X83723387Y74151137D02*
X82723387Y74151137D01*
X83009101Y74151137D02*
X82866244Y74222566D01*
X82866244Y74222566D02*
X82794816Y74293994D01*
X82794816Y74293994D02*
X82723387Y74436852D01*
X82723387Y74436852D02*
X82723387Y74579709D01*
X83723387Y76222565D02*
X82723387Y76222565D01*
X82866244Y76222565D02*
X82794816Y76293994D01*
X82794816Y76293994D02*
X82723387Y76436851D01*
X82723387Y76436851D02*
X82723387Y76651137D01*
X82723387Y76651137D02*
X82794816Y76793994D01*
X82794816Y76793994D02*
X82937673Y76865422D01*
X82937673Y76865422D02*
X83723387Y76865422D01*
X82937673Y76865422D02*
X82794816Y76936851D01*
X82794816Y76936851D02*
X82723387Y77079708D01*
X82723387Y77079708D02*
X82723387Y77293994D01*
X82723387Y77293994D02*
X82794816Y77436851D01*
X82794816Y77436851D02*
X82937673Y77508280D01*
X82937673Y77508280D02*
X83723387Y77508280D01*
X83723387Y78436851D02*
X83651959Y78293994D01*
X83651959Y78293994D02*
X83580530Y78222565D01*
X83580530Y78222565D02*
X83437673Y78151137D01*
X83437673Y78151137D02*
X83009101Y78151137D01*
X83009101Y78151137D02*
X82866244Y78222565D01*
X82866244Y78222565D02*
X82794816Y78293994D01*
X82794816Y78293994D02*
X82723387Y78436851D01*
X82723387Y78436851D02*
X82723387Y78651137D01*
X82723387Y78651137D02*
X82794816Y78793994D01*
X82794816Y78793994D02*
X82866244Y78865422D01*
X82866244Y78865422D02*
X83009101Y78936851D01*
X83009101Y78936851D02*
X83437673Y78936851D01*
X83437673Y78936851D02*
X83580530Y78865422D01*
X83580530Y78865422D02*
X83651959Y78793994D01*
X83651959Y78793994D02*
X83723387Y78651137D01*
X83723387Y78651137D02*
X83723387Y78436851D01*
X82723387Y80222565D02*
X83723387Y80222565D01*
X82723387Y79579708D02*
X83509101Y79579708D01*
X83509101Y79579708D02*
X83651959Y79651137D01*
X83651959Y79651137D02*
X83723387Y79793994D01*
X83723387Y79793994D02*
X83723387Y80008280D01*
X83723387Y80008280D02*
X83651959Y80151137D01*
X83651959Y80151137D02*
X83580530Y80222565D01*
X82723387Y80936851D02*
X83723387Y80936851D01*
X82866244Y80936851D02*
X82794816Y81008280D01*
X82794816Y81008280D02*
X82723387Y81151137D01*
X82723387Y81151137D02*
X82723387Y81365423D01*
X82723387Y81365423D02*
X82794816Y81508280D01*
X82794816Y81508280D02*
X82937673Y81579708D01*
X82937673Y81579708D02*
X83723387Y81579708D01*
X82723387Y82079709D02*
X82723387Y82651137D01*
X82223387Y82293994D02*
X83509101Y82293994D01*
X83509101Y82293994D02*
X83651959Y82365423D01*
X83651959Y82365423D02*
X83723387Y82508280D01*
X83723387Y82508280D02*
X83723387Y82651137D01*
X83723387Y84293994D02*
X82723387Y84293994D01*
X82866244Y84293994D02*
X82794816Y84365423D01*
X82794816Y84365423D02*
X82723387Y84508280D01*
X82723387Y84508280D02*
X82723387Y84722566D01*
X82723387Y84722566D02*
X82794816Y84865423D01*
X82794816Y84865423D02*
X82937673Y84936851D01*
X82937673Y84936851D02*
X83723387Y84936851D01*
X82937673Y84936851D02*
X82794816Y85008280D01*
X82794816Y85008280D02*
X82723387Y85151137D01*
X82723387Y85151137D02*
X82723387Y85365423D01*
X82723387Y85365423D02*
X82794816Y85508280D01*
X82794816Y85508280D02*
X82937673Y85579709D01*
X82937673Y85579709D02*
X83723387Y85579709D01*
X82723387Y86936851D02*
X83723387Y86936851D01*
X82723387Y86293994D02*
X83509101Y86293994D01*
X83509101Y86293994D02*
X83651959Y86365423D01*
X83651959Y86365423D02*
X83723387Y86508280D01*
X83723387Y86508280D02*
X83723387Y86722566D01*
X83723387Y86722566D02*
X83651959Y86865423D01*
X83651959Y86865423D02*
X83580530Y86936851D01*
X83651959Y87579709D02*
X83723387Y87722566D01*
X83723387Y87722566D02*
X83723387Y88008280D01*
X83723387Y88008280D02*
X83651959Y88151137D01*
X83651959Y88151137D02*
X83509101Y88222566D01*
X83509101Y88222566D02*
X83437673Y88222566D01*
X83437673Y88222566D02*
X83294816Y88151137D01*
X83294816Y88151137D02*
X83223387Y88008280D01*
X83223387Y88008280D02*
X83223387Y87793994D01*
X83223387Y87793994D02*
X83151959Y87651137D01*
X83151959Y87651137D02*
X83009101Y87579709D01*
X83009101Y87579709D02*
X82937673Y87579709D01*
X82937673Y87579709D02*
X82794816Y87651137D01*
X82794816Y87651137D02*
X82723387Y87793994D01*
X82723387Y87793994D02*
X82723387Y88008280D01*
X82723387Y88008280D02*
X82794816Y88151137D01*
X82723387Y88651138D02*
X82723387Y89222566D01*
X82223387Y88865423D02*
X83509101Y88865423D01*
X83509101Y88865423D02*
X83651959Y88936852D01*
X83651959Y88936852D02*
X83723387Y89079709D01*
X83723387Y89079709D02*
X83723387Y89222566D01*
X83723387Y91079709D02*
X83651959Y90936852D01*
X83651959Y90936852D02*
X83580530Y90865423D01*
X83580530Y90865423D02*
X83437673Y90793995D01*
X83437673Y90793995D02*
X83009101Y90793995D01*
X83009101Y90793995D02*
X82866244Y90865423D01*
X82866244Y90865423D02*
X82794816Y90936852D01*
X82794816Y90936852D02*
X82723387Y91079709D01*
X82723387Y91079709D02*
X82723387Y91293995D01*
X82723387Y91293995D02*
X82794816Y91436852D01*
X82794816Y91436852D02*
X82866244Y91508280D01*
X82866244Y91508280D02*
X83009101Y91579709D01*
X83009101Y91579709D02*
X83437673Y91579709D01*
X83437673Y91579709D02*
X83580530Y91508280D01*
X83580530Y91508280D02*
X83651959Y91436852D01*
X83651959Y91436852D02*
X83723387Y91293995D01*
X83723387Y91293995D02*
X83723387Y91079709D01*
X82723387Y92079709D02*
X83723387Y92436852D01*
X83723387Y92436852D02*
X82723387Y92793995D01*
X83651959Y93936852D02*
X83723387Y93793995D01*
X83723387Y93793995D02*
X83723387Y93508280D01*
X83723387Y93508280D02*
X83651959Y93365423D01*
X83651959Y93365423D02*
X83509101Y93293995D01*
X83509101Y93293995D02*
X82937673Y93293995D01*
X82937673Y93293995D02*
X82794816Y93365423D01*
X82794816Y93365423D02*
X82723387Y93508280D01*
X82723387Y93508280D02*
X82723387Y93793995D01*
X82723387Y93793995D02*
X82794816Y93936852D01*
X82794816Y93936852D02*
X82937673Y94008280D01*
X82937673Y94008280D02*
X83080530Y94008280D01*
X83080530Y94008280D02*
X83223387Y93293995D01*
X83723387Y94651137D02*
X82723387Y94651137D01*
X83009101Y94651137D02*
X82866244Y94722566D01*
X82866244Y94722566D02*
X82794816Y94793994D01*
X82794816Y94793994D02*
X82723387Y94936852D01*
X82723387Y94936852D02*
X82723387Y95079709D01*
X83723387Y95793994D02*
X83651959Y95651137D01*
X83651959Y95651137D02*
X83509101Y95579708D01*
X83509101Y95579708D02*
X82223387Y95579708D01*
X83723387Y97008279D02*
X82937673Y97008279D01*
X82937673Y97008279D02*
X82794816Y96936851D01*
X82794816Y96936851D02*
X82723387Y96793994D01*
X82723387Y96793994D02*
X82723387Y96508279D01*
X82723387Y96508279D02*
X82794816Y96365422D01*
X83651959Y97008279D02*
X83723387Y96865422D01*
X83723387Y96865422D02*
X83723387Y96508279D01*
X83723387Y96508279D02*
X83651959Y96365422D01*
X83651959Y96365422D02*
X83509101Y96293994D01*
X83509101Y96293994D02*
X83366244Y96293994D01*
X83366244Y96293994D02*
X83223387Y96365422D01*
X83223387Y96365422D02*
X83151959Y96508279D01*
X83151959Y96508279D02*
X83151959Y96865422D01*
X83151959Y96865422D02*
X83080530Y97008279D01*
X82723387Y97722565D02*
X84223387Y97722565D01*
X82794816Y97722565D02*
X82723387Y97865422D01*
X82723387Y97865422D02*
X82723387Y98151137D01*
X82723387Y98151137D02*
X82794816Y98293994D01*
X82794816Y98293994D02*
X82866244Y98365422D01*
X82866244Y98365422D02*
X83009101Y98436851D01*
X83009101Y98436851D02*
X83437673Y98436851D01*
X83437673Y98436851D02*
X83580530Y98365422D01*
X83580530Y98365422D02*
X83651959Y98293994D01*
X83651959Y98293994D02*
X83723387Y98151137D01*
X83723387Y98151137D02*
X83723387Y97865422D01*
X83723387Y97865422D02*
X83651959Y97722565D01*
X82723387Y100079708D02*
X83723387Y100365422D01*
X83723387Y100365422D02*
X83009101Y100651137D01*
X83009101Y100651137D02*
X83723387Y100936851D01*
X83723387Y100936851D02*
X82723387Y101222565D01*
X83723387Y101793994D02*
X82723387Y101793994D01*
X82223387Y101793994D02*
X82294816Y101722566D01*
X82294816Y101722566D02*
X82366244Y101793994D01*
X82366244Y101793994D02*
X82294816Y101865423D01*
X82294816Y101865423D02*
X82223387Y101793994D01*
X82223387Y101793994D02*
X82366244Y101793994D01*
X82723387Y102293995D02*
X82723387Y102865423D01*
X82223387Y102508280D02*
X83509101Y102508280D01*
X83509101Y102508280D02*
X83651959Y102579709D01*
X83651959Y102579709D02*
X83723387Y102722566D01*
X83723387Y102722566D02*
X83723387Y102865423D01*
X83723387Y103365423D02*
X82223387Y103365423D01*
X83723387Y104008280D02*
X82937673Y104008280D01*
X82937673Y104008280D02*
X82794816Y103936852D01*
X82794816Y103936852D02*
X82723387Y103793995D01*
X82723387Y103793995D02*
X82723387Y103579709D01*
X82723387Y103579709D02*
X82794816Y103436852D01*
X82794816Y103436852D02*
X82866244Y103365423D01*
X82723387Y105865423D02*
X84223387Y105865423D01*
X82794816Y105865423D02*
X82723387Y106008280D01*
X82723387Y106008280D02*
X82723387Y106293995D01*
X82723387Y106293995D02*
X82794816Y106436852D01*
X82794816Y106436852D02*
X82866244Y106508280D01*
X82866244Y106508280D02*
X83009101Y106579709D01*
X83009101Y106579709D02*
X83437673Y106579709D01*
X83437673Y106579709D02*
X83580530Y106508280D01*
X83580530Y106508280D02*
X83651959Y106436852D01*
X83651959Y106436852D02*
X83723387Y106293995D01*
X83723387Y106293995D02*
X83723387Y106008280D01*
X83723387Y106008280D02*
X83651959Y105865423D01*
X83723387Y107865423D02*
X82937673Y107865423D01*
X82937673Y107865423D02*
X82794816Y107793995D01*
X82794816Y107793995D02*
X82723387Y107651138D01*
X82723387Y107651138D02*
X82723387Y107365423D01*
X82723387Y107365423D02*
X82794816Y107222566D01*
X83651959Y107865423D02*
X83723387Y107722566D01*
X83723387Y107722566D02*
X83723387Y107365423D01*
X83723387Y107365423D02*
X83651959Y107222566D01*
X83651959Y107222566D02*
X83509101Y107151138D01*
X83509101Y107151138D02*
X83366244Y107151138D01*
X83366244Y107151138D02*
X83223387Y107222566D01*
X83223387Y107222566D02*
X83151959Y107365423D01*
X83151959Y107365423D02*
X83151959Y107722566D01*
X83151959Y107722566D02*
X83080530Y107865423D01*
X83723387Y109222566D02*
X82223387Y109222566D01*
X83651959Y109222566D02*
X83723387Y109079709D01*
X83723387Y109079709D02*
X83723387Y108793995D01*
X83723387Y108793995D02*
X83651959Y108651138D01*
X83651959Y108651138D02*
X83580530Y108579709D01*
X83580530Y108579709D02*
X83437673Y108508281D01*
X83437673Y108508281D02*
X83009101Y108508281D01*
X83009101Y108508281D02*
X82866244Y108579709D01*
X82866244Y108579709D02*
X82794816Y108651138D01*
X82794816Y108651138D02*
X82723387Y108793995D01*
X82723387Y108793995D02*
X82723387Y109079709D01*
X82723387Y109079709D02*
X82794816Y109222566D01*
X83651959Y109865424D02*
X83723387Y110008281D01*
X83723387Y110008281D02*
X83723387Y110293995D01*
X83723387Y110293995D02*
X83651959Y110436852D01*
X83651959Y110436852D02*
X83509101Y110508281D01*
X83509101Y110508281D02*
X83437673Y110508281D01*
X83437673Y110508281D02*
X83294816Y110436852D01*
X83294816Y110436852D02*
X83223387Y110293995D01*
X83223387Y110293995D02*
X83223387Y110079709D01*
X83223387Y110079709D02*
X83151959Y109936852D01*
X83151959Y109936852D02*
X83009101Y109865424D01*
X83009101Y109865424D02*
X82937673Y109865424D01*
X82937673Y109865424D02*
X82794816Y109936852D01*
X82794816Y109936852D02*
X82723387Y110079709D01*
X82723387Y110079709D02*
X82723387Y110293995D01*
X82723387Y110293995D02*
X82794816Y110436852D01*
X84294816Y111008281D02*
X84223387Y111079710D01*
X84223387Y111079710D02*
X84009101Y111222567D01*
X84009101Y111222567D02*
X83866244Y111293995D01*
X83866244Y111293995D02*
X83651959Y111365424D01*
X83651959Y111365424D02*
X83294816Y111436853D01*
X83294816Y111436853D02*
X83009101Y111436853D01*
X83009101Y111436853D02*
X82651959Y111365424D01*
X82651959Y111365424D02*
X82437673Y111293995D01*
X82437673Y111293995D02*
X82294816Y111222567D01*
X82294816Y111222567D02*
X82080530Y111079710D01*
X82080530Y111079710D02*
X82009101Y111008281D01*
X31349549Y39365426D02*
X31349549Y38508283D01*
X31349549Y38936854D02*
X29849549Y38936854D01*
X29849549Y38936854D02*
X30063835Y38793997D01*
X30063835Y38793997D02*
X30206692Y38651140D01*
X30206692Y38651140D02*
X30278121Y38508283D01*
X29849549Y40293997D02*
X29849549Y40436854D01*
X29849549Y40436854D02*
X29920978Y40579711D01*
X29920978Y40579711D02*
X29992406Y40651139D01*
X29992406Y40651139D02*
X30135263Y40722568D01*
X30135263Y40722568D02*
X30420978Y40793997D01*
X30420978Y40793997D02*
X30778121Y40793997D01*
X30778121Y40793997D02*
X31063835Y40722568D01*
X31063835Y40722568D02*
X31206692Y40651139D01*
X31206692Y40651139D02*
X31278121Y40579711D01*
X31278121Y40579711D02*
X31349549Y40436854D01*
X31349549Y40436854D02*
X31349549Y40293997D01*
X31349549Y40293997D02*
X31278121Y40151139D01*
X31278121Y40151139D02*
X31206692Y40079711D01*
X31206692Y40079711D02*
X31063835Y40008282D01*
X31063835Y40008282D02*
X30778121Y39936854D01*
X30778121Y39936854D02*
X30420978Y39936854D01*
X30420978Y39936854D02*
X30135263Y40008282D01*
X30135263Y40008282D02*
X29992406Y40079711D01*
X29992406Y40079711D02*
X29920978Y40151139D01*
X29920978Y40151139D02*
X29849549Y40293997D01*
X31349549Y41436853D02*
X30349549Y41436853D01*
X30492406Y41436853D02*
X30420978Y41508282D01*
X30420978Y41508282D02*
X30349549Y41651139D01*
X30349549Y41651139D02*
X30349549Y41865425D01*
X30349549Y41865425D02*
X30420978Y42008282D01*
X30420978Y42008282D02*
X30563835Y42079710D01*
X30563835Y42079710D02*
X31349549Y42079710D01*
X30563835Y42079710D02*
X30420978Y42151139D01*
X30420978Y42151139D02*
X30349549Y42293996D01*
X30349549Y42293996D02*
X30349549Y42508282D01*
X30349549Y42508282D02*
X30420978Y42651139D01*
X30420978Y42651139D02*
X30563835Y42722568D01*
X30563835Y42722568D02*
X31349549Y42722568D01*
X31349549Y43436853D02*
X30349549Y43436853D01*
X30492406Y43436853D02*
X30420978Y43508282D01*
X30420978Y43508282D02*
X30349549Y43651139D01*
X30349549Y43651139D02*
X30349549Y43865425D01*
X30349549Y43865425D02*
X30420978Y44008282D01*
X30420978Y44008282D02*
X30563835Y44079710D01*
X30563835Y44079710D02*
X31349549Y44079710D01*
X30563835Y44079710D02*
X30420978Y44151139D01*
X30420978Y44151139D02*
X30349549Y44293996D01*
X30349549Y44293996D02*
X30349549Y44508282D01*
X30349549Y44508282D02*
X30420978Y44651139D01*
X30420978Y44651139D02*
X30563835Y44722568D01*
X30563835Y44722568D02*
X31349549Y44722568D01*
X31349549Y46793996D02*
X31278121Y46651139D01*
X31278121Y46651139D02*
X31206692Y46579710D01*
X31206692Y46579710D02*
X31063835Y46508282D01*
X31063835Y46508282D02*
X30635263Y46508282D01*
X30635263Y46508282D02*
X30492406Y46579710D01*
X30492406Y46579710D02*
X30420978Y46651139D01*
X30420978Y46651139D02*
X30349549Y46793996D01*
X30349549Y46793996D02*
X30349549Y47008282D01*
X30349549Y47008282D02*
X30420978Y47151139D01*
X30420978Y47151139D02*
X30492406Y47222567D01*
X30492406Y47222567D02*
X30635263Y47293996D01*
X30635263Y47293996D02*
X31063835Y47293996D01*
X31063835Y47293996D02*
X31206692Y47222567D01*
X31206692Y47222567D02*
X31278121Y47151139D01*
X31278121Y47151139D02*
X31349549Y47008282D01*
X31349549Y47008282D02*
X31349549Y46793996D01*
X30349549Y48579710D02*
X31349549Y48579710D01*
X30349549Y47936853D02*
X31135263Y47936853D01*
X31135263Y47936853D02*
X31278121Y48008282D01*
X31278121Y48008282D02*
X31349549Y48151139D01*
X31349549Y48151139D02*
X31349549Y48365425D01*
X31349549Y48365425D02*
X31278121Y48508282D01*
X31278121Y48508282D02*
X31206692Y48579710D01*
X30349549Y49079711D02*
X30349549Y49651139D01*
X29849549Y49293996D02*
X31135263Y49293996D01*
X31135263Y49293996D02*
X31278121Y49365425D01*
X31278121Y49365425D02*
X31349549Y49508282D01*
X31349549Y49508282D02*
X31349549Y49651139D01*
X31278121Y50722568D02*
X31349549Y50579711D01*
X31349549Y50579711D02*
X31349549Y50293996D01*
X31349549Y50293996D02*
X31278121Y50151139D01*
X31278121Y50151139D02*
X31135263Y50079711D01*
X31135263Y50079711D02*
X30563835Y50079711D01*
X30563835Y50079711D02*
X30420978Y50151139D01*
X30420978Y50151139D02*
X30349549Y50293996D01*
X30349549Y50293996D02*
X30349549Y50579711D01*
X30349549Y50579711D02*
X30420978Y50722568D01*
X30420978Y50722568D02*
X30563835Y50793996D01*
X30563835Y50793996D02*
X30706692Y50793996D01*
X30706692Y50793996D02*
X30849549Y50079711D01*
X31349549Y51436853D02*
X30349549Y51436853D01*
X30635263Y51436853D02*
X30492406Y51508282D01*
X30492406Y51508282D02*
X30420978Y51579710D01*
X30420978Y51579710D02*
X30349549Y51722568D01*
X30349549Y51722568D02*
X30349549Y51865425D01*
X31278121Y52436853D02*
X31349549Y52436853D01*
X31349549Y52436853D02*
X31492406Y52365424D01*
X31492406Y52365424D02*
X31563835Y52293996D01*
X30349549Y54865424D02*
X31349549Y54865424D01*
X29778121Y54508282D02*
X30849549Y54151139D01*
X30849549Y54151139D02*
X30849549Y55079710D01*
X31349549Y55651138D02*
X30349549Y55651138D01*
X30492406Y55651138D02*
X30420978Y55722567D01*
X30420978Y55722567D02*
X30349549Y55865424D01*
X30349549Y55865424D02*
X30349549Y56079710D01*
X30349549Y56079710D02*
X30420978Y56222567D01*
X30420978Y56222567D02*
X30563835Y56293995D01*
X30563835Y56293995D02*
X31349549Y56293995D01*
X30563835Y56293995D02*
X30420978Y56365424D01*
X30420978Y56365424D02*
X30349549Y56508281D01*
X30349549Y56508281D02*
X30349549Y56722567D01*
X30349549Y56722567D02*
X30420978Y56865424D01*
X30420978Y56865424D02*
X30563835Y56936853D01*
X30563835Y56936853D02*
X31349549Y56936853D01*
X31349549Y57651138D02*
X30349549Y57651138D01*
X30492406Y57651138D02*
X30420978Y57722567D01*
X30420978Y57722567D02*
X30349549Y57865424D01*
X30349549Y57865424D02*
X30349549Y58079710D01*
X30349549Y58079710D02*
X30420978Y58222567D01*
X30420978Y58222567D02*
X30563835Y58293995D01*
X30563835Y58293995D02*
X31349549Y58293995D01*
X30563835Y58293995D02*
X30420978Y58365424D01*
X30420978Y58365424D02*
X30349549Y58508281D01*
X30349549Y58508281D02*
X30349549Y58722567D01*
X30349549Y58722567D02*
X30420978Y58865424D01*
X30420978Y58865424D02*
X30563835Y58936853D01*
X30563835Y58936853D02*
X31349549Y58936853D01*
X31349549Y60793995D02*
X30349549Y60793995D01*
X29849549Y60793995D02*
X29920978Y60722567D01*
X29920978Y60722567D02*
X29992406Y60793995D01*
X29992406Y60793995D02*
X29920978Y60865424D01*
X29920978Y60865424D02*
X29849549Y60793995D01*
X29849549Y60793995D02*
X29992406Y60793995D01*
X30349549Y61508281D02*
X31349549Y61508281D01*
X30492406Y61508281D02*
X30420978Y61579710D01*
X30420978Y61579710D02*
X30349549Y61722567D01*
X30349549Y61722567D02*
X30349549Y61936853D01*
X30349549Y61936853D02*
X30420978Y62079710D01*
X30420978Y62079710D02*
X30563835Y62151138D01*
X30563835Y62151138D02*
X31349549Y62151138D01*
X30349549Y62865424D02*
X31349549Y62865424D01*
X30492406Y62865424D02*
X30420978Y62936853D01*
X30420978Y62936853D02*
X30349549Y63079710D01*
X30349549Y63079710D02*
X30349549Y63293996D01*
X30349549Y63293996D02*
X30420978Y63436853D01*
X30420978Y63436853D02*
X30563835Y63508281D01*
X30563835Y63508281D02*
X31349549Y63508281D01*
X31278121Y64793996D02*
X31349549Y64651139D01*
X31349549Y64651139D02*
X31349549Y64365424D01*
X31349549Y64365424D02*
X31278121Y64222567D01*
X31278121Y64222567D02*
X31135263Y64151139D01*
X31135263Y64151139D02*
X30563835Y64151139D01*
X30563835Y64151139D02*
X30420978Y64222567D01*
X30420978Y64222567D02*
X30349549Y64365424D01*
X30349549Y64365424D02*
X30349549Y64651139D01*
X30349549Y64651139D02*
X30420978Y64793996D01*
X30420978Y64793996D02*
X30563835Y64865424D01*
X30563835Y64865424D02*
X30706692Y64865424D01*
X30706692Y64865424D02*
X30849549Y64151139D01*
X31349549Y65508281D02*
X30349549Y65508281D01*
X30635263Y65508281D02*
X30492406Y65579710D01*
X30492406Y65579710D02*
X30420978Y65651138D01*
X30420978Y65651138D02*
X30349549Y65793996D01*
X30349549Y65793996D02*
X30349549Y65936853D01*
X32849549Y66219991D02*
X32849549Y65362848D01*
X32849549Y65791419D02*
X31349549Y65791419D01*
X31349549Y65791419D02*
X31563835Y65648562D01*
X31563835Y65648562D02*
X31706692Y65505705D01*
X31706692Y65505705D02*
X31778121Y65362848D01*
X31349549Y67577133D02*
X31349549Y66862847D01*
X31349549Y66862847D02*
X32063835Y66791419D01*
X32063835Y66791419D02*
X31992406Y66862847D01*
X31992406Y66862847D02*
X31920978Y67005704D01*
X31920978Y67005704D02*
X31920978Y67362847D01*
X31920978Y67362847D02*
X31992406Y67505704D01*
X31992406Y67505704D02*
X32063835Y67577133D01*
X32063835Y67577133D02*
X32206692Y67648562D01*
X32206692Y67648562D02*
X32563835Y67648562D01*
X32563835Y67648562D02*
X32706692Y67577133D01*
X32706692Y67577133D02*
X32778121Y67505704D01*
X32778121Y67505704D02*
X32849549Y67362847D01*
X32849549Y67362847D02*
X32849549Y67005704D01*
X32849549Y67005704D02*
X32778121Y66862847D01*
X32778121Y66862847D02*
X32706692Y66791419D01*
X32849549Y68291418D02*
X31849549Y68291418D01*
X31992406Y68291418D02*
X31920978Y68362847D01*
X31920978Y68362847D02*
X31849549Y68505704D01*
X31849549Y68505704D02*
X31849549Y68719990D01*
X31849549Y68719990D02*
X31920978Y68862847D01*
X31920978Y68862847D02*
X32063835Y68934275D01*
X32063835Y68934275D02*
X32849549Y68934275D01*
X32063835Y68934275D02*
X31920978Y69005704D01*
X31920978Y69005704D02*
X31849549Y69148561D01*
X31849549Y69148561D02*
X31849549Y69362847D01*
X31849549Y69362847D02*
X31920978Y69505704D01*
X31920978Y69505704D02*
X32063835Y69577133D01*
X32063835Y69577133D02*
X32849549Y69577133D01*
X32849549Y70291418D02*
X31849549Y70291418D01*
X31992406Y70291418D02*
X31920978Y70362847D01*
X31920978Y70362847D02*
X31849549Y70505704D01*
X31849549Y70505704D02*
X31849549Y70719990D01*
X31849549Y70719990D02*
X31920978Y70862847D01*
X31920978Y70862847D02*
X32063835Y70934275D01*
X32063835Y70934275D02*
X32849549Y70934275D01*
X32063835Y70934275D02*
X31920978Y71005704D01*
X31920978Y71005704D02*
X31849549Y71148561D01*
X31849549Y71148561D02*
X31849549Y71362847D01*
X31849549Y71362847D02*
X31920978Y71505704D01*
X31920978Y71505704D02*
X32063835Y71577133D01*
X32063835Y71577133D02*
X32849549Y71577133D01*
X32849549Y73648561D02*
X32778121Y73505704D01*
X32778121Y73505704D02*
X32706692Y73434275D01*
X32706692Y73434275D02*
X32563835Y73362847D01*
X32563835Y73362847D02*
X32135263Y73362847D01*
X32135263Y73362847D02*
X31992406Y73434275D01*
X31992406Y73434275D02*
X31920978Y73505704D01*
X31920978Y73505704D02*
X31849549Y73648561D01*
X31849549Y73648561D02*
X31849549Y73862847D01*
X31849549Y73862847D02*
X31920978Y74005704D01*
X31920978Y74005704D02*
X31992406Y74077132D01*
X31992406Y74077132D02*
X32135263Y74148561D01*
X32135263Y74148561D02*
X32563835Y74148561D01*
X32563835Y74148561D02*
X32706692Y74077132D01*
X32706692Y74077132D02*
X32778121Y74005704D01*
X32778121Y74005704D02*
X32849549Y73862847D01*
X32849549Y73862847D02*
X32849549Y73648561D01*
X31849549Y75434275D02*
X32849549Y75434275D01*
X31849549Y74791418D02*
X32635263Y74791418D01*
X32635263Y74791418D02*
X32778121Y74862847D01*
X32778121Y74862847D02*
X32849549Y75005704D01*
X32849549Y75005704D02*
X32849549Y75219990D01*
X32849549Y75219990D02*
X32778121Y75362847D01*
X32778121Y75362847D02*
X32706692Y75434275D01*
X31849549Y75934276D02*
X31849549Y76505704D01*
X31349549Y76148561D02*
X32635263Y76148561D01*
X32635263Y76148561D02*
X32778121Y76219990D01*
X32778121Y76219990D02*
X32849549Y76362847D01*
X32849549Y76362847D02*
X32849549Y76505704D01*
X32778121Y77577133D02*
X32849549Y77434276D01*
X32849549Y77434276D02*
X32849549Y77148561D01*
X32849549Y77148561D02*
X32778121Y77005704D01*
X32778121Y77005704D02*
X32635263Y76934276D01*
X32635263Y76934276D02*
X32063835Y76934276D01*
X32063835Y76934276D02*
X31920978Y77005704D01*
X31920978Y77005704D02*
X31849549Y77148561D01*
X31849549Y77148561D02*
X31849549Y77434276D01*
X31849549Y77434276D02*
X31920978Y77577133D01*
X31920978Y77577133D02*
X32063835Y77648561D01*
X32063835Y77648561D02*
X32206692Y77648561D01*
X32206692Y77648561D02*
X32349549Y76934276D01*
X32849549Y78291418D02*
X31849549Y78291418D01*
X32135263Y78291418D02*
X31992406Y78362847D01*
X31992406Y78362847D02*
X31920978Y78434275D01*
X31920978Y78434275D02*
X31849549Y78577133D01*
X31849549Y78577133D02*
X31849549Y78719990D01*
X32778121Y79291418D02*
X32849549Y79291418D01*
X32849549Y79291418D02*
X32992406Y79219989D01*
X32992406Y79219989D02*
X33063835Y79148561D01*
X31349549Y80934275D02*
X31349549Y81934275D01*
X31349549Y81934275D02*
X32849549Y81291418D01*
X32706692Y82505703D02*
X32778121Y82577132D01*
X32778121Y82577132D02*
X32849549Y82505703D01*
X32849549Y82505703D02*
X32778121Y82434275D01*
X32778121Y82434275D02*
X32706692Y82505703D01*
X32706692Y82505703D02*
X32849549Y82505703D01*
X31349549Y83934275D02*
X31349549Y83219989D01*
X31349549Y83219989D02*
X32063835Y83148561D01*
X32063835Y83148561D02*
X31992406Y83219989D01*
X31992406Y83219989D02*
X31920978Y83362846D01*
X31920978Y83362846D02*
X31920978Y83719989D01*
X31920978Y83719989D02*
X31992406Y83862846D01*
X31992406Y83862846D02*
X32063835Y83934275D01*
X32063835Y83934275D02*
X32206692Y84005704D01*
X32206692Y84005704D02*
X32563835Y84005704D01*
X32563835Y84005704D02*
X32706692Y83934275D01*
X32706692Y83934275D02*
X32778121Y83862846D01*
X32778121Y83862846D02*
X32849549Y83719989D01*
X32849549Y83719989D02*
X32849549Y83362846D01*
X32849549Y83362846D02*
X32778121Y83219989D01*
X32778121Y83219989D02*
X32706692Y83148561D01*
X32849549Y84648560D02*
X31849549Y84648560D01*
X31992406Y84648560D02*
X31920978Y84719989D01*
X31920978Y84719989D02*
X31849549Y84862846D01*
X31849549Y84862846D02*
X31849549Y85077132D01*
X31849549Y85077132D02*
X31920978Y85219989D01*
X31920978Y85219989D02*
X32063835Y85291417D01*
X32063835Y85291417D02*
X32849549Y85291417D01*
X32063835Y85291417D02*
X31920978Y85362846D01*
X31920978Y85362846D02*
X31849549Y85505703D01*
X31849549Y85505703D02*
X31849549Y85719989D01*
X31849549Y85719989D02*
X31920978Y85862846D01*
X31920978Y85862846D02*
X32063835Y85934275D01*
X32063835Y85934275D02*
X32849549Y85934275D01*
X32849549Y86648560D02*
X31849549Y86648560D01*
X31992406Y86648560D02*
X31920978Y86719989D01*
X31920978Y86719989D02*
X31849549Y86862846D01*
X31849549Y86862846D02*
X31849549Y87077132D01*
X31849549Y87077132D02*
X31920978Y87219989D01*
X31920978Y87219989D02*
X32063835Y87291417D01*
X32063835Y87291417D02*
X32849549Y87291417D01*
X32063835Y87291417D02*
X31920978Y87362846D01*
X31920978Y87362846D02*
X31849549Y87505703D01*
X31849549Y87505703D02*
X31849549Y87719989D01*
X31849549Y87719989D02*
X31920978Y87862846D01*
X31920978Y87862846D02*
X32063835Y87934275D01*
X32063835Y87934275D02*
X32849549Y87934275D01*
X32849549Y89791417D02*
X31849549Y89791417D01*
X31349549Y89791417D02*
X31420978Y89719989D01*
X31420978Y89719989D02*
X31492406Y89791417D01*
X31492406Y89791417D02*
X31420978Y89862846D01*
X31420978Y89862846D02*
X31349549Y89791417D01*
X31349549Y89791417D02*
X31492406Y89791417D01*
X31849549Y90505703D02*
X32849549Y90505703D01*
X31992406Y90505703D02*
X31920978Y90577132D01*
X31920978Y90577132D02*
X31849549Y90719989D01*
X31849549Y90719989D02*
X31849549Y90934275D01*
X31849549Y90934275D02*
X31920978Y91077132D01*
X31920978Y91077132D02*
X32063835Y91148560D01*
X32063835Y91148560D02*
X32849549Y91148560D01*
X31849549Y91862846D02*
X32849549Y91862846D01*
X31992406Y91862846D02*
X31920978Y91934275D01*
X31920978Y91934275D02*
X31849549Y92077132D01*
X31849549Y92077132D02*
X31849549Y92291418D01*
X31849549Y92291418D02*
X31920978Y92434275D01*
X31920978Y92434275D02*
X32063835Y92505703D01*
X32063835Y92505703D02*
X32849549Y92505703D01*
X32778121Y93791418D02*
X32849549Y93648561D01*
X32849549Y93648561D02*
X32849549Y93362846D01*
X32849549Y93362846D02*
X32778121Y93219989D01*
X32778121Y93219989D02*
X32635263Y93148561D01*
X32635263Y93148561D02*
X32063835Y93148561D01*
X32063835Y93148561D02*
X31920978Y93219989D01*
X31920978Y93219989D02*
X31849549Y93362846D01*
X31849549Y93362846D02*
X31849549Y93648561D01*
X31849549Y93648561D02*
X31920978Y93791418D01*
X31920978Y93791418D02*
X32063835Y93862846D01*
X32063835Y93862846D02*
X32206692Y93862846D01*
X32206692Y93862846D02*
X32349549Y93148561D01*
X32849549Y94505703D02*
X31849549Y94505703D01*
X32135263Y94505703D02*
X31992406Y94577132D01*
X31992406Y94577132D02*
X31920978Y94648560D01*
X31920978Y94648560D02*
X31849549Y94791418D01*
X31849549Y94791418D02*
X31849549Y94934275D01*
X129740087Y92974767D02*
X129668659Y93046195D01*
X129668659Y93046195D02*
X129597230Y93189052D01*
X129597230Y93189052D02*
X129597230Y93546195D01*
X129597230Y93546195D02*
X129668659Y93689052D01*
X129668659Y93689052D02*
X129740087Y93760481D01*
X129740087Y93760481D02*
X129882944Y93831910D01*
X129882944Y93831910D02*
X130025802Y93831910D01*
X130025802Y93831910D02*
X130240087Y93760481D01*
X130240087Y93760481D02*
X131097230Y92903338D01*
X131097230Y92903338D02*
X131097230Y93831910D01*
X129597230Y94760481D02*
X129597230Y94903338D01*
X129597230Y94903338D02*
X129668659Y95046195D01*
X129668659Y95046195D02*
X129740087Y95117623D01*
X129740087Y95117623D02*
X129882944Y95189052D01*
X129882944Y95189052D02*
X130168659Y95260481D01*
X130168659Y95260481D02*
X130525802Y95260481D01*
X130525802Y95260481D02*
X130811516Y95189052D01*
X130811516Y95189052D02*
X130954373Y95117623D01*
X130954373Y95117623D02*
X131025802Y95046195D01*
X131025802Y95046195D02*
X131097230Y94903338D01*
X131097230Y94903338D02*
X131097230Y94760481D01*
X131097230Y94760481D02*
X131025802Y94617623D01*
X131025802Y94617623D02*
X130954373Y94546195D01*
X130954373Y94546195D02*
X130811516Y94474766D01*
X130811516Y94474766D02*
X130525802Y94403338D01*
X130525802Y94403338D02*
X130168659Y94403338D01*
X130168659Y94403338D02*
X129882944Y94474766D01*
X129882944Y94474766D02*
X129740087Y94546195D01*
X129740087Y94546195D02*
X129668659Y94617623D01*
X129668659Y94617623D02*
X129597230Y94760481D01*
X131097230Y95903337D02*
X130097230Y95903337D01*
X130240087Y95903337D02*
X130168659Y95974766D01*
X130168659Y95974766D02*
X130097230Y96117623D01*
X130097230Y96117623D02*
X130097230Y96331909D01*
X130097230Y96331909D02*
X130168659Y96474766D01*
X130168659Y96474766D02*
X130311516Y96546194D01*
X130311516Y96546194D02*
X131097230Y96546194D01*
X130311516Y96546194D02*
X130168659Y96617623D01*
X130168659Y96617623D02*
X130097230Y96760480D01*
X130097230Y96760480D02*
X130097230Y96974766D01*
X130097230Y96974766D02*
X130168659Y97117623D01*
X130168659Y97117623D02*
X130311516Y97189052D01*
X130311516Y97189052D02*
X131097230Y97189052D01*
X131097230Y97903337D02*
X130097230Y97903337D01*
X130240087Y97903337D02*
X130168659Y97974766D01*
X130168659Y97974766D02*
X130097230Y98117623D01*
X130097230Y98117623D02*
X130097230Y98331909D01*
X130097230Y98331909D02*
X130168659Y98474766D01*
X130168659Y98474766D02*
X130311516Y98546194D01*
X130311516Y98546194D02*
X131097230Y98546194D01*
X130311516Y98546194D02*
X130168659Y98617623D01*
X130168659Y98617623D02*
X130097230Y98760480D01*
X130097230Y98760480D02*
X130097230Y98974766D01*
X130097230Y98974766D02*
X130168659Y99117623D01*
X130168659Y99117623D02*
X130311516Y99189052D01*
X130311516Y99189052D02*
X131097230Y99189052D01*
X131097230Y101260480D02*
X131025802Y101117623D01*
X131025802Y101117623D02*
X130954373Y101046194D01*
X130954373Y101046194D02*
X130811516Y100974766D01*
X130811516Y100974766D02*
X130382944Y100974766D01*
X130382944Y100974766D02*
X130240087Y101046194D01*
X130240087Y101046194D02*
X130168659Y101117623D01*
X130168659Y101117623D02*
X130097230Y101260480D01*
X130097230Y101260480D02*
X130097230Y101474766D01*
X130097230Y101474766D02*
X130168659Y101617623D01*
X130168659Y101617623D02*
X130240087Y101689051D01*
X130240087Y101689051D02*
X130382944Y101760480D01*
X130382944Y101760480D02*
X130811516Y101760480D01*
X130811516Y101760480D02*
X130954373Y101689051D01*
X130954373Y101689051D02*
X131025802Y101617623D01*
X131025802Y101617623D02*
X131097230Y101474766D01*
X131097230Y101474766D02*
X131097230Y101260480D01*
X130097230Y103046194D02*
X131097230Y103046194D01*
X130097230Y102403337D02*
X130882944Y102403337D01*
X130882944Y102403337D02*
X131025802Y102474766D01*
X131025802Y102474766D02*
X131097230Y102617623D01*
X131097230Y102617623D02*
X131097230Y102831909D01*
X131097230Y102831909D02*
X131025802Y102974766D01*
X131025802Y102974766D02*
X130954373Y103046194D01*
X130097230Y103546195D02*
X130097230Y104117623D01*
X129597230Y103760480D02*
X130882944Y103760480D01*
X130882944Y103760480D02*
X131025802Y103831909D01*
X131025802Y103831909D02*
X131097230Y103974766D01*
X131097230Y103974766D02*
X131097230Y104117623D01*
X131025802Y105189052D02*
X131097230Y105046195D01*
X131097230Y105046195D02*
X131097230Y104760480D01*
X131097230Y104760480D02*
X131025802Y104617623D01*
X131025802Y104617623D02*
X130882944Y104546195D01*
X130882944Y104546195D02*
X130311516Y104546195D01*
X130311516Y104546195D02*
X130168659Y104617623D01*
X130168659Y104617623D02*
X130097230Y104760480D01*
X130097230Y104760480D02*
X130097230Y105046195D01*
X130097230Y105046195D02*
X130168659Y105189052D01*
X130168659Y105189052D02*
X130311516Y105260480D01*
X130311516Y105260480D02*
X130454373Y105260480D01*
X130454373Y105260480D02*
X130597230Y104546195D01*
X131097230Y105903337D02*
X130097230Y105903337D01*
X130382944Y105903337D02*
X130240087Y105974766D01*
X130240087Y105974766D02*
X130168659Y106046194D01*
X130168659Y106046194D02*
X130097230Y106189052D01*
X130097230Y106189052D02*
X130097230Y106331909D01*
X131025802Y106903337D02*
X131097230Y106903337D01*
X131097230Y106903337D02*
X131240087Y106831908D01*
X131240087Y106831908D02*
X131311516Y106760480D01*
X131097230Y109474766D02*
X131097230Y108617623D01*
X131097230Y109046194D02*
X129597230Y109046194D01*
X129597230Y109046194D02*
X129811516Y108903337D01*
X129811516Y108903337D02*
X129954373Y108760480D01*
X129954373Y108760480D02*
X130025802Y108617623D01*
X129597230Y110403337D02*
X129597230Y110546194D01*
X129597230Y110546194D02*
X129668659Y110689051D01*
X129668659Y110689051D02*
X129740087Y110760479D01*
X129740087Y110760479D02*
X129882944Y110831908D01*
X129882944Y110831908D02*
X130168659Y110903337D01*
X130168659Y110903337D02*
X130525802Y110903337D01*
X130525802Y110903337D02*
X130811516Y110831908D01*
X130811516Y110831908D02*
X130954373Y110760479D01*
X130954373Y110760479D02*
X131025802Y110689051D01*
X131025802Y110689051D02*
X131097230Y110546194D01*
X131097230Y110546194D02*
X131097230Y110403337D01*
X131097230Y110403337D02*
X131025802Y110260479D01*
X131025802Y110260479D02*
X130954373Y110189051D01*
X130954373Y110189051D02*
X130811516Y110117622D01*
X130811516Y110117622D02*
X130525802Y110046194D01*
X130525802Y110046194D02*
X130168659Y110046194D01*
X130168659Y110046194D02*
X129882944Y110117622D01*
X129882944Y110117622D02*
X129740087Y110189051D01*
X129740087Y110189051D02*
X129668659Y110260479D01*
X129668659Y110260479D02*
X129597230Y110403337D01*
X131097230Y111546193D02*
X130097230Y111546193D01*
X130240087Y111546193D02*
X130168659Y111617622D01*
X130168659Y111617622D02*
X130097230Y111760479D01*
X130097230Y111760479D02*
X130097230Y111974765D01*
X130097230Y111974765D02*
X130168659Y112117622D01*
X130168659Y112117622D02*
X130311516Y112189050D01*
X130311516Y112189050D02*
X131097230Y112189050D01*
X130311516Y112189050D02*
X130168659Y112260479D01*
X130168659Y112260479D02*
X130097230Y112403336D01*
X130097230Y112403336D02*
X130097230Y112617622D01*
X130097230Y112617622D02*
X130168659Y112760479D01*
X130168659Y112760479D02*
X130311516Y112831908D01*
X130311516Y112831908D02*
X131097230Y112831908D01*
X131097230Y113546193D02*
X130097230Y113546193D01*
X130240087Y113546193D02*
X130168659Y113617622D01*
X130168659Y113617622D02*
X130097230Y113760479D01*
X130097230Y113760479D02*
X130097230Y113974765D01*
X130097230Y113974765D02*
X130168659Y114117622D01*
X130168659Y114117622D02*
X130311516Y114189050D01*
X130311516Y114189050D02*
X131097230Y114189050D01*
X130311516Y114189050D02*
X130168659Y114260479D01*
X130168659Y114260479D02*
X130097230Y114403336D01*
X130097230Y114403336D02*
X130097230Y114617622D01*
X130097230Y114617622D02*
X130168659Y114760479D01*
X130168659Y114760479D02*
X130311516Y114831908D01*
X130311516Y114831908D02*
X131097230Y114831908D01*
X131097230Y116689050D02*
X130097230Y116689050D01*
X129597230Y116689050D02*
X129668659Y116617622D01*
X129668659Y116617622D02*
X129740087Y116689050D01*
X129740087Y116689050D02*
X129668659Y116760479D01*
X129668659Y116760479D02*
X129597230Y116689050D01*
X129597230Y116689050D02*
X129740087Y116689050D01*
X130097230Y117403336D02*
X131097230Y117403336D01*
X130240087Y117403336D02*
X130168659Y117474765D01*
X130168659Y117474765D02*
X130097230Y117617622D01*
X130097230Y117617622D02*
X130097230Y117831908D01*
X130097230Y117831908D02*
X130168659Y117974765D01*
X130168659Y117974765D02*
X130311516Y118046193D01*
X130311516Y118046193D02*
X131097230Y118046193D01*
X130097230Y118760479D02*
X131097230Y118760479D01*
X130240087Y118760479D02*
X130168659Y118831908D01*
X130168659Y118831908D02*
X130097230Y118974765D01*
X130097230Y118974765D02*
X130097230Y119189051D01*
X130097230Y119189051D02*
X130168659Y119331908D01*
X130168659Y119331908D02*
X130311516Y119403336D01*
X130311516Y119403336D02*
X131097230Y119403336D01*
X131025802Y120689051D02*
X131097230Y120546194D01*
X131097230Y120546194D02*
X131097230Y120260479D01*
X131097230Y120260479D02*
X131025802Y120117622D01*
X131025802Y120117622D02*
X130882944Y120046194D01*
X130882944Y120046194D02*
X130311516Y120046194D01*
X130311516Y120046194D02*
X130168659Y120117622D01*
X130168659Y120117622D02*
X130097230Y120260479D01*
X130097230Y120260479D02*
X130097230Y120546194D01*
X130097230Y120546194D02*
X130168659Y120689051D01*
X130168659Y120689051D02*
X130311516Y120760479D01*
X130311516Y120760479D02*
X130454373Y120760479D01*
X130454373Y120760479D02*
X130597230Y120046194D01*
X131097230Y121403336D02*
X130097230Y121403336D01*
X130382944Y121403336D02*
X130240087Y121474765D01*
X130240087Y121474765D02*
X130168659Y121546193D01*
X130168659Y121546193D02*
X130097230Y121689051D01*
X130097230Y121689051D02*
X130097230Y121831908D01*
D11*
%TO.C,H1*%
X3200000Y91370000D02*
G75*
G03*
X3200000Y91370000I-3200000J0D01*
G01*
%TO.C,H2*%
X144932000Y91370000D02*
G75*
G03*
X144932000Y91370000I-3200000J0D01*
G01*
%TO.C,H3*%
X3200000Y0D02*
G75*
G03*
X3200000Y0I-3200000J0D01*
G01*
%TO.C,H4*%
X144932000Y-254000D02*
G75*
G03*
X144932000Y-254000I-3200000J0D01*
G01*
%TD*%
M02*
