M48
; DRILL file {KiCad 7.0.7} date 2024 March 09, Saturday 13:17:10
; FORMAT={-:-/ absolute / inch / decimal}
; #@! TF.CreationDate,2024-03-09T13:17:10+01:00
; #@! TF.GenerationSoftware,Kicad,Pcbnew,7.0.7
; #@! TF.FileFunction,Plated,1,4,PTH
FMAT,2
INCH
; #@! TA.AperFunction,Plated,PTH,ViaDrill
T1C0.0118
; #@! TA.AperFunction,Plated,PTH,ComponentDrill
T2C0.0256
; #@! TA.AperFunction,Plated,PTH,ComponentDrill
T3C0.0394
; #@! TA.AperFunction,Plated,PTH,ComponentDrill
T4C0.0472
; #@! TA.AperFunction,Plated,PTH,ComponentDrill
T5C0.0630
%
G90
G05
T1
X0.21Y1.38
X0.2123Y1.4677
X0.27Y1.83
X0.32Y2.44
X0.39Y3.63
X0.41Y3.55
X0.61Y0.94
X0.72Y2.14
X0.81Y3.28
X1.24Y1.4677
X1.25Y1.84
X1.25Y1.4
X1.3Y2.44
X1.35Y3.63
X1.35Y3.56
X1.41Y0.28
X1.45Y0.85
X1.66Y0.24
X1.67Y2.15
X1.69Y0.94
X1.73Y0.17
X1.78Y3.28
X1.84Y0.57
X1.87Y0.0
X1.88Y0.63
X1.93Y2.26
X2.04Y0.51
X2.23Y1.84
X2.25Y3.63
X2.26Y1.4677
X2.28Y3.56
X2.28Y1.4
X2.44Y0.64
X2.45Y0.84
X2.45Y-0.05
X2.52Y0.84
X2.57Y0.02
X2.61Y0.88
X2.61Y0.01
X2.62Y1.03
X2.62Y0.8
X2.63Y2.76
X2.63Y2.61
X2.63Y2.03
X2.63Y1.88
X2.63Y1.4
X2.63Y1.37
X2.63Y1.34
X2.64Y1.19
X2.65Y0.7
X2.6988Y3.37
X2.6988Y1.41
X2.7Y0.41
X2.7Y0.24
X2.72Y1.86
X2.72Y0.7
X2.73Y0.8504
X2.7388Y2.16
X2.75Y3.26
X2.7512Y2.7
X2.76Y1.97
X2.76Y0.02
X2.77Y0.7
X2.785Y0.9
X2.7888Y1.88
X2.7888Y2.63
X2.79Y3.53
X2.81Y2.66
X2.81Y1.9
X2.81Y0.93
X2.83Y3.3
X2.8312Y2.81
X2.8312Y1.95
X2.84Y1.09
X2.84Y0.01
X2.849Y3.371
X2.85Y2.45
X2.8588Y2.54
X2.8588Y1.42
X2.88Y3.52
X2.88Y1.34
X2.9Y3.74
X2.9Y0.03
X2.93Y0.41
X2.93Y0.24
X2.95Y1.24
X2.95Y1.21
X2.95Y1.18
X2.95Y1.15
X2.95Y0.8
X2.9706Y0.0588
X3.01Y1.4677
X3.02Y1.6112
X3.04Y0.85
X3.06Y0.73
X3.22Y2.77
X3.22Y0.73
X3.2647Y3.2869
X3.2647Y3.0821
X3.28Y1.83
X3.28Y1.67
X3.2844Y2.2027
X3.2844Y2.0073
X3.3Y1.4
X3.3Y0.01
X3.31Y0.15
X3.31Y0.08
X3.31Y-0.06
X3.4Y1.4677
X3.42Y1.77
X3.52Y2.63
X3.72Y2.97
X3.7724Y2.1834
X3.87Y0.05
X3.87Y-0.01
X3.87Y-0.08
X3.92Y0.94
X4.07Y0.69
X4.11Y0.59
X4.12Y1.81
X4.16Y0.2
X4.21Y2.76
X4.2169Y3.2869
X4.2169Y3.0821
X4.25Y0.62
X4.27Y0.2
X4.276Y2.0073
X4.28Y2.2
X4.3233Y0.62
X4.33Y1.4
X4.3967Y0.62
X4.43Y1.4677
X4.45Y0.2
X4.47Y0.62
X4.56Y0.2
X4.6Y0.58
X4.63Y2.99
X4.795Y2.18
X4.84Y0.69
X4.93Y0.93
X5.11Y1.82
X5.1691Y3.0851
X5.17Y3.29
X5.17Y2.75
X5.2676Y2.0113
X5.27Y2.21
X5.27Y1.4677
X5.35Y0.82
X5.35Y0.25
X5.36Y1.4
X5.39Y0.62
X5.39Y0.46
X5.42Y0.666
X5.42Y0.4114
X5.59Y0.92
X5.65Y0.92
T2
X1.6452Y-0.06
X1.6952Y-0.06
X1.7452Y-0.06
X1.7952Y-0.06
T3
X5.0002Y0.0304
X5.1002Y0.0304
T4
X0.4152Y0.2816
X0.74Y0.682
X0.74Y0.532
X1.0148Y0.532
T5
X0.59Y0.682
X0.89Y0.682
T0
M30
